<svg id="Capa_1" enable-background="new 0 0 551.13 551.13" height="512" viewBox="0 0 551.13 551.13" width="512" xmlns="http://www.w3.org/2000/svg"><path d="m275.565 103.337c9.52 0 17.223-7.703 17.223-17.223v-68.891c0-9.52-7.703-17.223-17.223-17.223s-17.223 7.703-17.223 17.223v68.891c0 9.52 7.703 17.223 17.223 17.223z"/><path d="m275.565 447.793c-9.52 0-17.223 7.703-17.223 17.223v68.891c0 9.52 7.703 17.223 17.223 17.223s17.223-7.703 17.223-17.223v-68.891c0-9.52-7.703-17.223-17.223-17.223z"/><path d="m533.907 258.342h-68.891c-9.52 0-17.223 7.703-17.223 17.223s7.703 17.223 17.223 17.223h68.891c9.52 0 17.223-7.703 17.223-17.223s-7.703-17.223-17.223-17.223z"/><path d="m103.337 275.565c0-9.52-7.703-17.223-17.223-17.223h-68.891c-9.52 0-17.223 7.703-17.223 17.223s7.703 17.223 17.223 17.223h68.891c9.52 0 17.223-7.703 17.223-17.223z"/><path d="m409.529 158.823c4.407 0 8.813-1.682 12.177-5.046l48.708-48.708c6.728-6.728 6.728-17.626 0-24.354s-17.626-6.728-24.354 0l-48.708 48.708c-6.728 6.728-6.728 17.626 0 24.354 3.363 3.364 7.77 5.046 12.177 5.046z"/><path d="m129.424 397.351-48.709 48.709c-6.728 6.728-6.728 17.626 0 24.354 3.364 3.364 7.77 5.046 12.177 5.046s8.813-1.682 12.177-5.046l48.708-48.708c6.728-6.728 6.728-17.626 0-24.354s-17.626-6.728-24.353-.001z"/><path d="m421.706 397.351c-6.728-6.728-17.626-6.728-24.354 0s-6.728 17.626 0 24.354l48.708 48.708c3.364 3.364 7.77 5.046 12.177 5.046s8.813-1.682 12.177-5.046c6.728-6.728 6.728-17.626 0-24.354 0 .001-48.708-48.708-48.708-48.708z"/><path d="m129.423 153.778c3.364 3.364 7.77 5.046 12.177 5.046s8.813-1.682 12.177-5.046c6.728-6.728 6.728-17.626 0-24.354l-48.708-48.708c-6.728-6.728-17.626-6.728-24.354 0s-6.728 17.626 0 24.354c0 0 48.708 48.708 48.708 48.708z"/><path d="m275.565 137.783c-75.972 0-137.783 61.81-137.783 137.783s61.81 137.783 137.783 137.783 137.783-61.81 137.783-137.783-61.811-137.783-137.783-137.783zm0 241.119c-56.983 0-103.337-46.354-103.337-103.337s46.353-103.337 103.337-103.337 103.337 46.353 103.337 103.337-46.354 103.337-103.337 103.337z"/></svg>