<svg id="Capa_1" enable-background="new 0 0 451.112 451.112" height="512" viewBox="0 0 451.112 451.112" width="512" xmlns="http://www.w3.org/2000/svg" fill="white"><path d="m271.125 18.875c25.167 25.167 25.167 65.971 0 91.138s-65.971 25.167-91.138 0-25.167-65.971 0-91.138 65.971-25.167 91.138 0"/><path d="m432.235 18.875c25.167 25.167 25.167 65.971 0 91.138s-65.971 25.167-91.138 0-25.167-65.971 0-91.138 65.971-25.167 91.138 0"/><path d="m451.112 225.556c0-35.526-28.902-64.444-64.444-64.444s-64.444 28.918-64.444 64.444c0 29.933 20.615 54.951 48.333 62.157v36.797c-5.849 1.52-11.336 3.841-16.42 6.844l-73.269-73.269c5.66-9.586 9.133-20.615 9.133-32.529 0-35.526-28.902-64.444-64.444-64.444-29.945 0-54.951 20.623-62.155 48.333h-36.802c-5.857-22.532-23.508-40.187-46.044-46.046v-36.797c27.719-7.206 48.333-32.224 48.333-62.157 0-35.527-28.903-64.445-64.445-64.445s-64.444 28.918-64.444 64.445c0 29.933 20.615 54.951 48.333 62.157v36.797c-27.718 7.206-48.333 32.224-48.333 62.157 0 35.526 28.902 64.444 64.444 64.444 29.945 0 54.951-20.623 62.155-48.333h36.801c7.204 27.711 32.21 48.333 62.155 48.333 11.916 0 22.947-3.471 32.531-9.131l73.269 73.269c-5.66 9.586-9.133 20.615-9.133 32.529 0 35.526 28.902 64.444 64.444 64.444s64.444-28.918 64.444-64.444c0-29.933-20.615-54.951-48.333-62.157v-36.797c27.72-7.206 48.334-32.224 48.335-62.157z"/><path d="m110.014 341.097c25.167 25.167 25.167 65.971 0 91.138s-65.971 25.167-91.138 0-25.167-65.971 0-91.138c25.167-25.168 65.971-25.168 91.138 0"/><path d="m271.125 341.097c25.167 25.167 25.167 65.971 0 91.138s-65.971 25.167-91.138 0-25.167-65.971 0-91.138c25.167-25.168 65.971-25.168 91.138 0"/></svg>