<svg width="930" height="316" viewBox="0 0 930 316" fill="none" xmlns="http://www.w3.org/2000/svg">
<rect width="930" height="316" fill="white"/>
<rect x="744.5" y="132.5" width="36" height="36" fill="black" stroke="black"/>
<rect x="176" y="151" width="37" height="37" stroke="#CCCCCC"/>
<rect x="139" y="114" width="37" height="37" stroke="#CCCCCC"/>
<rect x="176" y="114" width="37" height="37" stroke="#CCCCCC"/>
<rect x="102" y="114" width="37" height="37" stroke="#CCCCCC"/>
<rect x="102" y="151" width="37" height="37" stroke="#CCCCCC"/>
<rect x="102" y="188" width="37" height="37" stroke="#CCCCCC"/>
<rect x="139" y="188" width="37" height="37" stroke="#CCCCCC"/>
<rect x="176" y="188" width="37" height="37" stroke="#CCCCCC"/>
<rect x="424.5" y="150.5" width="36" height="36" fill="black" stroke="black"/>
<path d="M690.5 213.5H721.5V244.5H690.5V213.5Z" fill="#F6FF33" stroke="black"/>
<path d="M747.5 213.5H779.5V244.5H747.5V213.5Z" fill="white" stroke="black"/>
<path d="M805.5 213.5H836.5V244.5H805.5V213.5Z" fill="#33FFF0" stroke="black"/>
<rect x="139.5" y="151.5" width="36" height="36" fill="black" stroke="black"/>
<path d="M706.59 59.8711V67H704.332V49.2266H710.093C710.891 49.2428 711.644 49.369 712.352 49.605C713.068 49.841 713.694 50.1828 714.231 50.6304C714.769 51.078 715.192 51.6313 715.501 52.2905C715.818 52.9497 715.977 53.7065 715.977 54.561C715.977 55.4155 715.818 56.1724 715.501 56.8315C715.192 57.4826 714.769 58.0319 714.231 58.4795C713.694 58.9271 713.068 59.2689 712.352 59.5049C711.644 59.7409 710.891 59.863 710.093 59.8711H706.59ZM706.59 58.0156H710.093C710.614 58.0075 711.094 57.9261 711.534 57.7715C711.973 57.6087 712.356 57.3809 712.681 57.0879C713.007 56.7949 713.259 56.4409 713.438 56.0259C713.625 55.6027 713.719 55.1226 713.719 54.5854C713.719 54.0483 713.625 53.5641 713.438 53.1328C713.259 52.7015 713.007 52.3353 712.681 52.0342C712.364 51.7331 711.981 51.5011 711.534 51.3384C711.094 51.1756 710.614 51.0902 710.093 51.082H706.59V58.0156ZM718.504 60.2739C718.504 59.3218 718.642 58.4388 718.919 57.625C719.196 56.8031 719.59 56.091 720.103 55.4888C720.624 54.8866 721.255 54.4146 721.995 54.0728C722.736 53.7228 723.57 53.5479 724.498 53.5479C725.433 53.5479 726.272 53.7228 727.012 54.0728C727.761 54.4146 728.392 54.8866 728.904 55.4888C729.425 56.091 729.824 56.8031 730.101 57.625C730.377 58.4388 730.516 59.3218 730.516 60.2739V60.5425C730.516 61.4946 730.377 62.3776 730.101 63.1914C729.824 64.0052 729.425 64.7132 728.904 65.3154C728.392 65.9176 727.765 66.3896 727.024 66.7314C726.284 67.0732 725.45 67.2441 724.522 67.2441C723.586 67.2441 722.744 67.0732 721.995 66.7314C721.255 66.3896 720.624 65.9176 720.103 65.3154C719.59 64.7132 719.196 64.0052 718.919 63.1914C718.642 62.3776 718.504 61.4946 718.504 60.5425V60.2739ZM720.762 60.5425C720.762 61.1935 720.84 61.8161 720.994 62.4102C721.149 62.9961 721.381 63.5129 721.69 63.9604C722.007 64.408 722.402 64.762 722.874 65.0225C723.346 65.2829 723.895 65.4131 724.522 65.4131C725.14 65.4131 725.682 65.2829 726.146 65.0225C726.618 64.762 727.008 64.408 727.317 63.9604C727.635 63.5129 727.871 62.9961 728.025 62.4102C728.18 61.8161 728.257 61.1935 728.257 60.5425V60.2739C728.257 59.631 728.176 59.0166 728.013 58.4307C727.859 57.8366 727.623 57.3158 727.305 56.8682C726.996 56.4206 726.605 56.0666 726.133 55.8062C725.669 55.5376 725.124 55.4033 724.498 55.4033C723.871 55.4033 723.326 55.5376 722.862 55.8062C722.398 56.0666 722.007 56.4206 721.69 56.8682C721.381 57.3158 721.149 57.8366 720.994 58.4307C720.84 59.0166 720.762 59.631 720.762 60.2739V60.5425ZM734.507 48.25H741.258V65.0469H745.567V67H734.507V65.0469H739V50.2153H734.507V48.25ZM757.847 67C757.758 66.8291 757.684 66.6175 757.627 66.3652C757.579 66.1048 757.542 65.8363 757.518 65.5596C757.29 65.7874 757.033 66.0031 756.749 66.2065C756.472 66.41 756.163 66.589 755.821 66.7437C755.487 66.8983 755.129 67.0203 754.747 67.1099C754.364 67.1994 753.957 67.2441 753.526 67.2441C752.826 67.2441 752.191 67.1424 751.622 66.939C751.06 66.7355 750.58 66.4629 750.181 66.1211C749.791 65.7712 749.485 65.3602 749.266 64.8882C749.054 64.408 748.948 63.8913 748.948 63.3379C748.948 62.6136 749.091 61.9788 749.375 61.4336C749.668 60.8883 750.079 60.4367 750.608 60.0786C751.137 59.7124 751.772 59.4398 752.513 59.2607C753.261 59.0817 754.096 58.9922 755.015 58.9922H757.481V57.9546C757.481 57.5558 757.408 57.1978 757.261 56.8804C757.115 56.563 756.907 56.2944 756.639 56.0747C756.37 55.8468 756.041 55.6719 755.65 55.5498C755.267 55.4277 754.836 55.3667 754.356 55.3667C753.908 55.3667 753.506 55.4237 753.147 55.5376C752.798 55.6515 752.5 55.8021 752.256 55.9893C752.012 56.1764 751.821 56.4002 751.683 56.6606C751.552 56.9129 751.487 57.1774 751.487 57.4541H749.217C749.225 56.974 749.347 56.502 749.583 56.0381C749.827 55.5742 750.173 55.1592 750.621 54.793C751.076 54.4186 751.626 54.1175 752.269 53.8896C752.92 53.6618 753.656 53.5479 754.478 53.5479C755.227 53.5479 755.923 53.6414 756.565 53.8286C757.208 54.0076 757.762 54.2843 758.226 54.6587C758.698 55.0249 759.068 55.4847 759.336 56.0381C759.605 56.5915 759.739 57.2384 759.739 57.979V64.1191C759.739 64.5586 759.78 65.0265 759.861 65.5229C759.943 66.0112 760.057 66.4385 760.203 66.8047V67H757.847ZM753.855 65.2788C754.295 65.2788 754.706 65.2218 755.088 65.1079C755.471 64.994 755.817 64.8434 756.126 64.6562C756.443 64.4691 756.716 64.2575 756.944 64.0215C757.172 63.7773 757.351 63.5251 757.481 63.2646V60.5913H755.381C754.063 60.5913 753.038 60.7866 752.305 61.1772C751.573 61.5679 751.207 62.1823 751.207 63.0205C751.207 63.346 751.259 63.6471 751.365 63.9238C751.479 64.2005 751.646 64.4406 751.866 64.644C752.085 64.8394 752.362 64.994 752.696 65.1079C753.029 65.2218 753.416 65.2788 753.855 65.2788ZM772.837 53.5479C773.049 53.5479 773.269 53.556 773.497 53.5723C773.724 53.5804 773.94 53.6007 774.144 53.6333C774.355 53.6577 774.546 53.6903 774.717 53.731C774.896 53.7716 775.043 53.8164 775.157 53.8652L774.852 56.0747C774.412 55.9771 773.993 55.9079 773.594 55.8672C773.204 55.8184 772.793 55.7939 772.361 55.7939C771.303 55.7939 770.445 56.034 769.786 56.5142C769.135 56.9943 768.654 57.6657 768.345 58.5283V67H766.075V53.792H768.223L768.333 55.8916C768.87 55.1673 769.513 54.5977 770.262 54.1826C771.019 53.7594 771.877 53.5479 772.837 53.5479ZM779.551 53.792H786.302V65.0469H790.611V67H779.551V65.0469H784.043V55.7573H779.551V53.792ZM783.75 50.3252C783.75 49.9508 783.86 49.6375 784.08 49.3853C784.308 49.1248 784.65 48.9946 785.105 48.9946C785.553 48.9946 785.891 49.1248 786.119 49.3853C786.347 49.6375 786.46 49.9508 786.46 50.3252C786.46 50.6914 786.347 50.9966 786.119 51.2407C785.891 51.4849 785.553 51.6069 785.105 51.6069C784.65 51.6069 784.308 51.4849 784.08 51.2407C783.86 50.9966 783.75 50.6914 783.75 50.3252ZM799.559 50.5938V53.792H804.588V55.5376H799.559V62.7153C799.559 63.228 799.624 63.6512 799.754 63.9849C799.884 64.3185 800.063 64.5871 800.291 64.7905C800.519 64.9858 800.779 65.1242 801.072 65.2056C801.373 65.2869 801.691 65.3276 802.024 65.3276C802.269 65.3276 802.521 65.3154 802.781 65.291C803.042 65.2585 803.294 65.2218 803.538 65.1812C803.79 65.1405 804.022 65.0998 804.234 65.0591C804.454 65.0103 804.633 64.9696 804.771 64.937L805.088 66.5361C804.901 66.6501 804.673 66.7518 804.405 66.8413C804.136 66.9227 803.843 66.9919 803.526 67.0488C803.208 67.1139 802.871 67.1628 802.513 67.1953C802.163 67.2279 801.813 67.2441 801.463 67.2441C800.877 67.2441 800.328 67.1628 799.815 67C799.31 66.8291 798.871 66.5646 798.497 66.2065C798.122 65.8403 797.825 65.3724 797.605 64.8027C797.394 64.2249 797.288 63.5291 797.288 62.7153V55.5376H793.821V53.792H797.288V50.5938H799.559ZM814.085 62.3125L814.671 63.9116L818.699 53.792H821.226L814.524 69.0386C814.37 69.3804 814.17 69.7425 813.926 70.125C813.69 70.5075 813.401 70.8615 813.06 71.187C812.718 71.5125 812.319 71.7852 811.863 72.0049C811.408 72.2246 810.883 72.3345 810.289 72.3345C810.183 72.3345 810.065 72.3263 809.935 72.3101C809.804 72.3019 809.674 72.2856 809.544 72.2612C809.414 72.245 809.292 72.2246 809.178 72.2002C809.064 72.1758 808.97 72.1554 808.897 72.1392L809.263 70.2959C809.32 70.2959 809.397 70.3 809.495 70.3081C809.593 70.3162 809.694 70.3244 809.8 70.3325C809.906 70.3407 810.008 70.3447 810.105 70.3447C810.203 70.3529 810.28 70.3569 810.337 70.3569C810.647 70.3569 810.927 70.2715 811.18 70.1006C811.44 69.9297 811.668 69.7262 811.863 69.4902C812.067 69.2542 812.238 69.0101 812.376 68.7578C812.522 68.5055 812.636 68.298 812.718 68.1353L813.621 66.3774L807.933 53.792H810.459L814.085 62.3125Z" fill="black"/>
<path d="M100.59 59.8711V67H98.3315V49.2266H104.093C104.891 49.2428 105.644 49.369 106.352 49.605C107.068 49.841 107.694 50.1828 108.231 50.6304C108.769 51.078 109.192 51.6313 109.501 52.2905C109.818 52.9497 109.977 53.7065 109.977 54.561C109.977 55.4155 109.818 56.1724 109.501 56.8315C109.192 57.4826 108.769 58.0319 108.231 58.4795C107.694 58.9271 107.068 59.2689 106.352 59.5049C105.644 59.7409 104.891 59.863 104.093 59.8711H100.59ZM100.59 58.0156H104.093C104.614 58.0075 105.094 57.9261 105.534 57.7715C105.973 57.6087 106.356 57.3809 106.681 57.0879C107.007 56.7949 107.259 56.4409 107.438 56.0259C107.625 55.6027 107.719 55.1226 107.719 54.5854C107.719 54.0483 107.625 53.5641 107.438 53.1328C107.259 52.7015 107.007 52.3353 106.681 52.0342C106.364 51.7331 105.981 51.5011 105.534 51.3384C105.094 51.1756 104.614 51.0902 104.093 51.082H100.59V58.0156ZM112.504 60.2739C112.504 59.3218 112.642 58.4388 112.919 57.625C113.196 56.8031 113.59 56.091 114.103 55.4888C114.624 54.8866 115.255 54.4146 115.995 54.0728C116.736 53.7228 117.57 53.5479 118.498 53.5479C119.433 53.5479 120.272 53.7228 121.012 54.0728C121.761 54.4146 122.392 54.8866 122.904 55.4888C123.425 56.091 123.824 56.8031 124.101 57.625C124.377 58.4388 124.516 59.3218 124.516 60.2739V60.5425C124.516 61.4946 124.377 62.3776 124.101 63.1914C123.824 64.0052 123.425 64.7132 122.904 65.3154C122.392 65.9176 121.765 66.3896 121.024 66.7314C120.284 67.0732 119.45 67.2441 118.522 67.2441C117.586 67.2441 116.744 67.0732 115.995 66.7314C115.255 66.3896 114.624 65.9176 114.103 65.3154C113.59 64.7132 113.196 64.0052 112.919 63.1914C112.642 62.3776 112.504 61.4946 112.504 60.5425V60.2739ZM114.762 60.5425C114.762 61.1935 114.84 61.8161 114.994 62.4102C115.149 62.9961 115.381 63.5129 115.69 63.9604C116.007 64.408 116.402 64.762 116.874 65.0225C117.346 65.2829 117.895 65.4131 118.522 65.4131C119.14 65.4131 119.682 65.2829 120.146 65.0225C120.618 64.762 121.008 64.408 121.317 63.9604C121.635 63.5129 121.871 62.9961 122.025 62.4102C122.18 61.8161 122.257 61.1935 122.257 60.5425V60.2739C122.257 59.631 122.176 59.0166 122.013 58.4307C121.859 57.8366 121.623 57.3158 121.305 56.8682C120.996 56.4206 120.605 56.0666 120.133 55.8062C119.669 55.5376 119.124 55.4033 118.498 55.4033C117.871 55.4033 117.326 55.5376 116.862 55.8062C116.398 56.0666 116.007 56.4206 115.69 56.8682C115.381 57.3158 115.149 57.8366 114.994 58.4307C114.84 59.0166 114.762 59.631 114.762 60.2739V60.5425ZM136.93 63.4966C136.93 63.228 136.877 62.988 136.771 62.7764C136.666 62.5566 136.487 62.3573 136.234 62.1782C135.982 61.9992 135.648 61.8364 135.233 61.6899C134.818 61.5353 134.302 61.397 133.683 61.2749C132.926 61.1203 132.235 60.9331 131.608 60.7134C130.989 60.4937 130.456 60.2332 130.009 59.9321C129.569 59.6229 129.228 59.2648 128.983 58.8579C128.739 58.4429 128.617 57.9627 128.617 57.4175C128.617 56.8804 128.743 56.3799 128.996 55.916C129.248 55.444 129.602 55.033 130.058 54.6831C130.513 54.3332 131.055 54.0565 131.681 53.853C132.316 53.6496 133.012 53.5479 133.769 53.5479C134.582 53.5479 135.315 53.6536 135.966 53.8652C136.617 54.0768 137.17 54.3698 137.626 54.7441C138.082 55.1185 138.432 55.5579 138.676 56.0625C138.928 56.5589 139.054 57.096 139.054 57.6738H136.796C136.796 57.389 136.723 57.1123 136.576 56.8438C136.43 56.5671 136.226 56.3229 135.966 56.1113C135.705 55.8997 135.388 55.7288 135.014 55.5986C134.647 55.4684 134.232 55.4033 133.769 55.4033C133.288 55.4033 132.865 55.4562 132.499 55.562C132.141 55.6678 131.84 55.8102 131.596 55.9893C131.36 56.1683 131.181 56.3758 131.059 56.6118C130.937 56.8478 130.875 57.092 130.875 57.3442C130.875 57.6047 130.924 57.8366 131.022 58.04C131.12 58.2435 131.286 58.4266 131.522 58.5894C131.767 58.7521 132.088 58.8986 132.487 59.0288C132.894 59.159 133.406 59.2852 134.025 59.4072C134.839 59.5781 135.567 59.7775 136.21 60.0054C136.853 60.2251 137.394 60.4937 137.833 60.811C138.273 61.1203 138.607 61.4824 138.834 61.8975C139.07 62.3125 139.188 62.7926 139.188 63.3379C139.188 63.9238 139.054 64.4569 138.786 64.937C138.525 65.4172 138.159 65.8281 137.687 66.1699C137.215 66.5117 136.649 66.7762 135.99 66.9634C135.331 67.1506 134.611 67.2441 133.83 67.2441C132.934 67.2441 132.137 67.1261 131.437 66.8901C130.737 66.646 130.143 66.3286 129.655 65.938C129.175 65.5392 128.804 65.0794 128.544 64.5586C128.292 64.0378 128.166 63.4966 128.166 62.9351H130.424C130.456 63.3989 130.578 63.7896 130.79 64.1069C131.01 64.4243 131.278 64.6807 131.596 64.876C131.921 65.0713 132.279 65.2096 132.67 65.291C133.061 65.3724 133.447 65.4131 133.83 65.4131C134.782 65.4131 135.535 65.2381 136.088 64.8882C136.641 64.5382 136.922 64.0744 136.93 63.4966ZM143.522 53.792H150.272V65.0469H154.582V67H143.522V65.0469H148.014V55.7573H143.522V53.792ZM147.721 50.3252C147.721 49.9508 147.831 49.6375 148.051 49.3853C148.279 49.1248 148.62 48.9946 149.076 48.9946C149.524 48.9946 149.861 49.1248 150.089 49.3853C150.317 49.6375 150.431 49.9508 150.431 50.3252C150.431 50.6914 150.317 50.9966 150.089 51.2407C149.861 51.4849 149.524 51.6069 149.076 51.6069C148.62 51.6069 148.279 51.4849 148.051 51.2407C147.831 50.9966 147.721 50.6914 147.721 50.3252ZM163.529 50.5938V53.792H168.559V55.5376H163.529V62.7153C163.529 63.228 163.594 63.6512 163.725 63.9849C163.855 64.3185 164.034 64.5871 164.262 64.7905C164.49 64.9858 164.75 65.1242 165.043 65.2056C165.344 65.2869 165.661 65.3276 165.995 65.3276C166.239 65.3276 166.492 65.3154 166.752 65.291C167.012 65.2585 167.265 65.2218 167.509 65.1812C167.761 65.1405 167.993 65.0998 168.205 65.0591C168.424 65.0103 168.603 64.9696 168.742 64.937L169.059 66.5361C168.872 66.6501 168.644 66.7518 168.375 66.8413C168.107 66.9227 167.814 66.9919 167.497 67.0488C167.179 67.1139 166.841 67.1628 166.483 67.1953C166.133 67.2279 165.784 67.2441 165.434 67.2441C164.848 67.2441 164.298 67.1628 163.786 67C163.281 66.8291 162.842 66.5646 162.467 66.2065C162.093 65.8403 161.796 65.3724 161.576 64.8027C161.365 64.2249 161.259 63.5291 161.259 62.7153V55.5376H157.792V53.792H161.259V50.5938H163.529ZM173.551 53.792H180.302V65.0469H184.611V67H173.551V65.0469H178.043V55.7573H173.551V53.792ZM177.75 50.3252C177.75 49.9508 177.86 49.6375 178.08 49.3853C178.308 49.1248 178.65 48.9946 179.105 48.9946C179.553 48.9946 179.891 49.1248 180.119 49.3853C180.347 49.6375 180.46 49.9508 180.46 50.3252C180.46 50.6914 180.347 50.9966 180.119 51.2407C179.891 51.4849 179.553 51.6069 179.105 51.6069C178.65 51.6069 178.308 51.4849 178.08 51.2407C177.86 50.9966 177.75 50.6914 177.75 50.3252ZM187.577 60.2739C187.577 59.3218 187.715 58.4388 187.992 57.625C188.269 56.8031 188.664 56.091 189.176 55.4888C189.697 54.8866 190.328 54.4146 191.068 54.0728C191.809 53.7228 192.643 53.5479 193.571 53.5479C194.507 53.5479 195.345 53.7228 196.085 54.0728C196.834 54.4146 197.465 54.8866 197.978 55.4888C198.498 56.091 198.897 56.8031 199.174 57.625C199.451 58.4388 199.589 59.3218 199.589 60.2739V60.5425C199.589 61.4946 199.451 62.3776 199.174 63.1914C198.897 64.0052 198.498 64.7132 197.978 65.3154C197.465 65.9176 196.838 66.3896 196.098 66.7314C195.357 67.0732 194.523 67.2441 193.595 67.2441C192.659 67.2441 191.817 67.0732 191.068 66.7314C190.328 66.3896 189.697 65.9176 189.176 65.3154C188.664 64.7132 188.269 64.0052 187.992 63.1914C187.715 62.3776 187.577 61.4946 187.577 60.5425V60.2739ZM189.835 60.5425C189.835 61.1935 189.913 61.8161 190.067 62.4102C190.222 62.9961 190.454 63.5129 190.763 63.9604C191.081 64.408 191.475 64.762 191.947 65.0225C192.419 65.2829 192.969 65.4131 193.595 65.4131C194.214 65.4131 194.755 65.2829 195.219 65.0225C195.691 64.762 196.081 64.408 196.391 63.9604C196.708 63.5129 196.944 62.9961 197.099 62.4102C197.253 61.8161 197.331 61.1935 197.331 60.5425V60.2739C197.331 59.631 197.249 59.0166 197.086 58.4307C196.932 57.8366 196.696 57.3158 196.378 56.8682C196.069 56.4206 195.679 56.0666 195.207 55.8062C194.743 55.5376 194.197 55.4033 193.571 55.4033C192.944 55.4033 192.399 55.5376 191.935 55.8062C191.471 56.0666 191.081 56.4206 190.763 56.8682C190.454 57.3158 190.222 57.8366 190.067 58.4307C189.913 59.0166 189.835 59.631 189.835 60.2739V60.5425ZM205.253 53.792L205.412 55.7451C205.892 55.0615 206.482 54.5285 207.182 54.146C207.882 53.7554 208.663 53.556 209.525 53.5479C210.217 53.5479 210.844 53.6455 211.405 53.8408C211.975 54.0361 212.459 54.3413 212.858 54.7563C213.257 55.1714 213.562 55.7004 213.773 56.3433C213.993 56.978 214.103 57.7349 214.103 58.6138V67H211.845V58.6626C211.845 58.0767 211.78 57.5802 211.649 57.1733C211.519 56.7664 211.324 56.4368 211.063 56.1846C210.811 55.9323 210.498 55.7492 210.124 55.6353C209.757 55.5213 209.334 55.4644 208.854 55.4644C208.097 55.4644 207.43 55.6556 206.852 56.0381C206.282 56.4124 205.827 56.9089 205.485 57.5273V67H203.227V53.792H205.253Z" fill="black"/>
<path d="M418.446 63.3623L422.646 49.2266H425.05L419.447 67H417.482L411.867 49.2266H414.284L418.446 63.3623ZM433.974 67.2441C433.046 67.2441 432.191 67.0854 431.41 66.7681C430.637 66.4507 429.974 66.0072 429.42 65.4375C428.867 64.8678 428.436 64.1924 428.126 63.4111C427.817 62.6299 427.663 61.7795 427.663 60.8599V60.3472C427.663 59.2811 427.833 58.3289 428.175 57.4907C428.517 56.6444 428.969 55.9323 429.53 55.3545C430.1 54.7686 430.743 54.321 431.459 54.0117C432.183 53.7025 432.924 53.5479 433.681 53.5479C434.633 53.5479 435.463 53.7147 436.171 54.0483C436.887 54.3739 437.481 54.8296 437.953 55.4155C438.425 55.9933 438.775 56.6769 439.003 57.4663C439.239 58.2557 439.357 59.1102 439.357 60.0298V61.043H429.921C429.945 61.6452 430.059 62.2108 430.263 62.7397C430.474 63.2687 430.759 63.7326 431.117 64.1313C431.483 64.522 431.919 64.8312 432.423 65.0591C432.928 65.2869 433.485 65.4009 434.096 65.4009C434.901 65.4009 435.618 65.2381 436.244 64.9126C436.871 64.5871 437.392 64.1558 437.807 63.6187L439.186 64.6929C438.966 65.0265 438.69 65.348 438.356 65.6572C438.03 65.9583 437.652 66.2269 437.221 66.4629C436.789 66.6989 436.301 66.8861 435.756 67.0244C435.211 67.1709 434.617 67.2441 433.974 67.2441ZM433.681 55.4033C433.225 55.4033 432.794 55.4888 432.387 55.6597C431.98 55.8224 431.614 56.0666 431.288 56.3921C430.963 56.7095 430.686 57.1042 430.458 57.5762C430.238 58.04 430.084 58.5771 429.994 59.1875H437.099V59.0166C437.074 58.5771 436.989 58.1418 436.842 57.7104C436.704 57.2791 436.496 56.8926 436.22 56.5508C435.943 56.209 435.593 55.9323 435.17 55.7207C434.755 55.5091 434.258 55.4033 433.681 55.4033ZM443.507 48.25H450.258V65.0469H454.567V67H443.507V65.0469H448V50.2153H443.507V48.25ZM457.533 60.2739C457.533 59.3218 457.672 58.4388 457.948 57.625C458.225 56.8031 458.62 56.091 459.132 55.4888C459.653 54.8866 460.284 54.4146 461.024 54.0728C461.765 53.7228 462.599 53.5479 463.527 53.5479C464.463 53.5479 465.301 53.7228 466.042 54.0728C466.79 54.4146 467.421 54.8866 467.934 55.4888C468.454 56.091 468.853 56.8031 469.13 57.625C469.407 58.4388 469.545 59.3218 469.545 60.2739V60.5425C469.545 61.4946 469.407 62.3776 469.13 63.1914C468.853 64.0052 468.454 64.7132 467.934 65.3154C467.421 65.9176 466.794 66.3896 466.054 66.7314C465.313 67.0732 464.479 67.2441 463.551 67.2441C462.615 67.2441 461.773 67.0732 461.024 66.7314C460.284 66.3896 459.653 65.9176 459.132 65.3154C458.62 64.7132 458.225 64.0052 457.948 63.1914C457.672 62.3776 457.533 61.4946 457.533 60.5425V60.2739ZM459.792 60.5425C459.792 61.1935 459.869 61.8161 460.023 62.4102C460.178 62.9961 460.41 63.5129 460.719 63.9604C461.037 64.408 461.431 64.762 461.903 65.0225C462.375 65.2829 462.925 65.4131 463.551 65.4131C464.17 65.4131 464.711 65.2829 465.175 65.0225C465.647 64.762 466.037 64.408 466.347 63.9604C466.664 63.5129 466.9 62.9961 467.055 62.4102C467.209 61.8161 467.287 61.1935 467.287 60.5425V60.2739C467.287 59.631 467.205 59.0166 467.042 58.4307C466.888 57.8366 466.652 57.3158 466.334 56.8682C466.025 56.4206 465.635 56.0666 465.163 55.8062C464.699 55.5376 464.153 55.4033 463.527 55.4033C462.9 55.4033 462.355 55.5376 461.891 55.8062C461.427 56.0666 461.037 56.4206 460.719 56.8682C460.41 57.3158 460.178 57.8366 460.023 58.4307C459.869 59.0166 459.792 59.631 459.792 60.2739V60.5425ZM478.81 65.4131C479.217 65.4131 479.612 65.348 479.994 65.2178C480.385 65.0876 480.731 64.9085 481.032 64.6807C481.333 64.4447 481.573 64.172 481.752 63.8628C481.939 63.5454 482.037 63.2036 482.045 62.8374H484.181C484.173 63.4233 484.018 63.9849 483.717 64.522C483.424 65.0509 483.03 65.5189 482.533 65.9258C482.037 66.3245 481.467 66.646 480.824 66.8901C480.181 67.1261 479.51 67.2441 478.81 67.2441C477.809 67.2441 476.934 67.0651 476.186 66.707C475.437 66.349 474.81 65.8688 474.306 65.2666C473.809 64.6562 473.435 63.9564 473.183 63.167C472.93 62.3695 472.804 61.5312 472.804 60.6523V60.1396C472.804 59.2689 472.93 58.4347 473.183 57.6372C473.435 56.8397 473.809 56.1398 474.306 55.5376C474.81 54.9272 475.437 54.443 476.186 54.085C476.934 53.7269 477.809 53.5479 478.81 53.5479C479.591 53.5479 480.307 53.674 480.958 53.9263C481.618 54.1704 482.183 54.5081 482.655 54.9395C483.135 55.3626 483.51 55.8672 483.778 56.4531C484.047 57.0391 484.181 57.6657 484.181 58.333H482.045C482.037 57.9342 481.947 57.5599 481.776 57.21C481.614 56.8519 481.39 56.5386 481.105 56.27C480.82 56.0015 480.478 55.7899 480.08 55.6353C479.689 55.4806 479.266 55.4033 478.81 55.4033C478.11 55.4033 477.52 55.5457 477.04 55.8306C476.568 56.1073 476.186 56.4735 475.893 56.9292C475.6 57.3768 475.388 57.8813 475.258 58.4429C475.136 59.0044 475.075 59.57 475.075 60.1396V60.6523C475.075 61.2301 475.136 61.8039 475.258 62.3735C475.388 62.9351 475.596 63.4437 475.88 63.8994C476.173 64.347 476.556 64.7132 477.028 64.998C477.508 65.2747 478.102 65.4131 478.81 65.4131ZM488.551 53.792H495.302V65.0469H499.611V67H488.551V65.0469H493.043V55.7573H488.551V53.792ZM492.75 50.3252C492.75 49.9508 492.86 49.6375 493.08 49.3853C493.308 49.1248 493.65 48.9946 494.105 48.9946C494.553 48.9946 494.891 49.1248 495.119 49.3853C495.347 49.6375 495.46 49.9508 495.46 50.3252C495.46 50.6914 495.347 50.9966 495.119 51.2407C494.891 51.4849 494.553 51.6069 494.105 51.6069C493.65 51.6069 493.308 51.4849 493.08 51.2407C492.86 50.9966 492.75 50.6914 492.75 50.3252ZM508.559 50.5938V53.792H513.588V55.5376H508.559V62.7153C508.559 63.228 508.624 63.6512 508.754 63.9849C508.884 64.3185 509.063 64.5871 509.291 64.7905C509.519 64.9858 509.779 65.1242 510.072 65.2056C510.373 65.2869 510.691 65.3276 511.024 65.3276C511.269 65.3276 511.521 65.3154 511.781 65.291C512.042 65.2585 512.294 65.2218 512.538 65.1812C512.79 65.1405 513.022 65.0998 513.234 65.0591C513.454 65.0103 513.633 64.9696 513.771 64.937L514.088 66.5361C513.901 66.6501 513.673 66.7518 513.405 66.8413C513.136 66.9227 512.843 66.9919 512.526 67.0488C512.208 67.1139 511.871 67.1628 511.513 67.1953C511.163 67.2279 510.813 67.2441 510.463 67.2441C509.877 67.2441 509.328 67.1628 508.815 67C508.31 66.8291 507.871 66.5646 507.497 66.2065C507.122 65.8403 506.825 65.3724 506.605 64.8027C506.394 64.2249 506.288 63.5291 506.288 62.7153V55.5376H502.821V53.792H506.288V50.5938H508.559ZM523.085 62.3125L523.671 63.9116L527.699 53.792H530.226L523.524 69.0386C523.37 69.3804 523.17 69.7425 522.926 70.125C522.69 70.5075 522.401 70.8615 522.06 71.187C521.718 71.5125 521.319 71.7852 520.863 72.0049C520.408 72.2246 519.883 72.3345 519.289 72.3345C519.183 72.3345 519.065 72.3263 518.935 72.3101C518.804 72.3019 518.674 72.2856 518.544 72.2612C518.414 72.245 518.292 72.2246 518.178 72.2002C518.064 72.1758 517.97 72.1554 517.897 72.1392L518.263 70.2959C518.32 70.2959 518.397 70.3 518.495 70.3081C518.593 70.3162 518.694 70.3244 518.8 70.3325C518.906 70.3407 519.008 70.3447 519.105 70.3447C519.203 70.3529 519.28 70.3569 519.337 70.3569C519.647 70.3569 519.927 70.2715 520.18 70.1006C520.44 69.9297 520.668 69.7262 520.863 69.4902C521.067 69.2542 521.238 69.0101 521.376 68.7578C521.522 68.5055 521.636 68.298 521.718 68.1353L522.621 66.3774L516.933 53.792H519.459L523.085 62.3125Z" fill="black"/>
<path d="M701.934 260.373H705.908V262.17H701.934V266.574H700.127V262.17H696.162V260.373H700.127V256.223H701.934V260.373ZM714.57 268H712.764V256.086L709.043 257.502V255.852L714.424 253.781H714.57V268Z" fill="black"/>
<path d="M118.486 262.229C118.486 261.298 118.558 260.422 118.701 259.602C118.851 258.781 119.049 258.023 119.297 257.326C119.544 256.623 119.827 255.982 120.146 255.402C120.472 254.823 120.811 254.309 121.162 253.859C121.52 253.41 121.878 253.026 122.236 252.707C122.594 252.388 122.936 252.137 123.262 251.955L123.643 253.146C123.239 253.452 122.835 253.869 122.432 254.396C122.035 254.924 121.676 255.565 121.357 256.32C121.045 257.069 120.788 257.935 120.586 258.918C120.391 259.895 120.293 260.992 120.293 262.209V262.346C120.293 263.563 120.391 264.663 120.586 265.646C120.788 266.63 121.045 267.499 121.357 268.254C121.676 269.009 122.035 269.654 122.432 270.188C122.835 270.728 123.239 271.161 123.643 271.486L123.262 272.59C122.936 272.408 122.591 272.157 122.227 271.838C121.868 271.525 121.51 271.141 121.152 270.686C120.801 270.236 120.462 269.722 120.137 269.143C119.818 268.57 119.535 267.935 119.287 267.238C119.046 266.535 118.851 265.773 118.701 264.953C118.558 264.133 118.486 263.257 118.486 262.326V262.229ZM133.418 262.199H130.576V268H128.779V253.781H132.949C133.613 253.794 134.238 253.889 134.824 254.064C135.41 254.24 135.921 254.504 136.357 254.855C136.8 255.207 137.145 255.65 137.393 256.184C137.646 256.711 137.773 257.333 137.773 258.049C137.773 258.511 137.705 258.934 137.568 259.318C137.438 259.702 137.256 260.051 137.021 260.363C136.787 260.676 136.507 260.952 136.182 261.193C135.856 261.434 135.498 261.639 135.107 261.809L138.125 267.883L138.115 268H136.211L133.418 262.199ZM130.576 260.715H132.998C133.402 260.708 133.783 260.646 134.141 260.529C134.499 260.406 134.811 260.23 135.078 260.002C135.352 259.774 135.566 259.497 135.723 259.172C135.879 258.84 135.957 258.459 135.957 258.029C135.957 257.574 135.882 257.176 135.732 256.838C135.583 256.493 135.374 256.206 135.107 255.979C134.84 255.744 134.521 255.568 134.15 255.451C133.786 255.334 133.385 255.272 132.949 255.266H130.576V260.715ZM140.51 260.075H144.561V266.828H147.146V268H140.51V266.828H143.206V261.254H140.51V260.075ZM143.03 257.995C143.03 257.771 143.096 257.583 143.228 257.431C143.364 257.275 143.569 257.197 143.843 257.197C144.111 257.197 144.314 257.275 144.451 257.431C144.587 257.583 144.656 257.771 144.656 257.995C144.656 258.215 144.587 258.398 144.451 258.544C144.314 258.691 144.111 258.764 143.843 258.764C143.569 258.764 143.364 258.691 143.228 258.544C143.096 258.398 143.03 258.215 143.03 257.995ZM154.312 267.58C154.312 267.886 154.272 268.205 154.194 268.537C154.123 268.876 154.012 269.208 153.862 269.533C153.719 269.865 153.543 270.181 153.335 270.48C153.127 270.78 152.886 271.047 152.612 271.281L151.489 270.666C151.802 270.21 152.023 269.725 152.153 269.211C152.284 268.697 152.349 268.163 152.349 267.609V265.861H154.312V267.58ZM166.45 262.199H163.608V268H161.812V253.781H165.981C166.646 253.794 167.271 253.889 167.856 254.064C168.442 254.24 168.953 254.504 169.39 254.855C169.832 255.207 170.177 255.65 170.425 256.184C170.679 256.711 170.806 257.333 170.806 258.049C170.806 258.511 170.737 258.934 170.601 259.318C170.47 259.702 170.288 260.051 170.054 260.363C169.819 260.676 169.539 260.952 169.214 261.193C168.888 261.434 168.53 261.639 168.14 261.809L171.157 267.883L171.147 268H169.243L166.45 262.199ZM163.608 260.715H166.03C166.434 260.708 166.815 260.646 167.173 260.529C167.531 260.406 167.843 260.23 168.11 260.002C168.384 259.774 168.599 259.497 168.755 259.172C168.911 258.84 168.989 258.459 168.989 258.029C168.989 257.574 168.914 257.176 168.765 256.838C168.615 256.493 168.407 256.206 168.14 255.979C167.873 255.744 167.554 255.568 167.183 255.451C166.818 255.334 166.418 255.272 165.981 255.266H163.608V260.715ZM174.246 260.075H178.245V268.051C178.245 268.559 178.174 269.008 178.032 269.399C177.896 269.79 177.693 270.117 177.424 270.38C177.161 270.649 176.836 270.852 176.45 270.988C176.069 271.13 175.635 271.201 175.146 271.201C174.868 271.201 174.607 271.191 174.363 271.171C174.124 271.157 173.87 271.125 173.601 271.076L173.696 269.963C173.779 269.978 173.884 269.99 174.011 270C174.138 270.014 174.265 270.024 174.392 270.029C174.524 270.039 174.648 270.043 174.766 270.043C174.888 270.048 174.983 270.051 175.051 270.051C175.305 270.051 175.544 270.017 175.769 269.948C175.994 269.885 176.189 269.775 176.355 269.619C176.521 269.462 176.65 269.255 176.743 268.996C176.841 268.742 176.89 268.427 176.89 268.051V261.254H174.246V260.075ZM176.699 257.988C176.699 257.768 176.765 257.583 176.897 257.431C177.029 257.275 177.231 257.197 177.505 257.197C177.778 257.197 177.983 257.275 178.12 257.431C178.257 257.583 178.325 257.768 178.325 257.988C178.325 258.208 178.257 258.393 178.12 258.544C177.983 258.691 177.778 258.764 177.505 258.764C177.231 258.764 177.029 258.691 176.897 258.544C176.765 258.393 176.699 258.208 176.699 257.988ZM189.355 262.326C189.355 263.257 189.281 264.133 189.131 264.953C188.988 265.773 188.792 266.535 188.545 267.238C188.298 267.935 188.011 268.57 187.686 269.143C187.367 269.722 187.028 270.236 186.67 270.686C186.318 271.141 185.96 271.525 185.596 271.838C185.238 272.157 184.896 272.408 184.57 272.59L184.189 271.486C184.593 271.187 184.993 270.767 185.391 270.227C185.794 269.693 186.152 269.045 186.465 268.283C186.784 267.521 187.041 266.646 187.236 265.656C187.438 264.667 187.539 263.563 187.539 262.346V262.209C187.539 260.992 187.435 259.888 187.227 258.898C187.018 257.902 186.748 257.023 186.416 256.262C186.09 255.493 185.729 254.842 185.332 254.309C184.941 253.775 184.561 253.358 184.189 253.059L184.57 251.955C184.896 252.137 185.238 252.388 185.596 252.707C185.96 253.026 186.318 253.41 186.67 253.859C187.028 254.309 187.367 254.823 187.686 255.402C188.011 255.982 188.298 256.623 188.545 257.326C188.792 258.023 188.988 258.781 189.131 259.602C189.281 260.422 189.355 261.298 189.355 262.229V262.326Z" fill="black"/>
<path d="M427.486 262.229C427.486 261.298 427.558 260.422 427.701 259.602C427.851 258.781 428.049 258.023 428.297 257.326C428.544 256.623 428.827 255.982 429.146 255.402C429.472 254.823 429.811 254.309 430.162 253.859C430.52 253.41 430.878 253.026 431.236 252.707C431.594 252.388 431.936 252.137 432.262 251.955L432.643 253.146C432.239 253.452 431.835 253.869 431.432 254.396C431.035 254.924 430.676 255.565 430.357 256.32C430.045 257.069 429.788 257.935 429.586 258.918C429.391 259.895 429.293 260.992 429.293 262.209V262.346C429.293 263.563 429.391 264.663 429.586 265.646C429.788 266.63 430.045 267.499 430.357 268.254C430.676 269.009 431.035 269.654 431.432 270.188C431.835 270.728 432.239 271.161 432.643 271.486L432.262 272.59C431.936 272.408 431.591 272.157 431.227 271.838C430.868 271.525 430.51 271.141 430.152 270.686C429.801 270.236 429.462 269.722 429.137 269.143C428.818 268.57 428.535 267.935 428.287 267.238C428.046 266.535 427.851 265.773 427.701 264.953C427.558 264.133 427.486 263.257 427.486 262.326V262.229ZM441.969 265.09L445.328 253.781H447.252L442.77 268H441.197L436.705 253.781H438.639L441.969 265.09ZM449.51 260.075H453.561V266.828H456.146V268H449.51V266.828H452.206V261.254H449.51V260.075ZM452.03 257.995C452.03 257.771 452.096 257.583 452.228 257.431C452.364 257.275 452.569 257.197 452.843 257.197C453.111 257.197 453.314 257.275 453.451 257.431C453.587 257.583 453.656 257.771 453.656 257.995C453.656 258.215 453.587 258.398 453.451 258.544C453.314 258.691 453.111 258.764 452.843 258.764C452.569 258.764 452.364 258.691 452.228 258.544C452.096 258.398 452.03 258.215 452.03 257.995ZM463.312 267.58C463.312 267.886 463.272 268.205 463.194 268.537C463.123 268.876 463.012 269.208 462.862 269.533C462.719 269.865 462.543 270.181 462.335 270.48C462.127 270.78 461.886 271.047 461.612 271.281L460.489 270.666C460.802 270.21 461.023 269.725 461.153 269.211C461.284 268.697 461.349 268.163 461.349 267.609V265.861H463.312V267.58ZM475.001 265.09L478.36 253.781H480.284L475.802 268H474.229L469.737 253.781H471.671L475.001 265.09ZM483.246 260.075H487.245V268.051C487.245 268.559 487.174 269.008 487.032 269.399C486.896 269.79 486.693 270.117 486.424 270.38C486.161 270.649 485.836 270.852 485.45 270.988C485.069 271.13 484.635 271.201 484.146 271.201C483.868 271.201 483.607 271.191 483.363 271.171C483.124 271.157 482.87 271.125 482.601 271.076L482.696 269.963C482.779 269.978 482.884 269.99 483.011 270C483.138 270.014 483.265 270.024 483.392 270.029C483.524 270.039 483.648 270.043 483.766 270.043C483.888 270.048 483.983 270.051 484.051 270.051C484.305 270.051 484.544 270.017 484.769 269.948C484.994 269.885 485.189 269.775 485.355 269.619C485.521 269.462 485.65 269.255 485.743 268.996C485.841 268.742 485.89 268.427 485.89 268.051V261.254H483.246V260.075ZM485.699 257.988C485.699 257.768 485.765 257.583 485.897 257.431C486.029 257.275 486.231 257.197 486.505 257.197C486.778 257.197 486.983 257.275 487.12 257.431C487.257 257.583 487.325 257.768 487.325 257.988C487.325 258.208 487.257 258.393 487.12 258.544C486.983 258.691 486.778 258.764 486.505 258.764C486.231 258.764 486.029 258.691 485.897 258.544C485.765 258.393 485.699 258.208 485.699 257.988ZM498.355 262.326C498.355 263.257 498.281 264.133 498.131 264.953C497.988 265.773 497.792 266.535 497.545 267.238C497.298 267.935 497.011 268.57 496.686 269.143C496.367 269.722 496.028 270.236 495.67 270.686C495.318 271.141 494.96 271.525 494.596 271.838C494.238 272.157 493.896 272.408 493.57 272.59L493.189 271.486C493.593 271.187 493.993 270.767 494.391 270.227C494.794 269.693 495.152 269.045 495.465 268.283C495.784 267.521 496.041 266.646 496.236 265.656C496.438 264.667 496.539 263.563 496.539 262.346V262.209C496.539 260.992 496.435 259.888 496.227 258.898C496.018 257.902 495.748 257.023 495.416 256.262C495.09 255.493 494.729 254.842 494.332 254.309C493.941 253.775 493.561 253.358 493.189 253.059L493.57 251.955C493.896 252.137 494.238 252.388 494.596 252.707C494.96 253.026 495.318 253.41 495.67 253.859C496.028 254.309 496.367 254.823 496.686 255.402C497.011 255.982 497.298 256.623 497.545 257.326C497.792 258.023 497.988 258.781 498.131 259.602C498.281 260.422 498.355 261.298 498.355 262.229V262.326Z" fill="black"/>
<path d="M768.625 262.561C768.625 263.465 768.521 264.27 768.312 264.973C768.104 265.669 767.805 266.258 767.414 266.74C767.023 267.215 766.545 267.577 765.979 267.824C765.412 268.072 764.764 268.195 764.035 268.195C763.312 268.195 762.665 268.072 762.092 267.824C761.525 267.577 761.044 267.215 760.646 266.74C760.249 266.258 759.943 265.669 759.729 264.973C759.52 264.27 759.416 263.465 759.416 262.561V259.23C759.416 258.326 759.52 257.525 759.729 256.828C759.937 256.125 760.236 255.533 760.627 255.051C761.024 254.569 761.506 254.204 762.072 253.957C762.645 253.703 763.293 253.576 764.016 253.576C764.745 253.576 765.393 253.703 765.959 253.957C766.532 254.204 767.014 254.569 767.404 255.051C767.801 255.533 768.104 256.125 768.312 256.828C768.521 257.525 768.625 258.326 768.625 259.23V262.561ZM761.232 262.199L766.77 257.951C766.665 257.007 766.389 256.291 765.939 255.803C765.497 255.308 764.855 255.061 764.016 255.061C763.065 255.061 762.362 255.383 761.906 256.027C761.457 256.665 761.232 257.6 761.232 258.83V262.199ZM766.809 259.68L761.281 263.908C761.392 264.826 761.675 265.526 762.131 266.008C762.587 266.49 763.221 266.73 764.035 266.73C764.992 266.73 765.692 266.405 766.135 265.754C766.584 265.103 766.809 264.165 766.809 262.941V259.68Z" fill="black"/>
<path d="M818.6 262.521H811.129V261.037H818.6V262.521ZM828.57 268H826.764V256.086L823.043 257.502V255.852L828.424 253.781H828.57V268Z" fill="black"/>
<line x1="763.5" y1="169" x2="763.5" y2="213" stroke="#A1A1A1"/>
<line x1="819.75" y1="213.009" x2="806.233" y2="199.492" stroke="#A1A1A1"/>
<line x1="706.564" y1="213.971" x2="721.771" y2="200.454" stroke="#A1A1A1"/>
<path d="M721 200L807 200" stroke="#A1A1A1"/>
<path d="M518.354 168.354C518.549 168.158 518.549 167.842 518.354 167.646L515.172 164.464C514.976 164.269 514.66 164.269 514.464 164.464C514.269 164.66 514.269 164.976 514.464 165.172L517.293 168L514.464 170.828C514.269 171.024 514.269 171.34 514.464 171.536C514.66 171.731 514.976 171.731 515.172 171.536L518.354 168.354ZM443 168.5H518V167.5H443V168.5Z" fill="black"/>
</svg>
