<svg width="930" height="316" viewBox="0 0 930 316" fill="none" xmlns="http://www.w3.org/2000/svg">
<rect width="930" height="316" fill="white"/>
<rect x="672" y="94" width="185" height="185" fill="#33FFF0" fill-opacity="0.2"/>
<rect x="374" y="90" width="185" height="185" fill="#282C34"/>
<rect x="59" y="94" width="185" height="185" fill="#282C34"/>
<rect x="133" y="131" width="37" height="37" fill="#33FFF0"/>
<rect x="448" y="127" width="37" height="37" fill="#33FFF0"/>
<rect x="746" y="131" width="37" height="37" fill="#33FFF0"/>
<rect x="783" y="131" width="37" height="37" fill="#33FFF0" fill-opacity="0.2"/>
<rect x="820" y="131" width="37" height="37" fill="#33FFF0" fill-opacity="0.2"/>
<rect x="672" y="131" width="37" height="37" fill="#33FFF0" fill-opacity="0.2"/>
<rect x="133" y="168" width="37" height="37" fill="#F6FF33"/>
<rect x="448" y="164" width="37" height="37" fill="#F6FF33"/>
<rect x="746" y="168" width="37" height="37" fill="#F6FF33"/>
<rect x="170" y="168" width="37" height="37" fill="#33FFF0" fill-opacity="0.4"/>
<rect x="485" y="164" width="37" height="37" fill="#33FFF0" fill-opacity="0.4"/>
<rect x="783" y="168" width="37" height="37" fill="#33FFF0" fill-opacity="0.4"/>
<rect x="820" y="168" width="37" height="37" fill="#33FFF0" fill-opacity="0.2"/>
<rect x="672" y="168" width="37" height="37" fill="#33FFF0" fill-opacity="0.2"/>
<rect x="783" y="205" width="37" height="37" fill="#33FFF0" fill-opacity="0.2"/>
<rect x="820" y="205" width="37" height="37" fill="#33FFF0" fill-opacity="0.2"/>
<rect x="672" y="205" width="37" height="37" fill="#33FFF0" fill-opacity="0.2"/>
<rect x="133" y="205" width="37" height="37" fill="#33FFF0" fill-opacity="0.5"/>
<rect x="448" y="201" width="37" height="37" fill="#33FFF0" fill-opacity="0.5"/>
<rect x="746" y="205" width="37" height="37" fill="#33FFF0" fill-opacity="0.5"/>
<rect x="709" y="205" width="37" height="37" fill="#33FFF0" fill-opacity="0.2"/>
<rect x="96" y="168" width="37" height="37" fill="#33FFF0" fill-opacity="0.5"/>
<rect x="411" y="164" width="37" height="37" fill="#33FFF0" fill-opacity="0.5"/>
<rect x="709" y="168" width="37" height="37" fill="#33FFF0" fill-opacity="0.5"/>
<rect x="709" y="131" width="37" height="37" fill="#33FFF0" fill-opacity="0.2"/>
<rect x="709" y="94" width="37" height="37" fill="#33FFF0" fill-opacity="0.2"/>
<rect x="709" y="242" width="37" height="37" fill="#33FFF0" fill-opacity="0.2"/>
<rect x="133" y="94" width="37" height="37" fill="#33FFF0" fill-opacity="0.9"/>
<rect x="448" y="90" width="37" height="37" fill="#33FFF0" fill-opacity="0.9"/>
<rect x="746" y="94" width="37" height="37" fill="#33FFF0" fill-opacity="0.95"/>
<rect x="746" y="242" width="37" height="37" fill="#33FFF0" fill-opacity="0.2"/>
<rect x="170" y="94" width="37" height="37" fill="#33FFF0" fill-opacity="0.85"/>
<rect x="485" y="90" width="37" height="37" fill="#33FFF0" fill-opacity="0.85"/>
<rect x="783" y="94" width="37" height="37" fill="#33FFF0" fill-opacity="0.95"/>
<rect x="820" y="94" width="37" height="37" fill="#33FFF0" fill-opacity="0.2"/>
<rect x="672" y="94" width="37" height="37" fill="#33FFF0" fill-opacity="0.2"/>
<rect x="783" y="242" width="37" height="37" fill="#33FFF0" fill-opacity="0.2"/>
<rect x="820" y="242" width="37" height="37" fill="#33FFF0" fill-opacity="0.2"/>
<rect x="672" y="242" width="37" height="37" fill="#33FFF0" fill-opacity="0.2"/>
<path d="M88.0996 61V43.2266H93.3853C94.1177 43.2347 94.8338 43.3324 95.5337 43.5195C96.2336 43.6986 96.8561 43.9793 97.4014 44.3618C97.9466 44.7443 98.382 45.2326 98.7075 45.8267C99.033 46.4207 99.1917 47.1328 99.1836 47.9629C99.1755 48.4268 99.0981 48.8499 98.9517 49.2324C98.8133 49.6149 98.618 49.9608 98.3657 50.27C98.1216 50.5711 97.8327 50.8356 97.499 51.0635C97.1654 51.2913 96.8114 51.4867 96.437 51.6494C96.909 51.7878 97.3403 51.9871 97.731 52.2476C98.1297 52.4998 98.4715 52.8091 98.7563 53.1753C99.0412 53.5334 99.2609 53.9403 99.4155 54.396C99.5783 54.8517 99.6597 55.3441 99.6597 55.873C99.6678 56.7031 99.5091 57.4355 99.1836 58.0703C98.8581 58.7051 98.4227 59.2381 97.8774 59.6694C97.3322 60.0926 96.7015 60.4181 95.9854 60.646C95.2773 60.8739 94.5449 60.9919 93.7881 61H88.0996ZM90.3701 52.687V59.0835H93.8491C94.3211 59.0754 94.7687 58.998 95.1919 58.8516C95.6151 58.6969 95.9894 58.4854 96.3149 58.2168C96.6405 57.9482 96.8968 57.6187 97.084 57.228C97.2793 56.8374 97.377 56.3939 97.377 55.8975C97.3851 55.3929 97.2996 54.9453 97.1206 54.5547C96.9497 54.1641 96.7096 53.8345 96.4004 53.5659C96.0911 53.2892 95.729 53.0776 95.314 52.9312C94.8989 52.7847 94.4513 52.7033 93.9712 52.687H90.3701ZM90.3701 50.8071H93.5195C93.9427 50.799 94.3577 50.7339 94.7646 50.6118C95.1715 50.4816 95.5337 50.2985 95.8511 50.0625C96.1685 49.8184 96.4248 49.5213 96.6201 49.1714C96.8154 48.8215 96.9131 48.4146 96.9131 47.9507C96.9131 47.4543 96.8154 47.0311 96.6201 46.6812C96.4329 46.3312 96.1766 46.0464 95.8511 45.8267C95.5337 45.5988 95.1634 45.432 94.7402 45.3262C94.3252 45.2204 93.8979 45.1634 93.4585 45.1553H90.3701V50.8071ZM103.493 47.792H110.243V59.0469H114.552V61H103.493V59.0469H107.985V49.7573H103.493V47.792ZM107.692 44.3252C107.692 43.9508 107.802 43.6375 108.021 43.3853C108.249 43.1248 108.591 42.9946 109.047 42.9946C109.494 42.9946 109.832 43.1248 110.06 43.3853C110.288 43.6375 110.402 43.9508 110.402 44.3252C110.402 44.6914 110.288 44.9966 110.06 45.2407C109.832 45.4849 109.494 45.6069 109.047 45.6069C108.591 45.6069 108.249 45.4849 108.021 45.2407C107.802 44.9966 107.692 44.6914 107.692 44.3252ZM117.738 54.2861C117.738 53.3014 117.856 52.3981 118.092 51.5762C118.336 50.7461 118.686 50.034 119.142 49.4399C119.598 48.8459 120.151 48.382 120.802 48.0483C121.453 47.7147 122.19 47.5479 123.012 47.5479C123.826 47.5479 124.538 47.6943 125.148 47.9873C125.766 48.2721 126.291 48.6872 126.723 49.2324L126.833 47.792H128.883V60.7192C128.883 61.59 128.745 62.3631 128.468 63.0386C128.2 63.714 127.817 64.2878 127.321 64.7598C126.833 65.2318 126.247 65.5898 125.563 65.834C124.879 66.0781 124.123 66.2002 123.292 66.2002C122.951 66.2002 122.56 66.1595 122.121 66.0781C121.681 66.0049 121.234 65.8787 120.778 65.6997C120.33 65.5288 119.895 65.2969 119.472 65.0039C119.057 64.7109 118.699 64.3488 118.397 63.9175L119.569 62.5625C119.846 62.8962 120.131 63.1769 120.424 63.4048C120.717 63.6408 121.014 63.828 121.315 63.9663C121.616 64.1047 121.917 64.2023 122.218 64.2593C122.519 64.3244 122.82 64.3569 123.122 64.3569C123.659 64.3569 124.143 64.2796 124.574 64.125C125.006 63.9704 125.372 63.7425 125.673 63.4414C125.982 63.1484 126.218 62.7822 126.381 62.3428C126.544 61.9033 126.625 61.3988 126.625 60.8291V59.6938C126.186 60.1984 125.665 60.585 125.062 60.8535C124.468 61.1139 123.777 61.2441 122.987 61.2441C122.182 61.2441 121.453 61.0732 120.802 60.7314C120.151 60.3896 119.598 59.9176 119.142 59.3154C118.694 58.7132 118.349 58.0052 118.104 57.1914C117.86 56.3695 117.738 55.4865 117.738 54.5425V54.2861ZM119.997 54.5425C119.997 55.1854 120.062 55.7957 120.192 56.3735C120.33 56.9513 120.542 57.46 120.827 57.8994C121.12 58.3389 121.49 58.6888 121.938 58.9492C122.385 59.2015 122.922 59.3276 123.549 59.3276C123.939 59.3276 124.289 59.2829 124.599 59.1934C124.916 59.0957 125.197 58.9614 125.441 58.7905C125.693 58.6196 125.917 58.4162 126.112 58.1802C126.308 57.9442 126.479 57.6838 126.625 57.3989V51.3442C126.479 51.0675 126.308 50.8153 126.112 50.5874C125.917 50.3595 125.693 50.1642 125.441 50.0015C125.189 49.8306 124.908 49.7004 124.599 49.6108C124.289 49.5132 123.948 49.4644 123.573 49.4644C122.938 49.4644 122.393 49.5946 121.938 49.855C121.49 50.1154 121.12 50.4694 120.827 50.917C120.542 51.3564 120.33 51.8691 120.192 52.4551C120.062 53.0329 119.997 53.6432 119.997 54.2861V54.5425ZM156.862 61C156.772 60.8291 156.699 60.6175 156.642 60.3652C156.593 60.1048 156.557 59.8363 156.532 59.5596C156.304 59.7874 156.048 60.0031 155.763 60.2065C155.486 60.41 155.177 60.589 154.835 60.7437C154.502 60.8983 154.144 61.0203 153.761 61.1099C153.379 61.1994 152.972 61.2441 152.541 61.2441C151.841 61.2441 151.206 61.1424 150.636 60.939C150.075 60.7355 149.595 60.4629 149.196 60.1211C148.805 59.7712 148.5 59.3602 148.28 58.8882C148.069 58.408 147.963 57.8913 147.963 57.3379C147.963 56.6136 148.105 55.9788 148.39 55.4336C148.683 54.8883 149.094 54.4367 149.623 54.0786C150.152 53.7124 150.787 53.4398 151.527 53.2607C152.276 53.0817 153.11 52.9922 154.03 52.9922H156.496V51.9546C156.496 51.5558 156.422 51.1978 156.276 50.8804C156.129 50.563 155.922 50.2944 155.653 50.0747C155.385 49.8468 155.055 49.6719 154.665 49.5498C154.282 49.4277 153.851 49.3667 153.371 49.3667C152.923 49.3667 152.52 49.4237 152.162 49.5376C151.812 49.6515 151.515 49.8021 151.271 49.9893C151.027 50.1764 150.836 50.4002 150.697 50.6606C150.567 50.9129 150.502 51.1774 150.502 51.4541H148.231C148.24 50.974 148.362 50.502 148.598 50.0381C148.842 49.5742 149.188 49.1592 149.635 48.793C150.091 48.4186 150.64 48.1175 151.283 47.8896C151.934 47.6618 152.671 47.5479 153.493 47.5479C154.241 47.5479 154.937 47.6414 155.58 47.8286C156.223 48.0076 156.776 48.2843 157.24 48.6587C157.712 49.0249 158.083 49.4847 158.351 50.0381C158.62 50.5915 158.754 51.2384 158.754 51.979V58.1191C158.754 58.5586 158.795 59.0265 158.876 59.5229C158.957 60.0112 159.071 60.4385 159.218 60.8047V61H156.862ZM152.87 59.2788C153.31 59.2788 153.721 59.2218 154.103 59.1079C154.486 58.994 154.831 58.8434 155.141 58.6562C155.458 58.4691 155.731 58.2575 155.958 58.0215C156.186 57.7773 156.365 57.5251 156.496 57.2646V54.5913H154.396C153.078 54.5913 152.052 54.7866 151.32 55.1772C150.587 55.5679 150.221 56.1823 150.221 57.0205C150.221 57.346 150.274 57.6471 150.38 57.9238C150.494 58.2005 150.661 58.4406 150.88 58.644C151.1 58.8394 151.377 58.994 151.71 59.1079C152.044 59.2218 152.431 59.2788 152.87 59.2788ZM163.551 42.25H170.302V59.0469H174.611V61H163.551V59.0469H168.043V44.2153H163.551V42.25ZM189.357 54.5425C189.357 55.4865 189.243 56.3695 189.015 57.1914C188.787 58.0052 188.454 58.7132 188.014 59.3154C187.575 59.9176 187.029 60.3896 186.378 60.7314C185.736 61.0732 184.999 61.2441 184.169 61.2441C183.363 61.2441 182.651 61.1139 182.033 60.8535C181.422 60.5931 180.897 60.2188 180.458 59.7305V66.0781H178.2V47.792H180.263L180.373 49.2324C180.812 48.6872 181.341 48.2721 181.959 47.9873C182.586 47.6943 183.31 47.5479 184.132 47.5479C184.979 47.5479 185.727 47.7147 186.378 48.0483C187.029 48.382 187.575 48.8459 188.014 49.4399C188.454 50.034 188.787 50.7461 189.015 51.5762C189.243 52.3981 189.357 53.3014 189.357 54.2861V54.5425ZM187.099 54.2861C187.099 53.6432 187.025 53.0329 186.879 52.4551C186.741 51.8691 186.521 51.3564 186.22 50.917C185.927 50.4694 185.552 50.1154 185.097 49.855C184.641 49.5946 184.096 49.4644 183.461 49.4644C182.737 49.4644 182.126 49.6353 181.63 49.9771C181.142 50.3107 180.751 50.742 180.458 51.271V57.6309C180.751 58.1517 181.142 58.5789 181.63 58.9126C182.118 59.2381 182.737 59.4009 183.485 59.4009C184.112 59.4009 184.653 59.2707 185.109 59.0103C185.565 58.7417 185.939 58.3836 186.232 57.936C186.525 57.4884 186.741 56.9717 186.879 56.3857C187.025 55.7998 187.099 55.1854 187.099 54.5425V54.2861ZM195.485 49.7573C195.957 49.0656 196.539 48.5285 197.23 48.146C197.922 47.7554 198.699 47.556 199.562 47.5479C200.254 47.5479 200.88 47.6496 201.442 47.853C202.012 48.0483 202.496 48.3576 202.895 48.7808C203.293 49.2039 203.598 49.741 203.81 50.3921C204.03 51.035 204.14 51.8 204.14 52.687V61H201.881V52.6626C201.881 51.5802 201.621 50.7746 201.1 50.2456C200.587 49.7166 199.851 49.4562 198.891 49.4644C198.166 49.4644 197.507 49.6434 196.913 50.0015C196.327 50.3514 195.851 50.8193 195.485 51.4053V61H193.227V42.25H195.485V49.7573ZM216.92 61C216.831 60.8291 216.758 60.6175 216.701 60.3652C216.652 60.1048 216.615 59.8363 216.591 59.5596C216.363 59.7874 216.107 60.0031 215.822 60.2065C215.545 60.41 215.236 60.589 214.894 60.7437C214.56 60.8983 214.202 61.0203 213.82 61.1099C213.437 61.1994 213.03 61.2441 212.599 61.2441C211.899 61.2441 211.264 61.1424 210.695 60.939C210.133 60.7355 209.653 60.4629 209.254 60.1211C208.864 59.7712 208.559 59.3602 208.339 58.8882C208.127 58.408 208.021 57.8913 208.021 57.3379C208.021 56.6136 208.164 55.9788 208.449 55.4336C208.742 54.8883 209.153 54.4367 209.682 54.0786C210.211 53.7124 210.845 53.4398 211.586 53.2607C212.335 53.0817 213.169 52.9922 214.088 52.9922H216.554V51.9546C216.554 51.5558 216.481 51.1978 216.334 50.8804C216.188 50.563 215.98 50.2944 215.712 50.0747C215.443 49.8468 215.114 49.6719 214.723 49.5498C214.341 49.4277 213.909 49.3667 213.429 49.3667C212.982 49.3667 212.579 49.4237 212.221 49.5376C211.871 49.6515 211.574 49.8021 211.33 49.9893C211.085 50.1764 210.894 50.4002 210.756 50.6606C210.626 50.9129 210.561 51.1774 210.561 51.4541H208.29C208.298 50.974 208.42 50.502 208.656 50.0381C208.9 49.5742 209.246 49.1592 209.694 48.793C210.15 48.4186 210.699 48.1175 211.342 47.8896C211.993 47.6618 212.729 47.5479 213.551 47.5479C214.3 47.5479 214.996 47.6414 215.639 47.8286C216.282 48.0076 216.835 48.2843 217.299 48.6587C217.771 49.0249 218.141 49.4847 218.41 50.0381C218.678 50.5915 218.812 51.2384 218.812 51.979V58.1191C218.812 58.5586 218.853 59.0265 218.935 59.5229C219.016 60.0112 219.13 60.4385 219.276 60.8047V61H216.92ZM212.929 59.2788C213.368 59.2788 213.779 59.2218 214.162 59.1079C214.544 58.994 214.89 58.8434 215.199 58.6562C215.517 58.4691 215.789 58.2575 216.017 58.0215C216.245 57.7773 216.424 57.5251 216.554 57.2646V54.5913H214.455C213.136 54.5913 212.111 54.7866 211.378 55.1772C210.646 55.5679 210.28 56.1823 210.28 57.0205C210.28 57.346 210.333 57.6471 210.438 57.9238C210.552 58.2005 210.719 58.4406 210.939 58.644C211.159 58.8394 211.435 58.994 211.769 59.1079C212.103 59.2218 212.489 59.2788 212.929 59.2788Z" fill="black"/>
<path d="M398.426 50.5078C398.426 49.9626 398.3 49.5028 398.047 49.1284C397.803 48.7541 397.486 48.4408 397.095 48.1885C396.705 47.9281 396.273 47.7124 395.801 47.5415C395.337 47.3706 394.89 47.216 394.458 47.0776C393.832 46.8742 393.193 46.63 392.542 46.3452C391.899 46.0604 391.309 45.7104 390.772 45.2954C390.243 44.8804 389.808 44.3921 389.466 43.8306C389.132 43.2609 388.965 42.5936 388.965 41.8286C388.965 41.0636 389.132 40.38 389.466 39.7778C389.808 39.1756 390.251 38.667 390.796 38.252C391.342 37.8369 391.96 37.5236 392.652 37.312C393.344 37.0923 394.039 36.9824 394.739 36.9824C395.512 36.9824 396.257 37.1126 396.973 37.373C397.689 37.6253 398.324 37.9834 398.877 38.4473C399.431 38.9111 399.874 39.4727 400.208 40.1318C400.542 40.791 400.717 41.5275 400.733 42.3413H398.414C398.348 41.8286 398.222 41.3647 398.035 40.9497C397.848 40.5265 397.6 40.1644 397.291 39.8633C396.981 39.5622 396.611 39.3302 396.18 39.1675C395.757 38.9966 395.276 38.9111 394.739 38.9111C394.308 38.9111 393.885 38.9722 393.47 39.0942C393.063 39.2163 392.697 39.3994 392.371 39.6436C392.054 39.8877 391.797 40.1888 391.602 40.5469C391.415 40.9049 391.321 41.32 391.321 41.792C391.329 42.3047 391.46 42.7401 391.712 43.0981C391.964 43.4481 392.282 43.7451 392.664 43.9893C393.055 44.2334 393.474 44.4368 393.921 44.5996C394.377 44.7624 394.804 44.9048 395.203 45.0269C395.643 45.1652 396.086 45.3239 396.534 45.5029C396.981 45.6738 397.413 45.8732 397.828 46.1011C398.243 46.3289 398.629 46.5853 398.987 46.8701C399.345 47.1549 399.659 47.4805 399.927 47.8467C400.196 48.2048 400.403 48.6035 400.55 49.043C400.704 49.4743 400.782 49.9544 400.782 50.4834C400.782 51.2809 400.603 51.9767 400.245 52.5708C399.895 53.1649 399.439 53.6613 398.877 54.0601C398.316 54.4507 397.681 54.7477 396.973 54.9512C396.265 55.1465 395.557 55.2441 394.849 55.2441C394.06 55.2441 393.287 55.1221 392.53 54.8779C391.773 54.6338 391.093 54.2839 390.491 53.8281C389.897 53.3643 389.413 52.8027 389.039 52.1436C388.664 51.4762 388.465 50.7194 388.44 49.873H390.748C390.821 50.4264 390.971 50.9188 391.199 51.3501C391.427 51.7733 391.72 52.1354 392.078 52.4365C392.436 52.7295 392.847 52.9533 393.311 53.1079C393.783 53.2544 394.296 53.3276 394.849 53.3276C395.289 53.3276 395.72 53.2747 396.143 53.1689C396.574 53.055 396.957 52.8841 397.291 52.6562C397.624 52.4202 397.897 52.1273 398.108 51.7773C398.32 51.4193 398.426 50.9961 398.426 50.5078ZM405.176 41.792L405.237 43.0371C405.506 42.5732 405.856 42.2111 406.287 41.9507C406.727 41.6903 407.256 41.556 407.874 41.5479C409.087 41.5479 409.896 42.0199 410.303 42.9639C410.564 42.5407 410.905 42.203 411.329 41.9507C411.76 41.6903 412.281 41.556 412.891 41.5479C413.86 41.5479 414.604 41.8449 415.125 42.439C415.646 43.033 415.906 43.9323 415.906 45.1367V55H413.758V45.1123C413.758 44.0055 413.249 43.4562 412.232 43.4644C411.963 43.4644 411.731 43.501 411.536 43.5742C411.341 43.6475 411.178 43.7492 411.048 43.8794C410.918 44.0015 410.816 44.1479 410.743 44.3188C410.669 44.4816 410.621 44.6525 410.596 44.8315V55H408.448V45.1001C408.448 44.5711 408.33 44.1642 408.094 43.8794C407.858 43.5946 407.483 43.4562 406.971 43.4644C406.499 43.4644 406.132 43.5579 405.872 43.7451C405.612 43.9323 405.42 44.1805 405.298 44.4897V55H403.15V41.792H405.176ZM427.833 55C427.743 54.8291 427.67 54.6175 427.613 54.3652C427.564 54.1048 427.527 53.8363 427.503 53.5596C427.275 53.7874 427.019 54.0031 426.734 54.2065C426.457 54.41 426.148 54.589 425.806 54.7437C425.472 54.8983 425.114 55.0203 424.732 55.1099C424.349 55.1994 423.943 55.2441 423.511 55.2441C422.811 55.2441 422.177 55.1424 421.607 54.939C421.045 54.7355 420.565 54.4629 420.167 54.1211C419.776 53.7712 419.471 53.3602 419.251 52.8882C419.039 52.408 418.934 51.8913 418.934 51.3379C418.934 50.6136 419.076 49.9788 419.361 49.4336C419.654 48.8883 420.065 48.4367 420.594 48.0786C421.123 47.7124 421.757 47.4398 422.498 47.2607C423.247 47.0817 424.081 46.9922 425 46.9922H427.466V45.9546C427.466 45.5558 427.393 45.1978 427.247 44.8804C427.1 44.563 426.893 44.2944 426.624 44.0747C426.355 43.8468 426.026 43.6719 425.635 43.5498C425.253 43.4277 424.821 43.3667 424.341 43.3667C423.894 43.3667 423.491 43.4237 423.133 43.5376C422.783 43.6515 422.486 43.8021 422.242 43.9893C421.998 44.1764 421.806 44.4002 421.668 44.6606C421.538 44.9129 421.473 45.1774 421.473 45.4541H419.202C419.21 44.974 419.332 44.502 419.568 44.0381C419.812 43.5742 420.158 43.1592 420.606 42.793C421.062 42.4186 421.611 42.1175 422.254 41.8896C422.905 41.6618 423.641 41.5479 424.463 41.5479C425.212 41.5479 425.908 41.6414 426.551 41.8286C427.194 42.0076 427.747 42.2843 428.211 42.6587C428.683 43.0249 429.053 43.4847 429.322 44.0381C429.59 44.5915 429.725 45.2384 429.725 45.979V52.1191C429.725 52.5586 429.765 53.0265 429.847 53.5229C429.928 54.0112 430.042 54.4385 430.188 54.8047V55H427.833ZM423.841 53.2788C424.28 53.2788 424.691 53.2218 425.074 53.1079C425.456 52.994 425.802 52.8434 426.111 52.6562C426.429 52.4691 426.701 52.2575 426.929 52.0215C427.157 51.7773 427.336 51.5251 427.466 51.2646V48.5913H425.367C424.048 48.5913 423.023 48.7866 422.291 49.1772C421.558 49.5679 421.192 50.1823 421.192 51.0205C421.192 51.346 421.245 51.6471 421.351 51.9238C421.465 52.2005 421.631 52.4406 421.851 52.644C422.071 52.8394 422.347 52.994 422.681 53.1079C423.015 53.2218 423.401 53.2788 423.841 53.2788ZM434.522 36.25H441.272V53.0469H445.582V55H434.522V53.0469H439.014V38.2153H434.522V36.25ZM449.537 36.25H456.287V53.0469H460.596V55H449.537V53.0469H454.029V38.2153H449.537V36.25ZM487.891 55C487.802 54.8291 487.728 54.6175 487.671 54.3652C487.623 54.1048 487.586 53.8363 487.562 53.5596C487.334 53.7874 487.077 54.0031 486.792 54.2065C486.516 54.41 486.207 54.589 485.865 54.7437C485.531 54.8983 485.173 55.0203 484.791 55.1099C484.408 55.1994 484.001 55.2441 483.57 55.2441C482.87 55.2441 482.235 55.1424 481.666 54.939C481.104 54.7355 480.624 54.4629 480.225 54.1211C479.834 53.7712 479.529 53.3602 479.31 52.8882C479.098 52.408 478.992 51.8913 478.992 51.3379C478.992 50.6136 479.135 49.9788 479.419 49.4336C479.712 48.8883 480.123 48.4367 480.652 48.0786C481.181 47.7124 481.816 47.4398 482.557 47.2607C483.305 47.0817 484.139 46.9922 485.059 46.9922H487.525V45.9546C487.525 45.5558 487.452 45.1978 487.305 44.8804C487.159 44.563 486.951 44.2944 486.683 44.0747C486.414 43.8468 486.084 43.6719 485.694 43.5498C485.311 43.4277 484.88 43.3667 484.4 43.3667C483.952 43.3667 483.549 43.4237 483.191 43.5376C482.841 43.6515 482.544 43.8021 482.3 43.9893C482.056 44.1764 481.865 44.4002 481.727 44.6606C481.596 44.9129 481.531 45.1774 481.531 45.4541H479.261C479.269 44.974 479.391 44.502 479.627 44.0381C479.871 43.5742 480.217 43.1592 480.665 42.793C481.12 42.4186 481.67 42.1175 482.312 41.8896C482.964 41.6618 483.7 41.5479 484.522 41.5479C485.271 41.5479 485.966 41.6414 486.609 41.8286C487.252 42.0076 487.806 42.2843 488.27 42.6587C488.742 43.0249 489.112 43.4847 489.38 44.0381C489.649 44.5915 489.783 45.2384 489.783 45.979V52.1191C489.783 52.5586 489.824 53.0265 489.905 53.5229C489.987 54.0112 490.101 54.4385 490.247 54.8047V55H487.891ZM483.899 53.2788C484.339 53.2788 484.75 53.2218 485.132 53.1079C485.515 52.994 485.861 52.8434 486.17 52.6562C486.487 52.4691 486.76 52.2575 486.988 52.0215C487.216 51.7773 487.395 51.5251 487.525 51.2646V48.5913H485.425C484.107 48.5913 483.082 48.7866 482.349 49.1772C481.617 49.5679 481.25 50.1823 481.25 51.0205C481.25 51.346 481.303 51.6471 481.409 51.9238C481.523 52.2005 481.69 52.4406 481.91 52.644C482.129 52.8394 482.406 52.994 482.74 53.1079C483.073 53.2218 483.46 53.2788 483.899 53.2788ZM494.581 36.25H501.331V53.0469H505.64V55H494.581V53.0469H499.073V38.2153H494.581V36.25ZM520.386 48.5425C520.386 49.4865 520.272 50.3695 520.044 51.1914C519.817 52.0052 519.483 52.7132 519.043 53.3154C518.604 53.9176 518.059 54.3896 517.408 54.7314C516.765 55.0732 516.028 55.2441 515.198 55.2441C514.393 55.2441 513.681 55.1139 513.062 54.8535C512.452 54.5931 511.927 54.2188 511.487 53.7305V60.0781H509.229V41.792H511.292L511.402 43.2324C511.841 42.6872 512.37 42.2721 512.989 41.9873C513.615 41.6943 514.34 41.5479 515.162 41.5479C516.008 41.5479 516.757 41.7147 517.408 42.0483C518.059 42.382 518.604 42.8459 519.043 43.4399C519.483 44.034 519.817 44.7461 520.044 45.5762C520.272 46.3981 520.386 47.3014 520.386 48.2861V48.5425ZM518.128 48.2861C518.128 47.6432 518.055 47.0329 517.908 46.4551C517.77 45.8691 517.55 45.3564 517.249 44.917C516.956 44.4694 516.582 44.1154 516.126 43.855C515.67 43.5946 515.125 43.4644 514.49 43.4644C513.766 43.4644 513.156 43.6353 512.659 43.9771C512.171 44.3107 511.78 44.742 511.487 45.271V51.6309C511.78 52.1517 512.171 52.5789 512.659 52.9126C513.147 53.2381 513.766 53.4009 514.515 53.4009C515.141 53.4009 515.682 53.2707 516.138 53.0103C516.594 52.7417 516.968 52.3836 517.261 51.936C517.554 51.4884 517.77 50.9717 517.908 50.3857C518.055 49.7998 518.128 49.1854 518.128 48.5425V48.2861ZM526.514 43.7573C526.986 43.0656 527.568 42.5285 528.26 42.146C528.951 41.7554 529.729 41.556 530.591 41.5479C531.283 41.5479 531.91 41.6496 532.471 41.853C533.041 42.0483 533.525 42.3576 533.924 42.7808C534.323 43.2039 534.628 43.741 534.839 44.3921C535.059 45.035 535.169 45.8 535.169 46.687V55H532.911V46.6626C532.911 45.5802 532.65 44.7746 532.129 44.2456C531.617 43.7166 530.88 43.4562 529.92 43.4644C529.196 43.4644 528.536 43.6434 527.942 44.0015C527.356 44.3514 526.88 44.8193 526.514 45.4053V55H524.256V36.25H526.514V43.7573ZM547.95 55C547.86 54.8291 547.787 54.6175 547.73 54.3652C547.681 54.1048 547.645 53.8363 547.62 53.5596C547.392 53.7874 547.136 54.0031 546.851 54.2065C546.574 54.41 546.265 54.589 545.923 54.7437C545.59 54.8983 545.232 55.0203 544.849 55.1099C544.467 55.1994 544.06 55.2441 543.628 55.2441C542.929 55.2441 542.294 55.1424 541.724 54.939C541.163 54.7355 540.682 54.4629 540.284 54.1211C539.893 53.7712 539.588 53.3602 539.368 52.8882C539.157 52.408 539.051 51.8913 539.051 51.3379C539.051 50.6136 539.193 49.9788 539.478 49.4336C539.771 48.8883 540.182 48.4367 540.711 48.0786C541.24 47.7124 541.875 47.4398 542.615 47.2607C543.364 47.0817 544.198 46.9922 545.118 46.9922H547.583V45.9546C547.583 45.5558 547.51 45.1978 547.364 44.8804C547.217 44.563 547.01 44.2944 546.741 44.0747C546.473 43.8468 546.143 43.6719 545.752 43.5498C545.37 43.4277 544.939 43.3667 544.458 43.3667C544.011 43.3667 543.608 43.4237 543.25 43.5376C542.9 43.6515 542.603 43.8021 542.359 43.9893C542.115 44.1764 541.924 44.4002 541.785 44.6606C541.655 44.9129 541.59 45.1774 541.59 45.4541H539.319C539.327 44.974 539.45 44.502 539.686 44.0381C539.93 43.5742 540.276 43.1592 540.723 42.793C541.179 42.4186 541.728 42.1175 542.371 41.8896C543.022 41.6618 543.759 41.5479 544.581 41.5479C545.329 41.5479 546.025 41.6414 546.668 41.8286C547.311 42.0076 547.864 42.2843 548.328 42.6587C548.8 43.0249 549.17 43.4847 549.439 44.0381C549.708 44.5915 549.842 45.2384 549.842 45.979V52.1191C549.842 52.5586 549.882 53.0265 549.964 53.5229C550.045 54.0112 550.159 54.4385 550.306 54.8047V55H547.95ZM543.958 53.2788C544.397 53.2788 544.808 53.2218 545.191 53.1079C545.573 52.994 545.919 52.8434 546.229 52.6562C546.546 52.4691 546.819 52.2575 547.046 52.0215C547.274 51.7773 547.453 51.5251 547.583 51.2646V48.5913H545.484C544.166 48.5913 543.14 48.7866 542.408 49.1772C541.675 49.5679 541.309 50.1823 541.309 51.0205C541.309 51.346 541.362 51.6471 541.468 51.9238C541.582 52.2005 541.749 52.4406 541.968 52.644C542.188 52.8394 542.465 52.994 542.798 53.1079C543.132 53.2218 543.519 53.2788 543.958 53.2788Z" fill="black"/>
<path d="M742.257 55H739.962L733.065 41.7188L733.028 55H730.746V37.2266H733.041L739.938 50.4834L739.974 37.2266H742.257V55ZM745.504 48.2739C745.504 47.3218 745.642 46.4388 745.919 45.625C746.196 44.8031 746.59 44.091 747.103 43.4888C747.624 42.8866 748.255 42.4146 748.995 42.0728C749.736 41.7228 750.57 41.5479 751.498 41.5479C752.433 41.5479 753.272 41.7228 754.012 42.0728C754.761 42.4146 755.392 42.8866 755.904 43.4888C756.425 44.091 756.824 44.8031 757.101 45.625C757.377 46.4388 757.516 47.3218 757.516 48.2739V48.5425C757.516 49.4946 757.377 50.3776 757.101 51.1914C756.824 52.0052 756.425 52.7132 755.904 53.3154C755.392 53.9176 754.765 54.3896 754.024 54.7314C753.284 55.0732 752.45 55.2441 751.522 55.2441C750.586 55.2441 749.744 55.0732 748.995 54.7314C748.255 54.3896 747.624 53.9176 747.103 53.3154C746.59 52.7132 746.196 52.0052 745.919 51.1914C745.642 50.3776 745.504 49.4946 745.504 48.5425V48.2739ZM747.762 48.5425C747.762 49.1935 747.84 49.8161 747.994 50.4102C748.149 50.9961 748.381 51.5129 748.69 51.9604C749.007 52.408 749.402 52.762 749.874 53.0225C750.346 53.2829 750.895 53.4131 751.522 53.4131C752.14 53.4131 752.682 53.2829 753.146 53.0225C753.618 52.762 754.008 52.408 754.317 51.9604C754.635 51.5129 754.871 50.9961 755.025 50.4102C755.18 49.8161 755.257 49.1935 755.257 48.5425V48.2739C755.257 47.631 755.176 47.0166 755.013 46.4307C754.859 45.8366 754.623 45.3158 754.305 44.8682C753.996 44.4206 753.605 44.0666 753.133 43.8062C752.669 43.5376 752.124 43.4033 751.498 43.4033C750.871 43.4033 750.326 43.5376 749.862 43.8062C749.398 44.0666 749.007 44.4206 748.69 44.8682C748.381 45.3158 748.149 45.8366 747.994 46.4307C747.84 47.0166 747.762 47.631 747.762 48.2739V48.5425ZM761.507 41.792H768.258V53.0469H772.567V55H761.507V53.0469H766V43.7573H761.507V41.792ZM765.707 38.3252C765.707 37.9508 765.816 37.6375 766.036 37.3853C766.264 37.1248 766.606 36.9946 767.062 36.9946C767.509 36.9946 767.847 37.1248 768.075 37.3853C768.303 37.6375 768.417 37.9508 768.417 38.3252C768.417 38.6914 768.303 38.9966 768.075 39.2407C767.847 39.4849 767.509 39.6069 767.062 39.6069C766.606 39.6069 766.264 39.4849 766.036 39.2407C765.816 38.9966 765.707 38.6914 765.707 38.3252ZM784.945 51.4966C784.945 51.228 784.892 50.988 784.786 50.7764C784.68 50.5566 784.501 50.3573 784.249 50.1782C783.997 49.9992 783.663 49.8364 783.248 49.6899C782.833 49.5353 782.316 49.397 781.698 49.2749C780.941 49.1203 780.249 48.9331 779.623 48.7134C779.004 48.4937 778.471 48.2332 778.023 47.9321C777.584 47.6229 777.242 47.2648 776.998 46.8579C776.754 46.4429 776.632 45.9627 776.632 45.4175C776.632 44.8804 776.758 44.3799 777.01 43.916C777.263 43.444 777.617 43.033 778.072 42.6831C778.528 42.3332 779.069 42.0565 779.696 41.853C780.331 41.6496 781.026 41.5479 781.783 41.5479C782.597 41.5479 783.329 41.6536 783.98 41.8652C784.632 42.0768 785.185 42.3698 785.641 42.7441C786.096 43.1185 786.446 43.5579 786.69 44.0625C786.943 44.5589 787.069 45.096 787.069 45.6738H784.811C784.811 45.389 784.737 45.1123 784.591 44.8438C784.444 44.5671 784.241 44.3229 783.98 44.1113C783.72 43.8997 783.403 43.7288 783.028 43.5986C782.662 43.4684 782.247 43.4033 781.783 43.4033C781.303 43.4033 780.88 43.4562 780.514 43.562C780.156 43.6678 779.854 43.8102 779.61 43.9893C779.374 44.1683 779.195 44.3758 779.073 44.6118C778.951 44.8478 778.89 45.092 778.89 45.3442C778.89 45.6047 778.939 45.8366 779.037 46.04C779.134 46.2435 779.301 46.4266 779.537 46.5894C779.781 46.7521 780.103 46.8986 780.501 47.0288C780.908 47.159 781.421 47.2852 782.04 47.4072C782.853 47.5781 783.582 47.7775 784.225 48.0054C784.868 48.2251 785.409 48.4937 785.848 48.811C786.288 49.1203 786.621 49.4824 786.849 49.8975C787.085 50.3125 787.203 50.7926 787.203 51.3379C787.203 51.9238 787.069 52.4569 786.8 52.937C786.54 53.4172 786.174 53.8281 785.702 54.1699C785.23 54.5117 784.664 54.7762 784.005 54.9634C783.346 55.1506 782.625 55.2441 781.844 55.2441C780.949 55.2441 780.152 55.1261 779.452 54.8901C778.752 54.646 778.158 54.3286 777.669 53.938C777.189 53.5392 776.819 53.0794 776.559 52.5586C776.306 52.0378 776.18 51.4966 776.18 50.9351H778.438C778.471 51.3989 778.593 51.7896 778.805 52.1069C779.024 52.4243 779.293 52.6807 779.61 52.876C779.936 53.0713 780.294 53.2096 780.685 53.291C781.075 53.3724 781.462 53.4131 781.844 53.4131C782.796 53.4131 783.549 53.2381 784.103 52.8882C784.656 52.5382 784.937 52.0744 784.945 51.4966ZM797.018 55.2441C796.09 55.2441 795.235 55.0854 794.454 54.7681C793.681 54.4507 793.018 54.0072 792.464 53.4375C791.911 52.8678 791.48 52.1924 791.17 51.4111C790.861 50.6299 790.707 49.7795 790.707 48.8599V48.3472C790.707 47.2811 790.877 46.3289 791.219 45.4907C791.561 44.6444 792.013 43.9323 792.574 43.3545C793.144 42.7686 793.787 42.321 794.503 42.0117C795.227 41.7025 795.968 41.5479 796.725 41.5479C797.677 41.5479 798.507 41.7147 799.215 42.0483C799.931 42.3739 800.525 42.8296 800.997 43.4155C801.469 43.9933 801.819 44.6769 802.047 45.4663C802.283 46.2557 802.401 47.1102 802.401 48.0298V49.043H792.965C792.989 49.6452 793.103 50.2108 793.307 50.7397C793.518 51.2687 793.803 51.7326 794.161 52.1313C794.527 52.522 794.963 52.8312 795.467 53.0591C795.972 53.2869 796.529 53.4009 797.14 53.4009C797.945 53.4009 798.661 53.2381 799.288 52.9126C799.915 52.5871 800.436 52.1558 800.851 51.6187L802.23 52.6929C802.01 53.0265 801.734 53.348 801.4 53.6572C801.074 53.9583 800.696 54.2269 800.265 54.4629C799.833 54.6989 799.345 54.8861 798.8 55.0244C798.255 55.1709 797.66 55.2441 797.018 55.2441ZM796.725 43.4033C796.269 43.4033 795.838 43.4888 795.431 43.6597C795.024 43.8224 794.658 44.0666 794.332 44.3921C794.007 44.7095 793.73 45.1042 793.502 45.5762C793.282 46.04 793.128 46.5771 793.038 47.1875H800.143V47.0166C800.118 46.5771 800.033 46.1418 799.886 45.7104C799.748 45.2791 799.54 44.8926 799.264 44.5508C798.987 44.209 798.637 43.9323 798.214 43.7207C797.799 43.5091 797.302 43.4033 796.725 43.4033Z" fill="black"/>
<circle cx="151.5" cy="186.5" r="5.5" fill="black"/>
<circle cx="465.5" cy="182.5" r="5.5" fill="black"/>
<circle cx="763.5" cy="186.5" r="5.5" fill="#C8C8C8"/>
<path d="M152.354 107.646C152.158 107.451 151.842 107.451 151.646 107.646L148.464 110.828C148.269 111.024 148.269 111.34 148.464 111.536C148.66 111.731 148.976 111.731 149.172 111.536L152 108.707L154.828 111.536C155.024 111.731 155.34 111.731 155.536 111.536C155.731 111.34 155.731 111.024 155.536 110.828L152.354 107.646ZM152.5 185L152.5 108L151.5 108L151.5 185L152.5 185Z" fill="black"/>
<path d="M466.354 149.646C466.158 149.451 465.842 149.451 465.646 149.646L462.464 152.828C462.269 153.024 462.269 153.34 462.464 153.536C462.66 153.731 462.976 153.731 463.172 153.536L466 150.707L468.828 153.536C469.024 153.731 469.34 153.731 469.536 153.536C469.731 153.34 469.731 153.024 469.536 152.828L466.354 149.646ZM466.5 181L466.5 150L465.5 150L465.5 181L466.5 181Z" fill="black"/>
<path d="M764.354 153.646C764.158 153.451 763.842 153.451 763.646 153.646L760.464 156.828C760.269 157.024 760.269 157.34 760.464 157.536C760.66 157.731 760.976 157.731 761.172 157.536L764 154.707L766.828 157.536C767.024 157.731 767.34 157.731 767.536 157.536C767.731 157.34 767.731 157.024 767.536 156.828L764.354 153.646ZM764.5 185L764.5 154L763.5 154L763.5 185L764.5 185Z" fill="#C8C8C8"/>
<path d="M803.081 182.493C803.353 182.449 803.538 182.191 803.493 181.919L802.764 177.478C802.72 177.206 802.462 177.021 802.19 177.066C801.917 177.111 801.733 177.368 801.778 177.64L802.426 181.588L798.478 182.236C798.206 182.28 798.021 182.538 798.066 182.81C798.111 183.083 798.368 183.267 798.64 183.222L803.081 182.493ZM763.708 154.406L802.708 182.406L803.292 181.594L764.292 153.594L763.708 154.406Z" fill="black"/>
<circle cx="764" cy="154" r="48.5" stroke="black"/>
</svg>
