<svg width="930" height="316" viewBox="0 0 930 316" fill="none" xmlns="http://www.w3.org/2000/svg">
<rect width="930" height="316" fill="white"/>
<rect x="359" y="101" width="185" height="185" fill="#282C34"/>
<rect x="674" y="101" width="185" height="185" fill="#282C34"/>
<rect x="44" y="105" width="185" height="185" fill="#282C34"/>
<rect x="748" y="138" width="37" height="37" fill="#F6FF33" fill-opacity="0.35"/>
<rect x="785" y="138" width="37" height="37" fill="#F6FF33" fill-opacity="0.7"/>
<rect x="748" y="175" width="37" height="37" fill="#F6FF33" fill-opacity="0.4"/>
<rect x="748" y="212" width="37" height="37" fill="#F6FF33" fill-opacity="0.8"/>
<rect x="711" y="175" width="37" height="37" fill="#F6FF33" fill-opacity="0.5"/>
<rect x="118" y="179" width="37" height="37" fill="#F6FF33"/>
<rect x="433.5" y="175.5" width="36" height="36" stroke="#F6FF33"/>
<rect x="359.5" y="101.5" width="36" height="36" stroke="#F6FF33"/>
<rect x="396.5" y="249.5" width="36" height="36" stroke="#F6FF33"/>
<rect x="507.5" y="101.5" width="36" height="36" stroke="#F6FF33"/>
<rect x="155" y="179" width="37" height="37" fill="#33FFF0" fill-opacity="0.4"/>
<rect x="118" y="216" width="37" height="37" fill="#33FFF0" fill-opacity="0.5"/>
<rect x="748" y="249" width="37" height="37" fill="#F6FF33" fill-opacity="0.4"/>
<rect x="81" y="179" width="37" height="37" fill="#33FFF0" fill-opacity="0.5"/>
<rect x="118" y="105" width="37" height="37" fill="#33FFF0" fill-opacity="0.9"/>
<rect x="155" y="105" width="37" height="37" fill="#33FFF0" fill-opacity="0.9"/>
<rect x="785" y="101" width="37" height="37" fill="#F6FF33" fill-opacity="0.35"/>
<path d="M68.6079 58.3979H62.6753L61.2471 63H58.9888L64.7261 45.2266H66.6182L72.2578 63H70.0117L68.6079 58.3979ZM63.2856 56.4326H68.0098L65.666 48.7178L63.2856 56.4326ZM74.7236 56.2861C74.7236 55.3014 74.8416 54.3981 75.0776 53.5762C75.3218 52.7461 75.6717 52.034 76.1274 51.4399C76.5832 50.8459 77.1366 50.382 77.7876 50.0483C78.4386 49.7147 79.1751 49.5479 79.9971 49.5479C80.8109 49.5479 81.5229 49.6943 82.1333 49.9873C82.7518 50.2721 83.2767 50.6872 83.708 51.2324L83.8179 49.792H85.8687V62.7192C85.8687 63.59 85.7303 64.3631 85.4536 65.0386C85.1851 65.714 84.8026 66.2878 84.3062 66.7598C83.8179 67.2318 83.2319 67.5898 82.5483 67.834C81.8647 68.0781 81.1079 68.2002 80.2778 68.2002C79.936 68.2002 79.5454 68.1595 79.106 68.0781C78.6665 68.0049 78.2189 67.8787 77.7632 67.6997C77.3156 67.5288 76.8802 67.2969 76.457 67.0039C76.042 66.7109 75.6839 66.3488 75.3828 65.9175L76.5547 64.5625C76.8314 64.8962 77.1162 65.1769 77.4092 65.4048C77.7021 65.6408 77.9992 65.828 78.3003 65.9663C78.6014 66.1047 78.9025 66.2023 79.2036 66.2593C79.5047 66.3244 79.8058 66.3569 80.1069 66.3569C80.644 66.3569 81.1283 66.2796 81.5596 66.125C81.9909 65.9704 82.3571 65.7425 82.6582 65.4414C82.9674 65.1484 83.2035 64.7822 83.3662 64.3428C83.529 63.9033 83.6104 63.3988 83.6104 62.8291V61.6938C83.1709 62.1984 82.6501 62.585 82.0479 62.8535C81.4538 63.1139 80.762 63.2441 79.9727 63.2441C79.167 63.2441 78.4386 63.0732 77.7876 62.7314C77.1366 62.3896 76.5832 61.9176 76.1274 61.3154C75.6799 60.7132 75.334 60.0052 75.0898 59.1914C74.8457 58.3695 74.7236 57.4865 74.7236 56.5425V56.2861ZM76.9819 56.5425C76.9819 57.1854 77.047 57.7957 77.1772 58.3735C77.3156 58.9513 77.5272 59.46 77.812 59.8994C78.105 60.3389 78.4753 60.6888 78.9229 60.9492C79.3704 61.2015 79.9076 61.3276 80.5342 61.3276C80.9248 61.3276 81.2747 61.2829 81.584 61.1934C81.9014 61.0957 82.1821 60.9614 82.4263 60.7905C82.6785 60.6196 82.9023 60.4162 83.0977 60.1802C83.293 59.9442 83.4639 59.6838 83.6104 59.3989V53.3442C83.4639 53.0675 83.293 52.8153 83.0977 52.5874C82.9023 52.3595 82.6785 52.1642 82.4263 52.0015C82.174 51.8306 81.8932 51.7004 81.584 51.6108C81.2747 51.5132 80.9329 51.4644 80.5586 51.4644C79.9238 51.4644 79.3786 51.5946 78.9229 51.855C78.4753 52.1154 78.105 52.4694 77.812 52.917C77.5272 53.3564 77.3156 53.8691 77.1772 54.4551C77.047 55.0329 76.9819 55.6432 76.9819 56.2861V56.5425ZM95.9883 63.2441C95.0605 63.2441 94.2061 63.0854 93.4248 62.7681C92.6517 62.4507 91.9884 62.0072 91.4351 61.4375C90.8817 60.8678 90.4504 60.1924 90.1411 59.4111C89.8319 58.6299 89.6772 57.7795 89.6772 56.8599V56.3472C89.6772 55.2811 89.8481 54.3289 90.1899 53.4907C90.5317 52.6444 90.9834 51.9323 91.5449 51.3545C92.1146 50.7686 92.7575 50.321 93.4736 50.0117C94.1979 49.7025 94.9385 49.5479 95.6953 49.5479C96.6475 49.5479 97.4775 49.7147 98.1855 50.0483C98.9017 50.3739 99.4958 50.8296 99.9678 51.4155C100.44 51.9933 100.79 52.6769 101.018 53.4663C101.254 54.2557 101.372 55.1102 101.372 56.0298V57.043H91.9355C91.96 57.6452 92.0739 58.2108 92.2773 58.7397C92.4889 59.2687 92.7738 59.7326 93.1318 60.1313C93.498 60.522 93.9334 60.8312 94.438 61.0591C94.9425 61.2869 95.5 61.4009 96.1104 61.4009C96.916 61.4009 97.6322 61.2381 98.2588 60.9126C98.8854 60.5871 99.4062 60.1558 99.8213 59.6187L101.201 60.6929C100.981 61.0265 100.704 61.348 100.371 61.6572C100.045 61.9583 99.6667 62.2269 99.2354 62.4629C98.804 62.6989 98.3158 62.8861 97.7705 63.0244C97.2253 63.1709 96.6312 63.2441 95.9883 63.2441ZM95.6953 51.4033C95.2396 51.4033 94.8083 51.4888 94.4014 51.6597C93.9945 51.8224 93.6283 52.0666 93.3027 52.3921C92.9772 52.7095 92.7005 53.1042 92.4727 53.5762C92.2529 54.04 92.0983 54.5771 92.0088 55.1875H99.1133V55.0166C99.0889 54.5771 99.0034 54.1418 98.8569 53.7104C98.7186 53.2791 98.5111 52.8926 98.2344 52.5508C97.9577 52.209 97.6077 51.9323 97.1846 51.7207C96.7695 51.5091 96.2731 51.4033 95.6953 51.4033ZM107.194 49.792L107.353 51.7451C107.833 51.0615 108.423 50.5285 109.123 50.146C109.823 49.7554 110.604 49.556 111.467 49.5479C112.159 49.5479 112.785 49.6455 113.347 49.8408C113.916 50.0361 114.401 50.3413 114.799 50.7563C115.198 51.1714 115.503 51.7004 115.715 52.3433C115.935 52.978 116.044 53.7349 116.044 54.6138V63H113.786V54.6626C113.786 54.0767 113.721 53.5802 113.591 53.1733C113.461 52.7664 113.265 52.4368 113.005 52.1846C112.753 51.9323 112.439 51.7492 112.065 51.6353C111.699 51.5213 111.276 51.4644 110.795 51.4644C110.039 51.4644 109.371 51.6556 108.793 52.0381C108.224 52.4124 107.768 52.9089 107.426 53.5273V63H105.168V49.792H107.194ZM125.529 46.5938V49.792H130.559V51.5376H125.529V58.7153C125.529 59.228 125.594 59.6512 125.725 59.9849C125.855 60.3185 126.034 60.5871 126.262 60.7905C126.49 60.9858 126.75 61.1242 127.043 61.2056C127.344 61.2869 127.661 61.3276 127.995 61.3276C128.239 61.3276 128.492 61.3154 128.752 61.291C129.012 61.2585 129.265 61.2218 129.509 61.1812C129.761 61.1405 129.993 61.0998 130.205 61.0591C130.424 61.0103 130.603 60.9696 130.742 60.937L131.059 62.5361C130.872 62.6501 130.644 62.7518 130.375 62.8413C130.107 62.9227 129.814 62.9919 129.497 63.0488C129.179 63.1139 128.841 63.1628 128.483 63.1953C128.133 63.2279 127.784 63.2441 127.434 63.2441C126.848 63.2441 126.298 63.1628 125.786 63C125.281 62.8291 124.842 62.5646 124.467 62.2065C124.093 61.8403 123.796 61.3724 123.576 60.8027C123.365 60.2249 123.259 59.5291 123.259 58.7153V51.5376H119.792V49.792H123.259V46.5938H125.529ZM143.974 59.4966C143.974 59.228 143.921 58.988 143.815 58.7764C143.71 58.5566 143.531 58.3573 143.278 58.1782C143.026 57.9992 142.692 57.8364 142.277 57.6899C141.862 57.5353 141.346 57.397 140.727 57.2749C139.97 57.1203 139.278 56.9331 138.652 56.7134C138.033 56.4937 137.5 56.2332 137.053 55.9321C136.613 55.6229 136.271 55.2648 136.027 54.8579C135.783 54.4429 135.661 53.9627 135.661 53.4175C135.661 52.8804 135.787 52.3799 136.04 51.916C136.292 51.444 136.646 51.033 137.102 50.6831C137.557 50.3332 138.098 50.0565 138.725 49.853C139.36 49.6496 140.056 49.5479 140.812 49.5479C141.626 49.5479 142.359 49.6536 143.01 49.8652C143.661 50.0768 144.214 50.3698 144.67 50.7441C145.126 51.1185 145.476 51.5579 145.72 52.0625C145.972 52.5589 146.098 53.096 146.098 53.6738H143.84C143.84 53.389 143.767 53.1123 143.62 52.8438C143.474 52.5671 143.27 52.3229 143.01 52.1113C142.749 51.8997 142.432 51.7288 142.058 51.5986C141.691 51.4684 141.276 51.4033 140.812 51.4033C140.332 51.4033 139.909 51.4562 139.543 51.562C139.185 51.6678 138.884 51.8102 138.64 51.9893C138.404 52.1683 138.225 52.3758 138.103 52.6118C137.98 52.8478 137.919 53.092 137.919 53.3442C137.919 53.6047 137.968 53.8366 138.066 54.04C138.164 54.2435 138.33 54.4266 138.566 54.5894C138.811 54.7521 139.132 54.8986 139.531 55.0288C139.938 55.159 140.45 55.2852 141.069 55.4072C141.883 55.5781 142.611 55.7775 143.254 56.0054C143.897 56.2251 144.438 56.4937 144.877 56.811C145.317 57.1203 145.651 57.4824 145.878 57.8975C146.114 58.3125 146.232 58.7926 146.232 59.3379C146.232 59.9238 146.098 60.4569 145.83 60.937C145.569 61.4172 145.203 61.8281 144.731 62.1699C144.259 62.5117 143.693 62.7762 143.034 62.9634C142.375 63.1506 141.655 63.2441 140.874 63.2441C139.978 63.2441 139.181 63.1261 138.481 62.8901C137.781 62.646 137.187 62.3286 136.699 61.938C136.219 61.5392 135.848 61.0794 135.588 60.5586C135.336 60.0378 135.209 59.4966 135.209 58.9351H137.468C137.5 59.3989 137.622 59.7896 137.834 60.1069C138.054 60.4243 138.322 60.6807 138.64 60.876C138.965 61.0713 139.323 61.2096 139.714 61.291C140.104 61.3724 140.491 61.4131 140.874 61.4131C141.826 61.4131 142.578 61.2381 143.132 60.8882C143.685 60.5382 143.966 60.0744 143.974 59.4966ZM167.705 45.2266L170.598 54.1133L173.723 45.2266H176.53V63H174.333V55.9077L174.516 48.4858L171.232 58.0562H169.938L166.923 48.7422L167.106 55.9077V63H164.909V45.2266H167.705ZM179.606 56.2739C179.606 55.3218 179.745 54.4388 180.021 53.625C180.298 52.8031 180.693 52.091 181.206 51.4888C181.726 50.8866 182.357 50.4146 183.098 50.0728C183.838 49.7228 184.672 49.5479 185.6 49.5479C186.536 49.5479 187.374 49.7228 188.115 50.0728C188.863 50.4146 189.494 50.8866 190.007 51.4888C190.528 52.091 190.926 52.8031 191.203 53.625C191.48 54.4388 191.618 55.3218 191.618 56.2739V56.5425C191.618 57.4946 191.48 58.3776 191.203 59.1914C190.926 60.0052 190.528 60.7132 190.007 61.3154C189.494 61.9176 188.868 62.3896 188.127 62.7314C187.386 63.0732 186.552 63.2441 185.625 63.2441C184.689 63.2441 183.846 63.0732 183.098 62.7314C182.357 62.3896 181.726 61.9176 181.206 61.3154C180.693 60.7132 180.298 60.0052 180.021 59.1914C179.745 58.3776 179.606 57.4946 179.606 56.5425V56.2739ZM181.865 56.5425C181.865 57.1935 181.942 57.8161 182.097 58.4102C182.251 58.9961 182.483 59.5129 182.792 59.9604C183.11 60.408 183.505 60.762 183.977 61.0225C184.449 61.2829 184.998 61.4131 185.625 61.4131C186.243 61.4131 186.784 61.2829 187.248 61.0225C187.72 60.762 188.111 60.408 188.42 59.9604C188.737 59.5129 188.973 58.9961 189.128 58.4102C189.283 57.8161 189.36 57.1935 189.36 56.5425V56.2739C189.36 55.631 189.278 55.0166 189.116 54.4307C188.961 53.8366 188.725 53.3158 188.408 52.8682C188.098 52.4206 187.708 52.0666 187.236 51.8062C186.772 51.5376 186.227 51.4033 185.6 51.4033C184.973 51.4033 184.428 51.5376 183.964 51.8062C183.5 52.0666 183.11 52.4206 182.792 52.8682C182.483 53.3158 182.251 53.8366 182.097 54.4307C181.942 55.0166 181.865 55.631 181.865 56.2739V56.5425ZM200.432 59.7529L200.639 60.5708L200.859 59.7529L204.558 49.792H206.865L201.481 63H199.76L194.328 49.792H196.647L200.432 59.7529ZM216.105 63.2441C215.178 63.2441 214.323 63.0854 213.542 62.7681C212.769 62.4507 212.106 62.0072 211.552 61.4375C210.999 60.8678 210.568 60.1924 210.258 59.4111C209.949 58.6299 209.794 57.7795 209.794 56.8599V56.3472C209.794 55.2811 209.965 54.3289 210.307 53.4907C210.649 52.6444 211.101 51.9323 211.662 51.3545C212.232 50.7686 212.875 50.321 213.591 50.0117C214.315 49.7025 215.056 49.5479 215.812 49.5479C216.765 49.5479 217.595 49.7147 218.303 50.0483C219.019 50.3739 219.613 50.8296 220.085 51.4155C220.557 51.9933 220.907 52.6769 221.135 53.4663C221.371 54.2557 221.489 55.1102 221.489 56.0298V57.043H212.053C212.077 57.6452 212.191 58.2108 212.395 58.7397C212.606 59.2687 212.891 59.7326 213.249 60.1313C213.615 60.522 214.051 60.8312 214.555 61.0591C215.06 61.2869 215.617 61.4009 216.228 61.4009C217.033 61.4009 217.749 61.2381 218.376 60.9126C219.003 60.5871 219.523 60.1558 219.938 59.6187L221.318 60.6929C221.098 61.0265 220.821 61.348 220.488 61.6572C220.162 61.9583 219.784 62.2269 219.353 62.4629C218.921 62.6989 218.433 62.8861 217.888 63.0244C217.342 63.1709 216.748 63.2441 216.105 63.2441ZM215.812 51.4033C215.357 51.4033 214.925 51.4888 214.519 51.6597C214.112 51.8224 213.745 52.0666 213.42 52.3921C213.094 52.7095 212.818 53.1042 212.59 53.5762C212.37 54.04 212.215 54.5771 212.126 55.1875H219.23V55.0166C219.206 54.5771 219.121 54.1418 218.974 53.7104C218.836 53.2791 218.628 52.8926 218.352 52.5508C218.075 52.209 217.725 51.9323 217.302 51.7207C216.887 51.5091 216.39 51.4033 215.812 51.4033Z" fill="black"/>
<path d="M384.608 58.3979H378.675L377.247 63H374.989L380.726 45.2266H382.618L388.258 63H386.012L384.608 58.3979ZM379.286 56.4326H384.01L381.666 48.7178L379.286 56.4326ZM390.724 56.2861C390.724 55.3014 390.842 54.3981 391.078 53.5762C391.322 52.7461 391.672 52.034 392.127 51.4399C392.583 50.8459 393.137 50.382 393.788 50.0483C394.439 49.7147 395.175 49.5479 395.997 49.5479C396.811 49.5479 397.523 49.6943 398.133 49.9873C398.752 50.2721 399.277 50.6872 399.708 51.2324L399.818 49.792H401.869V62.7192C401.869 63.59 401.73 64.3631 401.454 65.0386C401.185 65.714 400.803 66.2878 400.306 66.7598C399.818 67.2318 399.232 67.5898 398.548 67.834C397.865 68.0781 397.108 68.2002 396.278 68.2002C395.936 68.2002 395.545 68.1595 395.106 68.0781C394.667 68.0049 394.219 67.8787 393.763 67.6997C393.316 67.5288 392.88 67.2969 392.457 67.0039C392.042 66.7109 391.684 66.3488 391.383 65.9175L392.555 64.5625C392.831 64.8962 393.116 65.1769 393.409 65.4048C393.702 65.6408 393.999 65.828 394.3 65.9663C394.601 66.1047 394.903 66.2023 395.204 66.2593C395.505 66.3244 395.806 66.3569 396.107 66.3569C396.644 66.3569 397.128 66.2796 397.56 66.125C397.991 65.9704 398.357 65.7425 398.658 65.4414C398.967 65.1484 399.203 64.7822 399.366 64.3428C399.529 63.9033 399.61 63.3988 399.61 62.8291V61.6938C399.171 62.1984 398.65 62.585 398.048 62.8535C397.454 63.1139 396.762 63.2441 395.973 63.2441C395.167 63.2441 394.439 63.0732 393.788 62.7314C393.137 62.3896 392.583 61.9176 392.127 61.3154C391.68 60.7132 391.334 60.0052 391.09 59.1914C390.846 58.3695 390.724 57.4865 390.724 56.5425V56.2861ZM392.982 56.5425C392.982 57.1854 393.047 57.7957 393.177 58.3735C393.316 58.9513 393.527 59.46 393.812 59.8994C394.105 60.3389 394.475 60.6888 394.923 60.9492C395.37 61.2015 395.908 61.3276 396.534 61.3276C396.925 61.3276 397.275 61.2829 397.584 61.1934C397.901 61.0957 398.182 60.9614 398.426 60.7905C398.679 60.6196 398.902 60.4162 399.098 60.1802C399.293 59.9442 399.464 59.6838 399.61 59.3989V53.3442C399.464 53.0675 399.293 52.8153 399.098 52.5874C398.902 52.3595 398.679 52.1642 398.426 52.0015C398.174 51.8306 397.893 51.7004 397.584 51.6108C397.275 51.5132 396.933 51.4644 396.559 51.4644C395.924 51.4644 395.379 51.5946 394.923 51.855C394.475 52.1154 394.105 52.4694 393.812 52.917C393.527 53.3564 393.316 53.8691 393.177 54.4551C393.047 55.0329 392.982 55.6432 392.982 56.2861V56.5425ZM411.988 63.2441C411.061 63.2441 410.206 63.0854 409.425 62.7681C408.652 62.4507 407.988 62.0072 407.435 61.4375C406.882 60.8678 406.45 60.1924 406.141 59.4111C405.832 58.6299 405.677 57.7795 405.677 56.8599V56.3472C405.677 55.2811 405.848 54.3289 406.19 53.4907C406.532 52.6444 406.983 51.9323 407.545 51.3545C408.115 50.7686 408.757 50.321 409.474 50.0117C410.198 49.7025 410.938 49.5479 411.695 49.5479C412.647 49.5479 413.478 49.7147 414.186 50.0483C414.902 50.3739 415.496 50.8296 415.968 51.4155C416.44 51.9933 416.79 52.6769 417.018 53.4663C417.254 54.2557 417.372 55.1102 417.372 56.0298V57.043H407.936C407.96 57.6452 408.074 58.2108 408.277 58.7397C408.489 59.2687 408.774 59.7326 409.132 60.1313C409.498 60.522 409.933 60.8312 410.438 61.0591C410.943 61.2869 411.5 61.4009 412.11 61.4009C412.916 61.4009 413.632 61.2381 414.259 60.9126C414.885 60.5871 415.406 60.1558 415.821 59.6187L417.201 60.6929C416.981 61.0265 416.704 61.348 416.371 61.6572C416.045 61.9583 415.667 62.2269 415.235 62.4629C414.804 62.6989 414.316 62.8861 413.771 63.0244C413.225 63.1709 412.631 63.2441 411.988 63.2441ZM411.695 51.4033C411.24 51.4033 410.808 51.4888 410.401 51.6597C409.994 51.8224 409.628 52.0666 409.303 52.3921C408.977 52.7095 408.701 53.1042 408.473 53.5762C408.253 54.04 408.098 54.5771 408.009 55.1875H415.113V55.0166C415.089 54.5771 415.003 54.1418 414.857 53.7104C414.719 53.2791 414.511 52.8926 414.234 52.5508C413.958 52.209 413.608 51.9323 413.185 51.7207C412.77 51.5091 412.273 51.4033 411.695 51.4033ZM423.194 49.792L423.353 51.7451C423.833 51.0615 424.423 50.5285 425.123 50.146C425.823 49.7554 426.604 49.556 427.467 49.5479C428.159 49.5479 428.785 49.6455 429.347 49.8408C429.916 50.0361 430.401 50.3413 430.799 50.7563C431.198 51.1714 431.503 51.7004 431.715 52.3433C431.935 52.978 432.044 53.7349 432.044 54.6138V63H429.786V54.6626C429.786 54.0767 429.721 53.5802 429.591 53.1733C429.461 52.7664 429.265 52.4368 429.005 52.1846C428.753 51.9323 428.439 51.7492 428.065 51.6353C427.699 51.5213 427.276 51.4644 426.795 51.4644C426.039 51.4644 425.371 51.6556 424.793 52.0381C424.224 52.4124 423.768 52.9089 423.426 53.5273V63H421.168V49.792H423.194ZM441.529 46.5938V49.792H446.559V51.5376H441.529V58.7153C441.529 59.228 441.594 59.6512 441.725 59.9849C441.855 60.3185 442.034 60.5871 442.262 60.7905C442.49 60.9858 442.75 61.1242 443.043 61.2056C443.344 61.2869 443.661 61.3276 443.995 61.3276C444.239 61.3276 444.492 61.3154 444.752 61.291C445.012 61.2585 445.265 61.2218 445.509 61.1812C445.761 61.1405 445.993 61.0998 446.205 61.0591C446.424 61.0103 446.603 60.9696 446.742 60.937L447.059 62.5361C446.872 62.6501 446.644 62.7518 446.375 62.8413C446.107 62.9227 445.814 62.9919 445.497 63.0488C445.179 63.1139 444.841 63.1628 444.483 63.1953C444.133 63.2279 443.784 63.2441 443.434 63.2441C442.848 63.2441 442.298 63.1628 441.786 63C441.281 62.8291 440.842 62.5646 440.467 62.2065C440.093 61.8403 439.796 61.3724 439.576 60.8027C439.365 60.2249 439.259 59.5291 439.259 58.7153V51.5376H435.792V49.792H439.259V46.5938H441.529ZM459.974 59.4966C459.974 59.228 459.921 58.988 459.815 58.7764C459.71 58.5566 459.531 58.3573 459.278 58.1782C459.026 57.9992 458.692 57.8364 458.277 57.6899C457.862 57.5353 457.346 57.397 456.727 57.2749C455.97 57.1203 455.278 56.9331 454.652 56.7134C454.033 56.4937 453.5 56.2332 453.053 55.9321C452.613 55.6229 452.271 55.2648 452.027 54.8579C451.783 54.4429 451.661 53.9627 451.661 53.4175C451.661 52.8804 451.787 52.3799 452.04 51.916C452.292 51.444 452.646 51.033 453.102 50.6831C453.557 50.3332 454.098 50.0565 454.725 49.853C455.36 49.6496 456.056 49.5479 456.812 49.5479C457.626 49.5479 458.359 49.6536 459.01 49.8652C459.661 50.0768 460.214 50.3698 460.67 50.7441C461.126 51.1185 461.476 51.5579 461.72 52.0625C461.972 52.5589 462.098 53.096 462.098 53.6738H459.84C459.84 53.389 459.767 53.1123 459.62 52.8438C459.474 52.5671 459.27 52.3229 459.01 52.1113C458.749 51.8997 458.432 51.7288 458.058 51.5986C457.691 51.4684 457.276 51.4033 456.812 51.4033C456.332 51.4033 455.909 51.4562 455.543 51.562C455.185 51.6678 454.884 51.8102 454.64 51.9893C454.404 52.1683 454.225 52.3758 454.103 52.6118C453.98 52.8478 453.919 53.092 453.919 53.3442C453.919 53.6047 453.968 53.8366 454.066 54.04C454.164 54.2435 454.33 54.4266 454.566 54.5894C454.811 54.7521 455.132 54.8986 455.531 55.0288C455.938 55.159 456.45 55.2852 457.069 55.4072C457.883 55.5781 458.611 55.7775 459.254 56.0054C459.897 56.2251 460.438 56.4937 460.877 56.811C461.317 57.1203 461.651 57.4824 461.878 57.8975C462.114 58.3125 462.232 58.7926 462.232 59.3379C462.232 59.9238 462.098 60.4569 461.83 60.937C461.569 61.4172 461.203 61.8281 460.731 62.1699C460.259 62.5117 459.693 62.7762 459.034 62.9634C458.375 63.1506 457.655 63.2441 456.874 63.2441C455.978 63.2441 455.181 63.1261 454.481 62.8901C453.781 62.646 453.187 62.3286 452.699 61.938C452.219 61.5392 451.848 61.0794 451.588 60.5586C451.336 60.0378 451.209 59.4966 451.209 58.9351H453.468C453.5 59.3989 453.622 59.7896 453.834 60.1069C454.054 60.4243 454.322 60.6807 454.64 60.876C454.965 61.0713 455.323 61.2096 455.714 61.291C456.104 61.3724 456.491 61.4131 456.874 61.4131C457.826 61.4131 458.578 61.2381 459.132 60.8882C459.685 60.5382 459.966 60.0744 459.974 59.4966ZM491.004 54.7847H483.583V61.0835H492.237V63H481.324V45.2266H492.127V47.1553H483.583V52.8682H491.004V54.7847ZM497.279 49.792L497.34 51.0371C497.608 50.5732 497.958 50.2111 498.39 49.9507C498.829 49.6903 499.358 49.556 499.977 49.5479C501.189 49.5479 501.999 50.0199 502.406 50.9639C502.666 50.5407 503.008 50.203 503.431 49.9507C503.862 49.6903 504.383 49.556 504.994 49.5479C505.962 49.5479 506.707 49.8449 507.228 50.439C507.748 51.033 508.009 51.9323 508.009 53.1367V63H505.86V53.1123C505.86 52.0055 505.352 51.4562 504.334 51.4644C504.066 51.4644 503.834 51.501 503.639 51.5742C503.443 51.6475 503.281 51.7492 503.15 51.8794C503.02 52.0015 502.918 52.1479 502.845 52.3188C502.772 52.4816 502.723 52.6525 502.699 52.8315V63H500.55V53.1001C500.55 52.5711 500.432 52.1642 500.196 51.8794C499.96 51.5946 499.586 51.4562 499.073 51.4644C498.601 51.4644 498.235 51.5579 497.975 51.7451C497.714 51.9323 497.523 52.1805 497.401 52.4897V63H495.252V49.792H497.279ZM511.61 49.792H518.36V61.0469H522.669V63H511.61V61.0469H516.102V51.7573H511.61V49.792ZM515.809 46.3252C515.809 45.9508 515.919 45.6375 516.139 45.3853C516.367 45.1248 516.708 44.9946 517.164 44.9946C517.612 44.9946 517.949 45.1248 518.177 45.3853C518.405 45.6375 518.519 45.9508 518.519 46.3252C518.519 46.6914 518.405 46.9966 518.177 47.2407C517.949 47.4849 517.612 47.6069 517.164 47.6069C516.708 47.6069 516.367 47.4849 516.139 47.2407C515.919 46.9966 515.809 46.6914 515.809 46.3252ZM531.617 46.5938V49.792H536.646V51.5376H531.617V58.7153C531.617 59.228 531.682 59.6512 531.812 59.9849C531.943 60.3185 532.122 60.5871 532.35 60.7905C532.577 60.9858 532.838 61.1242 533.131 61.2056C533.432 61.2869 533.749 61.3276 534.083 61.3276C534.327 61.3276 534.579 61.3154 534.84 61.291C535.1 61.2585 535.353 61.2218 535.597 61.1812C535.849 61.1405 536.081 61.0998 536.292 61.0591C536.512 61.0103 536.691 60.9696 536.83 60.937L537.147 62.5361C536.96 62.6501 536.732 62.7518 536.463 62.8413C536.195 62.9227 535.902 62.9919 535.584 63.0488C535.267 63.1139 534.929 63.1628 534.571 63.1953C534.221 63.2279 533.871 63.2441 533.521 63.2441C532.936 63.2441 532.386 63.1628 531.874 63C531.369 62.8291 530.93 62.5646 530.555 62.2065C530.181 61.8403 529.884 61.3724 529.664 60.8027C529.452 60.2249 529.347 59.5291 529.347 58.7153V51.5376H525.88V49.792H529.347V46.5938H531.617Z" fill="black"/>
<rect x="118" y="142" width="37" height="37" fill="#33FFF0" stroke="white"/>
<path d="M742.968 39.1509H735.57V47H733.288V29.2266H744.201V31.1553H735.57V37.2344H742.968V39.1509ZM748.449 33.792H755.199V45.0469H759.508V47H748.449V45.0469H752.941V35.7573H748.449V33.792ZM752.648 30.3252C752.648 29.9508 752.758 29.6375 752.978 29.3853C753.205 29.1248 753.547 28.9946 754.003 28.9946C754.451 28.9946 754.788 29.1248 755.016 29.3853C755.244 29.6375 755.358 29.9508 755.358 30.3252C755.358 30.6914 755.244 30.9966 755.016 31.2407C754.788 31.4849 754.451 31.6069 754.003 31.6069C753.547 31.6069 753.205 31.4849 752.978 31.2407C752.758 30.9966 752.648 30.6914 752.648 30.3252ZM768.944 47.2441C768.017 47.2441 767.162 47.0854 766.381 46.7681C765.608 46.4507 764.944 46.0072 764.391 45.4375C763.838 44.8678 763.406 44.1924 763.097 43.4111C762.788 42.6299 762.633 41.7795 762.633 40.8599V40.3472C762.633 39.2811 762.804 38.3289 763.146 37.4907C763.488 36.6444 763.939 35.9323 764.501 35.3545C765.071 34.7686 765.714 34.321 766.43 34.0117C767.154 33.7025 767.895 33.5479 768.651 33.5479C769.604 33.5479 770.434 33.7147 771.142 34.0483C771.858 34.3739 772.452 34.8296 772.924 35.4155C773.396 35.9933 773.746 36.6769 773.974 37.4663C774.21 38.2557 774.328 39.1102 774.328 40.0298V41.043H764.892C764.916 41.6452 765.03 42.2108 765.233 42.7397C765.445 43.2687 765.73 43.7326 766.088 44.1313C766.454 44.522 766.889 44.8312 767.394 45.0591C767.899 45.2869 768.456 45.4009 769.066 45.4009C769.872 45.4009 770.588 45.2381 771.215 44.9126C771.841 44.5871 772.362 44.1558 772.777 43.6187L774.157 44.6929C773.937 45.0265 773.66 45.348 773.327 45.6572C773.001 45.9583 772.623 46.2269 772.191 46.4629C771.76 46.6989 771.272 46.8861 770.727 47.0244C770.181 47.1709 769.587 47.2441 768.944 47.2441ZM768.651 35.4033C768.196 35.4033 767.764 35.4888 767.357 35.6597C766.951 35.8224 766.584 36.0666 766.259 36.3921C765.933 36.7095 765.657 37.1042 765.429 37.5762C765.209 38.04 765.054 38.5771 764.965 39.1875H772.069V39.0166C772.045 38.5771 771.959 38.1418 771.813 37.7104C771.675 37.2791 771.467 36.8926 771.19 36.5508C770.914 36.209 770.564 35.9323 770.141 35.7207C769.726 35.5091 769.229 35.4033 768.651 35.4033ZM778.478 28.25H785.229V45.0469H789.538V47H778.478V45.0469H782.97V30.2153H778.478V28.25ZM792.711 40.2861C792.711 39.3014 792.833 38.3981 793.078 37.5762C793.33 36.7461 793.684 36.034 794.14 35.4399C794.604 34.8459 795.161 34.382 795.812 34.0483C796.463 33.7147 797.191 33.5479 797.997 33.5479C798.786 33.5479 799.474 33.6821 800.06 33.9507C800.654 34.2111 801.167 34.5936 801.598 35.0981V28.25H803.856V47H801.781L801.684 45.6084C801.244 46.1455 800.719 46.5524 800.109 46.8291C799.499 47.1058 798.786 47.2441 797.973 47.2441C797.175 47.2441 796.451 47.0732 795.8 46.7314C795.157 46.3896 794.608 45.9176 794.152 45.3154C793.696 44.7132 793.342 44.0052 793.09 43.1914C792.838 42.3695 792.711 41.4865 792.711 40.5425V40.2861ZM794.97 40.5425C794.97 41.1854 795.039 41.7957 795.177 42.3735C795.316 42.9513 795.527 43.46 795.812 43.8994C796.105 44.3389 796.475 44.6888 796.923 44.9492C797.37 45.2015 797.908 45.3276 798.534 45.3276C798.917 45.3276 799.263 45.2829 799.572 45.1934C799.881 45.1038 800.162 44.9777 800.414 44.8149C800.666 44.644 800.89 44.4447 801.085 44.2168C801.281 43.9808 801.452 43.7204 801.598 43.4355V37.3076C801.305 36.7705 800.91 36.3311 800.414 35.9893C799.918 35.6393 799.299 35.4644 798.559 35.4644C797.924 35.4644 797.379 35.5946 796.923 35.855C796.475 36.1154 796.105 36.4694 795.812 36.917C795.527 37.3564 795.316 37.8691 795.177 38.4551C795.039 39.0329 794.97 39.6432 794.97 40.2861V40.5425ZM720.336 67.7847H712.914V74.0835H721.569V76H710.656V58.2266H721.459V60.1553H712.914V65.8682H720.336V67.7847ZM730.749 72.7529L730.956 73.5708L731.176 72.7529L734.875 62.792H737.182L731.798 76H730.077L724.645 62.792H726.964L730.749 72.7529ZM739.953 69.2739C739.953 68.3218 740.091 67.4388 740.368 66.625C740.644 65.8031 741.039 65.091 741.552 64.4888C742.073 63.8866 742.703 63.4146 743.444 63.0728C744.184 62.7228 745.019 62.5479 745.946 62.5479C746.882 62.5479 747.72 62.7228 748.461 63.0728C749.21 63.4146 749.84 63.8866 750.353 64.4888C750.874 65.091 751.273 65.8031 751.549 66.625C751.826 67.4388 751.964 68.3218 751.964 69.2739V69.5425C751.964 70.4946 751.826 71.3776 751.549 72.1914C751.273 73.0052 750.874 73.7132 750.353 74.3154C749.84 74.9176 749.214 75.3896 748.473 75.7314C747.733 76.0732 746.898 76.2441 745.971 76.2441C745.035 76.2441 744.193 76.0732 743.444 75.7314C742.703 75.3896 742.073 74.9176 741.552 74.3154C741.039 73.7132 740.644 73.0052 740.368 72.1914C740.091 71.3776 739.953 70.4946 739.953 69.5425V69.2739ZM742.211 69.5425C742.211 70.1935 742.288 70.8161 742.443 71.4102C742.597 71.9961 742.829 72.5129 743.139 72.9604C743.456 73.408 743.851 73.762 744.323 74.0225C744.795 74.2829 745.344 74.4131 745.971 74.4131C746.589 74.4131 747.13 74.2829 747.594 74.0225C748.066 73.762 748.457 73.408 748.766 72.9604C749.083 72.5129 749.319 71.9961 749.474 71.4102C749.629 70.8161 749.706 70.1935 749.706 69.5425V69.2739C749.706 68.631 749.625 68.0166 749.462 67.4307C749.307 66.8366 749.071 66.3158 748.754 65.8682C748.445 65.4206 748.054 65.0666 747.582 64.8062C747.118 64.5376 746.573 64.4033 745.946 64.4033C745.32 64.4033 744.774 64.5376 744.311 64.8062C743.847 65.0666 743.456 65.4206 743.139 65.8682C742.829 66.3158 742.597 66.8366 742.443 67.4307C742.288 68.0166 742.211 68.631 742.211 69.2739V69.5425ZM755.956 57.25H762.707V74.0469H767.016V76H755.956V74.0469H760.448V59.2153H755.956V57.25ZM779.186 74.1812C778.747 74.8322 778.197 75.3408 777.538 75.707C776.879 76.0651 776.118 76.2441 775.255 76.2441C774.564 76.2441 773.937 76.1383 773.375 75.9268C772.814 75.707 772.334 75.3693 771.935 74.9136C771.536 74.4578 771.227 73.88 771.007 73.1802C770.796 72.4722 770.69 71.6258 770.69 70.6411V62.792H772.948V70.6655C772.948 71.3817 773.005 71.9757 773.119 72.4478C773.233 72.9198 773.404 73.2982 773.632 73.583C773.86 73.8597 774.136 74.055 774.462 74.1689C774.796 74.2829 775.178 74.3398 775.609 74.3398C776.529 74.3398 777.27 74.1527 777.831 73.7783C778.401 73.404 778.824 72.8994 779.101 72.2646V62.792H781.371V76H779.32L779.186 74.1812ZM790.978 59.5938V62.792H796.007V64.5376H790.978V71.7153C790.978 72.228 791.043 72.6512 791.173 72.9849C791.304 73.3185 791.483 73.5871 791.71 73.7905C791.938 73.9858 792.199 74.1242 792.492 74.2056C792.793 74.2869 793.11 74.3276 793.444 74.3276C793.688 74.3276 793.94 74.3154 794.201 74.291C794.461 74.2585 794.713 74.2218 794.958 74.1812C795.21 74.1405 795.442 74.0998 795.653 74.0591C795.873 74.0103 796.052 73.9696 796.19 73.937L796.508 75.5361C796.321 75.6501 796.093 75.7518 795.824 75.8413C795.556 75.9227 795.263 75.9919 794.945 76.0488C794.628 76.1139 794.29 76.1628 793.932 76.1953C793.582 76.2279 793.232 76.2441 792.882 76.2441C792.296 76.2441 791.747 76.1628 791.234 76C790.73 75.8291 790.29 75.5646 789.916 75.2065C789.542 74.8403 789.245 74.3724 789.025 73.8027C788.813 73.2249 788.708 72.5291 788.708 71.7153V64.5376H785.241V62.792H788.708V59.5938H790.978ZM801 62.792H807.75V74.0469H812.06V76H801V74.0469H805.492V64.7573H801V62.792ZM805.199 59.3252C805.199 58.9508 805.309 58.6375 805.529 58.3853C805.757 58.1248 806.098 57.9946 806.554 57.9946C807.002 57.9946 807.34 58.1248 807.567 58.3853C807.795 58.6375 807.909 58.9508 807.909 59.3252C807.909 59.6914 807.795 59.9966 807.567 60.2407C807.34 60.4849 807.002 60.6069 806.554 60.6069C806.098 60.6069 805.757 60.4849 805.529 60.2407C805.309 59.9966 805.199 59.6914 805.199 59.3252ZM815.026 69.2739C815.026 68.3218 815.164 67.4388 815.441 66.625C815.718 65.8031 816.112 65.091 816.625 64.4888C817.146 63.8866 817.777 63.4146 818.517 63.0728C819.258 62.7228 820.092 62.5479 821.02 62.5479C821.955 62.5479 822.794 62.7228 823.534 63.0728C824.283 63.4146 824.914 63.8866 825.426 64.4888C825.947 65.091 826.346 65.8031 826.623 66.625C826.899 67.4388 827.038 68.3218 827.038 69.2739V69.5425C827.038 70.4946 826.899 71.3776 826.623 72.1914C826.346 73.0052 825.947 73.7132 825.426 74.3154C824.914 74.9176 824.287 75.3896 823.546 75.7314C822.806 76.0732 821.972 76.2441 821.044 76.2441C820.108 76.2441 819.266 76.0732 818.517 75.7314C817.777 75.3896 817.146 74.9176 816.625 74.3154C816.112 73.7132 815.718 73.0052 815.441 72.1914C815.164 71.3776 815.026 70.4946 815.026 69.5425V69.2739ZM817.284 69.5425C817.284 70.1935 817.361 70.8161 817.516 71.4102C817.671 71.9961 817.903 72.5129 818.212 72.9604C818.529 73.408 818.924 73.762 819.396 74.0225C819.868 74.2829 820.417 74.4131 821.044 74.4131C821.662 74.4131 822.204 74.2829 822.667 74.0225C823.139 73.762 823.53 73.408 823.839 72.9604C824.157 72.5129 824.393 71.9961 824.547 71.4102C824.702 70.8161 824.779 70.1935 824.779 69.5425V69.2739C824.779 68.631 824.698 68.0166 824.535 67.4307C824.381 66.8366 824.145 66.3158 823.827 65.8682C823.518 65.4206 823.127 65.0666 822.655 64.8062C822.191 64.5376 821.646 64.4033 821.02 64.4033C820.393 64.4033 819.848 64.5376 819.384 64.8062C818.92 65.0666 818.529 65.4206 818.212 65.8682C817.903 66.3158 817.671 66.8366 817.516 67.4307C817.361 68.0166 817.284 68.631 817.284 69.2739V69.5425ZM832.702 62.792L832.86 64.7451C833.34 64.0615 833.931 63.5285 834.63 63.146C835.33 62.7554 836.111 62.556 836.974 62.5479C837.666 62.5479 838.292 62.6455 838.854 62.8408C839.424 63.0361 839.908 63.3413 840.307 63.7563C840.705 64.1714 841.011 64.7004 841.222 65.3433C841.442 65.978 841.552 66.7349 841.552 67.6138V76H839.293V67.6626C839.293 67.0767 839.228 66.5802 839.098 66.1733C838.968 65.7664 838.773 65.4368 838.512 65.1846C838.26 64.9323 837.947 64.7492 837.572 64.6353C837.206 64.5213 836.783 64.4644 836.303 64.4644C835.546 64.4644 834.879 64.6556 834.301 65.0381C833.731 65.4124 833.275 65.9089 832.934 66.5273V76H830.675V62.792H832.702Z" fill="black"/>
<path d="M136.354 160.646C136.158 160.451 135.842 160.451 135.646 160.646L132.464 163.828C132.269 164.024 132.269 164.34 132.464 164.536C132.66 164.731 132.976 164.731 133.172 164.536L136 161.707L138.828 164.536C139.024 164.731 139.34 164.731 139.536 164.536C139.731 164.34 139.731 164.024 139.536 163.828L136.354 160.646ZM136.5 196L136.5 161L135.5 161L135.5 196L136.5 196Z" fill="white"/>
<circle cx="135.5" cy="197.5" r="5.5" fill="white"/>
<path d="M97.6464 196.646C97.4512 196.842 97.4512 197.158 97.6464 197.354L100.828 200.536C101.024 200.731 101.34 200.731 101.536 200.536C101.731 200.34 101.731 200.024 101.536 199.828L98.7071 197L101.536 194.172C101.731 193.976 101.731 193.66 101.536 193.464C101.34 193.269 101.024 193.269 100.828 193.464L97.6464 196.646ZM136 196.5L98 196.5L98 197.5L136 197.5L136 196.5Z" fill="white"/>
<path d="M135.646 235.354C135.842 235.549 136.158 235.549 136.354 235.354L139.536 232.172C139.731 231.976 139.731 231.66 139.536 231.464C139.34 231.269 139.024 231.269 138.828 231.464L136 234.293L133.172 231.464C132.976 231.269 132.66 231.269 132.464 231.464C132.269 231.66 132.269 231.976 132.464 232.172L135.646 235.354ZM135.5 196L135.5 235L136.5 235L136.5 196L135.5 196Z" fill="white"/>
<path d="M172.354 197.354C172.549 197.158 172.549 196.842 172.354 196.646L169.172 193.464C168.976 193.269 168.66 193.269 168.464 193.464C168.269 193.66 168.269 193.976 168.464 194.172L171.293 197L168.464 199.828C168.269 200.024 168.269 200.34 168.464 200.536C168.66 200.731 168.976 200.731 169.172 200.536L172.354 197.354ZM136 197.5H172V196.5H136V197.5Z" fill="white"/>
<circle cx="452" cy="194" r="12" fill="#F6FF33"/>
<circle cx="378" cy="120" r="6" fill="#F6FF33"/>
<circle cx="526" cy="120" r="9" fill="#F6FF33"/>
<circle cx="414.5" cy="267.5" r="4.5" fill="#F6FF33"/>
</svg>
