<svg width="930" height="316" viewBox="0 0 930 316" fill="none" xmlns="http://www.w3.org/2000/svg">
<rect width="930" height="316" fill="white"/>
<rect x="192" y="95" width="178" height="178" fill="#282C34"/>
<rect x="597" y="95" width="178" height="178" fill="#282C34"/>
<rect x="271" y="194" width="20" height="20" fill="#F6FF33" fill-opacity="0.85"/>
<rect x="676" y="194" width="20" height="20" fill="#6A0DAD" fill-opacity="0.85"/>
<rect x="676" y="214" width="20" height="20" fill="#F6FF33" fill-opacity="0.85"/>
<rect x="775" y="150" width="20" height="20" transform="rotate(90 775 150)" fill="#F6FF33" fill-opacity="0.85"/>
<rect x="636" y="95" width="20" height="20" fill="#F6FF33" fill-opacity="0.85"/>
<rect x="271" y="214" width="20" height="20" fill="#F6FF33"/>
<rect x="291" y="214" width="20" height="20" fill="#F6FF33" fill-opacity="0.95"/>
<rect x="291" y="234" width="20" height="20" fill="#F6FF33" fill-opacity="0.8"/>
<rect x="291" y="254" width="20" height="19" fill="#F6FF33" fill-opacity="0.85"/>
<rect x="676" y="233" width="20" height="20" fill="#F6FF33"/>
<rect x="756" y="150" width="20" height="20" transform="rotate(90 756 150)" fill="#F6FF33"/>
<rect x="636" y="114" width="20" height="20" fill="#F6FF33"/>
<rect x="696" y="233" width="20" height="20" fill="#F6FF33" fill-opacity="0.95"/>
<rect x="756" y="170" width="20" height="20" transform="rotate(90 756 170)" fill="#F6FF33" fill-opacity="0.95"/>
<rect x="656" y="114" width="20" height="20" fill="#F6FF33" fill-opacity="0.95"/>
<rect x="696" y="253" width="20" height="20" fill="#F6FF33" fill-opacity="0.8"/>
<rect x="736" y="170" width="20" height="20" transform="rotate(90 736 170)" fill="#F6FF33" fill-opacity="0.8"/>
<rect x="656" y="134" width="20" height="20" fill="#F6FF33" fill-opacity="0.8"/>
<path d="M218.426 55.5078C218.426 54.9626 218.3 54.5028 218.047 54.1284C217.803 53.7541 217.486 53.4408 217.095 53.1885C216.705 52.9281 216.273 52.7124 215.801 52.5415C215.337 52.3706 214.89 52.216 214.458 52.0776C213.832 51.8742 213.193 51.63 212.542 51.3452C211.899 51.0604 211.309 50.7104 210.772 50.2954C210.243 49.8804 209.808 49.3921 209.466 48.8306C209.132 48.2609 208.965 47.5936 208.965 46.8286C208.965 46.0636 209.132 45.38 209.466 44.7778C209.808 44.1756 210.251 43.667 210.796 43.252C211.342 42.8369 211.96 42.5236 212.652 42.312C213.344 42.0923 214.039 41.9824 214.739 41.9824C215.512 41.9824 216.257 42.1126 216.973 42.373C217.689 42.6253 218.324 42.9834 218.877 43.4473C219.431 43.9111 219.874 44.4727 220.208 45.1318C220.542 45.791 220.717 46.5275 220.733 47.3413H218.414C218.348 46.8286 218.222 46.3647 218.035 45.9497C217.848 45.5265 217.6 45.1644 217.291 44.8633C216.981 44.5622 216.611 44.3302 216.18 44.1675C215.757 43.9966 215.276 43.9111 214.739 43.9111C214.308 43.9111 213.885 43.9722 213.47 44.0942C213.063 44.2163 212.697 44.3994 212.371 44.6436C212.054 44.8877 211.797 45.1888 211.602 45.5469C211.415 45.9049 211.321 46.32 211.321 46.792C211.329 47.3047 211.46 47.7401 211.712 48.0981C211.964 48.4481 212.282 48.7451 212.664 48.9893C213.055 49.2334 213.474 49.4368 213.921 49.5996C214.377 49.7624 214.804 49.9048 215.203 50.0269C215.643 50.1652 216.086 50.3239 216.534 50.5029C216.981 50.6738 217.413 50.8732 217.828 51.1011C218.243 51.3289 218.629 51.5853 218.987 51.8701C219.345 52.1549 219.659 52.4805 219.927 52.8467C220.196 53.2048 220.403 53.6035 220.55 54.043C220.704 54.4743 220.782 54.9544 220.782 55.4834C220.782 56.2809 220.603 56.9767 220.245 57.5708C219.895 58.1649 219.439 58.6613 218.877 59.0601C218.316 59.4507 217.681 59.7477 216.973 59.9512C216.265 60.1465 215.557 60.2441 214.849 60.2441C214.06 60.2441 213.287 60.1221 212.53 59.8779C211.773 59.6338 211.093 59.2839 210.491 58.8281C209.897 58.3643 209.413 57.8027 209.039 57.1436C208.664 56.4762 208.465 55.7194 208.44 54.873H210.748C210.821 55.4264 210.971 55.9188 211.199 56.3501C211.427 56.7733 211.72 57.1354 212.078 57.4365C212.436 57.7295 212.847 57.9533 213.311 58.1079C213.783 58.2544 214.296 58.3276 214.849 58.3276C215.289 58.3276 215.72 58.2747 216.143 58.1689C216.574 58.055 216.957 57.8841 217.291 57.6562C217.624 57.4202 217.897 57.1273 218.108 56.7773C218.32 56.4193 218.426 55.9961 218.426 55.5078ZM225.176 46.792L225.237 48.0371C225.506 47.5732 225.856 47.2111 226.287 46.9507C226.727 46.6903 227.256 46.556 227.874 46.5479C229.087 46.5479 229.896 47.0199 230.303 47.9639C230.564 47.5407 230.905 47.203 231.329 46.9507C231.76 46.6903 232.281 46.556 232.891 46.5479C233.86 46.5479 234.604 46.8449 235.125 47.439C235.646 48.033 235.906 48.9323 235.906 50.1367V60H233.758V50.1123C233.758 49.0055 233.249 48.4562 232.232 48.4644C231.963 48.4644 231.731 48.501 231.536 48.5742C231.341 48.6475 231.178 48.7492 231.048 48.8794C230.918 49.0015 230.816 49.1479 230.743 49.3188C230.669 49.4816 230.621 49.6525 230.596 49.8315V60H228.448V50.1001C228.448 49.5711 228.33 49.1642 228.094 48.8794C227.858 48.5946 227.483 48.4562 226.971 48.4644C226.499 48.4644 226.132 48.5579 225.872 48.7451C225.612 48.9323 225.42 49.1805 225.298 49.4897V60H223.15V46.792H225.176ZM247.833 60C247.743 59.8291 247.67 59.6175 247.613 59.3652C247.564 59.1048 247.527 58.8363 247.503 58.5596C247.275 58.7874 247.019 59.0031 246.734 59.2065C246.457 59.41 246.148 59.589 245.806 59.7437C245.472 59.8983 245.114 60.0203 244.732 60.1099C244.349 60.1994 243.943 60.2441 243.511 60.2441C242.811 60.2441 242.177 60.1424 241.607 59.939C241.045 59.7355 240.565 59.4629 240.167 59.1211C239.776 58.7712 239.471 58.3602 239.251 57.8882C239.039 57.408 238.934 56.8913 238.934 56.3379C238.934 55.6136 239.076 54.9788 239.361 54.4336C239.654 53.8883 240.065 53.4367 240.594 53.0786C241.123 52.7124 241.757 52.4398 242.498 52.2607C243.247 52.0817 244.081 51.9922 245 51.9922H247.466V50.9546C247.466 50.5558 247.393 50.1978 247.247 49.8804C247.1 49.563 246.893 49.2944 246.624 49.0747C246.355 48.8468 246.026 48.6719 245.635 48.5498C245.253 48.4277 244.821 48.3667 244.341 48.3667C243.894 48.3667 243.491 48.4237 243.133 48.5376C242.783 48.6515 242.486 48.8021 242.242 48.9893C241.998 49.1764 241.806 49.4002 241.668 49.6606C241.538 49.9129 241.473 50.1774 241.473 50.4541H239.202C239.21 49.974 239.332 49.502 239.568 49.0381C239.812 48.5742 240.158 48.1592 240.606 47.793C241.062 47.4186 241.611 47.1175 242.254 46.8896C242.905 46.6618 243.641 46.5479 244.463 46.5479C245.212 46.5479 245.908 46.6414 246.551 46.8286C247.194 47.0076 247.747 47.2843 248.211 47.6587C248.683 48.0249 249.053 48.4847 249.322 49.0381C249.59 49.5915 249.725 50.2384 249.725 50.979V57.1191C249.725 57.5586 249.765 58.0265 249.847 58.5229C249.928 59.0112 250.042 59.4385 250.188 59.8047V60H247.833ZM243.841 58.2788C244.28 58.2788 244.691 58.2218 245.074 58.1079C245.456 57.994 245.802 57.8434 246.111 57.6562C246.429 57.4691 246.701 57.2575 246.929 57.0215C247.157 56.7773 247.336 56.5251 247.466 56.2646V53.5913H245.367C244.048 53.5913 243.023 53.7866 242.291 54.1772C241.558 54.5679 241.192 55.1823 241.192 56.0205C241.192 56.346 241.245 56.6471 241.351 56.9238C241.465 57.2005 241.631 57.4406 241.851 57.644C242.071 57.8394 242.347 57.994 242.681 58.1079C243.015 58.2218 243.401 58.2788 243.841 58.2788ZM254.522 41.25H261.272V58.0469H265.582V60H254.522V58.0469H259.014V43.2153H254.522V41.25ZM269.537 41.25H276.287V58.0469H280.596V60H269.537V58.0469H274.029V43.2153H269.537V41.25ZM310.345 60H308.05L301.153 46.7188L301.116 60H298.833V42.2266H301.128L308.025 55.4834L308.062 42.2266H310.345V60ZM313.592 53.2739C313.592 52.3218 313.73 51.4388 314.007 50.625C314.284 49.8031 314.678 49.091 315.191 48.4888C315.712 47.8866 316.342 47.4146 317.083 47.0728C317.824 46.7228 318.658 46.5479 319.585 46.5479C320.521 46.5479 321.36 46.7228 322.1 47.0728C322.849 47.4146 323.479 47.8866 323.992 48.4888C324.513 49.091 324.912 49.8031 325.188 50.625C325.465 51.4388 325.604 52.3218 325.604 53.2739V53.5425C325.604 54.4946 325.465 55.3776 325.188 56.1914C324.912 57.0052 324.513 57.7132 323.992 58.3154C323.479 58.9176 322.853 59.3896 322.112 59.7314C321.372 60.0732 320.538 60.2441 319.61 60.2441C318.674 60.2441 317.832 60.0732 317.083 59.7314C316.342 59.3896 315.712 58.9176 315.191 58.3154C314.678 57.7132 314.284 57.0052 314.007 56.1914C313.73 55.3776 313.592 54.4946 313.592 53.5425V53.2739ZM315.85 53.5425C315.85 54.1935 315.927 54.8161 316.082 55.4102C316.237 55.9961 316.469 56.5129 316.778 56.9604C317.095 57.408 317.49 57.762 317.962 58.0225C318.434 58.2829 318.983 58.4131 319.61 58.4131C320.228 58.4131 320.77 58.2829 321.233 58.0225C321.705 57.762 322.096 57.408 322.405 56.9604C322.723 56.5129 322.959 55.9961 323.113 55.4102C323.268 54.8161 323.345 54.1935 323.345 53.5425V53.2739C323.345 52.631 323.264 52.0166 323.101 51.4307C322.946 50.8366 322.71 50.3158 322.393 49.8682C322.084 49.4206 321.693 49.0666 321.221 48.8062C320.757 48.5376 320.212 48.4033 319.585 48.4033C318.959 48.4033 318.414 48.5376 317.95 48.8062C317.486 49.0666 317.095 49.4206 316.778 49.8682C316.469 50.3158 316.237 50.8366 316.082 51.4307C315.927 52.0166 315.85 52.631 315.85 53.2739V53.5425ZM328.814 53.2861C328.814 52.3014 328.936 51.3981 329.18 50.5762C329.432 49.7461 329.786 49.034 330.242 48.4399C330.706 47.8459 331.264 47.382 331.915 47.0483C332.566 46.7147 333.294 46.5479 334.1 46.5479C334.889 46.5479 335.577 46.6821 336.163 46.9507C336.757 47.2111 337.269 47.5936 337.701 48.0981V41.25H339.959V60H337.884L337.786 58.6084C337.347 59.1455 336.822 59.5524 336.211 59.8291C335.601 60.1058 334.889 60.2441 334.075 60.2441C333.278 60.2441 332.553 60.0732 331.902 59.7314C331.259 59.3896 330.71 58.9176 330.254 58.3154C329.799 57.7132 329.445 57.0052 329.192 56.1914C328.94 55.3695 328.814 54.4865 328.814 53.5425V53.2861ZM331.072 53.5425C331.072 54.1854 331.141 54.7957 331.28 55.3735C331.418 55.9513 331.63 56.46 331.915 56.8994C332.208 57.3389 332.578 57.6888 333.025 57.9492C333.473 58.2015 334.01 58.3276 334.637 58.3276C335.019 58.3276 335.365 58.2829 335.674 58.1934C335.984 58.1038 336.264 57.9777 336.517 57.8149C336.769 57.644 336.993 57.4447 337.188 57.2168C337.383 56.9808 337.554 56.7204 337.701 56.4355V50.3076C337.408 49.7705 337.013 49.3311 336.517 48.9893C336.02 48.6393 335.402 48.4644 334.661 48.4644C334.026 48.4644 333.481 48.5946 333.025 48.855C332.578 49.1154 332.208 49.4694 331.915 49.917C331.63 50.3564 331.418 50.8691 331.28 51.4551C331.141 52.0329 331.072 52.6432 331.072 53.2861V53.5425ZM350.091 60.2441C349.163 60.2441 348.309 60.0854 347.527 59.7681C346.754 59.4507 346.091 59.0072 345.538 58.4375C344.984 57.8678 344.553 57.1924 344.244 56.4111C343.934 55.6299 343.78 54.7795 343.78 53.8599V53.3472C343.78 52.2811 343.951 51.3289 344.292 50.4907C344.634 49.6444 345.086 48.9323 345.647 48.3545C346.217 47.7686 346.86 47.321 347.576 47.0117C348.3 46.7025 349.041 46.5479 349.798 46.5479C350.75 46.5479 351.58 46.7147 352.288 47.0483C353.004 47.3739 353.598 47.8296 354.07 48.4155C354.542 48.9933 354.892 49.6769 355.12 50.4663C355.356 51.2557 355.474 52.1102 355.474 53.0298V54.043H346.038C346.062 54.6452 346.176 55.2108 346.38 55.7397C346.591 56.2687 346.876 56.7326 347.234 57.1313C347.601 57.522 348.036 57.8312 348.541 58.0591C349.045 58.2869 349.603 58.4009 350.213 58.4009C351.019 58.4009 351.735 58.2381 352.361 57.9126C352.988 57.5871 353.509 57.1558 353.924 56.6187L355.303 57.6929C355.083 58.0265 354.807 58.348 354.473 58.6572C354.148 58.9583 353.769 59.2269 353.338 59.4629C352.907 59.6989 352.418 59.8861 351.873 60.0244C351.328 60.1709 350.734 60.2441 350.091 60.2441ZM349.798 48.4033C349.342 48.4033 348.911 48.4888 348.504 48.6597C348.097 48.8224 347.731 49.0666 347.405 49.3921C347.08 49.7095 346.803 50.1042 346.575 50.5762C346.355 51.04 346.201 51.5771 346.111 52.1875H353.216V52.0166C353.191 51.5771 353.106 51.1418 352.959 50.7104C352.821 50.2791 352.614 49.8926 352.337 49.5508C352.06 49.209 351.71 48.9323 351.287 48.7207C350.872 48.5091 350.376 48.4033 349.798 48.4033Z" fill="black"/>
<path d="M625.1 60V42.2266H630.385C631.118 42.2347 631.834 42.3324 632.534 42.5195C633.234 42.6986 633.856 42.9793 634.401 43.3618C634.947 43.7443 635.382 44.2326 635.708 44.8267C636.033 45.4207 636.192 46.1328 636.184 46.9629C636.175 47.4268 636.098 47.8499 635.952 48.2324C635.813 48.6149 635.618 48.9608 635.366 49.27C635.122 49.5711 634.833 49.8356 634.499 50.0635C634.165 50.2913 633.811 50.4867 633.437 50.6494C633.909 50.7878 634.34 50.9871 634.731 51.2476C635.13 51.4998 635.472 51.8091 635.756 52.1753C636.041 52.5334 636.261 52.9403 636.416 53.396C636.578 53.8517 636.66 54.3441 636.66 54.873C636.668 55.7031 636.509 56.4355 636.184 57.0703C635.858 57.7051 635.423 58.2381 634.877 58.6694C634.332 59.0926 633.701 59.4181 632.985 59.646C632.277 59.8739 631.545 59.9919 630.788 60H625.1ZM627.37 51.687V58.0835H630.849C631.321 58.0754 631.769 57.998 632.192 57.8516C632.615 57.6969 632.989 57.4854 633.315 57.2168C633.64 56.9482 633.897 56.6187 634.084 56.228C634.279 55.8374 634.377 55.3939 634.377 54.8975C634.385 54.3929 634.3 53.9453 634.121 53.5547C633.95 53.1641 633.71 52.8345 633.4 52.5659C633.091 52.2892 632.729 52.0776 632.314 51.9312C631.899 51.7847 631.451 51.7033 630.971 51.687H627.37ZM627.37 49.8071H630.52C630.943 49.799 631.358 49.7339 631.765 49.6118C632.172 49.4816 632.534 49.2985 632.851 49.0625C633.168 48.8184 633.425 48.5213 633.62 48.1714C633.815 47.8215 633.913 47.4146 633.913 46.9507C633.913 46.4543 633.815 46.0311 633.62 45.6812C633.433 45.3312 633.177 45.0464 632.851 44.8267C632.534 44.5988 632.163 44.432 631.74 44.3262C631.325 44.2204 630.898 44.1634 630.458 44.1553H627.37V49.8071ZM640.493 46.792H647.243V58.0469H651.552V60H640.493V58.0469H644.985V48.7573H640.493V46.792ZM644.692 43.3252C644.692 42.9508 644.802 42.6375 645.021 42.3853C645.249 42.1248 645.591 41.9946 646.047 41.9946C646.494 41.9946 646.832 42.1248 647.06 42.3853C647.288 42.6375 647.402 42.9508 647.402 43.3252C647.402 43.6914 647.288 43.9966 647.06 44.2407C646.832 44.4849 646.494 44.6069 646.047 44.6069C645.591 44.6069 645.249 44.4849 645.021 44.2407C644.802 43.9966 644.692 43.6914 644.692 43.3252ZM654.738 53.2861C654.738 52.3014 654.856 51.3981 655.092 50.5762C655.336 49.7461 655.686 49.034 656.142 48.4399C656.598 47.8459 657.151 47.382 657.802 47.0483C658.453 46.7147 659.19 46.5479 660.012 46.5479C660.826 46.5479 661.538 46.6943 662.148 46.9873C662.766 47.2721 663.291 47.6872 663.723 48.2324L663.833 46.792H665.883V59.7192C665.883 60.59 665.745 61.3631 665.468 62.0386C665.2 62.714 664.817 63.2878 664.321 63.7598C663.833 64.2318 663.247 64.5898 662.563 64.834C661.879 65.0781 661.123 65.2002 660.292 65.2002C659.951 65.2002 659.56 65.1595 659.121 65.0781C658.681 65.0049 658.234 64.8787 657.778 64.6997C657.33 64.5288 656.895 64.2969 656.472 64.0039C656.057 63.7109 655.699 63.3488 655.397 62.9175L656.569 61.5625C656.846 61.8962 657.131 62.1769 657.424 62.4048C657.717 62.6408 658.014 62.828 658.315 62.9663C658.616 63.1047 658.917 63.2023 659.218 63.2593C659.519 63.3244 659.82 63.3569 660.122 63.3569C660.659 63.3569 661.143 63.2796 661.574 63.125C662.006 62.9704 662.372 62.7425 662.673 62.4414C662.982 62.1484 663.218 61.7822 663.381 61.3428C663.544 60.9033 663.625 60.3988 663.625 59.8291V58.6938C663.186 59.1984 662.665 59.585 662.062 59.8535C661.468 60.1139 660.777 60.2441 659.987 60.2441C659.182 60.2441 658.453 60.0732 657.802 59.7314C657.151 59.3896 656.598 58.9176 656.142 58.3154C655.694 57.7132 655.349 57.0052 655.104 56.1914C654.86 55.3695 654.738 54.4865 654.738 53.5425V53.2861ZM656.997 53.5425C656.997 54.1854 657.062 54.7957 657.192 55.3735C657.33 55.9513 657.542 56.46 657.827 56.8994C658.12 57.3389 658.49 57.6888 658.938 57.9492C659.385 58.2015 659.922 58.3276 660.549 58.3276C660.939 58.3276 661.289 58.2829 661.599 58.1934C661.916 58.0957 662.197 57.9614 662.441 57.7905C662.693 57.6196 662.917 57.4162 663.112 57.1802C663.308 56.9442 663.479 56.6838 663.625 56.3989V50.3442C663.479 50.0675 663.308 49.8153 663.112 49.5874C662.917 49.3595 662.693 49.1642 662.441 49.0015C662.189 48.8306 661.908 48.7004 661.599 48.6108C661.289 48.5132 660.948 48.4644 660.573 48.4644C659.938 48.4644 659.393 48.5946 658.938 48.855C658.49 49.1154 658.12 49.4694 657.827 49.917C657.542 50.3564 657.33 50.8691 657.192 51.4551C657.062 52.0329 656.997 52.6432 656.997 53.2861V53.5425ZM696.315 60H694.021L687.124 46.7188L687.087 60H684.804V42.2266H687.099L693.996 55.4834L694.033 42.2266H696.315V60ZM699.562 53.2739C699.562 52.3218 699.701 51.4388 699.978 50.625C700.254 49.8031 700.649 49.091 701.162 48.4888C701.682 47.8866 702.313 47.4146 703.054 47.0728C703.794 46.7228 704.628 46.5479 705.556 46.5479C706.492 46.5479 707.33 46.7228 708.071 47.0728C708.819 47.4146 709.45 47.8866 709.963 48.4888C710.484 49.091 710.882 49.8031 711.159 50.625C711.436 51.4388 711.574 52.3218 711.574 53.2739V53.5425C711.574 54.4946 711.436 55.3776 711.159 56.1914C710.882 57.0052 710.484 57.7132 709.963 58.3154C709.45 58.9176 708.824 59.3896 708.083 59.7314C707.342 60.0732 706.508 60.2441 705.581 60.2441C704.645 60.2441 703.802 60.0732 703.054 59.7314C702.313 59.3896 701.682 58.9176 701.162 58.3154C700.649 57.7132 700.254 57.0052 699.978 56.1914C699.701 55.3776 699.562 54.4946 699.562 53.5425V53.2739ZM701.821 53.5425C701.821 54.1935 701.898 54.8161 702.053 55.4102C702.207 55.9961 702.439 56.5129 702.749 56.9604C703.066 57.408 703.461 57.762 703.933 58.0225C704.405 58.2829 704.954 58.4131 705.581 58.4131C706.199 58.4131 706.74 58.2829 707.204 58.0225C707.676 57.762 708.067 57.408 708.376 56.9604C708.693 56.5129 708.929 55.9961 709.084 55.4102C709.239 54.8161 709.316 54.1935 709.316 53.5425V53.2739C709.316 52.631 709.235 52.0166 709.072 51.4307C708.917 50.8366 708.681 50.3158 708.364 49.8682C708.055 49.4206 707.664 49.0666 707.192 48.8062C706.728 48.5376 706.183 48.4033 705.556 48.4033C704.93 48.4033 704.384 48.5376 703.92 48.8062C703.457 49.0666 703.066 49.4206 702.749 49.8682C702.439 50.3158 702.207 50.8366 702.053 51.4307C701.898 52.0166 701.821 52.631 701.821 53.2739V53.5425ZM714.785 53.2861C714.785 52.3014 714.907 51.3981 715.151 50.5762C715.403 49.7461 715.757 49.034 716.213 48.4399C716.677 47.8459 717.234 47.382 717.885 47.0483C718.536 46.7147 719.265 46.5479 720.07 46.5479C720.86 46.5479 721.547 46.6821 722.133 46.9507C722.727 47.2111 723.24 47.5936 723.671 48.0981V41.25H725.93V60H723.854L723.757 58.6084C723.317 59.1455 722.792 59.5524 722.182 59.8291C721.572 60.1058 720.86 60.2441 720.046 60.2441C719.248 60.2441 718.524 60.0732 717.873 59.7314C717.23 59.3896 716.681 58.9176 716.225 58.3154C715.769 57.7132 715.415 57.0052 715.163 56.1914C714.911 55.3695 714.785 54.4865 714.785 53.5425V53.2861ZM717.043 53.5425C717.043 54.1854 717.112 54.7957 717.25 55.3735C717.389 55.9513 717.6 56.46 717.885 56.8994C718.178 57.3389 718.549 57.6888 718.996 57.9492C719.444 58.2015 719.981 58.3276 720.607 58.3276C720.99 58.3276 721.336 58.2829 721.645 58.1934C721.954 58.1038 722.235 57.9777 722.487 57.8149C722.74 57.644 722.963 57.4447 723.159 57.2168C723.354 56.9808 723.525 56.7204 723.671 56.4355V50.3076C723.378 49.7705 722.984 49.3311 722.487 48.9893C721.991 48.6393 721.372 48.4644 720.632 48.4644C719.997 48.4644 719.452 48.5946 718.996 48.855C718.549 49.1154 718.178 49.4694 717.885 49.917C717.6 50.3564 717.389 50.8691 717.25 51.4551C717.112 52.0329 717.043 52.6432 717.043 53.2861V53.5425ZM736.062 60.2441C735.134 60.2441 734.279 60.0854 733.498 59.7681C732.725 59.4507 732.062 59.0072 731.508 58.4375C730.955 57.8678 730.524 57.1924 730.214 56.4111C729.905 55.6299 729.75 54.7795 729.75 53.8599V53.3472C729.75 52.2811 729.921 51.3289 730.263 50.4907C730.605 49.6444 731.057 48.9323 731.618 48.3545C732.188 47.7686 732.831 47.321 733.547 47.0117C734.271 46.7025 735.012 46.5479 735.769 46.5479C736.721 46.5479 737.551 46.7147 738.259 47.0483C738.975 47.3739 739.569 47.8296 740.041 48.4155C740.513 48.9933 740.863 49.6769 741.091 50.4663C741.327 51.2557 741.445 52.1102 741.445 53.0298V54.043H732.009C732.033 54.6452 732.147 55.2108 732.351 55.7397C732.562 56.2687 732.847 56.7326 733.205 57.1313C733.571 57.522 734.007 57.8312 734.511 58.0591C735.016 58.2869 735.573 58.4009 736.184 58.4009C736.989 58.4009 737.705 58.2381 738.332 57.9126C738.959 57.5871 739.479 57.1558 739.895 56.6187L741.274 57.6929C741.054 58.0265 740.778 58.348 740.444 58.6572C740.118 58.9583 739.74 59.2269 739.309 59.4629C738.877 59.6989 738.389 59.8861 737.844 60.0244C737.299 60.1709 736.704 60.2441 736.062 60.2441ZM735.769 48.4033C735.313 48.4033 734.882 48.4888 734.475 48.6597C734.068 48.8224 733.701 49.0666 733.376 49.3921C733.05 49.7095 732.774 50.1042 732.546 50.5762C732.326 51.04 732.172 51.5771 732.082 52.1875H739.187V52.0166C739.162 51.5771 739.077 51.1418 738.93 50.7104C738.792 50.2791 738.584 49.8926 738.308 49.5508C738.031 49.209 737.681 48.9323 737.258 48.7207C736.843 48.5091 736.346 48.4033 735.769 48.4033Z" fill="black"/>
<rect x="271.5" y="174.5" width="19" height="19" fill="#33FFF0" stroke="white"/>
<path d="M271.5 174.5L290.5 193.5M290.5 174.5L271.5 193.5" stroke="white"/>
<rect x="656.5" y="154.5" width="59" height="59" fill="#33FFF0" stroke="white"/>
<path d="M657.5 155.5L714.5 212.5M714.5 155.5L657.5 212.5" stroke="white"/>
</svg>
