<svg width="930" height="316" viewBox="0 0 930 316" fill="none" xmlns="http://www.w3.org/2000/svg">
<rect width="930" height="316" fill="white"/>
<rect x="189" y="121" width="26" height="26" fill="white" fill-opacity="0.95" stroke="black" stroke-width="0.5"/>
<rect x="593" y="124" width="26" height="26" fill="white" fill-opacity="0.95" stroke="black" stroke-width="0.5"/>
<rect x="189" y="147" width="26" height="27" fill="white" fill-opacity="0.95" stroke="black" stroke-width="0.5"/>
<rect x="606" y="150" width="26" height="27" fill="white" fill-opacity="0.95" stroke="black" stroke-width="0.5"/>
<rect x="189" y="174" width="26" height="26" fill="white" fill-opacity="0.95" stroke="black" stroke-width="0.5"/>
<rect x="593" y="177" width="26" height="26" fill="white" fill-opacity="0.95" stroke="black" stroke-width="0.5"/>
<rect x="189" y="200" width="26" height="26" fill="white" fill-opacity="0.95" stroke="black" stroke-width="0.5"/>
<rect x="606" y="203" width="26" height="26" fill="white" fill-opacity="0.95" stroke="black" stroke-width="0.5"/>
<rect x="189" y="226" width="26" height="27" fill="white" fill-opacity="0.95" stroke="black" stroke-width="0.5"/>
<rect x="593" y="229" width="26" height="27" fill="white" fill-opacity="0.95" stroke="black" stroke-width="0.5"/>
<rect x="189" y="253" width="26" height="26" fill="white" fill-opacity="0.95" stroke="black" stroke-width="0.5"/>
<rect x="606" y="256" width="26" height="26" fill="white" fill-opacity="0.95" stroke="black" stroke-width="0.5"/>
<rect x="215" y="121" width="27" height="26" fill="white" fill-opacity="0.95" stroke="black" stroke-width="0.5"/>
<rect x="619" y="124" width="27" height="26" fill="white" fill-opacity="0.95" stroke="black" stroke-width="0.5"/>
<rect x="215" y="147" width="27" height="27" fill="white" fill-opacity="0.95" stroke="black" stroke-width="0.5"/>
<rect x="632" y="150" width="27" height="27" fill="white" fill-opacity="0.95" stroke="black" stroke-width="0.5"/>
<rect x="215" y="174" width="27" height="26" fill="white" fill-opacity="0.95" stroke="black" stroke-width="0.5"/>
<rect x="619" y="177" width="27" height="26" fill="white" fill-opacity="0.95" stroke="black" stroke-width="0.5"/>
<rect x="215" y="200" width="27" height="26" fill="#E91E63" fill-opacity="0.95" stroke="black" stroke-width="0.5"/>
<rect x="632" y="203" width="27" height="26" fill="#E91E63" fill-opacity="0.95" stroke="black" stroke-width="0.5"/>
<rect x="215" y="226" width="27" height="27" fill="white" fill-opacity="0.95" stroke="black" stroke-width="0.5"/>
<rect x="619" y="229" width="27" height="27" fill="white" fill-opacity="0.95" stroke="black" stroke-width="0.5"/>
<rect x="215" y="253" width="27" height="26" fill="white" fill-opacity="0.95" stroke="black" stroke-width="0.5"/>
<rect x="632" y="256" width="27" height="26" fill="white" fill-opacity="0.95" stroke="black" stroke-width="0.5"/>
<rect x="242" y="121" width="26" height="26" fill="white" fill-opacity="0.95" stroke="black" stroke-width="0.5"/>
<rect x="646" y="124" width="26" height="26" fill="white" fill-opacity="0.95" stroke="black" stroke-width="0.5"/>
<rect x="242" y="147" width="26" height="27" fill="white" fill-opacity="0.95" stroke="black" stroke-width="0.5"/>
<rect x="659" y="150" width="26" height="27" fill="white" fill-opacity="0.95" stroke="black" stroke-width="0.5"/>
<rect x="242" y="174" width="26" height="26" fill="#E91E63" fill-opacity="0.95" stroke="black" stroke-width="0.5"/>
<rect x="646" y="177" width="26" height="26" fill="#E91E63" fill-opacity="0.95" stroke="black" stroke-width="0.5"/>
<rect x="242" y="200" width="26" height="26" fill="#282C34" stroke="black" stroke-width="0.5"/>
<rect x="659" y="203" width="26" height="26" fill="#282C34" stroke="black" stroke-width="0.5"/>
<rect x="242" y="226" width="26" height="27" fill="#E91E63" fill-opacity="0.95" stroke="black" stroke-width="0.5"/>
<rect x="646" y="229" width="26" height="27" fill="#E91E63" fill-opacity="0.95" stroke="black" stroke-width="0.5"/>
<rect x="242" y="253" width="26" height="26" fill="white" fill-opacity="0.95" stroke="black" stroke-width="0.5"/>
<rect x="659" y="256" width="26" height="26" fill="white" fill-opacity="0.95" stroke="black" stroke-width="0.5"/>
<rect x="268" y="121" width="26" height="26" fill="white" fill-opacity="0.95" stroke="black" stroke-width="0.5"/>
<rect x="672" y="124" width="26" height="26" fill="white" fill-opacity="0.95" stroke="black" stroke-width="0.5"/>
<rect x="268" y="147" width="26" height="27" fill="white" fill-opacity="0.95" stroke="black" stroke-width="0.5"/>
<rect x="685" y="150" width="26" height="27" fill="white" fill-opacity="0.95" stroke="black" stroke-width="0.5"/>
<rect x="268" y="174" width="26" height="26" fill="white" fill-opacity="0.95"/>
<rect x="672" y="177" width="26" height="26" fill="#E91E63" fill-opacity="0.95"/>
<rect x="268" y="200" width="26" height="26" fill="#E91E63" fill-opacity="0.95" stroke="black" stroke-width="0.5"/>
<rect x="685" y="203" width="26" height="26" fill="#E91E63" fill-opacity="0.95" stroke="black" stroke-width="0.5"/>
<rect x="268" y="226" width="26" height="27" fill="white" fill-opacity="0.95" stroke="black" stroke-width="0.5"/>
<rect x="672" y="229" width="26" height="27" fill="#E91E63" fill-opacity="0.95" stroke="black" stroke-width="0.5"/>
<rect x="268" y="253" width="26" height="26" fill="white" fill-opacity="0.95" stroke="black" stroke-width="0.5"/>
<rect x="685" y="256" width="26" height="26" fill="white" fill-opacity="0.95" stroke="black" stroke-width="0.5"/>
<rect x="294" y="121" width="27" height="26" fill="white" fill-opacity="0.95" stroke="black" stroke-width="0.5"/>
<rect x="698" y="124" width="27" height="26" fill="white" fill-opacity="0.95" stroke="black" stroke-width="0.5"/>
<rect x="294" y="147" width="27" height="27" fill="white" fill-opacity="0.95" stroke="black" stroke-width="0.5"/>
<rect x="711" y="150" width="27" height="27" fill="white" fill-opacity="0.95" stroke="black" stroke-width="0.5"/>
<rect x="294" y="174" width="27" height="26" fill="white" fill-opacity="0.95" stroke="black" stroke-width="0.5"/>
<rect x="698" y="177" width="27" height="26" fill="white" fill-opacity="0.95" stroke="black" stroke-width="0.5"/>
<rect x="294" y="200" width="27" height="26" fill="white" fill-opacity="0.95" stroke="black" stroke-width="0.5"/>
<rect x="711" y="203" width="27" height="26" fill="white" fill-opacity="0.95" stroke="black" stroke-width="0.5"/>
<rect x="294" y="226" width="27" height="27" fill="white" fill-opacity="0.95" stroke="black" stroke-width="0.5"/>
<rect x="698" y="229" width="27" height="27" fill="white" fill-opacity="0.95" stroke="black" stroke-width="0.5"/>
<rect x="294" y="253" width="27" height="26" fill="white" fill-opacity="0.95" stroke="black" stroke-width="0.5"/>
<rect x="711" y="256" width="27" height="26" fill="white" fill-opacity="0.95" stroke="black" stroke-width="0.5"/>
<rect x="321" y="121" width="26" height="26" fill="white" fill-opacity="0.95" stroke="black" stroke-width="0.5"/>
<rect x="725" y="124" width="26" height="26" fill="white" fill-opacity="0.95" stroke="black" stroke-width="0.5"/>
<rect x="321" y="147" width="26" height="27" fill="white" fill-opacity="0.95" stroke="black" stroke-width="0.5"/>
<rect x="738" y="150" width="26" height="27" fill="white" fill-opacity="0.95" stroke="black" stroke-width="0.5"/>
<rect x="321" y="174" width="26" height="26" fill="white" fill-opacity="0.95" stroke="black" stroke-width="0.5"/>
<rect x="725" y="177" width="26" height="26" fill="white" fill-opacity="0.95" stroke="black" stroke-width="0.5"/>
<rect x="321" y="200" width="26" height="26" fill="white" fill-opacity="0.95" stroke="black" stroke-width="0.5"/>
<rect x="738" y="203" width="26" height="26" fill="white" fill-opacity="0.95" stroke="black" stroke-width="0.5"/>
<rect x="321" y="226" width="26" height="27" fill="white" fill-opacity="0.95" stroke="black" stroke-width="0.5"/>
<rect x="725" y="229" width="26" height="27" fill="white" fill-opacity="0.95" stroke="black" stroke-width="0.5"/>
<rect x="321" y="253" width="26" height="26" fill="white" fill-opacity="0.95" stroke="black" stroke-width="0.5"/>
<rect x="738" y="256" width="26" height="26" fill="white" fill-opacity="0.95" stroke="black" stroke-width="0.5"/>
<path d="M231.382 55.5078C231.382 54.9626 231.256 54.5028 231.003 54.1284C230.759 53.7541 230.442 53.4408 230.051 53.1885C229.661 52.9281 229.229 52.7124 228.757 52.5415C228.293 52.3706 227.846 52.216 227.415 52.0776C226.788 51.8742 226.149 51.63 225.498 51.3452C224.855 51.0604 224.265 50.7104 223.728 50.2954C223.199 49.8804 222.764 49.3921 222.422 48.8306C222.088 48.2609 221.921 47.5936 221.921 46.8286C221.921 46.0636 222.088 45.38 222.422 44.7778C222.764 44.1756 223.207 43.667 223.752 43.252C224.298 42.8369 224.916 42.5236 225.608 42.312C226.3 42.0923 226.995 41.9824 227.695 41.9824C228.468 41.9824 229.213 42.1126 229.929 42.373C230.645 42.6253 231.28 42.9834 231.833 43.4473C232.387 43.9111 232.83 44.4727 233.164 45.1318C233.498 45.791 233.673 46.5275 233.689 47.3413H231.37C231.305 46.8286 231.178 46.3647 230.991 45.9497C230.804 45.5265 230.556 45.1644 230.247 44.8633C229.937 44.5622 229.567 44.3302 229.136 44.1675C228.713 43.9966 228.232 43.9111 227.695 43.9111C227.264 43.9111 226.841 43.9722 226.426 44.0942C226.019 44.2163 225.653 44.3994 225.327 44.6436C225.01 44.8877 224.753 45.1888 224.558 45.5469C224.371 45.9049 224.277 46.32 224.277 46.792C224.285 47.3047 224.416 47.7401 224.668 48.0981C224.92 48.4481 225.238 48.7451 225.62 48.9893C226.011 49.2334 226.43 49.4368 226.877 49.5996C227.333 49.7624 227.76 49.9048 228.159 50.0269C228.599 50.1652 229.042 50.3239 229.49 50.5029C229.937 50.6738 230.369 50.8732 230.784 51.1011C231.199 51.3289 231.585 51.5853 231.943 51.8701C232.301 52.1549 232.615 52.4805 232.883 52.8467C233.152 53.2048 233.359 53.6035 233.506 54.043C233.66 54.4743 233.738 54.9544 233.738 55.4834C233.738 56.2809 233.559 56.9767 233.201 57.5708C232.851 58.1649 232.395 58.6613 231.833 59.0601C231.272 59.4507 230.637 59.7477 229.929 59.9512C229.221 60.1465 228.513 60.2441 227.805 60.2441C227.016 60.2441 226.243 60.1221 225.486 59.8779C224.729 59.6338 224.049 59.2839 223.447 58.8281C222.853 58.3643 222.369 57.8027 221.995 57.1436C221.62 56.4762 221.421 55.7194 221.396 54.873H223.704C223.777 55.4264 223.927 55.9188 224.155 56.3501C224.383 56.7733 224.676 57.1354 225.034 57.4365C225.392 57.7295 225.803 57.9533 226.267 58.1079C226.739 58.2544 227.252 58.3276 227.805 58.3276C228.245 58.3276 228.676 58.2747 229.099 58.1689C229.53 58.055 229.913 57.8841 230.247 57.6562C230.58 57.4202 230.853 57.1273 231.064 56.7773C231.276 56.4193 231.382 55.9961 231.382 55.5078ZM236.68 53.2861C236.68 52.3014 236.798 51.3981 237.034 50.5762C237.27 49.7461 237.616 49.034 238.071 48.4399C238.527 47.8459 239.084 47.382 239.744 47.0483C240.411 46.7147 241.168 46.5479 242.014 46.5479C242.795 46.5479 243.483 46.6821 244.077 46.9507C244.679 47.2111 245.2 47.5936 245.64 48.0981L245.737 46.792H247.812V65.0781H245.554V58.8037C245.115 59.2676 244.602 59.6257 244.016 59.8779C243.43 60.1221 242.755 60.2441 241.99 60.2441C241.152 60.2441 240.403 60.0732 239.744 59.7314C239.093 59.3896 238.539 58.9176 238.083 58.3154C237.628 57.7132 237.278 57.0052 237.034 56.1914C236.798 55.3695 236.68 54.4865 236.68 53.5425V53.2861ZM238.938 53.5425C238.938 54.1854 239.007 54.7998 239.146 55.3857C239.292 55.9717 239.512 56.4884 239.805 56.936C240.098 57.3836 240.468 57.7417 240.916 58.0103C241.371 58.2707 241.912 58.4009 242.539 58.4009C243.263 58.4009 243.87 58.2381 244.358 57.9126C244.846 57.5871 245.245 57.1639 245.554 56.6431V50.1245C245.4 49.8722 245.221 49.6444 245.017 49.4409C244.822 49.2293 244.598 49.0462 244.346 48.8916C244.102 48.737 243.829 48.619 243.528 48.5376C243.235 48.4481 242.913 48.4033 242.563 48.4033C241.937 48.4033 241.396 48.5376 240.94 48.8062C240.484 49.0747 240.106 49.4368 239.805 49.8926C239.512 50.3402 239.292 50.8569 239.146 51.4429C239.007 52.0288 238.938 52.6432 238.938 53.2861V53.5425ZM260.679 58.1812C260.239 58.8322 259.69 59.3408 259.031 59.707C258.372 60.0651 257.611 60.2441 256.748 60.2441C256.056 60.2441 255.43 60.1383 254.868 59.9268C254.307 59.707 253.826 59.3693 253.428 58.9136C253.029 58.4578 252.72 57.88 252.5 57.1802C252.288 56.4722 252.183 55.6258 252.183 54.6411V46.792H254.441V54.6655C254.441 55.3817 254.498 55.9757 254.612 56.4478C254.726 56.9198 254.897 57.2982 255.125 57.583C255.352 57.8597 255.629 58.055 255.955 58.1689C256.288 58.2829 256.671 58.3398 257.102 58.3398C258.022 58.3398 258.762 58.1527 259.324 57.7783C259.893 57.404 260.317 56.8994 260.593 56.2646V46.792H262.864V60H260.813L260.679 58.1812ZM275.803 60C275.714 59.8291 275.64 59.6175 275.583 59.3652C275.535 59.1048 275.498 58.8363 275.474 58.5596C275.246 58.7874 274.989 59.0031 274.705 59.2065C274.428 59.41 274.119 59.589 273.777 59.7437C273.443 59.8983 273.085 60.0203 272.703 60.1099C272.32 60.1994 271.913 60.2441 271.482 60.2441C270.782 60.2441 270.147 60.1424 269.578 59.939C269.016 59.7355 268.536 59.4629 268.137 59.1211C267.747 58.7712 267.441 58.3602 267.222 57.8882C267.01 57.408 266.904 56.8913 266.904 56.3379C266.904 55.6136 267.047 54.9788 267.332 54.4336C267.625 53.8883 268.035 53.4367 268.564 53.0786C269.093 52.7124 269.728 52.4398 270.469 52.2607C271.217 52.0817 272.052 51.9922 272.971 51.9922H275.437V50.9546C275.437 50.5558 275.364 50.1978 275.217 49.8804C275.071 49.563 274.863 49.2944 274.595 49.0747C274.326 48.8468 273.997 48.6719 273.606 48.5498C273.223 48.4277 272.792 48.3667 272.312 48.3667C271.864 48.3667 271.462 48.4237 271.104 48.5376C270.754 48.6515 270.457 48.8021 270.212 48.9893C269.968 49.1764 269.777 49.4002 269.639 49.6606C269.508 49.9129 269.443 50.1774 269.443 50.4541H267.173C267.181 49.974 267.303 49.502 267.539 49.0381C267.783 48.5742 268.129 48.1592 268.577 47.793C269.032 47.4186 269.582 47.1175 270.225 46.8896C270.876 46.6618 271.612 46.5479 272.434 46.5479C273.183 46.5479 273.879 46.6414 274.521 46.8286C275.164 47.0076 275.718 47.2843 276.182 47.6587C276.654 48.0249 277.024 48.4847 277.292 49.0381C277.561 49.5915 277.695 50.2384 277.695 50.979V57.1191C277.695 57.5586 277.736 58.0265 277.817 58.5229C277.899 59.0112 278.013 59.4385 278.159 59.8047V60H275.803ZM271.812 58.2788C272.251 58.2788 272.662 58.2218 273.044 58.1079C273.427 57.994 273.773 57.8434 274.082 57.6562C274.399 57.4691 274.672 57.2575 274.9 57.0215C275.128 56.7773 275.307 56.5251 275.437 56.2646V53.5913H273.337C272.019 53.5913 270.994 53.7866 270.261 54.1772C269.529 54.5679 269.163 55.1823 269.163 56.0205C269.163 56.346 269.215 56.6471 269.321 56.9238C269.435 57.2005 269.602 57.4406 269.822 57.644C270.042 57.8394 270.318 57.994 270.652 58.1079C270.986 58.2218 271.372 58.2788 271.812 58.2788ZM290.793 46.5479C291.005 46.5479 291.225 46.556 291.453 46.5723C291.681 46.5804 291.896 46.6007 292.1 46.6333C292.311 46.6577 292.502 46.6903 292.673 46.731C292.852 46.7716 292.999 46.8164 293.113 46.8652L292.808 49.0747C292.368 48.9771 291.949 48.9079 291.55 48.8672C291.16 48.8184 290.749 48.7939 290.317 48.7939C289.259 48.7939 288.401 49.034 287.742 49.5142C287.091 49.9943 286.611 50.6657 286.301 51.5283V60H284.031V46.792H286.179L286.289 48.8916C286.826 48.1673 287.469 47.5977 288.218 47.1826C288.975 46.7594 289.833 46.5479 290.793 46.5479ZM302.988 60.2441C302.061 60.2441 301.206 60.0854 300.425 59.7681C299.652 59.4507 298.988 59.0072 298.435 58.4375C297.882 57.8678 297.45 57.1924 297.141 56.4111C296.832 55.6299 296.677 54.7795 296.677 53.8599V53.3472C296.677 52.2811 296.848 51.3289 297.19 50.4907C297.532 49.6444 297.983 48.9323 298.545 48.3545C299.115 47.7686 299.757 47.321 300.474 47.0117C301.198 46.7025 301.938 46.5479 302.695 46.5479C303.647 46.5479 304.478 46.7147 305.186 47.0483C305.902 47.3739 306.496 47.8296 306.968 48.4155C307.44 48.9933 307.79 49.6769 308.018 50.4663C308.254 51.2557 308.372 52.1102 308.372 53.0298V54.043H298.936C298.96 54.6452 299.074 55.2108 299.277 55.7397C299.489 56.2687 299.774 56.7326 300.132 57.1313C300.498 57.522 300.933 57.8312 301.438 58.0591C301.943 58.2869 302.5 58.4009 303.11 58.4009C303.916 58.4009 304.632 58.2381 305.259 57.9126C305.885 57.5871 306.406 57.1558 306.821 56.6187L308.201 57.6929C307.981 58.0265 307.704 58.348 307.371 58.6572C307.045 58.9583 306.667 59.2269 306.235 59.4629C305.804 59.6989 305.316 59.8861 304.771 60.0244C304.225 60.1709 303.631 60.2441 302.988 60.2441ZM302.695 48.4033C302.24 48.4033 301.808 48.4888 301.401 48.6597C300.994 48.8224 300.628 49.0666 300.303 49.3921C299.977 49.7095 299.701 50.1042 299.473 50.5762C299.253 51.04 299.098 51.5771 299.009 52.1875H306.113V52.0166C306.089 51.5771 306.003 51.1418 305.857 50.7104C305.719 50.2791 305.511 49.8926 305.234 49.5508C304.958 49.209 304.608 48.9323 304.185 48.7207C303.77 48.5091 303.273 48.4033 302.695 48.4033ZM217.124 87.0835H225.815V89H214.866V71.2266H217.124V87.0835ZM238.267 89C238.177 88.8291 238.104 88.6175 238.047 88.3652C237.998 88.1048 237.961 87.8363 237.937 87.5596C237.709 87.7874 237.453 88.0031 237.168 88.2065C236.891 88.41 236.582 88.589 236.24 88.7437C235.907 88.8983 235.549 89.0203 235.166 89.1099C234.784 89.1994 234.377 89.2441 233.945 89.2441C233.245 89.2441 232.611 89.1424 232.041 88.939C231.479 88.7355 230.999 88.4629 230.601 88.1211C230.21 87.7712 229.905 87.3602 229.685 86.8882C229.473 86.408 229.368 85.8913 229.368 85.3379C229.368 84.6136 229.51 83.9788 229.795 83.4336C230.088 82.8883 230.499 82.4367 231.028 82.0786C231.557 81.7124 232.192 81.4398 232.932 81.2607C233.681 81.0817 234.515 80.9922 235.435 80.9922H237.9V79.9546C237.9 79.5558 237.827 79.1978 237.681 78.8804C237.534 78.563 237.327 78.2944 237.058 78.0747C236.79 77.8468 236.46 77.6719 236.069 77.5498C235.687 77.4277 235.256 77.3667 234.775 77.3667C234.328 77.3667 233.925 77.4237 233.567 77.5376C233.217 77.6515 232.92 77.8021 232.676 77.9893C232.432 78.1764 232.24 78.4002 232.102 78.6606C231.972 78.9129 231.907 79.1774 231.907 79.4541H229.636C229.644 78.974 229.766 78.502 230.002 78.0381C230.247 77.5742 230.592 77.1592 231.04 76.793C231.496 76.4186 232.045 76.1175 232.688 75.8896C233.339 75.6618 234.076 75.5479 234.897 75.5479C235.646 75.5479 236.342 75.6414 236.985 75.8286C237.628 76.0076 238.181 76.2843 238.645 76.6587C239.117 77.0249 239.487 77.4847 239.756 78.0381C240.024 78.5915 240.159 79.2384 240.159 79.979V86.1191C240.159 86.5586 240.199 87.0265 240.281 87.5229C240.362 88.0112 240.476 88.4385 240.623 88.8047V89H238.267ZM234.275 87.2788C234.714 87.2788 235.125 87.2218 235.508 87.1079C235.89 86.994 236.236 86.8434 236.545 86.6562C236.863 86.4691 237.135 86.2575 237.363 86.0215C237.591 85.7773 237.77 85.5251 237.9 85.2646V82.5913H235.801C234.482 82.5913 233.457 82.7866 232.725 83.1772C231.992 83.5679 231.626 84.1823 231.626 85.0205C231.626 85.346 231.679 85.6471 231.785 85.9238C231.899 86.2005 232.065 86.4406 232.285 86.644C232.505 86.8394 232.782 86.994 233.115 87.1079C233.449 87.2218 233.835 87.2788 234.275 87.2788ZM249.949 72.5938V75.792H254.978V77.5376H249.949V84.7153C249.949 85.228 250.014 85.6512 250.144 85.9849C250.274 86.3185 250.453 86.5871 250.681 86.7905C250.909 86.9858 251.169 87.1242 251.462 87.2056C251.764 87.2869 252.081 87.3276 252.415 87.3276C252.659 87.3276 252.911 87.3154 253.171 87.291C253.432 87.2585 253.684 87.2218 253.928 87.1812C254.181 87.1405 254.412 87.0998 254.624 87.0591C254.844 87.0103 255.023 86.9696 255.161 86.937L255.479 88.5361C255.291 88.6501 255.063 88.7518 254.795 88.8413C254.526 88.9227 254.233 88.9919 253.916 89.0488C253.599 89.1139 253.261 89.1628 252.903 89.1953C252.553 89.2279 252.203 89.2441 251.853 89.2441C251.267 89.2441 250.718 89.1628 250.205 89C249.701 88.8291 249.261 88.5646 248.887 88.2065C248.512 87.8403 248.215 87.3724 247.996 86.8027C247.784 86.2249 247.678 85.5291 247.678 84.7153V77.5376H244.211V75.792H247.678V72.5938H249.949ZM264.963 72.5938V75.792H269.993V77.5376H264.963V84.7153C264.963 85.228 265.028 85.6512 265.159 85.9849C265.289 86.3185 265.468 86.5871 265.696 86.7905C265.924 86.9858 266.184 87.1242 266.477 87.2056C266.778 87.2869 267.096 87.3276 267.429 87.3276C267.673 87.3276 267.926 87.3154 268.186 87.291C268.446 87.2585 268.699 87.2218 268.943 87.1812C269.195 87.1405 269.427 87.0998 269.639 87.0591C269.858 87.0103 270.037 86.9696 270.176 86.937L270.493 88.5361C270.306 88.6501 270.078 88.7518 269.81 88.8413C269.541 88.9227 269.248 88.9919 268.931 89.0488C268.613 89.1139 268.276 89.1628 267.917 89.1953C267.568 89.2279 267.218 89.2441 266.868 89.2441C266.282 89.2441 265.732 89.1628 265.22 89C264.715 88.8291 264.276 88.5646 263.901 88.2065C263.527 87.8403 263.23 87.3724 263.01 86.8027C262.799 86.2249 262.693 85.5291 262.693 84.7153V77.5376H259.226V75.792H262.693V72.5938H264.963ZM274.985 75.792H281.736V87.0469H286.045V89H274.985V87.0469H279.478V77.7573H274.985V75.792ZM279.185 72.3252C279.185 71.9508 279.294 71.6375 279.514 71.3853C279.742 71.1248 280.084 70.9946 280.54 70.9946C280.987 70.9946 281.325 71.1248 281.553 71.3853C281.781 71.6375 281.895 71.9508 281.895 72.3252C281.895 72.6914 281.781 72.9966 281.553 73.2407C281.325 73.4849 280.987 73.6069 280.54 73.6069C280.084 73.6069 279.742 73.4849 279.514 73.2407C279.294 72.9966 279.185 72.6914 279.185 72.3252ZM295.273 87.4131C295.68 87.4131 296.075 87.348 296.458 87.2178C296.848 87.0876 297.194 86.9085 297.495 86.6807C297.796 86.4447 298.036 86.172 298.215 85.8628C298.403 85.5454 298.5 85.2036 298.508 84.8374H300.645C300.636 85.4233 300.482 85.9849 300.181 86.522C299.888 87.0509 299.493 87.5189 298.997 87.9258C298.5 88.3245 297.931 88.646 297.288 88.8901C296.645 89.1261 295.973 89.2441 295.273 89.2441C294.272 89.2441 293.398 89.0651 292.649 88.707C291.9 88.349 291.274 87.8688 290.769 87.2666C290.273 86.6562 289.898 85.9564 289.646 85.167C289.394 84.3695 289.268 83.5312 289.268 82.6523V82.1396C289.268 81.2689 289.394 80.4347 289.646 79.6372C289.898 78.8397 290.273 78.1398 290.769 77.5376C291.274 76.9272 291.9 76.443 292.649 76.085C293.398 75.7269 294.272 75.5479 295.273 75.5479C296.055 75.5479 296.771 75.674 297.422 75.9263C298.081 76.1704 298.647 76.5081 299.119 76.9395C299.599 77.3626 299.973 77.8672 300.242 78.4531C300.51 79.0391 300.645 79.6657 300.645 80.333H298.508C298.5 79.9342 298.411 79.5599 298.24 79.21C298.077 78.8519 297.853 78.5386 297.568 78.27C297.284 78.0015 296.942 77.7899 296.543 77.6353C296.152 77.4806 295.729 77.4033 295.273 77.4033C294.574 77.4033 293.984 77.5457 293.503 77.8306C293.031 78.1073 292.649 78.4735 292.356 78.9292C292.063 79.3768 291.851 79.8813 291.721 80.4429C291.599 81.0044 291.538 81.57 291.538 82.1396V82.6523C291.538 83.2301 291.599 83.8039 291.721 84.3735C291.851 84.9351 292.059 85.4437 292.344 85.8994C292.637 86.347 293.019 86.7132 293.491 86.998C293.971 87.2747 294.565 87.4131 295.273 87.4131ZM310.496 89.2441C309.568 89.2441 308.713 89.0854 307.932 88.7681C307.159 88.4507 306.496 88.0072 305.942 87.4375C305.389 86.8678 304.958 86.1924 304.648 85.4111C304.339 84.6299 304.185 83.7795 304.185 82.8599V82.3472C304.185 81.2811 304.355 80.3289 304.697 79.4907C305.039 78.6444 305.491 77.9323 306.052 77.3545C306.622 76.7686 307.265 76.321 307.981 76.0117C308.705 75.7025 309.446 75.5479 310.203 75.5479C311.155 75.5479 311.985 75.7147 312.693 76.0483C313.409 76.3739 314.003 76.8296 314.475 77.4155C314.947 77.9933 315.297 78.6769 315.525 79.4663C315.761 80.2557 315.879 81.1102 315.879 82.0298V83.043H306.443C306.467 83.6452 306.581 84.2108 306.785 84.7397C306.996 85.2687 307.281 85.7326 307.639 86.1313C308.005 86.522 308.441 86.8312 308.945 87.0591C309.45 87.2869 310.007 87.4009 310.618 87.4009C311.423 87.4009 312.139 87.2381 312.766 86.9126C313.393 86.5871 313.914 86.1558 314.329 85.6187L315.708 86.6929C315.488 87.0265 315.212 87.348 314.878 87.6572C314.552 87.9583 314.174 88.2269 313.743 88.4629C313.311 88.6989 312.823 88.8861 312.278 89.0244C311.733 89.1709 311.139 89.2441 310.496 89.2441ZM310.203 77.4033C309.747 77.4033 309.316 77.4888 308.909 77.6597C308.502 77.8224 308.136 78.0666 307.81 78.3921C307.485 78.7095 307.208 79.1042 306.98 79.5762C306.76 80.04 306.606 80.5771 306.516 81.1875H313.621V81.0166C313.596 80.5771 313.511 80.1418 313.364 79.7104C313.226 79.2791 313.018 78.8926 312.742 78.5508C312.465 78.209 312.115 77.9323 311.692 77.7207C311.277 77.5091 310.78 77.4033 310.203 77.4033Z" fill="black"/>
<path d="M627.703 63H625.567V54.7847H618.279V63H616.155V45.2266H618.279V52.8682H625.567V45.2266H627.703V63ZM637.408 63.2441C636.48 63.2441 635.625 63.0854 634.844 62.7681C634.071 62.4507 633.408 62.0072 632.854 61.4375C632.301 60.8678 631.87 60.1924 631.561 59.4111C631.251 58.6299 631.097 57.7795 631.097 56.8599V56.3472C631.097 55.2811 631.268 54.3289 631.609 53.4907C631.951 52.6444 632.403 51.9323 632.964 51.3545C633.534 50.7686 634.177 50.321 634.893 50.0117C635.617 49.7025 636.358 49.5479 637.115 49.5479C638.067 49.5479 638.897 49.7147 639.605 50.0483C640.321 50.3739 640.915 50.8296 641.387 51.4155C641.859 51.9933 642.209 52.6769 642.437 53.4663C642.673 54.2557 642.791 55.1102 642.791 56.0298V57.043H633.355C633.379 57.6452 633.493 58.2108 633.697 58.7397C633.908 59.2687 634.193 59.7326 634.551 60.1313C634.917 60.522 635.353 60.8312 635.857 61.0591C636.362 61.2869 636.919 61.4009 637.53 61.4009C638.335 61.4009 639.052 61.2381 639.678 60.9126C640.305 60.5871 640.826 60.1558 641.241 59.6187L642.62 60.6929C642.4 61.0265 642.124 61.348 641.79 61.6572C641.465 61.9583 641.086 62.2269 640.655 62.4629C640.223 62.6989 639.735 62.8861 639.19 63.0244C638.645 63.1709 638.051 63.2441 637.408 63.2441ZM637.115 51.4033C636.659 51.4033 636.228 51.4888 635.821 51.6597C635.414 51.8224 635.048 52.0666 634.722 52.3921C634.397 52.7095 634.12 53.1042 633.892 53.5762C633.672 54.04 633.518 54.5771 633.428 55.1875H640.533V55.0166C640.508 54.5771 640.423 54.1418 640.276 53.7104C640.138 53.2791 639.931 52.8926 639.654 52.5508C639.377 52.209 639.027 51.9323 638.604 51.7207C638.189 51.5091 637.693 51.4033 637.115 51.4033ZM652.044 54.687L655.572 49.792H658.221L653.301 56.3228L658.355 63H655.743L652.093 57.9707L648.443 63H645.806L650.86 56.3228L645.94 49.792H648.553L652.044 54.687ZM670.281 63C670.192 62.8291 670.118 62.6175 670.062 62.3652C670.013 62.1048 669.976 61.8363 669.952 61.5596C669.724 61.7874 669.467 62.0031 669.183 62.2065C668.906 62.41 668.597 62.589 668.255 62.7437C667.921 62.8983 667.563 63.0203 667.181 63.1099C666.798 63.1994 666.391 63.2441 665.96 63.2441C665.26 63.2441 664.625 63.1424 664.056 62.939C663.494 62.7355 663.014 62.4629 662.615 62.1211C662.225 61.7712 661.919 61.3602 661.7 60.8882C661.488 60.408 661.382 59.8913 661.382 59.3379C661.382 58.6136 661.525 57.9788 661.81 57.4336C662.103 56.8883 662.514 56.4367 663.042 56.0786C663.571 55.7124 664.206 55.4398 664.947 55.2607C665.695 55.0817 666.53 54.9922 667.449 54.9922H669.915V53.9546C669.915 53.5558 669.842 53.1978 669.695 52.8804C669.549 52.563 669.341 52.2944 669.073 52.0747C668.804 51.8468 668.475 51.6719 668.084 51.5498C667.701 51.4277 667.27 51.3667 666.79 51.3667C666.342 51.3667 665.94 51.4237 665.582 51.5376C665.232 51.6515 664.935 51.8021 664.69 51.9893C664.446 52.1764 664.255 52.4002 664.117 52.6606C663.986 52.9129 663.921 53.1774 663.921 53.4541H661.651C661.659 52.974 661.781 52.502 662.017 52.0381C662.261 51.5742 662.607 51.1592 663.055 50.793C663.51 50.4186 664.06 50.1175 664.703 49.8896C665.354 49.6618 666.09 49.5479 666.912 49.5479C667.661 49.5479 668.357 49.6414 669 49.8286C669.642 50.0076 670.196 50.2843 670.66 50.6587C671.132 51.0249 671.502 51.4847 671.771 52.0381C672.039 52.5915 672.173 53.2384 672.173 53.979V60.1191C672.173 60.5586 672.214 61.0265 672.295 61.5229C672.377 62.0112 672.491 62.4385 672.637 62.8047V63H670.281ZM666.29 61.2788C666.729 61.2788 667.14 61.2218 667.522 61.1079C667.905 60.994 668.251 60.8434 668.56 60.6562C668.877 60.4691 669.15 60.2575 669.378 60.0215C669.606 59.7773 669.785 59.5251 669.915 59.2646V56.5913H667.815C666.497 56.5913 665.472 56.7866 664.739 57.1772C664.007 57.5679 663.641 58.1823 663.641 59.0205C663.641 59.346 663.694 59.6471 663.799 59.9238C663.913 60.2005 664.08 60.4406 664.3 60.644C664.52 60.8394 664.796 60.994 665.13 61.1079C665.464 61.2218 665.85 61.2788 666.29 61.2788ZM676.202 56.2861C676.202 55.3014 676.32 54.3981 676.556 53.5762C676.8 52.7461 677.15 52.034 677.605 51.4399C678.061 50.8459 678.615 50.382 679.266 50.0483C679.917 49.7147 680.653 49.5479 681.475 49.5479C682.289 49.5479 683.001 49.6943 683.611 49.9873C684.23 50.2721 684.755 50.6872 685.186 51.2324L685.296 49.792H687.347V62.7192C687.347 63.59 687.208 64.3631 686.932 65.0386C686.663 65.714 686.281 66.2878 685.784 66.7598C685.296 67.2318 684.71 67.5898 684.026 67.834C683.343 68.0781 682.586 68.2002 681.756 68.2002C681.414 68.2002 681.023 68.1595 680.584 68.0781C680.145 68.0049 679.697 67.8787 679.241 67.6997C678.794 67.5288 678.358 67.2969 677.935 67.0039C677.52 66.7109 677.162 66.3488 676.861 65.9175L678.033 64.5625C678.309 64.8962 678.594 65.1769 678.887 65.4048C679.18 65.6408 679.477 65.828 679.778 65.9663C680.079 66.1047 680.381 66.2023 680.682 66.2593C680.983 66.3244 681.284 66.3569 681.585 66.3569C682.122 66.3569 682.606 66.2796 683.038 66.125C683.469 65.9704 683.835 65.7425 684.136 65.4414C684.445 65.1484 684.681 64.7822 684.844 64.3428C685.007 63.9033 685.088 63.3988 685.088 62.8291V61.6938C684.649 62.1984 684.128 62.585 683.526 62.8535C682.932 63.1139 682.24 63.2441 681.451 63.2441C680.645 63.2441 679.917 63.0732 679.266 62.7314C678.615 62.3896 678.061 61.9176 677.605 61.3154C677.158 60.7132 676.812 60.0052 676.568 59.1914C676.324 58.3695 676.202 57.4865 676.202 56.5425V56.2861ZM678.46 56.5425C678.46 57.1854 678.525 57.7957 678.655 58.3735C678.794 58.9513 679.005 59.46 679.29 59.8994C679.583 60.3389 679.953 60.6888 680.401 60.9492C680.848 61.2015 681.386 61.3276 682.012 61.3276C682.403 61.3276 682.753 61.2829 683.062 61.1934C683.379 61.0957 683.66 60.9614 683.904 60.7905C684.157 60.6196 684.38 60.4162 684.576 60.1802C684.771 59.9442 684.942 59.6838 685.088 59.3989V53.3442C684.942 53.0675 684.771 52.8153 684.576 52.5874C684.38 52.3595 684.157 52.1642 683.904 52.0015C683.652 51.8306 683.371 51.7004 683.062 51.6108C682.753 51.5132 682.411 51.4644 682.037 51.4644C681.402 51.4644 680.857 51.5946 680.401 51.855C679.953 52.1154 679.583 52.4694 679.29 52.917C679.005 53.3564 678.794 53.8691 678.655 54.4551C678.525 55.0329 678.46 55.6432 678.46 56.2861V56.5425ZM690.997 56.2739C690.997 55.3218 691.135 54.4388 691.412 53.625C691.688 52.8031 692.083 52.091 692.596 51.4888C693.117 50.8866 693.747 50.4146 694.488 50.0728C695.228 49.7228 696.062 49.5479 696.99 49.5479C697.926 49.5479 698.764 49.7228 699.505 50.0728C700.254 50.4146 700.884 50.8866 701.397 51.4888C701.918 52.091 702.317 52.8031 702.593 53.625C702.87 54.4388 703.008 55.3218 703.008 56.2739V56.5425C703.008 57.4946 702.87 58.3776 702.593 59.1914C702.317 60.0052 701.918 60.7132 701.397 61.3154C700.884 61.9176 700.258 62.3896 699.517 62.7314C698.777 63.0732 697.942 63.2441 697.015 63.2441C696.079 63.2441 695.236 63.0732 694.488 62.7314C693.747 62.3896 693.117 61.9176 692.596 61.3154C692.083 60.7132 691.688 60.0052 691.412 59.1914C691.135 58.3776 690.997 57.4946 690.997 56.5425V56.2739ZM693.255 56.5425C693.255 57.1935 693.332 57.8161 693.487 58.4102C693.641 58.9961 693.873 59.5129 694.183 59.9604C694.5 60.408 694.895 60.762 695.367 61.0225C695.839 61.2829 696.388 61.4131 697.015 61.4131C697.633 61.4131 698.174 61.2829 698.638 61.0225C699.11 60.762 699.501 60.408 699.81 59.9604C700.127 59.5129 700.363 58.9961 700.518 58.4102C700.673 57.8161 700.75 57.1935 700.75 56.5425V56.2739C700.75 55.631 700.669 55.0166 700.506 54.4307C700.351 53.8366 700.115 53.3158 699.798 52.8682C699.489 52.4206 699.098 52.0666 698.626 51.8062C698.162 51.5376 697.617 51.4033 696.99 51.4033C696.364 51.4033 695.818 51.5376 695.354 51.8062C694.891 52.0666 694.5 52.4206 694.183 52.8682C693.873 53.3158 693.641 53.8366 693.487 54.4307C693.332 55.0166 693.255 55.631 693.255 56.2739V56.5425ZM708.672 49.792L708.831 51.7451C709.311 51.0615 709.901 50.5285 710.601 50.146C711.301 49.7554 712.082 49.556 712.945 49.5479C713.637 49.5479 714.263 49.6455 714.825 49.8408C715.394 50.0361 715.879 50.3413 716.277 50.7563C716.676 51.1714 716.981 51.7004 717.193 52.3433C717.413 52.978 717.522 53.7349 717.522 54.6138V63H715.264V54.6626C715.264 54.0767 715.199 53.5802 715.069 53.1733C714.939 52.7664 714.743 52.4368 714.483 52.1846C714.231 51.9323 713.917 51.7492 713.543 51.6353C713.177 51.5213 712.754 51.4644 712.273 51.4644C711.517 51.4644 710.849 51.6556 710.271 52.0381C709.702 52.4124 709.246 52.9089 708.904 53.5273V63H706.646V49.792H708.672ZM730.34 63C730.25 62.8291 730.177 62.6175 730.12 62.3652C730.071 62.1048 730.035 61.8363 730.01 61.5596C729.782 61.7874 729.526 62.0031 729.241 62.2065C728.965 62.41 728.655 62.589 728.313 62.7437C727.98 62.8983 727.622 63.0203 727.239 63.1099C726.857 63.1994 726.45 63.2441 726.019 63.2441C725.319 63.2441 724.684 63.1424 724.114 62.939C723.553 62.7355 723.073 62.4629 722.674 62.1211C722.283 61.7712 721.978 61.3602 721.758 60.8882C721.547 60.408 721.441 59.8913 721.441 59.3379C721.441 58.6136 721.583 57.9788 721.868 57.4336C722.161 56.8883 722.572 56.4367 723.101 56.0786C723.63 55.7124 724.265 55.4398 725.005 55.2607C725.754 55.0817 726.588 54.9922 727.508 54.9922H729.974V53.9546C729.974 53.5558 729.9 53.1978 729.754 52.8804C729.607 52.563 729.4 52.2944 729.131 52.0747C728.863 51.8468 728.533 51.6719 728.143 51.5498C727.76 51.4277 727.329 51.3667 726.849 51.3667C726.401 51.3667 725.998 51.4237 725.64 51.5376C725.29 51.6515 724.993 51.8021 724.749 51.9893C724.505 52.1764 724.314 52.4002 724.175 52.6606C724.045 52.9129 723.98 53.1774 723.98 53.4541H721.709C721.718 52.974 721.84 52.502 722.076 52.0381C722.32 51.5742 722.666 51.1592 723.113 50.793C723.569 50.4186 724.118 50.1175 724.761 49.8896C725.412 49.6618 726.149 49.5479 726.971 49.5479C727.719 49.5479 728.415 49.6414 729.058 49.8286C729.701 50.0076 730.254 50.2843 730.718 50.6587C731.19 51.0249 731.561 51.4847 731.829 52.0381C732.098 52.5915 732.232 53.2384 732.232 53.979V60.1191C732.232 60.5586 732.273 61.0265 732.354 61.5229C732.435 62.0112 732.549 62.4385 732.696 62.8047V63H730.34ZM726.348 61.2788C726.788 61.2788 727.199 61.2218 727.581 61.1079C727.964 60.994 728.309 60.8434 728.619 60.6562C728.936 60.4691 729.209 60.2575 729.437 60.0215C729.664 59.7773 729.843 59.5251 729.974 59.2646V56.5913H727.874C726.556 56.5913 725.53 56.7866 724.798 57.1772C724.065 57.5679 723.699 58.1823 723.699 59.0205C723.699 59.346 723.752 59.6471 723.858 59.9238C723.972 60.2005 724.139 60.4406 724.358 60.644C724.578 60.8394 724.855 60.994 725.188 61.1079C725.522 61.2218 725.909 61.2788 726.348 61.2788ZM737.029 44.25H743.78V61.0469H748.089V63H737.029V61.0469H741.521V46.2153H737.029V44.25ZM634.124 90.0835H642.815V92H631.866V74.2266H634.124V90.0835ZM655.267 92C655.177 91.8291 655.104 91.6175 655.047 91.3652C654.998 91.1048 654.961 90.8363 654.937 90.5596C654.709 90.7874 654.453 91.0031 654.168 91.2065C653.891 91.41 653.582 91.589 653.24 91.7437C652.907 91.8983 652.549 92.0203 652.166 92.1099C651.784 92.1994 651.377 92.2441 650.945 92.2441C650.245 92.2441 649.611 92.1424 649.041 91.939C648.479 91.7355 647.999 91.4629 647.601 91.1211C647.21 90.7712 646.905 90.3602 646.685 89.8882C646.473 89.408 646.368 88.8913 646.368 88.3379C646.368 87.6136 646.51 86.9788 646.795 86.4336C647.088 85.8883 647.499 85.4367 648.028 85.0786C648.557 84.7124 649.192 84.4398 649.932 84.2607C650.681 84.0817 651.515 83.9922 652.435 83.9922H654.9V82.9546C654.9 82.5558 654.827 82.1978 654.681 81.8804C654.534 81.563 654.327 81.2944 654.058 81.0747C653.79 80.8468 653.46 80.6719 653.069 80.5498C652.687 80.4277 652.256 80.3667 651.775 80.3667C651.328 80.3667 650.925 80.4237 650.567 80.5376C650.217 80.6515 649.92 80.8021 649.676 80.9893C649.432 81.1764 649.24 81.4002 649.102 81.6606C648.972 81.9129 648.907 82.1774 648.907 82.4541H646.636C646.644 81.974 646.766 81.502 647.002 81.0381C647.247 80.5742 647.592 80.1592 648.04 79.793C648.496 79.4186 649.045 79.1175 649.688 78.8896C650.339 78.6618 651.076 78.5479 651.897 78.5479C652.646 78.5479 653.342 78.6414 653.985 78.8286C654.628 79.0076 655.181 79.2843 655.645 79.6587C656.117 80.0249 656.487 80.4847 656.756 81.0381C657.024 81.5915 657.159 82.2384 657.159 82.979V89.1191C657.159 89.5586 657.199 90.0265 657.281 90.5229C657.362 91.0112 657.476 91.4385 657.623 91.8047V92H655.267ZM651.275 90.2788C651.714 90.2788 652.125 90.2218 652.508 90.1079C652.89 89.994 653.236 89.8434 653.545 89.6562C653.863 89.4691 654.135 89.2575 654.363 89.0215C654.591 88.7773 654.77 88.5251 654.9 88.2646V85.5913H652.801C651.482 85.5913 650.457 85.7866 649.725 86.1772C648.992 86.5679 648.626 87.1823 648.626 88.0205C648.626 88.346 648.679 88.6471 648.785 88.9238C648.899 89.2005 649.065 89.4406 649.285 89.644C649.505 89.8394 649.782 89.994 650.115 90.1079C650.449 90.2218 650.835 90.2788 651.275 90.2788ZM666.949 75.5938V78.792H671.978V80.5376H666.949V87.7153C666.949 88.228 667.014 88.6512 667.144 88.9849C667.274 89.3185 667.453 89.5871 667.681 89.7905C667.909 89.9858 668.169 90.1242 668.462 90.2056C668.764 90.2869 669.081 90.3276 669.415 90.3276C669.659 90.3276 669.911 90.3154 670.171 90.291C670.432 90.2585 670.684 90.2218 670.928 90.1812C671.181 90.1405 671.412 90.0998 671.624 90.0591C671.844 90.0103 672.023 89.9696 672.161 89.937L672.479 91.5361C672.291 91.6501 672.063 91.7518 671.795 91.8413C671.526 91.9227 671.233 91.9919 670.916 92.0488C670.599 92.1139 670.261 92.1628 669.903 92.1953C669.553 92.2279 669.203 92.2441 668.853 92.2441C668.267 92.2441 667.718 92.1628 667.205 92C666.701 91.8291 666.261 91.5646 665.887 91.2065C665.512 90.8403 665.215 90.3724 664.996 89.8027C664.784 89.2249 664.678 88.5291 664.678 87.7153V80.5376H661.211V78.792H664.678V75.5938H666.949ZM681.963 75.5938V78.792H686.993V80.5376H681.963V87.7153C681.963 88.228 682.028 88.6512 682.159 88.9849C682.289 89.3185 682.468 89.5871 682.696 89.7905C682.924 89.9858 683.184 90.1242 683.477 90.2056C683.778 90.2869 684.096 90.3276 684.429 90.3276C684.673 90.3276 684.926 90.3154 685.186 90.291C685.446 90.2585 685.699 90.2218 685.943 90.1812C686.195 90.1405 686.427 90.0998 686.639 90.0591C686.858 90.0103 687.037 89.9696 687.176 89.937L687.493 91.5361C687.306 91.6501 687.078 91.7518 686.81 91.8413C686.541 91.9227 686.248 91.9919 685.931 92.0488C685.613 92.1139 685.276 92.1628 684.917 92.1953C684.568 92.2279 684.218 92.2441 683.868 92.2441C683.282 92.2441 682.732 92.1628 682.22 92C681.715 91.8291 681.276 91.5646 680.901 91.2065C680.527 90.8403 680.23 90.3724 680.01 89.8027C679.799 89.2249 679.693 88.5291 679.693 87.7153V80.5376H676.226V78.792H679.693V75.5938H681.963ZM691.985 78.792H698.736V90.0469H703.045V92H691.985V90.0469H696.478V80.7573H691.985V78.792ZM696.185 75.3252C696.185 74.9508 696.294 74.6375 696.514 74.3853C696.742 74.1248 697.084 73.9946 697.54 73.9946C697.987 73.9946 698.325 74.1248 698.553 74.3853C698.781 74.6375 698.895 74.9508 698.895 75.3252C698.895 75.6914 698.781 75.9966 698.553 76.2407C698.325 76.4849 697.987 76.6069 697.54 76.6069C697.084 76.6069 696.742 76.4849 696.514 76.2407C696.294 75.9966 696.185 75.6914 696.185 75.3252ZM712.273 90.4131C712.68 90.4131 713.075 90.348 713.458 90.2178C713.848 90.0876 714.194 89.9085 714.495 89.6807C714.796 89.4447 715.036 89.172 715.215 88.8628C715.403 88.5454 715.5 88.2036 715.508 87.8374H717.645C717.636 88.4233 717.482 88.9849 717.181 89.522C716.888 90.0509 716.493 90.5189 715.997 90.9258C715.5 91.3245 714.931 91.646 714.288 91.8901C713.645 92.1261 712.973 92.2441 712.273 92.2441C711.272 92.2441 710.398 92.0651 709.649 91.707C708.9 91.349 708.274 90.8688 707.769 90.2666C707.273 89.6562 706.898 88.9564 706.646 88.167C706.394 87.3695 706.268 86.5312 706.268 85.6523V85.1396C706.268 84.2689 706.394 83.4347 706.646 82.6372C706.898 81.8397 707.273 81.1398 707.769 80.5376C708.274 79.9272 708.9 79.443 709.649 79.085C710.398 78.7269 711.272 78.5479 712.273 78.5479C713.055 78.5479 713.771 78.674 714.422 78.9263C715.081 79.1704 715.647 79.5081 716.119 79.9395C716.599 80.3626 716.973 80.8672 717.242 81.4531C717.51 82.0391 717.645 82.6657 717.645 83.333H715.508C715.5 82.9342 715.411 82.5599 715.24 82.21C715.077 81.8519 714.853 81.5386 714.568 81.27C714.284 81.0015 713.942 80.7899 713.543 80.6353C713.152 80.4806 712.729 80.4033 712.273 80.4033C711.574 80.4033 710.984 80.5457 710.503 80.8306C710.031 81.1073 709.649 81.4735 709.356 81.9292C709.063 82.3768 708.851 82.8813 708.721 83.4429C708.599 84.0044 708.538 84.57 708.538 85.1396V85.6523C708.538 86.2301 708.599 86.8039 708.721 87.3735C708.851 87.9351 709.059 88.4437 709.344 88.8994C709.637 89.347 710.019 89.7132 710.491 89.998C710.971 90.2747 711.565 90.4131 712.273 90.4131ZM727.496 92.2441C726.568 92.2441 725.713 92.0854 724.932 91.7681C724.159 91.4507 723.496 91.0072 722.942 90.4375C722.389 89.8678 721.958 89.1924 721.648 88.4111C721.339 87.6299 721.185 86.7795 721.185 85.8599V85.3472C721.185 84.2811 721.355 83.3289 721.697 82.4907C722.039 81.6444 722.491 80.9323 723.052 80.3545C723.622 79.7686 724.265 79.321 724.981 79.0117C725.705 78.7025 726.446 78.5479 727.203 78.5479C728.155 78.5479 728.985 78.7147 729.693 79.0483C730.409 79.3739 731.003 79.8296 731.475 80.4155C731.947 80.9933 732.297 81.6769 732.525 82.4663C732.761 83.2557 732.879 84.1102 732.879 85.0298V86.043H723.443C723.467 86.6452 723.581 87.2108 723.785 87.7397C723.996 88.2687 724.281 88.7326 724.639 89.1313C725.005 89.522 725.441 89.8312 725.945 90.0591C726.45 90.2869 727.007 90.4009 727.618 90.4009C728.423 90.4009 729.139 90.2381 729.766 89.9126C730.393 89.5871 730.914 89.1558 731.329 88.6187L732.708 89.6929C732.488 90.0265 732.212 90.348 731.878 90.6572C731.552 90.9583 731.174 91.2269 730.743 91.4629C730.311 91.6989 729.823 91.8861 729.278 92.0244C728.733 92.1709 728.139 92.2441 727.496 92.2441ZM727.203 80.4033C726.747 80.4033 726.316 80.4888 725.909 80.6597C725.502 80.8224 725.136 81.0666 724.81 81.3921C724.485 81.7095 724.208 82.1042 723.98 82.5762C723.76 83.04 723.606 83.5771 723.516 84.1875H730.621V84.0166C730.596 83.5771 730.511 83.1418 730.364 82.7104C730.226 82.2791 730.018 81.8926 729.742 81.5508C729.465 81.209 729.115 80.9323 728.692 80.7207C728.277 80.5091 727.78 80.4033 727.203 80.4033Z" fill="black"/>
<path d="M256.276 190H255.373V184.043L253.513 184.751V183.926L256.203 182.891H256.276V190Z" fill="black"/>
<path d="M659.276 193H658.373V187.043L656.513 187.751V186.926L659.203 185.891H659.276V193Z" fill="black"/>
<path d="M686.707 193H682.049V192.351L684.378 189.763C684.586 189.532 684.76 189.326 684.9 189.147C685.04 188.968 685.153 188.804 685.237 188.654C685.322 188.501 685.382 188.358 685.418 188.225C685.454 188.088 685.472 187.948 685.472 187.805C685.472 187.629 685.442 187.465 685.384 187.312C685.328 187.155 685.245 187.02 685.135 186.906C685.027 186.792 684.896 186.703 684.739 186.638C684.586 186.569 684.412 186.535 684.217 186.535C683.979 186.535 683.772 186.569 683.597 186.638C683.424 186.706 683.279 186.804 683.162 186.931C683.048 187.054 682.962 187.206 682.903 187.385C682.848 187.564 682.82 187.764 682.82 187.985H681.912C681.912 187.686 681.964 187.404 682.068 187.141C682.173 186.874 682.322 186.641 682.518 186.442C682.716 186.244 682.957 186.086 683.24 185.969C683.527 185.852 683.852 185.793 684.217 185.793C684.552 185.793 684.853 185.843 685.12 185.944C685.39 186.042 685.618 186.179 685.804 186.354C685.989 186.53 686.131 186.739 686.229 186.979C686.329 187.22 686.38 187.482 686.38 187.766C686.38 187.977 686.344 188.187 686.272 188.396C686.201 188.601 686.103 188.804 685.979 189.006C685.859 189.208 685.717 189.408 685.555 189.606C685.395 189.802 685.226 189.997 685.047 190.192L683.138 192.263H686.707V193Z" fill="black"/>
<path d="M697.401 215.011H698.046C698.274 215.011 698.474 214.98 698.646 214.918C698.822 214.856 698.969 214.771 699.086 214.664C699.206 214.557 699.298 214.428 699.359 214.278C699.421 214.129 699.452 213.964 699.452 213.785C699.452 213.372 699.346 213.061 699.135 212.853C698.923 212.641 698.614 212.535 698.207 212.535C698.015 212.535 697.839 212.564 697.68 212.623C697.523 212.678 697.388 212.76 697.274 212.867C697.164 212.975 697.077 213.103 697.016 213.253C696.954 213.403 696.923 213.57 696.923 213.756H696.015C696.015 213.486 696.067 213.232 696.171 212.994C696.278 212.753 696.428 212.545 696.62 212.369C696.812 212.19 697.042 212.05 697.309 211.949C697.579 211.845 697.878 211.793 698.207 211.793C698.526 211.793 698.817 211.837 699.081 211.925C699.345 212.009 699.571 212.136 699.76 212.306C699.949 212.475 700.095 212.685 700.199 212.936C700.303 213.186 700.355 213.476 700.355 213.805C700.355 213.941 700.334 214.083 700.292 214.229C700.25 214.376 700.185 214.519 700.097 214.659C700.009 214.796 699.895 214.926 699.755 215.05C699.618 215.17 699.454 215.271 699.262 215.353C699.493 215.427 699.685 215.525 699.838 215.646C699.994 215.766 700.118 215.901 700.209 216.051C700.303 216.201 700.368 216.358 700.404 216.524C700.443 216.69 700.463 216.855 700.463 217.018C700.463 217.35 700.406 217.644 700.292 217.901C700.178 218.159 700.02 218.377 699.818 218.556C699.617 218.731 699.377 218.867 699.101 218.961C698.827 219.052 698.531 219.098 698.212 219.098C697.899 219.098 697.605 219.054 697.328 218.966C697.055 218.878 696.817 218.749 696.615 218.58C696.413 218.411 696.252 218.204 696.132 217.96C696.015 217.716 695.956 217.438 695.956 217.125H696.859C696.859 217.311 696.89 217.48 696.952 217.633C697.017 217.786 697.108 217.916 697.226 218.023C697.343 218.131 697.484 218.214 697.65 218.272C697.82 218.331 698.007 218.36 698.212 218.36C698.417 218.36 698.603 218.334 698.769 218.282C698.935 218.227 699.076 218.144 699.193 218.033C699.311 217.923 699.4 217.786 699.462 217.623C699.527 217.457 699.56 217.262 699.56 217.037C699.56 216.816 699.522 216.625 699.447 216.466C699.376 216.303 699.273 216.168 699.14 216.061C699.009 215.953 698.85 215.873 698.661 215.821C698.476 215.769 698.271 215.743 698.046 215.743H697.401V215.011Z" fill="black"/>
<path d="M687.009 243.612H688V244.35H687.009V246H686.105V244.35H682.863V243.817L686.047 238.891H687.009V243.612ZM683.864 243.612H686.105V240.092L685.959 240.365L683.864 243.612Z" fill="black"/>
<path d="M656.669 242.436L657.025 238.891H660.673V239.77H657.787L657.587 241.664C657.727 241.583 657.895 241.511 658.09 241.449C658.285 241.387 658.511 241.356 658.769 241.356C659.097 241.356 659.392 241.413 659.652 241.527C659.913 241.641 660.134 241.802 660.316 242.011C660.499 242.216 660.639 242.465 660.736 242.758C660.834 243.051 660.883 243.376 660.883 243.734C660.883 244.073 660.837 244.387 660.746 244.677C660.655 244.966 660.517 245.217 660.331 245.429C660.149 245.637 659.918 245.801 659.638 245.922C659.358 246.039 659.029 246.098 658.651 246.098C658.362 246.098 658.088 246.057 657.831 245.976C657.574 245.894 657.344 245.772 657.143 245.609C656.944 245.447 656.78 245.242 656.649 244.994C656.522 244.747 656.443 244.459 656.41 244.13H657.27C657.325 244.534 657.473 244.84 657.714 245.048C657.958 245.256 658.271 245.36 658.651 245.36C658.866 245.36 659.057 245.323 659.223 245.248C659.389 245.17 659.527 245.061 659.638 244.921C659.752 244.778 659.836 244.607 659.892 244.408C659.95 244.21 659.979 243.988 659.979 243.744C659.979 243.523 659.947 243.316 659.882 243.124C659.82 242.932 659.729 242.766 659.608 242.626C659.488 242.483 659.34 242.37 659.164 242.289C658.988 242.208 658.786 242.167 658.559 242.167C658.409 242.167 658.279 242.178 658.168 242.201C658.061 242.221 657.963 242.25 657.875 242.289C657.787 242.328 657.704 242.375 657.626 242.431C657.551 242.486 657.473 242.549 657.392 242.621L656.669 242.436Z" fill="black"/>
<path d="M646.677 211.886V212.696H646.599C646.299 212.696 646.031 212.727 645.793 212.789C645.559 212.851 645.352 212.936 645.173 213.043C644.994 213.15 644.839 213.279 644.709 213.429C644.582 213.575 644.476 213.736 644.392 213.912C644.307 214.088 644.242 214.272 644.196 214.464C644.151 214.656 644.121 214.851 644.108 215.05C644.193 214.949 644.291 214.856 644.401 214.771C644.512 214.684 644.631 214.609 644.758 214.547C644.888 214.482 645.026 214.431 645.173 214.396C645.323 214.356 645.479 214.337 645.642 214.337C645.996 214.337 646.302 214.405 646.56 214.542C646.817 214.675 647.028 214.853 647.194 215.074C647.36 215.296 647.482 215.546 647.561 215.826C647.639 216.106 647.678 216.391 647.678 216.681C647.678 217.013 647.631 217.325 647.536 217.618C647.445 217.911 647.307 218.168 647.121 218.39C646.936 218.608 646.704 218.78 646.428 218.907C646.154 219.034 645.837 219.098 645.476 219.098C645.218 219.098 644.982 219.06 644.768 218.985C644.556 218.91 644.366 218.81 644.196 218.683C644.027 218.552 643.879 218.399 643.752 218.224C643.625 218.048 643.519 217.859 643.435 217.657C643.353 217.455 643.291 217.245 643.249 217.027C643.207 216.809 643.186 216.591 643.186 216.373V215.948C643.186 215.623 643.205 215.297 643.244 214.972C643.286 214.643 643.356 214.329 643.454 214.029C643.552 213.73 643.684 213.45 643.85 213.189C644.016 212.926 644.224 212.698 644.475 212.506C644.729 212.314 645.03 212.162 645.378 212.052C645.726 211.941 646.133 211.886 646.599 211.886H646.677ZM645.495 215.089C645.342 215.089 645.194 215.113 645.051 215.162C644.908 215.211 644.774 215.279 644.65 215.367C644.527 215.455 644.418 215.561 644.323 215.685C644.229 215.808 644.154 215.945 644.099 216.095V216.397C644.099 216.71 644.136 216.988 644.211 217.232C644.286 217.473 644.387 217.677 644.514 217.843C644.641 218.009 644.787 218.136 644.953 218.224C645.119 218.308 645.293 218.351 645.476 218.351C645.687 218.351 645.874 218.31 646.037 218.229C646.2 218.147 646.337 218.035 646.447 217.892C646.561 217.748 646.646 217.577 646.701 217.379C646.76 217.177 646.789 216.959 646.789 216.725C646.789 216.516 646.763 216.314 646.711 216.119C646.659 215.921 646.579 215.745 646.472 215.592C646.364 215.439 646.229 215.317 646.066 215.226C645.904 215.134 645.713 215.089 645.495 215.089Z" fill="black"/>
<path d="M283.707 216H279.049V215.351L281.378 212.763C281.586 212.532 281.76 212.326 281.9 212.147C282.04 211.968 282.153 211.804 282.237 211.654C282.322 211.501 282.382 211.358 282.418 211.225C282.454 211.088 282.472 210.948 282.472 210.805C282.472 210.629 282.442 210.465 282.384 210.312C282.328 210.155 282.245 210.02 282.135 209.906C282.027 209.792 281.896 209.703 281.739 209.638C281.586 209.569 281.412 209.535 281.217 209.535C280.979 209.535 280.772 209.569 280.597 209.638C280.424 209.706 280.279 209.804 280.162 209.931C280.048 210.054 279.962 210.206 279.903 210.385C279.848 210.564 279.82 210.764 279.82 210.985H278.912C278.912 210.686 278.964 210.404 279.068 210.141C279.173 209.874 279.322 209.641 279.518 209.442C279.716 209.244 279.957 209.086 280.24 208.969C280.527 208.852 280.852 208.793 281.217 208.793C281.552 208.793 281.853 208.843 282.12 208.944C282.39 209.042 282.618 209.179 282.804 209.354C282.989 209.53 283.131 209.739 283.229 209.979C283.329 210.22 283.38 210.482 283.38 210.766C283.38 210.977 283.344 211.187 283.272 211.396C283.201 211.601 283.103 211.804 282.979 212.006C282.859 212.208 282.717 212.408 282.555 212.606C282.395 212.802 282.226 212.997 282.047 213.192L280.138 215.263H283.707V216Z" fill="black"/>
<path d="M254.401 239.011H255.046C255.274 239.011 255.474 238.98 255.646 238.918C255.822 238.856 255.969 238.771 256.086 238.664C256.206 238.557 256.298 238.428 256.359 238.278C256.421 238.129 256.452 237.964 256.452 237.785C256.452 237.372 256.346 237.061 256.135 236.853C255.923 236.641 255.614 236.535 255.207 236.535C255.015 236.535 254.839 236.564 254.68 236.623C254.523 236.678 254.388 236.76 254.274 236.867C254.164 236.975 254.077 237.103 254.016 237.253C253.954 237.403 253.923 237.57 253.923 237.756H253.015C253.015 237.486 253.067 237.232 253.171 236.994C253.278 236.753 253.428 236.545 253.62 236.369C253.812 236.19 254.042 236.05 254.309 235.949C254.579 235.845 254.878 235.793 255.207 235.793C255.526 235.793 255.817 235.837 256.081 235.925C256.345 236.009 256.571 236.136 256.76 236.306C256.949 236.475 257.095 236.685 257.199 236.936C257.303 237.186 257.355 237.476 257.355 237.805C257.355 237.941 257.334 238.083 257.292 238.229C257.25 238.376 257.185 238.519 257.097 238.659C257.009 238.796 256.895 238.926 256.755 239.05C256.618 239.17 256.454 239.271 256.262 239.353C256.493 239.427 256.685 239.525 256.838 239.646C256.994 239.766 257.118 239.901 257.209 240.051C257.303 240.201 257.368 240.358 257.404 240.524C257.443 240.69 257.463 240.855 257.463 241.018C257.463 241.35 257.406 241.644 257.292 241.901C257.178 242.159 257.02 242.377 256.818 242.556C256.617 242.731 256.377 242.867 256.101 242.961C255.827 243.052 255.531 243.098 255.212 243.098C254.899 243.098 254.605 243.054 254.328 242.966C254.055 242.878 253.817 242.749 253.615 242.58C253.413 242.411 253.252 242.204 253.132 241.96C253.015 241.716 252.956 241.438 252.956 241.125H253.859C253.859 241.311 253.89 241.48 253.952 241.633C254.017 241.786 254.108 241.916 254.226 242.023C254.343 242.131 254.484 242.214 254.65 242.272C254.82 242.331 255.007 242.36 255.212 242.36C255.417 242.36 255.603 242.334 255.769 242.282C255.935 242.227 256.076 242.144 256.193 242.033C256.311 241.923 256.4 241.786 256.462 241.623C256.527 241.457 256.56 241.262 256.56 241.037C256.56 240.816 256.522 240.625 256.447 240.466C256.376 240.303 256.273 240.168 256.14 240.061C256.009 239.953 255.85 239.873 255.661 239.821C255.476 239.769 255.271 239.743 255.046 239.743H254.401V239.011Z" fill="black"/>
<path d="M230.009 213.612H231V214.35H230.009V216H229.105V214.35H225.863V213.817L229.047 208.891H230.009V213.612ZM226.864 213.612H229.105V210.092L228.959 210.365L226.864 213.612Z" fill="black"/>
</svg>
