<svg width="930" height="316" viewBox="0 0 930 316" fill="none" xmlns="http://www.w3.org/2000/svg">
<rect width="930" height="316" fill="white"/>
<path d="M154.679 31.2266L154.703 43.2627C154.687 44.0928 154.536 44.87 154.251 45.5942C153.967 46.3185 153.568 46.9533 153.055 47.4985C152.542 48.0356 151.932 48.4629 151.224 48.7803C150.516 49.0895 149.739 49.2441 148.893 49.2441C148.03 49.2441 147.245 49.0895 146.537 48.7803C145.829 48.471 145.222 48.0479 144.718 47.5107C144.213 46.9655 143.819 46.3307 143.534 45.6064C143.249 44.874 143.102 44.0928 143.094 43.2627L143.119 31.2266H145.267L145.316 43.2627C145.324 43.7917 145.405 44.3003 145.56 44.7886C145.723 45.2769 145.951 45.7082 146.244 46.0825C146.545 46.4569 146.915 46.758 147.354 46.9858C147.802 47.2137 148.315 47.3276 148.893 47.3276C149.47 47.3276 149.979 47.2178 150.418 46.998C150.858 46.7702 151.224 46.4691 151.517 46.0947C151.818 45.7122 152.046 45.2769 152.201 44.7886C152.355 44.3003 152.441 43.7917 152.457 43.2627L152.494 31.2266H154.679ZM160.562 35.792L160.721 37.7451C161.201 37.0615 161.791 36.5285 162.491 36.146C163.191 35.7554 163.972 35.556 164.835 35.5479C165.527 35.5479 166.153 35.6455 166.715 35.8408C167.285 36.0361 167.769 36.3413 168.167 36.7563C168.566 37.1714 168.871 37.7004 169.083 38.3433C169.303 38.978 169.413 39.7349 169.413 40.6138V49H167.154V40.6626C167.154 40.0767 167.089 39.5802 166.959 39.1733C166.829 38.7664 166.633 38.4368 166.373 38.1846C166.121 37.9323 165.807 37.7492 165.433 37.6353C165.067 37.5213 164.644 37.4644 164.164 37.4644C163.407 37.4644 162.739 37.6556 162.162 38.0381C161.592 38.4124 161.136 38.9089 160.794 39.5273V49H158.536V35.792H160.562ZM173.905 35.792H180.655V47.0469H184.964V49H173.905V47.0469H178.397V37.7573H173.905V35.792ZM178.104 32.3252C178.104 31.9508 178.214 31.6375 178.434 31.3853C178.661 31.1248 179.003 30.9946 179.459 30.9946C179.907 30.9946 180.244 31.1248 180.472 31.3853C180.7 31.6375 180.814 31.9508 180.814 32.3252C180.814 32.6914 180.7 32.9966 180.472 33.2407C180.244 33.4849 179.907 33.6069 179.459 33.6069C179.003 33.6069 178.661 33.4849 178.434 33.2407C178.214 32.9966 178.104 32.6914 178.104 32.3252ZM188.138 42.2861C188.138 41.3014 188.26 40.3981 188.504 39.5762C188.757 38.7461 189.111 38.034 189.566 37.4399C190.03 36.8459 190.588 36.382 191.239 36.0483C191.89 35.7147 192.618 35.5479 193.424 35.5479C194.213 35.5479 194.901 35.6821 195.487 35.9507C196.081 36.2111 196.594 36.5936 197.025 37.0981V30.25H199.283V49H197.208L197.11 47.6084C196.671 48.1455 196.146 48.5524 195.536 48.8291C194.925 49.1058 194.213 49.2441 193.399 49.2441C192.602 49.2441 191.878 49.0732 191.227 48.7314C190.584 48.3896 190.034 47.9176 189.579 47.3154C189.123 46.7132 188.769 46.0052 188.517 45.1914C188.264 44.3695 188.138 43.4865 188.138 42.5425V42.2861ZM190.396 42.5425C190.396 43.1854 190.466 43.7957 190.604 44.3735C190.742 44.9513 190.954 45.46 191.239 45.8994C191.532 46.3389 191.902 46.6888 192.35 46.9492C192.797 47.2015 193.334 47.3276 193.961 47.3276C194.343 47.3276 194.689 47.2829 194.999 47.1934C195.308 47.1038 195.589 46.9777 195.841 46.8149C196.093 46.644 196.317 46.4447 196.512 46.2168C196.708 45.9808 196.878 45.7204 197.025 45.4355V39.3076C196.732 38.7705 196.337 38.3311 195.841 37.9893C195.344 37.6393 194.726 37.4644 193.985 37.4644C193.351 37.4644 192.805 37.5946 192.35 37.855C191.902 38.1154 191.532 38.4694 191.239 38.917C190.954 39.3564 190.742 39.8691 190.604 40.4551C190.466 41.0329 190.396 41.6432 190.396 42.2861V42.5425ZM203.934 35.792H210.685V47.0469H214.994V49H203.934V47.0469H208.426V37.7573H203.934V35.792ZM208.133 32.3252C208.133 31.9508 208.243 31.6375 208.463 31.3853C208.691 31.1248 209.033 30.9946 209.488 30.9946C209.936 30.9946 210.274 31.1248 210.501 31.3853C210.729 31.6375 210.843 31.9508 210.843 32.3252C210.843 32.6914 210.729 32.9966 210.501 33.2407C210.274 33.4849 209.936 33.6069 209.488 33.6069C209.033 33.6069 208.691 33.4849 208.463 33.2407C208.243 32.9966 208.133 32.6914 208.133 32.3252ZM227.25 35.5479C227.461 35.5479 227.681 35.556 227.909 35.5723C228.137 35.5804 228.352 35.6007 228.556 35.6333C228.767 35.6577 228.958 35.6903 229.129 35.731C229.308 35.7716 229.455 35.8164 229.569 35.8652L229.264 38.0747C228.824 37.9771 228.405 37.9079 228.006 37.8672C227.616 37.8184 227.205 37.7939 226.773 37.7939C225.715 37.7939 224.857 38.034 224.198 38.5142C223.547 38.9943 223.067 39.6657 222.757 40.5283V49H220.487V35.792H222.635L222.745 37.8916C223.282 37.1673 223.925 36.5977 224.674 36.1826C225.431 35.7594 226.289 35.5479 227.25 35.5479ZM239.444 49.2441C238.517 49.2441 237.662 49.0854 236.881 48.7681C236.108 48.4507 235.444 48.0072 234.891 47.4375C234.338 46.8678 233.906 46.1924 233.597 45.4111C233.288 44.6299 233.133 43.7795 233.133 42.8599V42.3472C233.133 41.2811 233.304 40.3289 233.646 39.4907C233.988 38.6444 234.439 37.9323 235.001 37.3545C235.571 36.7686 236.214 36.321 236.93 36.0117C237.654 35.7025 238.395 35.5479 239.151 35.5479C240.104 35.5479 240.934 35.7147 241.642 36.0483C242.358 36.3739 242.952 36.8296 243.424 37.4155C243.896 37.9933 244.246 38.6769 244.474 39.4663C244.71 40.2557 244.828 41.1102 244.828 42.0298V43.043H235.392C235.416 43.6452 235.53 44.2108 235.733 44.7397C235.945 45.2687 236.23 45.7326 236.588 46.1313C236.954 46.522 237.389 46.8312 237.894 47.0591C238.399 47.2869 238.956 47.4009 239.566 47.4009C240.372 47.4009 241.088 47.2381 241.715 46.9126C242.341 46.5871 242.862 46.1558 243.277 45.6187L244.657 46.6929C244.437 47.0265 244.16 47.348 243.827 47.6572C243.501 47.9583 243.123 48.2269 242.691 48.4629C242.26 48.6989 241.772 48.8861 241.227 49.0244C240.681 49.1709 240.087 49.2441 239.444 49.2441ZM239.151 37.4033C238.696 37.4033 238.264 37.4888 237.857 37.6597C237.451 37.8224 237.084 38.0666 236.759 38.3921C236.433 38.7095 236.157 39.1042 235.929 39.5762C235.709 40.04 235.554 40.5771 235.465 41.1875H242.569V41.0166C242.545 40.5771 242.459 40.1418 242.313 39.7104C242.175 39.2791 241.967 38.8926 241.69 38.5508C241.414 38.209 241.064 37.9323 240.641 37.7207C240.226 37.5091 239.729 37.4033 239.151 37.4033ZM254.251 47.4131C254.658 47.4131 255.053 47.348 255.436 47.2178C255.826 47.0876 256.172 46.9085 256.473 46.6807C256.774 46.4447 257.014 46.172 257.193 45.8628C257.381 45.5454 257.478 45.2036 257.486 44.8374H259.623C259.614 45.4233 259.46 45.9849 259.159 46.522C258.866 47.0509 258.471 47.5189 257.975 47.9258C257.478 48.3245 256.909 48.646 256.266 48.8901C255.623 49.1261 254.951 49.2441 254.251 49.2441C253.25 49.2441 252.376 49.0651 251.627 48.707C250.878 48.349 250.252 47.8688 249.747 47.2666C249.251 46.6562 248.876 45.9564 248.624 45.167C248.372 44.3695 248.246 43.5312 248.246 42.6523V42.1396C248.246 41.2689 248.372 40.4347 248.624 39.6372C248.876 38.8397 249.251 38.1398 249.747 37.5376C250.252 36.9272 250.878 36.443 251.627 36.085C252.376 35.7269 253.25 35.5479 254.251 35.5479C255.033 35.5479 255.749 35.674 256.4 35.9263C257.059 36.1704 257.625 36.5081 258.097 36.9395C258.577 37.3626 258.951 37.8672 259.22 38.4531C259.488 39.0391 259.623 39.6657 259.623 40.333H257.486C257.478 39.9342 257.389 39.5599 257.218 39.21C257.055 38.8519 256.831 38.5386 256.546 38.27C256.262 38.0015 255.92 37.7899 255.521 37.6353C255.13 37.4806 254.707 37.4033 254.251 37.4033C253.552 37.4033 252.962 37.5457 252.481 37.8306C252.009 38.1073 251.627 38.4735 251.334 38.9292C251.041 39.3768 250.829 39.8813 250.699 40.4429C250.577 41.0044 250.516 41.57 250.516 42.1396V42.6523C250.516 43.2301 250.577 43.8039 250.699 44.3735C250.829 44.9351 251.037 45.4437 251.322 45.8994C251.615 46.347 251.997 46.7132 252.469 46.998C252.949 47.2747 253.543 47.4131 254.251 47.4131ZM268.985 32.5938V35.792H274.015V37.5376H268.985V44.7153C268.985 45.228 269.05 45.6512 269.181 45.9849C269.311 46.3185 269.49 46.5871 269.718 46.7905C269.946 46.9858 270.206 47.1242 270.499 47.2056C270.8 47.2869 271.118 47.3276 271.451 47.3276C271.695 47.3276 271.948 47.3154 272.208 47.291C272.468 47.2585 272.721 47.2218 272.965 47.1812C273.217 47.1405 273.449 47.0998 273.661 47.0591C273.88 47.0103 274.059 46.9696 274.198 46.937L274.515 48.5361C274.328 48.6501 274.1 48.7518 273.832 48.8413C273.563 48.9227 273.27 48.9919 272.953 49.0488C272.635 49.1139 272.298 49.1628 271.939 49.1953C271.59 49.2279 271.24 49.2441 270.89 49.2441C270.304 49.2441 269.754 49.1628 269.242 49C268.737 48.8291 268.298 48.5646 267.923 48.2065C267.549 47.8403 267.252 47.3724 267.032 46.8027C266.821 46.2249 266.715 45.5291 266.715 44.7153V37.5376H263.248V35.792H266.715V32.5938H268.985ZM279.007 35.792H285.758V47.0469H290.067V49H279.007V47.0469H283.5V37.7573H279.007V35.792ZM283.207 32.3252C283.207 31.9508 283.316 31.6375 283.536 31.3853C283.764 31.1248 284.106 30.9946 284.562 30.9946C285.009 30.9946 285.347 31.1248 285.575 31.3853C285.803 31.6375 285.917 31.9508 285.917 32.3252C285.917 32.6914 285.803 32.9966 285.575 33.2407C285.347 33.4849 285.009 33.6069 284.562 33.6069C284.106 33.6069 283.764 33.4849 283.536 33.2407C283.316 32.9966 283.207 32.6914 283.207 32.3252ZM293.033 42.2739C293.033 41.3218 293.172 40.4388 293.448 39.625C293.725 38.8031 294.12 38.091 294.632 37.4888C295.153 36.8866 295.784 36.4146 296.524 36.0728C297.265 35.7228 298.099 35.5479 299.027 35.5479C299.963 35.5479 300.801 35.7228 301.542 36.0728C302.29 36.4146 302.921 36.8866 303.434 37.4888C303.954 38.091 304.353 38.8031 304.63 39.625C304.907 40.4388 305.045 41.3218 305.045 42.2739V42.5425C305.045 43.4946 304.907 44.3776 304.63 45.1914C304.353 46.0052 303.954 46.7132 303.434 47.3154C302.921 47.9176 302.294 48.3896 301.554 48.7314C300.813 49.0732 299.979 49.2441 299.051 49.2441C298.115 49.2441 297.273 49.0732 296.524 48.7314C295.784 48.3896 295.153 47.9176 294.632 47.3154C294.12 46.7132 293.725 46.0052 293.448 45.1914C293.172 44.3776 293.033 43.4946 293.033 42.5425V42.2739ZM295.292 42.5425C295.292 43.1935 295.369 43.8161 295.523 44.4102C295.678 44.9961 295.91 45.5129 296.219 45.9604C296.537 46.408 296.931 46.762 297.403 47.0225C297.875 47.2829 298.425 47.4131 299.051 47.4131C299.67 47.4131 300.211 47.2829 300.675 47.0225C301.147 46.762 301.537 46.408 301.847 45.9604C302.164 45.5129 302.4 44.9961 302.555 44.4102C302.709 43.8161 302.787 43.1935 302.787 42.5425V42.2739C302.787 41.631 302.705 41.0166 302.542 40.4307C302.388 39.8366 302.152 39.3158 301.834 38.8682C301.525 38.4206 301.135 38.0666 300.663 37.8062C300.199 37.5376 299.653 37.4033 299.027 37.4033C298.4 37.4033 297.855 37.5376 297.391 37.8062C296.927 38.0666 296.537 38.4206 296.219 38.8682C295.91 39.3158 295.678 39.8366 295.523 40.4307C295.369 41.0166 295.292 41.631 295.292 42.2739V42.5425ZM310.709 35.792L310.868 37.7451C311.348 37.0615 311.938 36.5285 312.638 36.146C313.338 35.7554 314.119 35.556 314.981 35.5479C315.673 35.5479 316.3 35.6455 316.861 35.8408C317.431 36.0361 317.915 36.3413 318.314 36.7563C318.713 37.1714 319.018 37.7004 319.229 38.3433C319.449 38.978 319.559 39.7349 319.559 40.6138V49H317.301V40.6626C317.301 40.0767 317.236 39.5802 317.105 39.1733C316.975 38.7664 316.78 38.4368 316.52 38.1846C316.267 37.9323 315.954 37.7492 315.58 37.6353C315.213 37.5213 314.79 37.4644 314.31 37.4644C313.553 37.4644 312.886 37.6556 312.308 38.0381C311.738 38.4124 311.283 38.9089 310.941 39.5273V49H308.683V35.792H310.709ZM332.376 49C332.287 48.8291 332.214 48.6175 332.157 48.3652C332.108 48.1048 332.071 47.8363 332.047 47.5596C331.819 47.7874 331.563 48.0031 331.278 48.2065C331.001 48.41 330.692 48.589 330.35 48.7437C330.016 48.8983 329.658 49.0203 329.276 49.1099C328.893 49.1994 328.486 49.2441 328.055 49.2441C327.355 49.2441 326.721 49.1424 326.151 48.939C325.589 48.7355 325.109 48.4629 324.71 48.1211C324.32 47.7712 324.015 47.3602 323.795 46.8882C323.583 46.408 323.478 45.8913 323.478 45.3379C323.478 44.6136 323.62 43.9788 323.905 43.4336C324.198 42.8883 324.609 42.4367 325.138 42.0786C325.667 41.7124 326.301 41.4398 327.042 41.2607C327.791 41.0817 328.625 40.9922 329.544 40.9922H332.01V39.9546C332.01 39.5558 331.937 39.1978 331.791 38.8804C331.644 38.563 331.437 38.2944 331.168 38.0747C330.899 37.8468 330.57 37.6719 330.179 37.5498C329.797 37.4277 329.365 37.3667 328.885 37.3667C328.438 37.3667 328.035 37.4237 327.677 37.5376C327.327 37.6515 327.03 37.8021 326.786 37.9893C326.542 38.1764 326.35 38.4002 326.212 38.6606C326.082 38.9129 326.017 39.1774 326.017 39.4541H323.746C323.754 38.974 323.876 38.502 324.112 38.0381C324.356 37.5742 324.702 37.1592 325.15 36.793C325.606 36.4186 326.155 36.1175 326.798 35.8896C327.449 35.6618 328.185 35.5479 329.007 35.5479C329.756 35.5479 330.452 35.6414 331.095 35.8286C331.738 36.0076 332.291 36.2843 332.755 36.6587C333.227 37.0249 333.597 37.4847 333.866 38.0381C334.134 38.5915 334.269 39.2384 334.269 39.979V46.1191C334.269 46.5586 334.309 47.0265 334.391 47.5229C334.472 48.0112 334.586 48.4385 334.732 48.8047V49H332.376ZM328.385 47.2788C328.824 47.2788 329.235 47.2218 329.618 47.1079C330 46.994 330.346 46.8434 330.655 46.6562C330.973 46.4691 331.245 46.2575 331.473 46.0215C331.701 45.7773 331.88 45.5251 332.01 45.2646V42.5913H329.911C328.592 42.5913 327.567 42.7866 326.834 43.1772C326.102 43.5679 325.736 44.1823 325.736 45.0205C325.736 45.346 325.789 45.6471 325.895 45.9238C326.008 46.2005 326.175 46.4406 326.395 46.644C326.615 46.8394 326.891 46.994 327.225 47.1079C327.559 47.2218 327.945 47.2788 328.385 47.2788ZM339.066 30.25H345.816V47.0469H350.125V49H339.066V47.0469H343.558V32.2153H339.066V30.25ZM228.482 70.1509H221.085V78H218.802V60.2266H229.715V62.1553H221.085V68.2344H228.482V70.1509ZM233.963 59.25H240.714V76.0469H245.023V78H233.963V76.0469H238.456V61.2153H233.963V59.25ZM247.989 71.2739C247.989 70.3218 248.128 69.4388 248.404 68.625C248.681 67.8031 249.076 67.091 249.588 66.4888C250.109 65.8866 250.74 65.4146 251.48 65.0728C252.221 64.7228 253.055 64.5479 253.983 64.5479C254.919 64.5479 255.757 64.7228 256.498 65.0728C257.246 65.4146 257.877 65.8866 258.39 66.4888C258.91 67.091 259.309 67.8031 259.586 68.625C259.863 69.4388 260.001 70.3218 260.001 71.2739V71.5425C260.001 72.4946 259.863 73.3776 259.586 74.1914C259.309 75.0052 258.91 75.7132 258.39 76.3154C257.877 76.9176 257.25 77.3896 256.51 77.7314C255.769 78.0732 254.935 78.2441 254.007 78.2441C253.071 78.2441 252.229 78.0732 251.48 77.7314C250.74 77.3896 250.109 76.9176 249.588 76.3154C249.076 75.7132 248.681 75.0052 248.404 74.1914C248.128 73.3776 247.989 72.4946 247.989 71.5425V71.2739ZM250.248 71.5425C250.248 72.1935 250.325 72.8161 250.479 73.4102C250.634 73.9961 250.866 74.5129 251.175 74.9604C251.493 75.408 251.887 75.762 252.359 76.0225C252.831 76.2829 253.381 76.4131 254.007 76.4131C254.626 76.4131 255.167 76.2829 255.631 76.0225C256.103 75.762 256.493 75.408 256.803 74.9604C257.12 74.5129 257.356 73.9961 257.511 73.4102C257.665 72.8161 257.743 72.1935 257.743 71.5425V71.2739C257.743 70.631 257.661 70.0166 257.499 69.4307C257.344 68.8366 257.108 68.3158 256.791 67.8682C256.481 67.4206 256.091 67.0666 255.619 66.8062C255.155 66.5376 254.61 66.4033 253.983 66.4033C253.356 66.4033 252.811 66.5376 252.347 66.8062C251.883 67.0666 251.493 67.4206 251.175 67.8682C250.866 68.3158 250.634 68.8366 250.479 69.4307C250.325 70.0166 250.248 70.631 250.248 71.2739V71.5425ZM265.641 73.2148L265.909 75.1069L266.239 73.2148L268.351 64.792H269.803L271.903 73.2148L272.257 75.29L272.586 73.2148L274.051 64.792H276.053L273.246 78H271.463L269.4 69.9067L269.059 67.856L268.729 69.9067L266.69 78H264.908L262.101 64.792H264.103L265.641 73.2148Z" fill="black"/>
<path d="M580.521 26.2266H591.264V28.1919H587.003V42.0469H591.264V44H580.521V42.0469H584.684V28.1919H580.521V26.2266ZM597.562 30.792L597.721 32.7451C598.201 32.0615 598.791 31.5285 599.491 31.146C600.191 30.7554 600.972 30.556 601.835 30.5479C602.527 30.5479 603.153 30.6455 603.715 30.8408C604.285 31.0361 604.769 31.3413 605.167 31.7563C605.566 32.1714 605.871 32.7004 606.083 33.3433C606.303 33.978 606.413 34.7349 606.413 35.6138V44H604.154V35.6626C604.154 35.0767 604.089 34.5802 603.959 34.1733C603.829 33.7664 603.633 33.4368 603.373 33.1846C603.121 32.9323 602.807 32.7492 602.433 32.6353C602.067 32.5213 601.644 32.4644 601.164 32.4644C600.407 32.4644 599.739 32.6556 599.162 33.0381C598.592 33.4124 598.136 33.9089 597.794 34.5273V44H595.536V30.792H597.562ZM616.178 42.4131C616.585 42.4131 616.98 42.348 617.362 42.2178C617.753 42.0876 618.099 41.9085 618.4 41.6807C618.701 41.4447 618.941 41.172 619.12 40.8628C619.307 40.5454 619.405 40.2036 619.413 39.8374H621.549C621.541 40.4233 621.387 40.9849 621.085 41.522C620.792 42.0509 620.398 42.5189 619.901 42.9258C619.405 43.3245 618.835 43.646 618.192 43.8901C617.549 44.1261 616.878 44.2441 616.178 44.2441C615.177 44.2441 614.302 44.0651 613.554 43.707C612.805 43.349 612.178 42.8688 611.674 42.2666C611.177 41.6562 610.803 40.9564 610.551 40.167C610.299 39.3695 610.172 38.5312 610.172 37.6523V37.1396C610.172 36.2689 610.299 35.4347 610.551 34.6372C610.803 33.8397 611.177 33.1398 611.674 32.5376C612.178 31.9272 612.805 31.443 613.554 31.085C614.302 30.7269 615.177 30.5479 616.178 30.5479C616.959 30.5479 617.676 30.674 618.327 30.9263C618.986 31.1704 619.551 31.5081 620.023 31.9395C620.504 32.3626 620.878 32.8672 621.146 33.4531C621.415 34.0391 621.549 34.6657 621.549 35.333H619.413C619.405 34.9342 619.315 34.5599 619.145 34.21C618.982 33.8519 618.758 33.5386 618.473 33.27C618.188 33.0015 617.847 32.7899 617.448 32.6353C617.057 32.4806 616.634 32.4033 616.178 32.4033C615.478 32.4033 614.888 32.5457 614.408 32.8306C613.936 33.1073 613.554 33.4735 613.261 33.9292C612.968 34.3768 612.756 34.8813 612.626 35.4429C612.504 36.0044 612.443 36.57 612.443 37.1396V37.6523C612.443 38.2301 612.504 38.8039 612.626 39.3735C612.756 39.9351 612.964 40.4437 613.249 40.8994C613.542 41.347 613.924 41.7132 614.396 41.998C614.876 42.2747 615.47 42.4131 616.178 42.4131ZM624.931 37.2739C624.931 36.3218 625.069 35.4388 625.346 34.625C625.622 33.8031 626.017 33.091 626.53 32.4888C627.051 31.8866 627.681 31.4146 628.422 31.0728C629.162 30.7228 629.997 30.5479 630.924 30.5479C631.86 30.5479 632.698 30.7228 633.439 31.0728C634.188 31.4146 634.818 31.8866 635.331 32.4888C635.852 33.091 636.251 33.8031 636.527 34.625C636.804 35.4388 636.942 36.3218 636.942 37.2739V37.5425C636.942 38.4946 636.804 39.3776 636.527 40.1914C636.251 41.0052 635.852 41.7132 635.331 42.3154C634.818 42.9176 634.192 43.3896 633.451 43.7314C632.711 44.0732 631.876 44.2441 630.949 44.2441C630.013 44.2441 629.171 44.0732 628.422 43.7314C627.681 43.3896 627.051 42.9176 626.53 42.3154C626.017 41.7132 625.622 41.0052 625.346 40.1914C625.069 39.3776 624.931 38.4946 624.931 37.5425V37.2739ZM627.189 37.5425C627.189 38.1935 627.266 38.8161 627.421 39.4102C627.576 39.9961 627.807 40.5129 628.117 40.9604C628.434 41.408 628.829 41.762 629.301 42.0225C629.773 42.2829 630.322 42.4131 630.949 42.4131C631.567 42.4131 632.108 42.2829 632.572 42.0225C633.044 41.762 633.435 41.408 633.744 40.9604C634.062 40.5129 634.298 39.9961 634.452 39.4102C634.607 38.8161 634.684 38.1935 634.684 37.5425V37.2739C634.684 36.631 634.603 36.0166 634.44 35.4307C634.285 34.8366 634.049 34.3158 633.732 33.8682C633.423 33.4206 633.032 33.0666 632.56 32.8062C632.096 32.5376 631.551 32.4033 630.924 32.4033C630.298 32.4033 629.752 32.5376 629.289 32.8062C628.825 33.0666 628.434 33.4206 628.117 33.8682C627.807 34.3158 627.576 34.8366 627.421 35.4307C627.266 36.0166 627.189 36.631 627.189 37.2739V37.5425ZM641.618 30.792L641.679 32.0371C641.947 31.5732 642.297 31.2111 642.729 30.9507C643.168 30.6903 643.697 30.556 644.315 30.5479C645.528 30.5479 646.338 31.0199 646.745 31.9639C647.005 31.5407 647.347 31.203 647.77 30.9507C648.201 30.6903 648.722 30.556 649.333 30.5479C650.301 30.5479 651.046 30.8449 651.566 31.439C652.087 32.033 652.348 32.9323 652.348 34.1367V44H650.199V34.1123C650.199 33.0055 649.691 32.4562 648.673 32.4644C648.405 32.4644 648.173 32.501 647.978 32.5742C647.782 32.6475 647.619 32.7492 647.489 32.8794C647.359 33.0015 647.257 33.1479 647.184 33.3188C647.111 33.4816 647.062 33.6525 647.038 33.8315V44H644.889V34.1001C644.889 33.5711 644.771 33.1642 644.535 32.8794C644.299 32.5946 643.925 32.4562 643.412 32.4644C642.94 32.4644 642.574 32.5579 642.313 32.7451C642.053 32.9323 641.862 33.1805 641.74 33.4897V44H639.591V30.792H641.618ZM666.74 37.5425C666.74 38.4865 666.626 39.3695 666.398 40.1914C666.17 41.0052 665.836 41.7132 665.397 42.3154C664.958 42.9176 664.412 43.3896 663.761 43.7314C663.118 44.0732 662.382 44.2441 661.552 44.2441C660.746 44.2441 660.034 44.1139 659.416 43.8535C658.805 43.5931 658.28 43.2188 657.841 42.7305V49.0781H655.583V30.792H657.646L657.755 32.2324C658.195 31.6872 658.724 31.2721 659.342 30.9873C659.969 30.6943 660.693 30.5479 661.515 30.5479C662.361 30.5479 663.11 30.7147 663.761 31.0483C664.412 31.382 664.958 31.8459 665.397 32.4399C665.836 33.034 666.17 33.7461 666.398 34.5762C666.626 35.3981 666.74 36.3014 666.74 37.2861V37.5425ZM664.481 37.2861C664.481 36.6432 664.408 36.0329 664.262 35.4551C664.123 34.8691 663.904 34.3564 663.603 33.917C663.31 33.4694 662.935 33.1154 662.479 32.855C662.024 32.5946 661.479 32.4644 660.844 32.4644C660.119 32.4644 659.509 32.6353 659.013 32.9771C658.524 33.3107 658.134 33.742 657.841 34.271V40.6309C658.134 41.1517 658.524 41.5789 659.013 41.9126C659.501 42.2381 660.119 42.4009 660.868 42.4009C661.495 42.4009 662.036 42.2707 662.492 42.0103C662.947 41.7417 663.322 41.3836 663.615 40.936C663.908 40.4884 664.123 39.9717 664.262 39.3857C664.408 38.7998 664.481 38.1854 664.481 37.5425V37.2861ZM679.264 30.5479C679.476 30.5479 679.695 30.556 679.923 30.5723C680.151 30.5804 680.367 30.6007 680.57 30.6333C680.782 30.6577 680.973 30.6903 681.144 30.731C681.323 30.7716 681.47 30.8164 681.583 30.8652L681.278 33.0747C680.839 32.9771 680.42 32.9079 680.021 32.8672C679.63 32.8184 679.219 32.7939 678.788 32.7939C677.73 32.7939 676.872 33.034 676.212 33.5142C675.561 33.9943 675.081 34.6657 674.772 35.5283V44H672.501V30.792H674.65L674.76 32.8916C675.297 32.1673 675.94 31.5977 676.688 31.1826C677.445 30.7594 678.304 30.5479 679.264 30.5479ZM691.459 44.2441C690.531 44.2441 689.677 44.0854 688.896 43.7681C688.122 43.4507 687.459 43.0072 686.906 42.4375C686.352 41.8678 685.921 41.1924 685.612 40.4111C685.303 39.6299 685.148 38.7795 685.148 37.8599V37.3472C685.148 36.2811 685.319 35.3289 685.661 34.4907C686.002 33.6444 686.454 32.9323 687.016 32.3545C687.585 31.7686 688.228 31.321 688.944 31.0117C689.669 30.7025 690.409 30.5479 691.166 30.5479C692.118 30.5479 692.948 30.7147 693.656 31.0483C694.372 31.3739 694.966 31.8296 695.438 32.4155C695.91 32.9933 696.26 33.6769 696.488 34.4663C696.724 35.2557 696.842 36.1102 696.842 37.0298V38.043H687.406C687.431 38.6452 687.545 39.2108 687.748 39.7397C687.96 40.2687 688.244 40.7326 688.603 41.1313C688.969 41.522 689.404 41.8312 689.909 42.0591C690.413 42.2869 690.971 42.4009 691.581 42.4009C692.387 42.4009 693.103 42.2381 693.729 41.9126C694.356 41.5871 694.877 41.1558 695.292 40.6187L696.671 41.6929C696.452 42.0265 696.175 42.348 695.841 42.6572C695.516 42.9583 695.137 43.2269 694.706 43.4629C694.275 43.6989 693.786 43.8861 693.241 44.0244C692.696 44.1709 692.102 44.2441 691.459 44.2441ZM691.166 32.4033C690.71 32.4033 690.279 32.4888 689.872 32.6597C689.465 32.8224 689.099 33.0666 688.773 33.3921C688.448 33.7095 688.171 34.1042 687.943 34.5762C687.724 35.04 687.569 35.5771 687.479 36.1875H694.584V36.0166C694.56 35.5771 694.474 35.1418 694.328 34.7104C694.189 34.2791 693.982 33.8926 693.705 33.5508C693.428 33.209 693.078 32.9323 692.655 32.7207C692.24 32.5091 691.744 32.4033 691.166 32.4033ZM709.416 40.4966C709.416 40.228 709.363 39.988 709.257 39.7764C709.151 39.5566 708.972 39.3573 708.72 39.1782C708.467 38.9992 708.134 38.8364 707.719 38.6899C707.304 38.5353 706.787 38.397 706.168 38.2749C705.412 38.1203 704.72 37.9331 704.093 37.7134C703.475 37.4937 702.942 37.2332 702.494 36.9321C702.055 36.6229 701.713 36.2648 701.469 35.8579C701.225 35.4429 701.103 34.9627 701.103 34.4175C701.103 33.8804 701.229 33.3799 701.481 32.916C701.733 32.444 702.087 32.033 702.543 31.6831C702.999 31.3332 703.54 31.0565 704.167 30.853C704.801 30.6496 705.497 30.5479 706.254 30.5479C707.068 30.5479 707.8 30.6536 708.451 30.8652C709.102 31.0768 709.656 31.3698 710.111 31.7441C710.567 32.1185 710.917 32.5579 711.161 33.0625C711.413 33.5589 711.54 34.096 711.54 34.6738H709.281C709.281 34.389 709.208 34.1123 709.062 33.8438C708.915 33.5671 708.712 33.3229 708.451 33.1113C708.191 32.8997 707.873 32.7288 707.499 32.5986C707.133 32.4684 706.718 32.4033 706.254 32.4033C705.774 32.4033 705.351 32.4562 704.984 32.562C704.626 32.6678 704.325 32.8102 704.081 32.9893C703.845 33.1683 703.666 33.3758 703.544 33.6118C703.422 33.8478 703.361 34.092 703.361 34.3442C703.361 34.6047 703.41 34.8366 703.507 35.04C703.605 35.2435 703.772 35.4266 704.008 35.5894C704.252 35.7521 704.573 35.8986 704.972 36.0288C705.379 36.159 705.892 36.2852 706.51 36.4072C707.324 36.5781 708.052 36.7775 708.695 37.0054C709.338 37.2251 709.879 37.4937 710.319 37.811C710.758 38.1203 711.092 38.4824 711.32 38.8975C711.556 39.3125 711.674 39.7926 711.674 40.3379C711.674 40.9238 711.54 41.4569 711.271 41.937C711.011 42.4172 710.644 42.8281 710.172 43.1699C709.7 43.5117 709.135 43.7762 708.476 43.9634C707.816 44.1506 707.096 44.2441 706.315 44.2441C705.42 44.2441 704.622 44.1261 703.922 43.8901C703.222 43.646 702.628 43.3286 702.14 42.938C701.66 42.5392 701.29 42.0794 701.029 41.5586C700.777 41.0378 700.651 40.4966 700.651 39.9351H702.909C702.942 40.3989 703.064 40.7896 703.275 41.1069C703.495 41.4243 703.764 41.6807 704.081 41.876C704.407 42.0713 704.765 42.2096 705.155 42.291C705.546 42.3724 705.932 42.4131 706.315 42.4131C707.267 42.4131 708.02 42.2381 708.573 41.8882C709.127 41.5382 709.407 41.0744 709.416 40.4966ZM724.43 40.4966C724.43 40.228 724.377 39.988 724.271 39.7764C724.166 39.5566 723.987 39.3573 723.734 39.1782C723.482 38.9992 723.148 38.8364 722.733 38.6899C722.318 38.5353 721.802 38.397 721.183 38.2749C720.426 38.1203 719.735 37.9331 719.108 37.7134C718.489 37.4937 717.956 37.2332 717.509 36.9321C717.069 36.6229 716.728 36.2648 716.483 35.8579C716.239 35.4429 716.117 34.9627 716.117 34.4175C716.117 33.8804 716.243 33.3799 716.496 32.916C716.748 32.444 717.102 32.033 717.558 31.6831C718.013 31.3332 718.555 31.0565 719.181 30.853C719.816 30.6496 720.512 30.5479 721.269 30.5479C722.082 30.5479 722.815 30.6536 723.466 30.8652C724.117 31.0768 724.67 31.3698 725.126 31.7441C725.582 32.1185 725.932 32.5579 726.176 33.0625C726.428 33.5589 726.554 34.096 726.554 34.6738H724.296C724.296 34.389 724.223 34.1123 724.076 33.8438C723.93 33.5671 723.726 33.3229 723.466 33.1113C723.205 32.8997 722.888 32.7288 722.514 32.5986C722.147 32.4684 721.732 32.4033 721.269 32.4033C720.788 32.4033 720.365 32.4562 719.999 32.562C719.641 32.6678 719.34 32.8102 719.096 32.9893C718.86 33.1683 718.681 33.3758 718.559 33.6118C718.437 33.8478 718.375 34.092 718.375 34.3442C718.375 34.6047 718.424 34.8366 718.522 35.04C718.62 35.2435 718.786 35.4266 719.022 35.5894C719.267 35.7521 719.588 35.8986 719.987 36.0288C720.394 36.159 720.906 36.2852 721.525 36.4072C722.339 36.5781 723.067 36.7775 723.71 37.0054C724.353 37.2251 724.894 37.4937 725.333 37.811C725.773 38.1203 726.107 38.4824 726.334 38.8975C726.57 39.3125 726.688 39.7926 726.688 40.3379C726.688 40.9238 726.554 41.4569 726.286 41.937C726.025 42.4172 725.659 42.8281 725.187 43.1699C724.715 43.5117 724.149 43.7762 723.49 43.9634C722.831 44.1506 722.111 44.2441 721.33 44.2441C720.434 44.2441 719.637 44.1261 718.937 43.8901C718.237 43.646 717.643 43.3286 717.155 42.938C716.675 42.5392 716.304 42.0794 716.044 41.5586C715.792 41.0378 715.666 40.4966 715.666 39.9351H717.924C717.956 40.3989 718.078 40.7896 718.29 41.1069C718.51 41.4243 718.778 41.6807 719.096 41.876C719.421 42.0713 719.779 42.2096 720.17 42.291C720.561 42.3724 720.947 42.4131 721.33 42.4131C722.282 42.4131 723.035 42.2381 723.588 41.8882C724.141 41.5382 724.422 41.0744 724.43 40.4966ZM731.022 30.792H737.772V42.0469H742.082V44H731.022V42.0469H735.514V32.7573H731.022V30.792ZM735.221 27.3252C735.221 26.9508 735.331 26.6375 735.551 26.3853C735.779 26.1248 736.12 25.9946 736.576 25.9946C737.024 25.9946 737.361 26.1248 737.589 26.3853C737.817 26.6375 737.931 26.9508 737.931 27.3252C737.931 27.6914 737.817 27.9966 737.589 28.2407C737.361 28.4849 737.024 28.6069 736.576 28.6069C736.12 28.6069 735.779 28.4849 735.551 28.2407C735.331 27.9966 735.221 27.6914 735.221 27.3252ZM756.876 37.5425C756.876 38.4865 756.763 39.3695 756.535 40.1914C756.307 41.0052 755.973 41.7132 755.534 42.3154C755.094 42.9176 754.549 43.3896 753.898 43.7314C753.255 44.0732 752.514 44.2441 751.676 44.2441C750.83 44.2441 750.093 44.0936 749.467 43.7925C748.848 43.4914 748.319 43.0601 747.88 42.4985L747.77 44H745.695V25.25H747.953V32.208C748.384 31.6709 748.905 31.2599 749.516 30.9751C750.126 30.6903 750.838 30.5479 751.652 30.5479C752.498 30.5479 753.247 30.7147 753.898 31.0483C754.549 31.382 755.094 31.8459 755.534 32.4399C755.973 33.034 756.307 33.7461 756.535 34.5762C756.763 35.3981 756.876 36.3014 756.876 37.2861V37.5425ZM754.618 37.2861C754.618 36.6432 754.553 36.0329 754.423 35.4551C754.301 34.8691 754.101 34.3564 753.825 33.917C753.548 33.4694 753.186 33.1154 752.738 32.855C752.291 32.5946 751.741 32.4644 751.09 32.4644C750.7 32.4644 750.342 32.5173 750.016 32.623C749.691 32.7207 749.398 32.8631 749.137 33.0503C748.885 33.2293 748.657 33.445 748.454 33.6973C748.258 33.9414 748.091 34.21 747.953 34.5029V40.2769C748.1 40.5698 748.271 40.8424 748.466 41.0947C748.669 41.3389 748.901 41.5545 749.162 41.7417C749.422 41.9289 749.715 42.0754 750.041 42.1812C750.366 42.2788 750.724 42.3276 751.115 42.3276C751.733 42.3276 752.262 42.2015 752.702 41.9492C753.149 41.6888 753.511 41.3389 753.788 40.8994C754.073 40.46 754.28 39.9513 754.411 39.3735C754.549 38.7957 754.618 38.1854 754.618 37.5425V37.2861ZM761.051 25.25H767.802V42.0469H772.111V44H761.051V42.0469H765.543V27.2153H761.051V25.25ZM781.547 44.2441C780.619 44.2441 779.765 44.0854 778.983 43.7681C778.21 43.4507 777.547 43.0072 776.994 42.4375C776.44 41.8678 776.009 41.1924 775.7 40.4111C775.39 39.6299 775.236 38.7795 775.236 37.8599V37.3472C775.236 36.2811 775.407 35.3289 775.749 34.4907C776.09 33.6444 776.542 32.9323 777.104 32.3545C777.673 31.7686 778.316 31.321 779.032 31.0117C779.757 30.7025 780.497 30.5479 781.254 30.5479C782.206 30.5479 783.036 30.7147 783.744 31.0483C784.46 31.3739 785.054 31.8296 785.526 32.4155C785.998 32.9933 786.348 33.6769 786.576 34.4663C786.812 35.2557 786.93 36.1102 786.93 37.0298V38.043H777.494C777.519 38.6452 777.632 39.2108 777.836 39.7397C778.048 40.2687 778.332 40.7326 778.69 41.1313C779.057 41.522 779.492 41.8312 779.997 42.0591C780.501 42.2869 781.059 42.4009 781.669 42.4009C782.475 42.4009 783.191 42.2381 783.817 41.9126C784.444 41.5871 784.965 41.1558 785.38 40.6187L786.759 41.6929C786.54 42.0265 786.263 42.348 785.929 42.6572C785.604 42.9583 785.225 43.2269 784.794 43.4629C784.363 43.6989 783.874 43.8861 783.329 44.0244C782.784 44.1709 782.19 44.2441 781.547 44.2441ZM781.254 32.4033C780.798 32.4033 780.367 32.4888 779.96 32.6597C779.553 32.8224 779.187 33.0666 778.861 33.3921C778.536 33.7095 778.259 34.1042 778.031 34.5762C777.812 35.04 777.657 35.5771 777.567 36.1875H784.672V36.0166C784.647 35.5771 784.562 35.1418 784.416 34.7104C784.277 34.2791 784.07 33.8926 783.793 33.5508C783.516 33.209 783.166 32.9323 782.743 32.7207C782.328 32.5091 781.832 32.4033 781.254 32.4033ZM665.482 65.1509H658.085V73H655.802V55.2266H666.715V57.1553H658.085V63.2344H665.482V65.1509ZM670.963 54.25H677.714V71.0469H682.023V73H670.963V71.0469H675.456V56.2153H670.963V54.25ZM684.989 66.2739C684.989 65.3218 685.128 64.4388 685.404 63.625C685.681 62.8031 686.076 62.091 686.588 61.4888C687.109 60.8866 687.74 60.4146 688.48 60.0728C689.221 59.7228 690.055 59.5479 690.983 59.5479C691.919 59.5479 692.757 59.7228 693.498 60.0728C694.246 60.4146 694.877 60.8866 695.39 61.4888C695.91 62.091 696.309 62.8031 696.586 63.625C696.863 64.4388 697.001 65.3218 697.001 66.2739V66.5425C697.001 67.4946 696.863 68.3776 696.586 69.1914C696.309 70.0052 695.91 70.7132 695.39 71.3154C694.877 71.9176 694.25 72.3896 693.51 72.7314C692.769 73.0732 691.935 73.2441 691.007 73.2441C690.071 73.2441 689.229 73.0732 688.48 72.7314C687.74 72.3896 687.109 71.9176 686.588 71.3154C686.076 70.7132 685.681 70.0052 685.404 69.1914C685.128 68.3776 684.989 67.4946 684.989 66.5425V66.2739ZM687.248 66.5425C687.248 67.1935 687.325 67.8161 687.479 68.4102C687.634 68.9961 687.866 69.5129 688.175 69.9604C688.493 70.408 688.887 70.762 689.359 71.0225C689.831 71.2829 690.381 71.4131 691.007 71.4131C691.626 71.4131 692.167 71.2829 692.631 71.0225C693.103 70.762 693.493 70.408 693.803 69.9604C694.12 69.5129 694.356 68.9961 694.511 68.4102C694.665 67.8161 694.743 67.1935 694.743 66.5425V66.2739C694.743 65.631 694.661 65.0166 694.499 64.4307C694.344 63.8366 694.108 63.3158 693.791 62.8682C693.481 62.4206 693.091 62.0666 692.619 61.8062C692.155 61.5376 691.61 61.4033 690.983 61.4033C690.356 61.4033 689.811 61.5376 689.347 61.8062C688.883 62.0666 688.493 62.4206 688.175 62.8682C687.866 63.3158 687.634 63.8366 687.479 64.4307C687.325 65.0166 687.248 65.631 687.248 66.2739V66.5425ZM702.641 68.2148L702.909 70.1069L703.239 68.2148L705.351 59.792H706.803L708.903 68.2148L709.257 70.29L709.586 68.2148L711.051 59.792H713.053L710.246 73H708.463L706.4 64.9067L706.059 62.856L705.729 64.9067L703.69 73H701.908L699.101 59.792H701.103L702.641 68.2148Z" fill="black"/>
<path d="M358.756 290.619C358.84 290.619 358.928 290.622 359.02 290.629C359.111 290.632 359.197 290.64 359.278 290.653C359.363 290.663 359.439 290.676 359.508 290.692C359.579 290.709 359.638 290.727 359.684 290.746L359.562 291.63C359.386 291.591 359.218 291.563 359.059 291.547C358.902 291.527 358.738 291.518 358.565 291.518C358.142 291.518 357.799 291.614 357.535 291.806C357.275 291.998 357.083 292.266 356.959 292.611V296H356.051V290.717H356.91L356.954 291.557C357.169 291.267 357.426 291.039 357.726 290.873C358.028 290.704 358.372 290.619 358.756 290.619ZM363.634 296.098C363.263 296.098 362.921 296.034 362.608 295.907C362.299 295.78 362.034 295.603 361.812 295.375C361.591 295.147 361.419 294.877 361.295 294.564C361.171 294.252 361.109 293.912 361.109 293.544V293.339C361.109 292.912 361.178 292.532 361.314 292.196C361.451 291.858 361.632 291.573 361.856 291.342C362.084 291.107 362.341 290.928 362.628 290.805C362.918 290.681 363.214 290.619 363.517 290.619C363.897 290.619 364.229 290.686 364.513 290.819C364.799 290.95 365.037 291.132 365.226 291.366C365.414 291.597 365.554 291.871 365.646 292.187C365.74 292.502 365.787 292.844 365.787 293.212V293.617H362.013C362.022 293.858 362.068 294.084 362.149 294.296C362.234 294.507 362.348 294.693 362.491 294.853C362.638 295.009 362.812 295.132 363.014 295.224C363.215 295.315 363.438 295.36 363.683 295.36C364.005 295.36 364.291 295.295 364.542 295.165C364.793 295.035 365.001 294.862 365.167 294.647L365.719 295.077C365.631 295.211 365.52 295.339 365.387 295.463C365.257 295.583 365.105 295.691 364.933 295.785C364.76 295.88 364.565 295.954 364.347 296.01C364.129 296.068 363.891 296.098 363.634 296.098ZM363.517 291.361C363.334 291.361 363.162 291.396 362.999 291.464C362.836 291.529 362.69 291.627 362.56 291.757C362.429 291.884 362.319 292.042 362.228 292.23C362.14 292.416 362.078 292.631 362.042 292.875H364.884V292.807C364.874 292.631 364.84 292.457 364.781 292.284C364.726 292.112 364.643 291.957 364.532 291.82C364.422 291.684 364.282 291.573 364.112 291.488C363.946 291.404 363.748 291.361 363.517 291.361ZM368.653 296V291.415H367.198V290.717H368.653V290.346C368.653 290.007 368.702 289.711 368.8 289.457C368.901 289.2 369.041 288.985 369.22 288.812C369.402 288.64 369.62 288.51 369.874 288.422C370.128 288.334 370.411 288.29 370.724 288.29C370.938 288.29 371.147 288.308 371.349 288.344C371.554 288.38 371.764 288.425 371.979 288.48L371.871 289.228C371.738 289.182 371.581 289.143 371.402 289.11C371.227 289.075 371.038 289.057 370.836 289.057C370.413 289.06 370.094 289.167 369.879 289.379C369.667 289.59 369.562 289.913 369.562 290.346V290.717H371.598V291.415H369.562V296H368.653ZM375.646 296.098C375.274 296.098 374.933 296.034 374.62 295.907C374.311 295.78 374.046 295.603 373.824 295.375C373.603 295.147 373.43 294.877 373.307 294.564C373.183 294.252 373.121 293.912 373.121 293.544V293.339C373.121 292.912 373.189 292.532 373.326 292.196C373.463 291.858 373.644 291.573 373.868 291.342C374.096 291.107 374.353 290.928 374.64 290.805C374.929 290.681 375.226 290.619 375.528 290.619C375.909 290.619 376.241 290.686 376.524 290.819C376.811 290.95 377.049 291.132 377.237 291.366C377.426 291.597 377.566 291.871 377.657 292.187C377.752 292.502 377.799 292.844 377.799 293.212V293.617H374.024C374.034 293.858 374.08 294.084 374.161 294.296C374.246 294.507 374.36 294.693 374.503 294.853C374.649 295.009 374.824 295.132 375.025 295.224C375.227 295.315 375.45 295.36 375.694 295.36C376.017 295.36 376.303 295.295 376.554 295.165C376.804 295.035 377.013 294.862 377.179 294.647L377.73 295.077C377.643 295.211 377.532 295.339 377.398 295.463C377.268 295.583 377.117 295.691 376.944 295.785C376.772 295.88 376.576 295.954 376.358 296.01C376.14 296.068 375.903 296.098 375.646 296.098ZM375.528 291.361C375.346 291.361 375.174 291.396 375.011 291.464C374.848 291.529 374.701 291.627 374.571 291.757C374.441 291.884 374.33 292.042 374.239 292.23C374.151 292.416 374.09 292.631 374.054 292.875H376.896V292.807C376.886 292.631 376.852 292.457 376.793 292.284C376.738 292.112 376.655 291.957 376.544 291.82C376.433 291.684 376.293 291.573 376.124 291.488C375.958 291.404 375.759 291.361 375.528 291.361ZM382.779 290.619C382.864 290.619 382.952 290.622 383.043 290.629C383.134 290.632 383.22 290.64 383.302 290.653C383.386 290.663 383.463 290.676 383.531 290.692C383.603 290.709 383.661 290.727 383.707 290.746L383.585 291.63C383.409 291.591 383.242 291.563 383.082 291.547C382.926 291.527 382.761 291.518 382.589 291.518C382.166 291.518 381.822 291.614 381.559 291.806C381.298 291.998 381.106 292.266 380.982 292.611V296H380.074V290.717H380.934L380.978 291.557C381.192 291.267 381.45 291.039 381.749 290.873C382.052 290.704 382.395 290.619 382.779 290.619ZM387.657 296.098C387.286 296.098 386.944 296.034 386.632 295.907C386.323 295.78 386.057 295.603 385.836 295.375C385.615 295.147 385.442 294.877 385.318 294.564C385.195 294.252 385.133 293.912 385.133 293.544V293.339C385.133 292.912 385.201 292.532 385.338 292.196C385.475 291.858 385.655 291.573 385.88 291.342C386.108 291.107 386.365 290.928 386.651 290.805C386.941 290.681 387.237 290.619 387.54 290.619C387.921 290.619 388.253 290.686 388.536 290.819C388.823 290.95 389.06 291.132 389.249 291.366C389.438 291.597 389.578 291.871 389.669 292.187C389.763 292.502 389.811 292.844 389.811 293.212V293.617H386.036C386.046 293.858 386.091 294.084 386.173 294.296C386.257 294.507 386.371 294.693 386.515 294.853C386.661 295.009 386.835 295.132 387.037 295.224C387.239 295.315 387.462 295.36 387.706 295.36C388.028 295.36 388.315 295.295 388.565 295.165C388.816 295.035 389.024 294.862 389.19 294.647L389.742 295.077C389.654 295.211 389.544 295.339 389.41 295.463C389.28 295.583 389.129 295.691 388.956 295.785C388.784 295.88 388.588 295.954 388.37 296.01C388.152 296.068 387.914 296.098 387.657 296.098ZM387.54 291.361C387.358 291.361 387.185 291.396 387.022 291.464C386.86 291.529 386.713 291.627 386.583 291.757C386.453 291.884 386.342 292.042 386.251 292.23C386.163 292.416 386.101 292.631 386.065 292.875H388.907V292.807C388.897 292.631 388.863 292.457 388.805 292.284C388.749 292.112 388.666 291.957 388.556 291.82C388.445 291.684 388.305 291.573 388.136 291.488C387.97 291.404 387.771 291.361 387.54 291.361ZM392.14 290.717L392.203 291.498C392.395 291.225 392.631 291.011 392.911 290.858C393.191 290.702 393.504 290.622 393.849 290.619C394.125 290.619 394.376 290.658 394.601 290.736C394.828 290.814 395.022 290.937 395.182 291.103C395.341 291.269 395.463 291.48 395.548 291.737C395.636 291.991 395.68 292.294 395.68 292.646V296H394.776V292.665C394.776 292.431 394.75 292.232 394.698 292.069C394.646 291.907 394.568 291.775 394.464 291.674C394.363 291.573 394.238 291.5 394.088 291.454C393.941 291.409 393.772 291.386 393.58 291.386C393.277 291.386 393.01 291.462 392.779 291.615C392.551 291.765 392.369 291.964 392.232 292.211V296H391.329V290.717H392.14ZM399.586 295.365C399.749 295.365 399.907 295.339 400.06 295.287C400.216 295.235 400.354 295.163 400.475 295.072C400.595 294.978 400.691 294.869 400.763 294.745C400.838 294.618 400.877 294.481 400.88 294.335H401.734C401.731 294.569 401.669 294.794 401.549 295.009C401.432 295.22 401.274 295.408 401.075 295.57C400.877 295.73 400.649 295.858 400.392 295.956C400.134 296.05 399.866 296.098 399.586 296.098C399.186 296.098 398.836 296.026 398.536 295.883C398.237 295.74 397.986 295.548 397.784 295.307C397.586 295.062 397.436 294.783 397.335 294.467C397.234 294.148 397.184 293.812 397.184 293.461V293.256C397.184 292.908 397.234 292.574 397.335 292.255C397.436 291.936 397.586 291.656 397.784 291.415C397.986 291.171 398.237 290.977 398.536 290.834C398.836 290.691 399.186 290.619 399.586 290.619C399.898 290.619 400.185 290.67 400.445 290.771C400.709 290.868 400.935 291.003 401.124 291.176C401.316 291.345 401.466 291.547 401.573 291.781C401.681 292.016 401.734 292.266 401.734 292.533H400.88C400.877 292.374 400.841 292.224 400.772 292.084C400.707 291.941 400.618 291.815 400.504 291.708C400.39 291.601 400.253 291.516 400.094 291.454C399.938 291.392 399.768 291.361 399.586 291.361C399.306 291.361 399.07 291.418 398.878 291.532C398.689 291.643 398.536 291.789 398.419 291.972C398.302 292.151 398.217 292.353 398.165 292.577C398.116 292.802 398.092 293.028 398.092 293.256V293.461C398.092 293.692 398.116 293.922 398.165 294.149C398.217 294.374 398.3 294.577 398.414 294.76C398.531 294.939 398.684 295.085 398.873 295.199C399.065 295.31 399.303 295.365 399.586 295.365ZM405.675 296.098C405.304 296.098 404.962 296.034 404.649 295.907C404.34 295.78 404.075 295.603 403.854 295.375C403.632 295.147 403.46 294.877 403.336 294.564C403.212 294.252 403.15 293.912 403.15 293.544V293.339C403.15 292.912 403.219 292.532 403.355 292.196C403.492 291.858 403.673 291.573 403.897 291.342C404.125 291.107 404.382 290.928 404.669 290.805C404.959 290.681 405.255 290.619 405.558 290.619C405.938 290.619 406.271 290.686 406.554 290.819C406.84 290.95 407.078 291.132 407.267 291.366C407.455 291.597 407.595 291.871 407.687 292.187C407.781 292.502 407.828 292.844 407.828 293.212V293.617H404.054C404.063 293.858 404.109 294.084 404.19 294.296C404.275 294.507 404.389 294.693 404.532 294.853C404.679 295.009 404.853 295.132 405.055 295.224C405.257 295.315 405.479 295.36 405.724 295.36C406.046 295.36 406.332 295.295 406.583 295.165C406.834 295.035 407.042 294.862 407.208 294.647L407.76 295.077C407.672 295.211 407.561 295.339 407.428 295.463C407.298 295.583 407.146 295.691 406.974 295.785C406.801 295.88 406.606 295.954 406.388 296.01C406.17 296.068 405.932 296.098 405.675 296.098ZM405.558 291.361C405.375 291.361 405.203 291.396 405.04 291.464C404.877 291.529 404.731 291.627 404.601 291.757C404.47 291.884 404.36 292.042 404.269 292.23C404.181 292.416 404.119 292.631 404.083 292.875H406.925V292.807C406.915 292.631 406.881 292.457 406.822 292.284C406.767 292.112 406.684 291.957 406.573 291.82C406.463 291.684 406.323 291.573 406.153 291.488C405.987 291.404 405.789 291.361 405.558 291.361ZM415.182 293.314C415.182 292.921 415.23 292.559 415.328 292.23C415.429 291.898 415.571 291.614 415.753 291.376C415.938 291.138 416.161 290.953 416.422 290.819C416.682 290.686 416.974 290.619 417.296 290.619C417.612 290.619 417.887 290.673 418.121 290.78C418.359 290.884 418.564 291.037 418.736 291.239V288.5H419.64V296H418.81L418.771 295.443C418.595 295.658 418.385 295.821 418.141 295.932C417.896 296.042 417.612 296.098 417.286 296.098C416.967 296.098 416.677 296.029 416.417 295.893C416.16 295.756 415.94 295.567 415.758 295.326C415.576 295.085 415.434 294.802 415.333 294.477C415.232 294.148 415.182 293.795 415.182 293.417V293.314ZM416.085 293.417C416.085 293.674 416.113 293.918 416.168 294.149C416.223 294.381 416.308 294.584 416.422 294.76C416.539 294.936 416.687 295.076 416.866 295.18C417.045 295.281 417.26 295.331 417.511 295.331C417.664 295.331 417.802 295.313 417.926 295.277C418.049 295.242 418.162 295.191 418.263 295.126C418.364 295.058 418.453 294.978 418.531 294.887C418.609 294.792 418.678 294.688 418.736 294.574V292.123C418.619 291.908 418.461 291.732 418.263 291.596C418.064 291.456 417.817 291.386 417.521 291.386C417.267 291.386 417.049 291.438 416.866 291.542C416.687 291.646 416.539 291.788 416.422 291.967C416.308 292.143 416.223 292.348 416.168 292.582C416.113 292.813 416.085 293.057 416.085 293.314V293.417ZM421.5 290.717H424.2V295.219H425.924V296H421.5V295.219H423.297V291.503H421.5V290.717ZM423.18 289.33C423.18 289.18 423.224 289.055 423.312 288.954C423.403 288.85 423.539 288.798 423.722 288.798C423.901 288.798 424.036 288.85 424.127 288.954C424.218 289.055 424.264 289.18 424.264 289.33C424.264 289.477 424.218 289.599 424.127 289.696C424.036 289.794 423.901 289.843 423.722 289.843C423.539 289.843 423.403 289.794 423.312 289.696C423.224 289.599 423.18 289.477 423.18 289.33ZM430.826 290.619C430.911 290.619 430.999 290.622 431.09 290.629C431.181 290.632 431.267 290.64 431.349 290.653C431.433 290.663 431.51 290.676 431.578 290.692C431.65 290.709 431.708 290.727 431.754 290.746L431.632 291.63C431.456 291.591 431.288 291.563 431.129 291.547C430.973 291.527 430.808 291.518 430.636 291.518C430.213 291.518 429.869 291.614 429.605 291.806C429.345 291.998 429.153 292.266 429.029 292.611V296H428.121V290.717H428.98L429.024 291.557C429.239 291.267 429.496 291.039 429.796 290.873C430.099 290.704 430.442 290.619 430.826 290.619ZM435.704 296.098C435.333 296.098 434.991 296.034 434.679 295.907C434.369 295.78 434.104 295.603 433.883 295.375C433.661 295.147 433.489 294.877 433.365 294.564C433.242 294.252 433.18 293.912 433.18 293.544V293.339C433.18 292.912 433.248 292.532 433.385 292.196C433.521 291.858 433.702 291.573 433.927 291.342C434.155 291.107 434.412 290.928 434.698 290.805C434.988 290.681 435.284 290.619 435.587 290.619C435.968 290.619 436.3 290.686 436.583 290.819C436.869 290.95 437.107 291.132 437.296 291.366C437.485 291.597 437.625 291.871 437.716 292.187C437.81 292.502 437.857 292.844 437.857 293.212V293.617H434.083C434.093 293.858 434.138 294.084 434.22 294.296C434.304 294.507 434.418 294.693 434.562 294.853C434.708 295.009 434.882 295.132 435.084 295.224C435.286 295.315 435.509 295.36 435.753 295.36C436.075 295.36 436.362 295.295 436.612 295.165C436.863 295.035 437.071 294.862 437.237 294.647L437.789 295.077C437.701 295.211 437.59 295.339 437.457 295.463C437.327 295.583 437.175 295.691 437.003 295.785C436.83 295.88 436.635 295.954 436.417 296.01C436.199 296.068 435.961 296.098 435.704 296.098ZM435.587 291.361C435.405 291.361 435.232 291.396 435.069 291.464C434.907 291.529 434.76 291.627 434.63 291.757C434.5 291.884 434.389 292.042 434.298 292.23C434.21 292.416 434.148 292.631 434.112 292.875H436.954V292.807C436.944 292.631 436.91 292.457 436.852 292.284C436.796 292.112 436.713 291.957 436.603 291.82C436.492 291.684 436.352 291.573 436.183 291.488C436.017 291.404 435.818 291.361 435.587 291.361ZM441.627 295.365C441.79 295.365 441.948 295.339 442.101 295.287C442.257 295.235 442.395 295.163 442.516 295.072C442.636 294.978 442.732 294.869 442.804 294.745C442.879 294.618 442.918 294.481 442.921 294.335H443.775C443.772 294.569 443.71 294.794 443.59 295.009C443.473 295.22 443.315 295.408 443.116 295.57C442.918 295.73 442.69 295.858 442.433 295.956C442.175 296.05 441.907 296.098 441.627 296.098C441.227 296.098 440.877 296.026 440.577 295.883C440.278 295.74 440.027 295.548 439.825 295.307C439.627 295.062 439.477 294.783 439.376 294.467C439.275 294.148 439.225 293.812 439.225 293.461V293.256C439.225 292.908 439.275 292.574 439.376 292.255C439.477 291.936 439.627 291.656 439.825 291.415C440.027 291.171 440.278 290.977 440.577 290.834C440.877 290.691 441.227 290.619 441.627 290.619C441.939 290.619 442.226 290.67 442.486 290.771C442.75 290.868 442.976 291.003 443.165 291.176C443.357 291.345 443.507 291.547 443.614 291.781C443.722 292.016 443.775 292.266 443.775 292.533H442.921C442.918 292.374 442.882 292.224 442.813 292.084C442.748 291.941 442.659 291.815 442.545 291.708C442.431 291.601 442.294 291.516 442.135 291.454C441.979 291.392 441.809 291.361 441.627 291.361C441.347 291.361 441.111 291.418 440.919 291.532C440.73 291.643 440.577 291.789 440.46 291.972C440.343 292.151 440.258 292.353 440.206 292.577C440.157 292.802 440.133 293.028 440.133 293.256V293.461C440.133 293.692 440.157 293.922 440.206 294.149C440.258 294.374 440.341 294.577 440.455 294.76C440.572 294.939 440.725 295.085 440.914 295.199C441.106 295.31 441.344 295.365 441.627 295.365ZM447.521 289.438V290.717H449.532V291.415H447.521V294.286C447.521 294.491 447.547 294.66 447.599 294.794C447.651 294.927 447.722 295.035 447.813 295.116C447.905 295.194 448.009 295.25 448.126 295.282C448.246 295.315 448.373 295.331 448.507 295.331C448.604 295.331 448.705 295.326 448.81 295.316C448.914 295.303 449.015 295.289 449.112 295.272C449.213 295.256 449.306 295.24 449.391 295.224C449.479 295.204 449.55 295.188 449.605 295.175L449.732 295.814C449.658 295.86 449.566 295.901 449.459 295.937C449.352 295.969 449.234 295.997 449.107 296.02C448.98 296.046 448.845 296.065 448.702 296.078C448.562 296.091 448.422 296.098 448.282 296.098C448.048 296.098 447.828 296.065 447.623 296C447.421 295.932 447.245 295.826 447.096 295.683C446.946 295.536 446.827 295.349 446.739 295.121C446.655 294.89 446.612 294.612 446.612 294.286V291.415H445.226V290.717H446.612V289.438H447.521ZM451.529 290.717H454.229V295.219H455.953V296H451.529V295.219H453.326V291.503H451.529V290.717ZM453.209 289.33C453.209 289.18 453.253 289.055 453.341 288.954C453.432 288.85 453.569 288.798 453.751 288.798C453.93 288.798 454.065 288.85 454.156 288.954C454.247 289.055 454.293 289.18 454.293 289.33C454.293 289.477 454.247 289.599 454.156 289.696C454.065 289.794 453.93 289.843 453.751 289.843C453.569 289.843 453.432 289.794 453.341 289.696C453.253 289.599 453.209 289.477 453.209 289.33ZM457.14 293.31C457.14 292.929 457.195 292.576 457.306 292.25C457.416 291.921 457.574 291.636 457.779 291.396C457.988 291.155 458.24 290.966 458.536 290.829C458.832 290.689 459.166 290.619 459.537 290.619C459.911 290.619 460.247 290.689 460.543 290.829C460.842 290.966 461.095 291.155 461.3 291.396C461.508 291.636 461.668 291.921 461.778 292.25C461.889 292.576 461.944 292.929 461.944 293.31V293.417C461.944 293.798 461.889 294.151 461.778 294.477C461.668 294.802 461.508 295.085 461.3 295.326C461.095 295.567 460.844 295.756 460.548 295.893C460.252 296.029 459.918 296.098 459.547 296.098C459.173 296.098 458.836 296.029 458.536 295.893C458.24 295.756 457.988 295.567 457.779 295.326C457.574 295.085 457.416 294.802 457.306 294.477C457.195 294.151 457.14 293.798 457.14 293.417V293.31ZM458.043 293.417C458.043 293.677 458.074 293.926 458.136 294.164C458.198 294.398 458.29 294.605 458.414 294.784C458.541 294.963 458.699 295.105 458.888 295.209C459.076 295.313 459.296 295.365 459.547 295.365C459.794 295.365 460.011 295.313 460.196 295.209C460.385 295.105 460.541 294.963 460.665 294.784C460.792 294.605 460.886 294.398 460.948 294.164C461.01 293.926 461.041 293.677 461.041 293.417V293.31C461.041 293.052 461.008 292.807 460.943 292.572C460.882 292.335 460.787 292.126 460.66 291.947C460.536 291.768 460.38 291.627 460.191 291.522C460.006 291.415 459.788 291.361 459.537 291.361C459.286 291.361 459.068 291.415 458.883 291.522C458.697 291.627 458.541 291.768 458.414 291.947C458.29 292.126 458.198 292.335 458.136 292.572C458.074 292.807 458.043 293.052 458.043 293.31V293.417ZM464.21 290.717L464.273 291.498C464.465 291.225 464.701 291.011 464.981 290.858C465.261 290.702 465.574 290.622 465.919 290.619C466.196 290.619 466.446 290.658 466.671 290.736C466.899 290.814 467.092 290.937 467.252 291.103C467.411 291.269 467.534 291.48 467.618 291.737C467.706 291.991 467.75 292.294 467.75 292.646V296H466.847V292.665C466.847 292.431 466.821 292.232 466.769 292.069C466.716 291.907 466.638 291.775 466.534 291.674C466.433 291.573 466.308 291.5 466.158 291.454C466.012 291.409 465.842 291.386 465.65 291.386C465.348 291.386 465.081 291.462 464.85 291.615C464.622 291.765 464.439 291.964 464.303 292.211V296H463.399V290.717H464.21Z" fill="black"/>
<path d="M558.668 296V291.415H557.213V290.717H558.668V290.346C558.668 290.007 558.717 289.711 558.814 289.457C558.915 289.2 559.055 288.985 559.234 288.812C559.417 288.64 559.635 288.51 559.889 288.422C560.143 288.334 560.426 288.29 560.738 288.29C560.953 288.29 561.161 288.308 561.363 288.344C561.568 288.38 561.778 288.425 561.993 288.48L561.886 289.228C561.752 289.182 561.596 289.143 561.417 289.11C561.241 289.075 561.052 289.057 560.851 289.057C560.427 289.06 560.108 289.167 559.894 289.379C559.682 289.59 559.576 289.913 559.576 290.346V290.717H561.612V291.415H559.576V296H558.668ZM563.468 288.5H566.168V295.219H567.892V296H563.468V295.219H565.265V289.286H563.468V288.5ZM572.76 295.272C572.584 295.533 572.364 295.736 572.101 295.883C571.837 296.026 571.533 296.098 571.188 296.098C570.911 296.098 570.66 296.055 570.436 295.971C570.211 295.883 570.019 295.748 569.859 295.565C569.7 295.383 569.576 295.152 569.488 294.872C569.404 294.589 569.361 294.25 569.361 293.856V290.717H570.265V293.866C570.265 294.153 570.287 294.39 570.333 294.579C570.379 294.768 570.447 294.919 570.538 295.033C570.629 295.144 570.74 295.222 570.87 295.268C571.004 295.313 571.157 295.336 571.329 295.336C571.697 295.336 571.993 295.261 572.218 295.111C572.446 294.962 572.615 294.76 572.726 294.506V290.717H573.634V296H572.813L572.76 295.272ZM577.521 292.675L578.932 290.717H579.991L578.023 293.329L580.045 296H579L577.54 293.988L576.08 296H575.025L577.047 293.329L575.079 290.717H576.124L577.521 292.675ZM589.42 294.701L589.503 295.028L589.591 294.701L591.07 290.717H591.993L589.84 296H589.151L586.979 290.717H587.906L589.42 294.701ZM596.827 296C596.791 295.932 596.762 295.847 596.739 295.746C596.72 295.642 596.705 295.535 596.695 295.424C596.604 295.515 596.502 295.601 596.388 295.683C596.277 295.764 596.153 295.836 596.017 295.897C595.883 295.959 595.74 296.008 595.587 296.044C595.434 296.08 595.271 296.098 595.099 296.098C594.819 296.098 594.565 296.057 594.337 295.976C594.112 295.894 593.92 295.785 593.761 295.648C593.604 295.508 593.482 295.344 593.395 295.155C593.31 294.963 593.268 294.757 593.268 294.535C593.268 294.245 593.325 293.992 593.438 293.773C593.556 293.555 593.72 293.375 593.932 293.231C594.143 293.085 594.397 292.976 594.693 292.904C594.993 292.833 595.326 292.797 595.694 292.797H596.681V292.382C596.681 292.222 596.651 292.079 596.593 291.952C596.534 291.825 596.451 291.718 596.344 291.63C596.236 291.539 596.104 291.469 595.948 291.42C595.795 291.371 595.623 291.347 595.431 291.347C595.252 291.347 595.09 291.369 594.947 291.415C594.807 291.461 594.688 291.521 594.591 291.596C594.493 291.671 594.417 291.76 594.361 291.864C594.309 291.965 594.283 292.071 594.283 292.182H593.375C593.378 291.99 593.427 291.801 593.521 291.615C593.619 291.43 593.757 291.264 593.937 291.117C594.119 290.967 594.339 290.847 594.596 290.756C594.856 290.665 595.151 290.619 595.479 290.619C595.779 290.619 596.057 290.657 596.314 290.731C596.572 290.803 596.793 290.914 596.979 291.063C597.167 291.21 597.315 291.394 597.423 291.615C597.53 291.837 597.584 292.095 597.584 292.392V294.848C597.584 295.023 597.6 295.211 597.633 295.409C597.665 295.604 597.711 295.775 597.77 295.922V296H596.827ZM595.23 295.312C595.406 295.312 595.571 295.289 595.724 295.243C595.877 295.198 596.015 295.137 596.139 295.062C596.266 294.988 596.375 294.903 596.466 294.809C596.557 294.711 596.629 294.61 596.681 294.506V293.437H595.841C595.313 293.437 594.903 293.515 594.61 293.671C594.317 293.827 594.171 294.073 594.171 294.408C594.171 294.538 594.192 294.659 594.234 294.77C594.28 294.88 594.347 294.976 594.435 295.058C594.522 295.136 594.633 295.198 594.767 295.243C594.9 295.289 595.055 295.312 595.23 295.312ZM599.503 288.5H602.203V295.219H603.927V296H599.503V295.219H601.3V289.286H599.503V288.5ZM608.795 295.272C608.619 295.533 608.399 295.736 608.136 295.883C607.872 296.026 607.568 296.098 607.223 296.098C606.946 296.098 606.695 296.055 606.471 295.971C606.246 295.883 606.054 295.748 605.895 295.565C605.735 295.383 605.611 295.152 605.523 294.872C605.439 294.589 605.396 294.25 605.396 293.856V290.717H606.3V293.866C606.3 294.153 606.323 294.39 606.368 294.579C606.414 294.768 606.482 294.919 606.573 295.033C606.664 295.144 606.775 295.222 606.905 295.268C607.039 295.313 607.192 295.336 607.364 295.336C607.732 295.336 608.028 295.261 608.253 295.111C608.481 294.962 608.65 294.76 608.761 294.506V290.717H609.669V296H608.849L608.795 295.272ZM613.707 296.098C613.336 296.098 612.994 296.034 612.682 295.907C612.372 295.78 612.107 295.603 611.886 295.375C611.664 295.147 611.492 294.877 611.368 294.564C611.244 294.252 611.183 293.912 611.183 293.544V293.339C611.183 292.912 611.251 292.532 611.388 292.196C611.524 291.858 611.705 291.573 611.93 291.342C612.158 291.107 612.415 290.928 612.701 290.805C612.991 290.681 613.287 290.619 613.59 290.619C613.971 290.619 614.303 290.686 614.586 290.819C614.872 290.95 615.11 291.132 615.299 291.366C615.488 291.597 615.628 291.871 615.719 292.187C615.813 292.502 615.86 292.844 615.86 293.212V293.617H612.086C612.096 293.858 612.141 294.084 612.223 294.296C612.307 294.507 612.421 294.693 612.564 294.853C612.711 295.009 612.885 295.132 613.087 295.224C613.289 295.315 613.512 295.36 613.756 295.36C614.078 295.36 614.365 295.295 614.615 295.165C614.866 295.035 615.074 294.862 615.24 294.647L615.792 295.077C615.704 295.211 615.593 295.339 615.46 295.463C615.33 295.583 615.178 295.691 615.006 295.785C614.833 295.88 614.638 295.954 614.42 296.01C614.202 296.068 613.964 296.098 613.707 296.098ZM613.59 291.361C613.408 291.361 613.235 291.396 613.072 291.464C612.91 291.529 612.763 291.627 612.633 291.757C612.503 291.884 612.392 292.042 612.301 292.23C612.213 292.416 612.151 292.631 612.115 292.875H614.957V292.807C614.947 292.631 614.913 292.457 614.854 292.284C614.799 292.112 614.716 291.957 614.605 291.82C614.495 291.684 614.355 291.573 614.186 291.488C614.02 291.404 613.821 291.361 613.59 291.361Z" fill="black"/>
<path d="M153.437 184.173L205.5 117" stroke="black" stroke-width="2"/>
<line x1="154.267" y1="184.036" x2="248.267" y2="210.036" stroke="black" stroke-width="2"/>
<line x1="601.517" y1="112.144" x2="687.517" y2="164.144" stroke="black" stroke-width="2"/>
<line x1="592.617" y1="203.076" x2="686.617" y2="164.076" stroke="black" stroke-width="2"/>
<line x1="336.855" y1="224.989" x2="247.855" y2="211.99" stroke="black" stroke-width="2"/>
<line x1="775.855" y1="178.989" x2="686.855" y2="165.99" stroke="black" stroke-width="2"/>
<line x1="306.761" y1="143.649" x2="248.761" y2="211.649" stroke="black" stroke-width="2"/>
<line x1="745.761" y1="97.6489" x2="687.761" y2="165.649" stroke="black" stroke-width="2"/>
<circle cx="154" cy="185" r="12" fill="#2196F3" stroke="black" stroke-width="2"/>
<circle cx="601" cy="113" r="12" fill="#B5DEFF" stroke="black" stroke-width="2"/>
<circle cx="593" cy="204" r="12" fill="#B5DEFF" stroke="black" stroke-width="2"/>
<circle cx="248" cy="211" r="12" fill="#2196F3" stroke="black" stroke-width="2"/>
<path d="M684.241 164.932L719 227" stroke="black" stroke-width="0.5" stroke-dasharray="2 2"/>
<circle cx="306" cy="143" r="12" fill="#2196F3" stroke="black" stroke-width="2"/>
<circle cx="745" cy="97" r="12" fill="#B5DEFF" stroke="black" stroke-width="2"/>
<circle cx="337" cy="224" r="12" fill="#2196F3" stroke="black" stroke-width="2"/>
<circle cx="776" cy="178" r="12" fill="#B5DEFF" stroke="black" stroke-width="2"/>
<circle cx="205" cy="117" r="12" fill="#2196F3" stroke="black" stroke-width="2"/>
<circle cx="687" cy="165" r="12" fill="#2196F3" stroke="black" stroke-width="2"/>
<path d="M181.498 131.952C181.471 131.677 181.227 131.476 180.952 131.502L176.473 131.936C176.198 131.962 175.997 132.207 176.023 132.482C176.05 132.756 176.294 132.958 176.569 132.931L180.55 132.546L180.936 136.527C180.962 136.802 181.207 137.003 181.482 136.977C181.756 136.95 181.958 136.706 181.931 136.431L181.498 131.952ZM167.386 149.318L181.386 132.318L180.614 131.682L166.614 148.682L167.386 149.318Z" fill="black"/>
<path d="M211.31 211.833C211.554 211.703 211.646 211.4 211.515 211.157L209.394 207.188C209.264 206.945 208.961 206.853 208.717 206.983C208.474 207.113 208.382 207.416 208.512 207.66L210.398 211.187L206.87 213.073C206.627 213.203 206.535 213.506 206.665 213.75C206.795 213.993 207.098 214.085 207.342 213.955L211.31 211.833ZM189.855 205.478L210.929 211.871L211.22 210.914L190.145 204.522L189.855 205.478Z" fill="black"/>
<path d="M646.454 171.21C646.57 170.959 646.46 170.662 646.21 170.546L642.124 168.66C641.873 168.545 641.576 168.654 641.46 168.905C641.344 169.155 641.454 169.452 641.705 169.568L645.336 171.244L643.66 174.876C643.545 175.127 643.654 175.424 643.905 175.54C644.155 175.656 644.452 175.546 644.568 175.295L646.454 171.21ZM627.173 178.469L646.173 171.469L645.827 170.531L626.827 177.531L627.173 178.469Z" fill="black"/>
<path d="M650.148 152.478C650.412 152.396 650.559 152.116 650.478 151.852L649.144 147.554C649.062 147.29 648.782 147.143 648.518 147.225C648.254 147.307 648.107 147.587 648.189 147.85L649.374 151.671L645.554 152.856C645.29 152.938 645.143 153.218 645.225 153.482C645.307 153.746 645.587 153.893 645.85 153.811L650.148 152.478ZM630.767 142.442L649.767 152.442L650.233 151.558L631.233 141.558L630.767 142.442Z" fill="black"/>
<path d="M340.354 293.354C340.549 293.158 340.549 292.842 340.354 292.646L337.172 289.464C336.976 289.269 336.66 289.269 336.464 289.464C336.269 289.66 336.269 289.976 336.464 290.172L339.293 293L336.464 295.828C336.269 296.024 336.269 296.34 336.464 296.536C336.66 296.731 336.976 296.731 337.172 296.536L340.354 293.354ZM319 293.5H340V292.5H319V293.5Z" fill="black"/>
<path d="M274.995 162.937C274.96 162.663 274.71 162.469 274.436 162.504L269.971 163.068C269.698 163.102 269.503 163.352 269.538 163.626C269.573 163.9 269.823 164.094 270.097 164.06L274.065 163.559L274.566 167.527C274.601 167.801 274.851 167.995 275.125 167.961C275.399 167.926 275.593 167.676 275.559 167.402L274.995 162.937ZM261.395 180.707L274.894 163.306L274.104 162.694L260.605 180.094L261.395 180.707Z" fill="black"/>
<path d="M737.995 124.937C737.96 124.663 737.71 124.469 737.436 124.504L732.971 125.068C732.698 125.102 732.503 125.352 732.538 125.626C732.573 125.9 732.823 126.094 733.097 126.06L737.065 125.559L737.566 129.527C737.601 129.801 737.851 129.995 738.125 129.961C738.399 129.926 738.593 129.676 738.559 129.402L737.995 124.937ZM724.395 142.707L737.894 125.306L737.104 124.694L723.605 142.094L724.395 142.707Z" fill="black"/>
<path d="M306.103 232.504C306.324 232.338 306.369 232.024 306.203 231.803L303.501 228.205C303.335 227.984 303.022 227.939 302.801 228.105C302.58 228.271 302.535 228.584 302.701 228.805L305.103 232.004L301.904 234.406C301.683 234.571 301.639 234.885 301.804 235.106C301.97 235.326 302.284 235.371 302.504 235.205L306.103 232.504ZM283.93 229.495L305.732 232.599L305.873 231.609L284.07 228.505L283.93 229.495Z" fill="black"/>
<path d="M748.103 165.504C748.324 165.338 748.369 165.024 748.203 164.803L745.501 161.205C745.335 160.984 745.022 160.939 744.801 161.105C744.58 161.271 744.535 161.584 744.701 161.805L747.103 165.004L743.904 167.406C743.683 167.571 743.639 167.885 743.804 168.106C743.97 168.326 744.284 168.371 744.504 168.205L748.103 165.504ZM725.93 162.495L747.732 165.599L747.873 164.609L726.07 161.505L725.93 162.495Z" fill="black"/>
<rect x="187" y="148" width="16" height="16" rx="2" fill="#383838"/>
<path d="M196.511 159H195.139V153.546L193.342 154.19V153.009L196.438 151.891H196.511V159Z" fill="white"/>
<rect x="205" y="178" width="16" height="16" rx="2" fill="#383838"/>
<path d="M214.511 189H213.139V183.546L211.342 184.19V183.009L214.438 181.891H214.511V189Z" fill="white"/>
<rect x="290" y="173" width="16" height="16" rx="2" fill="#383838"/>
<path d="M297.938 181.412H293.871V180.313H297.938V181.412ZM302.514 184H301.142V178.546L299.345 179.19V178.009L302.44 176.891H302.514V184Z" fill="white"/>
<rect x="299" y="200" width="16" height="16" rx="2" fill="#383838"/>
<path d="M308.511 211H307.139V205.546L305.342 206.19V205.009L308.438 203.891H308.511V211Z" fill="white"/>
<rect x="641" y="188" width="16" height="16" rx="2" fill="#383838"/>
<path d="M645.555 198.214C645.555 198.087 645.576 197.97 645.618 197.862C645.66 197.752 645.722 197.657 645.804 197.579C645.885 197.498 645.984 197.434 646.102 197.389C646.219 197.34 646.351 197.315 646.497 197.315C646.644 197.315 646.775 197.34 646.893 197.389C647.01 197.434 647.107 197.498 647.186 197.579C647.267 197.657 647.329 197.752 647.371 197.862C647.417 197.97 647.439 198.087 647.439 198.214C647.439 198.338 647.417 198.453 647.371 198.561C647.329 198.668 647.267 198.762 647.186 198.844C647.107 198.922 647.01 198.984 646.893 199.029C646.775 199.075 646.644 199.098 646.497 199.098C646.351 199.098 646.219 199.075 646.102 199.029C645.984 198.984 645.885 198.922 645.804 198.844C645.722 198.762 645.66 198.668 645.618 198.561C645.576 198.453 645.555 198.338 645.555 198.214ZM650.257 195.499L650.662 191.891H654.607V193.043H651.78L651.609 194.605C651.71 194.547 651.854 194.487 652.039 194.425C652.225 194.363 652.438 194.332 652.679 194.332C653.021 194.332 653.325 194.387 653.592 194.498C653.862 194.605 654.088 194.762 654.271 194.967C654.456 195.172 654.598 195.423 654.695 195.719C654.793 196.015 654.842 196.35 654.842 196.725C654.842 197.044 654.795 197.346 654.7 197.633C654.606 197.919 654.461 198.172 654.266 198.39C654.07 198.608 653.825 198.78 653.528 198.907C653.232 199.034 652.882 199.098 652.479 199.098C652.173 199.098 651.876 199.052 651.59 198.961C651.307 198.87 651.054 198.736 650.833 198.561C650.612 198.385 650.431 198.17 650.291 197.916C650.154 197.659 650.081 197.366 650.071 197.037H651.409C651.442 197.346 651.552 197.586 651.741 197.755C651.933 197.924 652.177 198.009 652.474 198.009C652.656 198.009 652.811 197.975 652.938 197.906C653.068 197.838 653.172 197.743 653.25 197.623C653.331 197.503 653.39 197.359 653.426 197.193C653.465 197.027 653.484 196.848 653.484 196.656C653.484 196.467 653.46 196.295 653.411 196.139C653.366 195.979 653.294 195.842 653.196 195.729C653.099 195.615 652.977 195.527 652.83 195.465C652.684 195.403 652.511 195.372 652.312 195.372C652.179 195.372 652.063 195.383 651.966 195.406C651.868 195.429 651.782 195.458 651.707 195.494C651.632 195.53 651.565 195.572 651.507 195.621C651.448 195.667 651.393 195.715 651.341 195.768L650.257 195.499Z" fill="white"/>
<rect x="643" y="114" width="16" height="16" rx="2" fill="#383838"/>
<path d="M647.555 124.214C647.555 124.087 647.576 123.97 647.618 123.862C647.66 123.752 647.722 123.657 647.804 123.579C647.885 123.498 647.984 123.434 648.102 123.389C648.219 123.34 648.351 123.315 648.497 123.315C648.644 123.315 648.775 123.34 648.893 123.389C649.01 123.434 649.107 123.498 649.186 123.579C649.267 123.657 649.329 123.752 649.371 123.862C649.417 123.97 649.439 124.087 649.439 124.214C649.439 124.338 649.417 124.453 649.371 124.561C649.329 124.668 649.267 124.762 649.186 124.844C649.107 124.922 649.01 124.984 648.893 125.029C648.775 125.075 648.644 125.098 648.497 125.098C648.351 125.098 648.219 125.075 648.102 125.029C647.984 124.984 647.885 124.922 647.804 124.844C647.722 124.762 647.66 124.668 647.618 124.561C647.576 124.453 647.555 124.338 647.555 124.214ZM656.651 119.78C656.651 120.125 656.563 120.433 656.388 120.703C656.215 120.97 655.978 121.183 655.675 121.343C656.02 121.506 656.293 121.733 656.495 122.026C656.7 122.319 656.803 122.663 656.803 123.057C656.803 123.392 656.741 123.687 656.617 123.94C656.497 124.194 656.329 124.408 656.114 124.58C655.903 124.749 655.652 124.878 655.362 124.966C655.073 125.054 654.76 125.098 654.425 125.098C654.086 125.098 653.771 125.054 653.478 124.966C653.188 124.878 652.936 124.749 652.721 124.58C652.506 124.408 652.337 124.194 652.213 123.94C652.092 123.687 652.032 123.392 652.032 123.057C652.032 122.861 652.058 122.677 652.11 122.505C652.166 122.329 652.242 122.17 652.34 122.026C652.438 121.88 652.555 121.75 652.691 121.636C652.831 121.519 652.988 121.419 653.16 121.338C652.857 121.182 652.62 120.97 652.447 120.703C652.275 120.433 652.188 120.125 652.188 119.78C652.188 119.458 652.244 119.175 652.354 118.931C652.465 118.683 652.618 118.475 652.813 118.306C653.012 118.136 653.246 118.009 653.517 117.925C653.79 117.837 654.088 117.793 654.41 117.793C654.732 117.793 655.03 117.837 655.304 117.925C655.577 118.009 655.813 118.136 656.012 118.306C656.214 118.475 656.37 118.683 656.48 118.931C656.594 119.175 656.651 119.458 656.651 119.78ZM655.44 122.964C655.44 122.801 655.416 122.655 655.367 122.524C655.318 122.394 655.248 122.284 655.157 122.192C655.069 122.098 654.962 122.026 654.835 121.978C654.711 121.929 654.571 121.904 654.415 121.904C654.259 121.904 654.117 121.929 653.99 121.978C653.867 122.026 653.761 122.098 653.673 122.192C653.585 122.284 653.517 122.394 653.468 122.524C653.419 122.655 653.395 122.801 653.395 122.964C653.395 123.289 653.487 123.545 653.673 123.73C653.858 123.916 654.109 124.009 654.425 124.009C654.575 124.009 654.711 123.986 654.835 123.94C654.959 123.892 655.064 123.822 655.152 123.73C655.243 123.639 655.313 123.53 655.362 123.403C655.414 123.273 655.44 123.127 655.44 122.964ZM655.299 119.844C655.299 119.701 655.278 119.57 655.235 119.453C655.193 119.336 655.133 119.237 655.055 119.155C654.98 119.071 654.887 119.006 654.776 118.96C654.669 118.914 654.547 118.892 654.41 118.892C654.133 118.892 653.92 118.976 653.771 119.146C653.621 119.315 653.546 119.548 653.546 119.844C653.546 119.987 653.565 120.119 653.604 120.239C653.644 120.356 653.701 120.457 653.775 120.542C653.854 120.627 653.946 120.693 654.054 120.742C654.164 120.788 654.288 120.811 654.425 120.811C654.562 120.811 654.684 120.788 654.791 120.742C654.898 120.693 654.99 120.627 655.064 120.542C655.139 120.457 655.196 120.356 655.235 120.239C655.278 120.119 655.299 119.987 655.299 119.844Z" fill="white"/>
<rect x="700" y="106" width="16" height="16" rx="2" fill="#383838"/>
<path d="M704.555 116.214C704.555 116.087 704.576 115.97 704.618 115.862C704.66 115.752 704.722 115.657 704.804 115.579C704.885 115.498 704.984 115.434 705.102 115.389C705.219 115.34 705.351 115.315 705.497 115.315C705.644 115.315 705.775 115.34 705.893 115.389C706.01 115.434 706.107 115.498 706.186 115.579C706.267 115.657 706.329 115.752 706.371 115.862C706.417 115.97 706.439 116.087 706.439 116.214C706.439 116.338 706.417 116.453 706.371 116.561C706.329 116.668 706.267 116.762 706.186 116.844C706.107 116.922 706.01 116.984 705.893 117.029C705.775 117.075 705.644 117.098 705.497 117.098C705.351 117.098 705.219 117.075 705.102 117.029C704.984 116.984 704.885 116.922 704.804 116.844C704.722 116.762 704.66 116.668 704.618 116.561C704.576 116.453 704.555 116.338 704.555 116.214ZM712.792 109.832V110.96H712.714C712.356 110.96 712.038 111.007 711.762 111.102C711.488 111.196 711.254 111.329 711.059 111.502C710.867 111.674 710.714 111.881 710.6 112.122C710.489 112.363 710.419 112.632 710.39 112.928C710.465 112.846 710.551 112.767 710.648 112.688C710.746 112.607 710.855 112.535 710.976 112.474C711.099 112.409 711.233 112.356 711.376 112.317C711.519 112.278 711.674 112.259 711.84 112.259C712.178 112.259 712.473 112.324 712.724 112.454C712.978 112.581 713.189 112.755 713.358 112.977C713.528 113.195 713.653 113.45 713.734 113.743C713.819 114.033 713.861 114.339 713.861 114.661C713.861 115.006 713.806 115.327 713.695 115.623C713.585 115.919 713.427 116.176 713.222 116.395C713.017 116.613 712.768 116.785 712.475 116.912C712.182 117.036 711.853 117.098 711.488 117.098C711.107 117.098 710.764 117.028 710.458 116.888C710.152 116.744 709.892 116.548 709.677 116.297C709.465 116.046 709.301 115.75 709.184 115.408C709.07 115.063 709.013 114.687 709.013 114.28V113.758C709.013 113.195 709.089 112.674 709.242 112.195C709.395 111.714 709.623 111.299 709.926 110.95C710.229 110.599 710.604 110.325 711.054 110.13C711.503 109.931 712.022 109.832 712.611 109.832H712.792ZM711.444 113.348C711.2 113.348 710.984 113.413 710.795 113.543C710.609 113.673 710.469 113.841 710.375 114.046V114.446C710.375 114.707 710.401 114.935 710.453 115.13C710.508 115.325 710.585 115.488 710.683 115.618C710.78 115.745 710.896 115.841 711.029 115.906C711.163 115.971 711.308 116.004 711.464 116.004C711.623 116.004 711.768 115.971 711.898 115.906C712.029 115.838 712.139 115.745 712.23 115.628C712.322 115.511 712.392 115.372 712.44 115.213C712.489 115.05 712.514 114.873 712.514 114.681C712.514 114.489 712.489 114.311 712.44 114.148C712.392 113.986 712.322 113.846 712.23 113.729C712.139 113.608 712.027 113.515 711.894 113.45C711.763 113.382 711.614 113.348 711.444 113.348Z" fill="white"/>
<rect x="729" y="185" width="16" height="16" rx="2" fill="#383838"/>
<path d="M733.555 195.214C733.555 195.087 733.576 194.97 733.618 194.862C733.66 194.752 733.722 194.657 733.804 194.579C733.885 194.498 733.984 194.434 734.102 194.389C734.219 194.34 734.351 194.315 734.497 194.315C734.644 194.315 734.775 194.34 734.893 194.389C735.01 194.434 735.107 194.498 735.186 194.579C735.267 194.657 735.329 194.752 735.371 194.862C735.417 194.97 735.439 195.087 735.439 195.214C735.439 195.338 735.417 195.453 735.371 195.561C735.329 195.668 735.267 195.762 735.186 195.844C735.107 195.922 735.01 195.984 734.893 196.029C734.775 196.075 734.644 196.098 734.497 196.098C734.351 196.098 734.219 196.075 734.102 196.029C733.984 195.984 733.885 195.922 733.804 195.844C733.722 195.762 733.66 195.668 733.618 195.561C733.576 195.453 733.555 195.338 733.555 195.214ZM742.832 189.647L740.063 196H738.633L741.406 189.999H737.837V188.891H742.832V189.647Z" fill="white"/>
<rect x="523" y="283" width="16" height="16" rx="2" fill="#383838"/>
<path d="M530.444 291.412H526.377V290.313H530.444V291.412ZM535.02 294H533.647V288.546L531.851 289.19V288.009L534.946 286.891H535.02V294Z" fill="white"/>
<path d="M729.773 232H728.855L726.097 226.688L726.082 232H725.169V224.891H726.087L728.846 230.193L728.86 224.891H729.773V232ZM733.66 232.098C733.289 232.098 732.947 232.034 732.635 231.907C732.326 231.78 732.06 231.603 731.839 231.375C731.618 231.147 731.445 230.877 731.321 230.564C731.198 230.252 731.136 229.912 731.136 229.544V229.339C731.136 228.912 731.204 228.532 731.341 228.196C731.478 227.858 731.658 227.573 731.883 227.342C732.111 227.107 732.368 226.928 732.654 226.805C732.944 226.681 733.24 226.619 733.543 226.619C733.924 226.619 734.256 226.686 734.539 226.819C734.826 226.95 735.063 227.132 735.252 227.366C735.441 227.597 735.581 227.871 735.672 228.187C735.766 228.502 735.813 228.844 735.813 229.212V229.617H732.039C732.049 229.858 732.094 230.084 732.176 230.296C732.26 230.507 732.374 230.693 732.518 230.853C732.664 231.009 732.838 231.132 733.04 231.224C733.242 231.315 733.465 231.36 733.709 231.36C734.031 231.36 734.318 231.295 734.568 231.165C734.819 231.035 735.027 230.862 735.193 230.647L735.745 231.077C735.657 231.211 735.547 231.339 735.413 231.463C735.283 231.583 735.132 231.691 734.959 231.785C734.786 231.88 734.591 231.954 734.373 232.01C734.155 232.068 733.917 232.098 733.66 232.098ZM733.543 227.361C733.361 227.361 733.188 227.396 733.025 227.464C732.863 227.529 732.716 227.627 732.586 227.757C732.456 227.884 732.345 228.042 732.254 228.23C732.166 228.416 732.104 228.631 732.068 228.875H734.91V228.807C734.9 228.631 734.866 228.457 734.808 228.284C734.752 228.112 734.669 227.957 734.559 227.82C734.448 227.684 734.308 227.573 734.139 227.488C733.973 227.404 733.774 227.361 733.543 227.361ZM739.471 225.438V226.717H741.482V227.415H739.471V230.286C739.471 230.491 739.497 230.66 739.549 230.794C739.601 230.927 739.673 231.035 739.764 231.116C739.855 231.194 739.959 231.25 740.076 231.282C740.197 231.315 740.324 231.331 740.457 231.331C740.555 231.331 740.656 231.326 740.76 231.316C740.864 231.303 740.965 231.289 741.062 231.272C741.163 231.256 741.256 231.24 741.341 231.224C741.429 231.204 741.5 231.188 741.556 231.175L741.683 231.814C741.608 231.86 741.517 231.901 741.409 231.937C741.302 231.969 741.185 231.997 741.058 232.02C740.931 232.046 740.796 232.065 740.652 232.078C740.512 232.091 740.372 232.098 740.232 232.098C739.998 232.098 739.778 232.065 739.573 232C739.371 231.932 739.196 231.826 739.046 231.683C738.896 231.536 738.777 231.349 738.689 231.121C738.605 230.89 738.562 230.612 738.562 230.286V227.415H737.176V226.717H738.562V225.438H739.471ZM753.807 229.28C753.807 229.733 753.755 230.135 753.65 230.486C753.546 230.835 753.396 231.129 753.201 231.37C753.006 231.608 752.767 231.788 752.483 231.912C752.2 232.036 751.876 232.098 751.512 232.098C751.15 232.098 750.826 232.036 750.54 231.912C750.257 231.788 750.016 231.608 749.817 231.37C749.619 231.129 749.466 230.835 749.358 230.486C749.254 230.135 749.202 229.733 749.202 229.28V227.615C749.202 227.163 749.254 226.762 749.358 226.414C749.463 226.062 749.612 225.766 749.808 225.525C750.006 225.285 750.247 225.102 750.53 224.979C750.817 224.852 751.141 224.788 751.502 224.788C751.867 224.788 752.19 224.852 752.474 224.979C752.76 225.102 753.001 225.285 753.196 225.525C753.395 225.766 753.546 226.062 753.65 226.414C753.755 226.762 753.807 227.163 753.807 227.615V229.28ZM750.11 229.1L752.879 226.976C752.827 226.504 752.688 226.146 752.464 225.901C752.243 225.654 751.922 225.53 751.502 225.53C751.027 225.53 750.675 225.691 750.447 226.014C750.223 226.333 750.11 226.8 750.11 227.415V229.1ZM752.898 227.84L750.135 229.954C750.19 230.413 750.332 230.763 750.56 231.004C750.787 231.245 751.105 231.365 751.512 231.365C751.99 231.365 752.34 231.202 752.562 230.877C752.786 230.551 752.898 230.083 752.898 229.471V227.84ZM765.311 228.86H762.352V232H761.438V224.891H765.804V225.662H762.352V228.094H765.311V228.86ZM767.503 224.5H770.203V231.219H771.927V232H767.503V231.219H769.3V225.286H767.503V224.5ZM776.795 231.272C776.619 231.533 776.399 231.736 776.136 231.883C775.872 232.026 775.568 232.098 775.223 232.098C774.946 232.098 774.695 232.055 774.471 231.971C774.246 231.883 774.054 231.748 773.895 231.565C773.735 231.383 773.611 231.152 773.523 230.872C773.439 230.589 773.396 230.25 773.396 229.856V226.717H774.3V229.866C774.3 230.153 774.323 230.39 774.368 230.579C774.414 230.768 774.482 230.919 774.573 231.033C774.664 231.144 774.775 231.222 774.905 231.268C775.039 231.313 775.192 231.336 775.364 231.336C775.732 231.336 776.028 231.261 776.253 231.111C776.481 230.962 776.65 230.76 776.761 230.506V226.717H777.669V232H776.849L776.795 231.272ZM781.556 228.675L782.967 226.717H784.026L782.059 229.329L784.08 232H783.035L781.575 229.988L780.115 232H779.061L781.082 229.329L779.114 226.717H780.159L781.556 228.675Z" fill="black"/>
</svg>
