<svg width="930" height="316" viewBox="0 0 930 316" fill="none" xmlns="http://www.w3.org/2000/svg">
<rect width="930" height="316" fill="white"/>
<path d="M199.698 49H197.403L190.506 35.7188L190.47 49H188.187V31.2266H190.482L197.379 44.4834L197.416 31.2266H199.698V49ZM215.14 41.1387C215.132 41.7734 215.075 42.4163 214.969 43.0674C214.872 43.7103 214.717 44.3328 214.505 44.9351C214.294 45.5373 214.021 46.0988 213.688 46.6196C213.362 47.1405 212.971 47.5962 212.516 47.9868C212.06 48.3774 211.535 48.6867 210.941 48.9146C210.355 49.1343 209.696 49.2441 208.963 49.2441C208.231 49.2441 207.568 49.1343 206.974 48.9146C206.388 48.6867 205.867 48.3774 205.411 47.9868C204.955 47.5962 204.561 47.1405 204.227 46.6196C203.893 46.0907 203.617 45.5251 203.397 44.9229C203.185 44.3206 203.027 43.6981 202.921 43.0552C202.815 42.4123 202.758 41.7734 202.75 41.1387V39.1123C202.758 38.4775 202.811 37.8387 202.909 37.1958C203.014 36.5448 203.173 35.9181 203.385 35.3159C203.604 34.7137 203.877 34.1522 204.203 33.6313C204.536 33.1024 204.931 32.6426 205.387 32.252C205.842 31.8532 206.363 31.5439 206.949 31.3242C207.543 31.0964 208.207 30.9824 208.939 30.9824C209.671 30.9824 210.335 31.0964 210.929 31.3242C211.523 31.5439 212.048 31.8491 212.503 32.2397C212.959 32.6304 213.35 33.0902 213.675 33.6191C214.009 34.14 214.282 34.7015 214.493 35.3037C214.713 35.9059 214.872 36.5326 214.969 37.1836C215.075 37.8346 215.132 38.4775 215.14 39.1123V41.1387ZM212.906 39.0879C212.898 38.6647 212.87 38.2253 212.821 37.7695C212.772 37.3057 212.687 36.8499 212.564 36.4023C212.451 35.9466 212.296 35.5153 212.101 35.1084C211.905 34.6934 211.661 34.3312 211.368 34.022C211.075 33.7046 210.729 33.4564 210.331 33.2773C209.932 33.0902 209.468 32.9966 208.939 32.9966C208.418 32.9966 207.958 33.0902 207.56 33.2773C207.161 33.4645 206.815 33.7168 206.522 34.0342C206.229 34.3434 205.985 34.7056 205.79 35.1206C205.594 35.5275 205.436 35.9588 205.313 36.4146C205.2 36.8621 205.114 37.3179 205.057 37.7817C205.008 38.2375 204.98 38.6729 204.972 39.0879V41.1387C204.98 41.5537 205.008 41.9932 205.057 42.457C205.114 42.9209 205.204 43.3807 205.326 43.8364C205.448 44.284 205.606 44.7153 205.802 45.1304C205.997 45.5454 206.241 45.9116 206.534 46.229C206.827 46.5382 207.173 46.7865 207.572 46.9736C207.971 47.1608 208.434 47.2544 208.963 47.2544C209.492 47.2544 209.956 47.1608 210.355 46.9736C210.762 46.7865 211.108 46.5382 211.393 46.229C211.686 45.9116 211.926 45.5495 212.113 45.1426C212.308 44.7275 212.463 44.2962 212.577 43.8486C212.699 43.3929 212.78 42.9331 212.821 42.4692C212.87 42.0054 212.898 41.5618 212.906 41.1387V39.0879ZM230.582 33.1553H225.089V49H222.892V33.1553H217.398V31.2266H230.582V33.1553ZM260.123 46.6685C259.374 47.5474 258.516 48.1984 257.547 48.6216C256.579 49.0448 255.517 49.2523 254.361 49.2441C253.629 49.236 252.953 49.1261 252.335 48.9146C251.725 48.6948 251.175 48.3978 250.687 48.0234C250.199 47.641 249.771 47.1934 249.405 46.6807C249.039 46.168 248.73 45.6146 248.478 45.0205C248.233 44.4183 248.046 43.7917 247.916 43.1406C247.794 42.4814 247.729 41.8182 247.721 41.1509V39.0879C247.729 38.4287 247.786 37.7736 247.892 37.1226C248.006 36.4634 248.176 35.8327 248.404 35.2305C248.632 34.6283 248.917 34.0708 249.259 33.5581C249.601 33.0373 250.007 32.5897 250.479 32.2153C250.96 31.8328 251.501 31.5317 252.103 31.312C252.705 31.0923 253.381 30.9824 254.129 30.9824C254.959 30.9824 255.724 31.1126 256.424 31.373C257.124 31.6253 257.735 31.9915 258.255 32.4717C258.776 32.9437 259.195 33.5174 259.513 34.1929C259.83 34.8602 260.025 35.6089 260.099 36.439H257.865C257.775 35.9263 257.637 35.4543 257.45 35.0229C257.263 34.5835 257.014 34.2091 256.705 33.8999C256.404 33.5907 256.042 33.3506 255.619 33.1797C255.195 33.0007 254.703 32.9111 254.142 32.9111C253.604 32.9111 253.128 33.0047 252.713 33.1919C252.298 33.3709 251.936 33.6151 251.627 33.9243C251.318 34.2336 251.061 34.5957 250.858 35.0107C250.654 35.4176 250.488 35.849 250.357 36.3047C250.227 36.7604 250.134 37.2243 250.077 37.6963C250.02 38.1683 249.991 38.624 249.991 39.0635V41.1509C249.999 41.5985 250.036 42.0623 250.101 42.5425C250.174 43.0145 250.284 43.4784 250.431 43.9341C250.577 44.3898 250.764 44.8211 250.992 45.228C251.22 45.6349 251.493 45.993 251.81 46.3022C252.136 46.6115 252.51 46.8597 252.933 47.0469C253.356 47.2259 253.836 47.3195 254.374 47.3276C254.683 47.3358 255.004 47.3236 255.338 47.291C255.68 47.2585 256.009 47.1934 256.327 47.0957C256.644 46.998 256.941 46.8678 257.218 46.7051C257.494 46.5342 257.726 46.3145 257.914 46.0459L257.938 42.0542H254.325V40.1499H260.086L260.123 46.6685ZM272.318 49C272.228 48.8291 272.155 48.6175 272.098 48.3652C272.049 48.1048 272.013 47.8363 271.988 47.5596C271.76 47.7874 271.504 48.0031 271.219 48.2065C270.943 48.41 270.633 48.589 270.292 48.7437C269.958 48.8983 269.6 49.0203 269.217 49.1099C268.835 49.1994 268.428 49.2441 267.997 49.2441C267.297 49.2441 266.662 49.1424 266.092 48.939C265.531 48.7355 265.051 48.4629 264.652 48.1211C264.261 47.7712 263.956 47.3602 263.736 46.8882C263.525 46.408 263.419 45.8913 263.419 45.3379C263.419 44.6136 263.561 43.9788 263.846 43.4336C264.139 42.8883 264.55 42.4367 265.079 42.0786C265.608 41.7124 266.243 41.4398 266.983 41.2607C267.732 41.0817 268.566 40.9922 269.486 40.9922H271.952V39.9546C271.952 39.5558 271.878 39.1978 271.732 38.8804C271.585 38.563 271.378 38.2944 271.109 38.0747C270.841 37.8468 270.511 37.6719 270.121 37.5498C269.738 37.4277 269.307 37.3667 268.827 37.3667C268.379 37.3667 267.976 37.4237 267.618 37.5376C267.268 37.6515 266.971 37.8021 266.727 37.9893C266.483 38.1764 266.292 38.4002 266.153 38.6606C266.023 38.9129 265.958 39.1774 265.958 39.4541H263.688C263.696 38.974 263.818 38.502 264.054 38.0381C264.298 37.5742 264.644 37.1592 265.091 36.793C265.547 36.4186 266.096 36.1175 266.739 35.8896C267.39 35.6618 268.127 35.5479 268.949 35.5479C269.697 35.5479 270.393 35.6414 271.036 35.8286C271.679 36.0076 272.232 36.2843 272.696 36.6587C273.168 37.0249 273.539 37.4847 273.807 38.0381C274.076 38.5915 274.21 39.2384 274.21 39.979V46.1191C274.21 46.5586 274.251 47.0265 274.332 47.5229C274.413 48.0112 274.527 48.4385 274.674 48.8047V49H272.318ZM268.326 47.2788C268.766 47.2788 269.177 47.2218 269.559 47.1079C269.942 46.994 270.287 46.8434 270.597 46.6562C270.914 46.4691 271.187 46.2575 271.415 46.0215C271.642 45.7773 271.821 45.5251 271.952 45.2646V42.5913H269.852C268.534 42.5913 267.508 42.7866 266.776 43.1772C266.043 43.5679 265.677 44.1823 265.677 45.0205C265.677 45.346 265.73 45.6471 265.836 45.9238C265.95 46.2005 266.117 46.4406 266.336 46.644C266.556 46.8394 266.833 46.994 267.167 47.1079C267.5 47.2218 267.887 47.2788 268.326 47.2788ZM284 32.5938V35.792H289.029V37.5376H284V44.7153C284 45.228 284.065 45.6512 284.195 45.9849C284.326 46.3185 284.505 46.5871 284.732 46.7905C284.96 46.9858 285.221 47.1242 285.514 47.2056C285.815 47.2869 286.132 47.3276 286.466 47.3276C286.71 47.3276 286.962 47.3154 287.223 47.291C287.483 47.2585 287.735 47.2218 287.979 47.1812C288.232 47.1405 288.464 47.0998 288.675 47.0591C288.895 47.0103 289.074 46.9696 289.212 46.937L289.53 48.5361C289.343 48.6501 289.115 48.7518 288.846 48.8413C288.578 48.9227 288.285 48.9919 287.967 49.0488C287.65 49.1139 287.312 49.1628 286.954 49.1953C286.604 49.2279 286.254 49.2441 285.904 49.2441C285.318 49.2441 284.769 49.1628 284.256 49C283.752 48.8291 283.312 48.5646 282.938 48.2065C282.564 47.8403 282.267 47.3724 282.047 46.8027C281.835 46.2249 281.729 45.5291 281.729 44.7153V37.5376H278.263V35.792H281.729V32.5938H284ZM299.503 49.2441C298.575 49.2441 297.721 49.0854 296.939 48.7681C296.166 48.4507 295.503 48.0072 294.95 47.4375C294.396 46.8678 293.965 46.1924 293.656 45.4111C293.347 44.6299 293.192 43.7795 293.192 42.8599V42.3472C293.192 41.2811 293.363 40.3289 293.705 39.4907C294.046 38.6444 294.498 37.9323 295.06 37.3545C295.629 36.7686 296.272 36.321 296.988 36.0117C297.713 35.7025 298.453 35.5479 299.21 35.5479C300.162 35.5479 300.992 35.7147 301.7 36.0483C302.416 36.3739 303.01 36.8296 303.482 37.4155C303.954 37.9933 304.304 38.6769 304.532 39.4663C304.768 40.2557 304.886 41.1102 304.886 42.0298V43.043H295.45C295.475 43.6452 295.589 44.2108 295.792 44.7397C296.004 45.2687 296.288 45.7326 296.646 46.1313C297.013 46.522 297.448 46.8312 297.953 47.0591C298.457 47.2869 299.015 47.4009 299.625 47.4009C300.431 47.4009 301.147 47.2381 301.773 46.9126C302.4 46.5871 302.921 46.1558 303.336 45.6187L304.715 46.6929C304.496 47.0265 304.219 47.348 303.885 47.6572C303.56 47.9583 303.181 48.2269 302.75 48.4629C302.319 48.6989 301.83 48.8861 301.285 49.0244C300.74 49.1709 300.146 49.2441 299.503 49.2441ZM299.21 37.4033C298.754 37.4033 298.323 37.4888 297.916 37.6597C297.509 37.8224 297.143 38.0666 296.817 38.3921C296.492 38.7095 296.215 39.1042 295.987 39.5762C295.768 40.04 295.613 40.5771 295.523 41.1875H302.628V41.0166C302.604 40.5771 302.518 40.1418 302.372 39.7104C302.233 39.2791 302.026 38.8926 301.749 38.5508C301.472 38.209 301.122 37.9323 300.699 37.7207C300.284 37.5091 299.788 37.4033 299.21 37.4033Z" fill="black"/>
<path d="M410.093 38.1968L413.926 31.2266H416.587L411.423 40.04L416.709 49H414.072L410.142 41.8955L406.199 49H403.525L408.823 40.04L403.66 31.2266H406.309L410.093 38.1968ZM445.505 39.4785H434.604V37.5132H445.505V39.4785ZM445.505 44.5444H434.604V42.5913H445.505V44.5444ZM475.803 42.2007C475.803 43.3319 475.673 44.3369 475.413 45.2158C475.152 46.0866 474.778 46.8231 474.29 47.4253C473.801 48.0194 473.203 48.471 472.495 48.7803C471.787 49.0895 470.977 49.2441 470.066 49.2441C469.163 49.2441 468.353 49.0895 467.637 48.7803C466.929 48.471 466.326 48.0194 465.83 47.4253C465.334 46.8231 464.951 46.0866 464.683 45.2158C464.422 44.3369 464.292 43.3319 464.292 42.2007V38.0381C464.292 36.9069 464.422 35.9059 464.683 35.0352C464.943 34.1562 465.317 33.4157 465.806 32.8135C466.302 32.2113 466.904 31.7555 467.612 31.4463C468.328 31.1289 469.138 30.9702 470.042 30.9702C470.953 30.9702 471.763 31.1289 472.471 31.4463C473.187 31.7555 473.789 32.2113 474.277 32.8135C474.774 33.4157 475.152 34.1562 475.413 35.0352C475.673 35.9059 475.803 36.9069 475.803 38.0381V42.2007ZM466.562 41.749L473.484 36.439C473.354 35.259 473.008 34.3638 472.446 33.7534C471.893 33.1349 471.091 32.8257 470.042 32.8257C468.853 32.8257 467.974 33.2285 467.405 34.0342C466.843 34.8317 466.562 35.9995 466.562 37.5376V41.749ZM473.533 38.5996L466.624 43.8853C466.762 45.0327 467.116 45.9076 467.686 46.5098C468.255 47.112 469.049 47.4131 470.066 47.4131C471.262 47.4131 472.137 47.0062 472.69 46.1924C473.252 45.3786 473.533 44.2067 473.533 42.6768V38.5996Z" fill="#2196F3"/>
<path d="M409.824 69.1499L413.877 60.2266H416.44L410.911 71.3716L410.874 78H408.774L408.738 71.3716L403.208 60.2266H405.784L409.824 69.1499ZM445.505 68.4785H434.604V66.5132H445.505V68.4785ZM445.505 73.5444H434.604V71.5913H445.505V73.5444ZM475.803 71.2007C475.803 72.3319 475.673 73.3369 475.413 74.2158C475.152 75.0866 474.778 75.8231 474.29 76.4253C473.801 77.0194 473.203 77.471 472.495 77.7803C471.787 78.0895 470.977 78.2441 470.066 78.2441C469.163 78.2441 468.353 78.0895 467.637 77.7803C466.929 77.471 466.326 77.0194 465.83 76.4253C465.334 75.8231 464.951 75.0866 464.683 74.2158C464.422 73.3369 464.292 72.3319 464.292 71.2007V67.0381C464.292 65.9069 464.422 64.9059 464.683 64.0352C464.943 63.1562 465.317 62.4157 465.806 61.8135C466.302 61.2113 466.904 60.7555 467.612 60.4463C468.328 60.1289 469.138 59.9702 470.042 59.9702C470.953 59.9702 471.763 60.1289 472.471 60.4463C473.187 60.7555 473.789 61.2113 474.277 61.8135C474.774 62.4157 475.152 63.1562 475.413 64.0352C475.673 64.9059 475.803 65.9069 475.803 67.0381V71.2007ZM466.562 70.749L473.484 65.439C473.354 64.259 473.008 63.3638 472.446 62.7534C471.893 62.1349 471.091 61.8257 470.042 61.8257C468.853 61.8257 467.974 62.2285 467.405 63.0342C466.843 63.8317 466.562 64.9995 466.562 66.5376V70.749ZM473.533 67.5996L466.624 72.8853C466.762 74.0327 467.116 74.9076 467.686 75.5098C468.255 76.112 469.049 76.4131 470.066 76.4131C471.262 76.4131 472.137 76.0062 472.69 75.1924C473.252 74.3786 473.533 73.2067 473.533 71.6768V67.5996Z" fill="#2196F3"/>
<path d="M628.691 44H626.396L619.499 30.7188L619.462 44H617.18V26.2266H619.475L626.372 39.4834L626.408 26.2266H628.691V44ZM641.057 39.3979H635.124L633.696 44H631.438L637.175 26.2266H639.067L644.707 44H642.46L641.057 39.3979ZM635.734 37.4326H640.458L638.115 29.7178L635.734 37.4326ZM658.72 44H656.425L649.528 30.7188L649.492 44H647.209V26.2266H649.504L656.401 39.4834L656.438 26.2266H658.72V44ZM662.37 44V26.2266H666.484C667.721 26.2428 668.824 26.4544 669.792 26.8613C670.769 27.2601 671.59 27.8216 672.258 28.5459C672.933 29.262 673.446 30.1247 673.796 31.1338C674.154 32.1348 674.337 33.2456 674.345 34.4663V35.7725C674.337 36.9932 674.154 38.1081 673.796 39.1172C673.446 40.1182 672.933 40.9808 672.258 41.7051C671.59 42.4212 670.769 42.9827 669.792 43.3896C668.824 43.7884 667.721 43.9919 666.484 44H662.37ZM664.665 28.082V42.1567H666.484C667.444 42.1486 668.274 41.9818 668.974 41.6562C669.674 41.3226 670.252 40.8709 670.708 40.3013C671.171 39.7316 671.513 39.0602 671.733 38.2871C671.961 37.514 672.079 36.6758 672.087 35.7725V34.4419C672.079 33.5386 671.961 32.7044 671.733 31.9395C671.505 31.1663 671.163 30.499 670.708 29.9375C670.252 29.3678 669.674 28.9202 668.974 28.5947C668.274 28.2692 667.444 28.0983 666.484 28.082H664.665ZM704.13 41.6685C703.382 42.5474 702.523 43.1984 701.555 43.6216C700.586 44.0448 699.524 44.2523 698.369 44.2441C697.636 44.236 696.961 44.1261 696.342 43.9146C695.732 43.6948 695.183 43.3978 694.694 43.0234C694.206 42.641 693.779 42.1934 693.413 41.6807C693.046 41.168 692.737 40.6146 692.485 40.0205C692.241 39.4183 692.054 38.7917 691.923 38.1406C691.801 37.4814 691.736 36.8182 691.728 36.1509V34.0879C691.736 33.4287 691.793 32.7736 691.899 32.1226C692.013 31.4634 692.184 30.8327 692.412 30.2305C692.639 29.6283 692.924 29.0708 693.266 28.5581C693.608 28.0373 694.015 27.5897 694.487 27.2153C694.967 26.8328 695.508 26.5317 696.11 26.312C696.713 26.0923 697.388 25.9824 698.137 25.9824C698.967 25.9824 699.732 26.1126 700.432 26.373C701.132 26.6253 701.742 26.9915 702.263 27.4717C702.784 27.9437 703.203 28.5174 703.52 29.1929C703.837 29.8602 704.033 30.6089 704.106 31.439H701.872C701.783 30.9263 701.644 30.4543 701.457 30.0229C701.27 29.5835 701.022 29.2091 700.712 28.8999C700.411 28.5907 700.049 28.3506 699.626 28.1797C699.203 28.0007 698.71 27.9111 698.149 27.9111C697.612 27.9111 697.136 28.0047 696.721 28.1919C696.306 28.3709 695.944 28.6151 695.634 28.9243C695.325 29.2336 695.069 29.5957 694.865 30.0107C694.662 30.4176 694.495 30.849 694.365 31.3047C694.235 31.7604 694.141 32.2243 694.084 32.6963C694.027 33.1683 693.999 33.624 693.999 34.0635V36.1509C694.007 36.5985 694.043 37.0623 694.108 37.5425C694.182 38.0145 694.292 38.4784 694.438 38.9341C694.584 39.3898 694.772 39.8211 695 40.228C695.227 40.6349 695.5 40.993 695.817 41.3022C696.143 41.6115 696.517 41.8597 696.94 42.0469C697.364 42.2259 697.844 42.3195 698.381 42.3276C698.69 42.3358 699.012 42.3236 699.345 42.291C699.687 42.2585 700.017 42.1934 700.334 42.0957C700.651 41.998 700.948 41.8678 701.225 41.7051C701.502 41.5342 701.734 41.3145 701.921 41.0459L701.945 37.0542H698.332V35.1499H704.094L704.13 41.6685ZM716.325 44C716.236 43.8291 716.162 43.6175 716.105 43.3652C716.057 43.1048 716.02 42.8363 715.996 42.5596C715.768 42.7874 715.511 43.0031 715.227 43.2065C714.95 43.41 714.641 43.589 714.299 43.7437C713.965 43.8983 713.607 44.0203 713.225 44.1099C712.842 44.1994 712.435 44.2441 712.004 44.2441C711.304 44.2441 710.669 44.1424 710.1 43.939C709.538 43.7355 709.058 43.4629 708.659 43.1211C708.269 42.7712 707.963 42.3602 707.744 41.8882C707.532 41.408 707.426 40.8913 707.426 40.3379C707.426 39.6136 707.569 38.9788 707.854 38.4336C708.146 37.8883 708.557 37.4367 709.086 37.0786C709.615 36.7124 710.25 36.4398 710.991 36.2607C711.739 36.0817 712.574 35.9922 713.493 35.9922H715.959V34.9546C715.959 34.5558 715.886 34.1978 715.739 33.8804C715.593 33.563 715.385 33.2944 715.117 33.0747C714.848 32.8468 714.519 32.6719 714.128 32.5498C713.745 32.4277 713.314 32.3667 712.834 32.3667C712.386 32.3667 711.984 32.4237 711.625 32.5376C711.276 32.6515 710.979 32.8021 710.734 32.9893C710.49 33.1764 710.299 33.4002 710.161 33.6606C710.03 33.9129 709.965 34.1774 709.965 34.4541H707.695C707.703 33.974 707.825 33.502 708.061 33.0381C708.305 32.5742 708.651 32.1592 709.099 31.793C709.554 31.4186 710.104 31.1175 710.747 30.8896C711.398 30.6618 712.134 30.5479 712.956 30.5479C713.705 30.5479 714.401 30.6414 715.043 30.8286C715.686 31.0076 716.24 31.2843 716.704 31.6587C717.176 32.0249 717.546 32.4847 717.814 33.0381C718.083 33.5915 718.217 34.2384 718.217 34.979V41.1191C718.217 41.5586 718.258 42.0265 718.339 42.5229C718.421 43.0112 718.535 43.4385 718.681 43.8047V44H716.325ZM712.333 42.2788C712.773 42.2788 713.184 42.2218 713.566 42.1079C713.949 41.994 714.295 41.8434 714.604 41.6562C714.921 41.4691 715.194 41.2575 715.422 41.0215C715.65 40.7773 715.829 40.5251 715.959 40.2646V37.5913H713.859C712.541 37.5913 711.516 37.7866 710.783 38.1772C710.051 38.5679 709.685 39.1823 709.685 40.0205C709.685 40.346 709.737 40.6471 709.843 40.9238C709.957 41.2005 710.124 41.4406 710.344 41.644C710.563 41.8394 710.84 41.994 711.174 42.1079C711.507 42.2218 711.894 42.2788 712.333 42.2788ZM728.007 27.5938V30.792H733.037V32.5376H728.007V39.7153C728.007 40.228 728.072 40.6512 728.203 40.9849C728.333 41.3185 728.512 41.5871 728.74 41.7905C728.968 41.9858 729.228 42.1242 729.521 42.2056C729.822 42.2869 730.139 42.3276 730.473 42.3276C730.717 42.3276 730.97 42.3154 731.23 42.291C731.49 42.2585 731.743 42.2218 731.987 42.1812C732.239 42.1405 732.471 42.0998 732.683 42.0591C732.902 42.0103 733.081 41.9696 733.22 41.937L733.537 43.5361C733.35 43.6501 733.122 43.7518 732.854 43.8413C732.585 43.9227 732.292 43.9919 731.975 44.0488C731.657 44.1139 731.319 44.1628 730.961 44.1953C730.611 44.2279 730.262 44.2441 729.912 44.2441C729.326 44.2441 728.776 44.1628 728.264 44C727.759 43.8291 727.32 43.5646 726.945 43.2065C726.571 42.8403 726.274 42.3724 726.054 41.8027C725.843 41.2249 725.737 40.5291 725.737 39.7153V32.5376H722.27V30.792H725.737V27.5938H728.007ZM743.51 44.2441C742.583 44.2441 741.728 44.0854 740.947 43.7681C740.174 43.4507 739.51 43.0072 738.957 42.4375C738.404 41.8678 737.972 41.1924 737.663 40.4111C737.354 39.6299 737.199 38.7795 737.199 37.8599V37.3472C737.199 36.2811 737.37 35.3289 737.712 34.4907C738.054 33.6444 738.505 32.9323 739.067 32.3545C739.637 31.7686 740.279 31.321 740.996 31.0117C741.72 30.7025 742.46 30.5479 743.217 30.5479C744.169 30.5479 745 30.7147 745.708 31.0483C746.424 31.3739 747.018 31.8296 747.49 32.4155C747.962 32.9933 748.312 33.6769 748.54 34.4663C748.776 35.2557 748.894 36.1102 748.894 37.0298V38.043H739.458C739.482 38.6452 739.596 39.2108 739.799 39.7397C740.011 40.2687 740.296 40.7326 740.654 41.1313C741.02 41.522 741.455 41.8312 741.96 42.0591C742.465 42.2869 743.022 42.4009 743.632 42.4009C744.438 42.4009 745.154 42.2381 745.781 41.9126C746.407 41.5871 746.928 41.1558 747.343 40.6187L748.723 41.6929C748.503 42.0265 748.226 42.348 747.893 42.6572C747.567 42.9583 747.189 43.2269 746.757 43.4629C746.326 43.6989 745.838 43.8861 745.292 44.0244C744.747 44.1709 744.153 44.2441 743.51 44.2441ZM743.217 32.4033C742.762 32.4033 742.33 32.4888 741.923 32.6597C741.516 32.8224 741.15 33.0666 740.825 33.3921C740.499 33.7095 740.222 34.1042 739.995 34.5762C739.775 35.04 739.62 35.5771 739.531 36.1875H746.635V36.0166C746.611 35.5771 746.525 35.1418 746.379 34.7104C746.241 34.2791 746.033 33.8926 745.756 33.5508C745.48 33.209 745.13 32.9323 744.707 32.7207C744.292 32.5091 743.795 32.4033 743.217 32.4033Z" fill="black"/>
<path d="M315.456 291.717H318.156V296.219H319.88V297H315.456V296.219H317.253V292.503H315.456V291.717ZM317.136 290.33C317.136 290.18 317.18 290.055 317.268 289.954C317.359 289.85 317.495 289.798 317.678 289.798C317.857 289.798 317.992 289.85 318.083 289.954C318.174 290.055 318.22 290.18 318.22 290.33C318.22 290.477 318.174 290.599 318.083 290.696C317.992 290.794 317.857 290.843 317.678 290.843C317.495 290.843 317.359 290.794 317.268 290.696C317.18 290.599 317.136 290.477 317.136 290.33ZM322.131 291.717L322.194 292.498C322.386 292.225 322.622 292.011 322.902 291.858C323.182 291.702 323.495 291.622 323.84 291.619C324.117 291.619 324.367 291.658 324.592 291.736C324.82 291.814 325.013 291.937 325.173 292.103C325.332 292.269 325.454 292.48 325.539 292.737C325.627 292.991 325.671 293.294 325.671 293.646V297H324.768V293.665C324.768 293.431 324.742 293.232 324.689 293.069C324.637 292.907 324.559 292.775 324.455 292.674C324.354 292.573 324.229 292.5 324.079 292.454C323.933 292.409 323.763 292.386 323.571 292.386C323.269 292.386 323.002 292.462 322.771 292.615C322.543 292.765 322.36 292.964 322.224 293.211V297H321.32V291.717H322.131ZM331.784 294.417C331.784 294.795 331.739 295.148 331.647 295.477C331.556 295.802 331.423 296.085 331.247 296.326C331.071 296.567 330.853 296.756 330.593 296.893C330.336 297.029 330.041 297.098 329.709 297.098C329.387 297.098 329.102 297.046 328.854 296.941C328.61 296.837 328.4 296.688 328.225 296.492V299.031H327.321V291.717H328.146L328.19 292.293C328.366 292.075 328.578 291.909 328.825 291.795C329.076 291.678 329.366 291.619 329.694 291.619C330.033 291.619 330.332 291.686 330.593 291.819C330.853 291.953 331.071 292.138 331.247 292.376C331.423 292.614 331.556 292.898 331.647 293.23C331.739 293.559 331.784 293.921 331.784 294.314V294.417ZM330.881 294.314C330.881 294.057 330.852 293.813 330.793 293.582C330.738 293.348 330.65 293.143 330.529 292.967C330.412 292.788 330.262 292.646 330.08 292.542C329.898 292.438 329.68 292.386 329.426 292.386C329.136 292.386 328.892 292.454 328.693 292.591C328.498 292.724 328.342 292.897 328.225 293.108V295.652C328.342 295.861 328.498 296.032 328.693 296.165C328.889 296.295 329.136 296.36 329.436 296.36C329.686 296.36 329.903 296.308 330.085 296.204C330.267 296.097 330.417 295.953 330.534 295.774C330.651 295.595 330.738 295.389 330.793 295.154C330.852 294.92 330.881 294.674 330.881 294.417V294.314ZM336.76 296.272C336.584 296.533 336.364 296.736 336.101 296.883C335.837 297.026 335.533 297.098 335.188 297.098C334.911 297.098 334.66 297.055 334.436 296.971C334.211 296.883 334.019 296.748 333.859 296.565C333.7 296.383 333.576 296.152 333.488 295.872C333.404 295.589 333.361 295.25 333.361 294.856V291.717H334.265V294.866C334.265 295.153 334.287 295.39 334.333 295.579C334.379 295.768 334.447 295.919 334.538 296.033C334.629 296.144 334.74 296.222 334.87 296.268C335.004 296.313 335.157 296.336 335.329 296.336C335.697 296.336 335.993 296.261 336.218 296.111C336.446 295.962 336.615 295.76 336.726 295.506V291.717H337.634V297H336.813L336.76 296.272ZM341.477 290.438V291.717H343.488V292.415H341.477V295.286C341.477 295.491 341.503 295.66 341.555 295.794C341.607 295.927 341.678 296.035 341.77 296.116C341.861 296.194 341.965 296.25 342.082 296.282C342.202 296.315 342.329 296.331 342.463 296.331C342.561 296.331 342.661 296.326 342.766 296.316C342.87 296.303 342.971 296.289 343.068 296.272C343.169 296.256 343.262 296.24 343.347 296.224C343.435 296.204 343.506 296.188 343.562 296.175L343.688 296.814C343.614 296.86 343.522 296.901 343.415 296.937C343.308 296.969 343.19 296.997 343.063 297.02C342.937 297.046 342.801 297.065 342.658 297.078C342.518 297.091 342.378 297.098 342.238 297.098C342.004 297.098 341.784 297.065 341.579 297C341.377 296.932 341.201 296.826 341.052 296.683C340.902 296.536 340.783 296.349 340.695 296.121C340.611 295.89 340.568 295.612 340.568 295.286V292.415H339.182V291.717H340.568V290.438H341.477ZM353.42 295.701L353.503 296.028L353.591 295.701L355.07 291.717H355.993L353.84 297H353.151L350.979 291.717H351.906L353.42 295.701ZM359.689 297.098C359.318 297.098 358.977 297.034 358.664 296.907C358.355 296.78 358.09 296.603 357.868 296.375C357.647 296.147 357.474 295.877 357.351 295.564C357.227 295.252 357.165 294.912 357.165 294.544V294.339C357.165 293.912 357.233 293.532 357.37 293.196C357.507 292.858 357.688 292.573 357.912 292.342C358.14 292.107 358.397 291.928 358.684 291.805C358.973 291.681 359.27 291.619 359.572 291.619C359.953 291.619 360.285 291.686 360.568 291.819C360.855 291.95 361.092 292.132 361.281 292.366C361.47 292.597 361.61 292.871 361.701 293.187C361.796 293.502 361.843 293.844 361.843 294.212V294.617H358.068C358.078 294.858 358.124 295.084 358.205 295.296C358.29 295.507 358.404 295.693 358.547 295.853C358.693 296.009 358.868 296.132 359.069 296.224C359.271 296.315 359.494 296.36 359.738 296.36C360.061 296.36 360.347 296.295 360.598 296.165C360.848 296.035 361.057 295.862 361.223 295.647L361.774 296.077C361.687 296.211 361.576 296.339 361.442 296.463C361.312 296.583 361.161 296.691 360.988 296.785C360.816 296.88 360.62 296.954 360.402 297.01C360.184 297.068 359.947 297.098 359.689 297.098ZM359.572 292.361C359.39 292.361 359.217 292.396 359.055 292.464C358.892 292.529 358.745 292.627 358.615 292.757C358.485 292.884 358.374 293.042 358.283 293.23C358.195 293.416 358.133 293.631 358.098 293.875H360.939V293.807C360.93 293.631 360.896 293.457 360.837 293.284C360.782 293.112 360.699 292.957 360.588 292.82C360.477 292.684 360.337 292.573 360.168 292.488C360.002 292.404 359.803 292.361 359.572 292.361ZM366.823 291.619C366.908 291.619 366.996 291.622 367.087 291.629C367.178 291.632 367.264 291.64 367.346 291.653C367.43 291.663 367.507 291.676 367.575 291.692C367.647 291.709 367.705 291.727 367.751 291.746L367.629 292.63C367.453 292.591 367.285 292.563 367.126 292.547C366.97 292.527 366.805 292.518 366.633 292.518C366.21 292.518 365.866 292.614 365.603 292.806C365.342 292.998 365.15 293.266 365.026 293.611V297H364.118V291.717H364.978L365.021 292.557C365.236 292.267 365.493 292.039 365.793 291.873C366.096 291.704 366.439 291.619 366.823 291.619ZM371.506 290.438V291.717H373.518V292.415H371.506V295.286C371.506 295.491 371.532 295.66 371.584 295.794C371.636 295.927 371.708 296.035 371.799 296.116C371.89 296.194 371.994 296.25 372.111 296.282C372.232 296.315 372.359 296.331 372.492 296.331C372.59 296.331 372.691 296.326 372.795 296.316C372.899 296.303 373 296.289 373.098 296.272C373.199 296.256 373.291 296.24 373.376 296.224C373.464 296.204 373.535 296.188 373.591 296.175L373.718 296.814C373.643 296.86 373.552 296.901 373.444 296.937C373.337 296.969 373.22 296.997 373.093 297.02C372.966 297.046 372.831 297.065 372.688 297.078C372.548 297.091 372.408 297.098 372.268 297.098C372.033 297.098 371.813 297.065 371.608 297C371.407 296.932 371.231 296.826 371.081 296.683C370.931 296.536 370.812 296.349 370.725 296.121C370.64 295.89 370.598 295.612 370.598 295.286V292.415H369.211V291.717H370.598V290.438H371.506ZM377.707 297.098C377.336 297.098 376.994 297.034 376.682 296.907C376.372 296.78 376.107 296.603 375.886 296.375C375.664 296.147 375.492 295.877 375.368 295.564C375.244 295.252 375.183 294.912 375.183 294.544V294.339C375.183 293.912 375.251 293.532 375.388 293.196C375.524 292.858 375.705 292.573 375.93 292.342C376.158 292.107 376.415 291.928 376.701 291.805C376.991 291.681 377.287 291.619 377.59 291.619C377.971 291.619 378.303 291.686 378.586 291.819C378.872 291.95 379.11 292.132 379.299 292.366C379.488 292.597 379.628 292.871 379.719 293.187C379.813 293.502 379.86 293.844 379.86 294.212V294.617H376.086C376.096 294.858 376.141 295.084 376.223 295.296C376.307 295.507 376.421 295.693 376.564 295.853C376.711 296.009 376.885 296.132 377.087 296.224C377.289 296.315 377.512 296.36 377.756 296.36C378.078 296.36 378.365 296.295 378.615 296.165C378.866 296.035 379.074 295.862 379.24 295.647L379.792 296.077C379.704 296.211 379.593 296.339 379.46 296.463C379.33 296.583 379.178 296.691 379.006 296.785C378.833 296.88 378.638 296.954 378.42 297.01C378.202 297.068 377.964 297.098 377.707 297.098ZM377.59 292.361C377.408 292.361 377.235 292.396 377.072 292.464C376.91 292.529 376.763 292.627 376.633 292.757C376.503 292.884 376.392 293.042 376.301 293.23C376.213 293.416 376.151 293.631 376.115 293.875H378.957V293.807C378.947 293.631 378.913 293.457 378.854 293.284C378.799 293.112 378.716 292.957 378.605 292.82C378.495 292.684 378.355 292.573 378.186 292.488C378.02 292.404 377.821 292.361 377.59 292.361ZM383.562 293.675L384.973 291.717H386.032L384.064 294.329L386.086 297H385.041L383.581 294.988L382.121 297H381.066L383.088 294.329L381.12 291.717H382.165L383.562 293.675Z" fill="black"/>
<path d="M217.149 294.314C217.149 293.921 217.198 293.559 217.296 293.23C217.397 292.898 217.538 292.614 217.721 292.376C217.906 292.138 218.129 291.953 218.39 291.819C218.65 291.686 218.941 291.619 219.264 291.619C219.579 291.619 219.854 291.673 220.089 291.78C220.326 291.884 220.532 292.037 220.704 292.239V289.5H221.607V297H220.777L220.738 296.443C220.562 296.658 220.353 296.821 220.108 296.932C219.864 297.042 219.579 297.098 219.254 297.098C218.935 297.098 218.645 297.029 218.385 296.893C218.128 296.756 217.908 296.567 217.726 296.326C217.543 296.085 217.402 295.802 217.301 295.477C217.2 295.148 217.149 294.795 217.149 294.417V294.314ZM218.053 294.417C218.053 294.674 218.08 294.918 218.136 295.149C218.191 295.381 218.276 295.584 218.39 295.76C218.507 295.936 218.655 296.076 218.834 296.18C219.013 296.281 219.228 296.331 219.479 296.331C219.632 296.331 219.77 296.313 219.894 296.277C220.017 296.242 220.13 296.191 220.23 296.126C220.331 296.058 220.421 295.978 220.499 295.887C220.577 295.792 220.646 295.688 220.704 295.574V293.123C220.587 292.908 220.429 292.732 220.23 292.596C220.032 292.456 219.785 292.386 219.488 292.386C219.234 292.386 219.016 292.438 218.834 292.542C218.655 292.646 218.507 292.788 218.39 292.967C218.276 293.143 218.191 293.348 218.136 293.582C218.08 293.813 218.053 294.057 218.053 294.314V294.417ZM223.468 291.717H226.168V296.219H227.892V297H223.468V296.219H225.265V292.503H223.468V291.717ZM225.147 290.33C225.147 290.18 225.191 290.055 225.279 289.954C225.37 289.85 225.507 289.798 225.689 289.798C225.868 289.798 226.004 289.85 226.095 289.954C226.186 290.055 226.231 290.18 226.231 290.33C226.231 290.477 226.186 290.599 226.095 290.696C226.004 290.794 225.868 290.843 225.689 290.843C225.507 290.843 225.37 290.794 225.279 290.696C225.191 290.599 225.147 290.477 225.147 290.33ZM229.078 294.31C229.078 293.929 229.133 293.576 229.244 293.25C229.355 292.921 229.513 292.636 229.718 292.396C229.926 292.155 230.178 291.966 230.475 291.829C230.771 291.689 231.104 291.619 231.476 291.619C231.85 291.619 232.185 291.689 232.481 291.829C232.781 291.966 233.033 292.155 233.238 292.396C233.447 292.636 233.606 292.921 233.717 293.25C233.827 293.576 233.883 293.929 233.883 294.31V294.417C233.883 294.798 233.827 295.151 233.717 295.477C233.606 295.802 233.447 296.085 233.238 296.326C233.033 296.567 232.783 296.756 232.486 296.893C232.19 297.029 231.856 297.098 231.485 297.098C231.111 297.098 230.774 297.029 230.475 296.893C230.178 296.756 229.926 296.567 229.718 296.326C229.513 296.085 229.355 295.802 229.244 295.477C229.133 295.151 229.078 294.798 229.078 294.417V294.31ZM229.981 294.417C229.981 294.677 230.012 294.926 230.074 295.164C230.136 295.398 230.229 295.605 230.353 295.784C230.479 295.963 230.637 296.105 230.826 296.209C231.015 296.313 231.235 296.365 231.485 296.365C231.733 296.365 231.949 296.313 232.135 296.209C232.324 296.105 232.48 295.963 232.604 295.784C232.73 295.605 232.825 295.398 232.887 295.164C232.949 294.926 232.979 294.677 232.979 294.417V294.31C232.979 294.052 232.947 293.807 232.882 293.572C232.82 293.335 232.726 293.126 232.599 292.947C232.475 292.768 232.319 292.627 232.13 292.522C231.944 292.415 231.726 292.361 231.476 292.361C231.225 292.361 231.007 292.415 230.821 292.522C230.636 292.627 230.479 292.768 230.353 292.947C230.229 293.126 230.136 293.335 230.074 293.572C230.012 293.807 229.981 294.052 229.981 294.31V294.417ZM235.167 294.314C235.167 293.921 235.216 293.559 235.313 293.23C235.414 292.898 235.556 292.614 235.738 292.376C235.924 292.138 236.147 291.953 236.407 291.819C236.668 291.686 236.959 291.619 237.281 291.619C237.597 291.619 237.872 291.673 238.106 291.78C238.344 291.884 238.549 292.037 238.722 292.239V289.5H239.625V297H238.795L238.756 296.443C238.58 296.658 238.37 296.821 238.126 296.932C237.882 297.042 237.597 297.098 237.271 297.098C236.952 297.098 236.663 297.029 236.402 296.893C236.145 296.756 235.925 296.567 235.743 296.326C235.561 296.085 235.419 295.802 235.318 295.477C235.217 295.148 235.167 294.795 235.167 294.417V294.314ZM236.07 294.417C236.07 294.674 236.098 294.918 236.153 295.149C236.209 295.381 236.293 295.584 236.407 295.76C236.524 295.936 236.673 296.076 236.852 296.18C237.031 296.281 237.245 296.331 237.496 296.331C237.649 296.331 237.787 296.313 237.911 296.277C238.035 296.242 238.147 296.191 238.248 296.126C238.349 296.058 238.438 295.978 238.517 295.887C238.595 295.792 238.663 295.688 238.722 295.574V293.123C238.604 292.908 238.447 292.732 238.248 292.596C238.049 292.456 237.802 292.386 237.506 292.386C237.252 292.386 237.034 292.438 236.852 292.542C236.673 292.646 236.524 292.788 236.407 292.967C236.293 293.143 236.209 293.348 236.153 293.582C236.098 293.813 236.07 294.057 236.07 294.314V294.417ZM243.678 297.098C243.307 297.098 242.965 297.034 242.652 296.907C242.343 296.78 242.078 296.603 241.856 296.375C241.635 296.147 241.463 295.877 241.339 295.564C241.215 295.252 241.153 294.912 241.153 294.544V294.339C241.153 293.912 241.222 293.532 241.358 293.196C241.495 292.858 241.676 292.573 241.9 292.342C242.128 292.107 242.385 291.928 242.672 291.805C242.962 291.681 243.258 291.619 243.561 291.619C243.941 291.619 244.273 291.686 244.557 291.819C244.843 291.95 245.081 292.132 245.27 292.366C245.458 292.597 245.598 292.871 245.689 293.187C245.784 293.502 245.831 293.844 245.831 294.212V294.617H242.057C242.066 294.858 242.112 295.084 242.193 295.296C242.278 295.507 242.392 295.693 242.535 295.853C242.682 296.009 242.856 296.132 243.058 296.224C243.259 296.315 243.482 296.36 243.727 296.36C244.049 296.36 244.335 296.295 244.586 296.165C244.837 296.035 245.045 295.862 245.211 295.647L245.763 296.077C245.675 296.211 245.564 296.339 245.431 296.463C245.3 296.583 245.149 296.691 244.977 296.785C244.804 296.88 244.609 296.954 244.391 297.01C244.173 297.068 243.935 297.098 243.678 297.098ZM243.561 292.361C243.378 292.361 243.206 292.396 243.043 292.464C242.88 292.529 242.734 292.627 242.604 292.757C242.473 292.884 242.363 293.042 242.271 293.23C242.184 293.416 242.122 293.631 242.086 293.875H244.928V293.807C244.918 293.631 244.884 293.457 244.825 293.284C244.77 293.112 244.687 292.957 244.576 292.82C244.465 292.684 244.326 292.573 244.156 292.488C243.99 292.404 243.792 292.361 243.561 292.361ZM255.689 297.098C255.318 297.098 254.977 297.034 254.664 296.907C254.355 296.78 254.09 296.603 253.868 296.375C253.647 296.147 253.474 295.877 253.351 295.564C253.227 295.252 253.165 294.912 253.165 294.544V294.339C253.165 293.912 253.233 293.532 253.37 293.196C253.507 292.858 253.688 292.573 253.912 292.342C254.14 292.107 254.397 291.928 254.684 291.805C254.973 291.681 255.27 291.619 255.572 291.619C255.953 291.619 256.285 291.686 256.568 291.819C256.855 291.95 257.092 292.132 257.281 292.366C257.47 292.597 257.61 292.871 257.701 293.187C257.796 293.502 257.843 293.844 257.843 294.212V294.617H254.068C254.078 294.858 254.124 295.084 254.205 295.296C254.29 295.507 254.404 295.693 254.547 295.853C254.693 296.009 254.868 296.132 255.069 296.224C255.271 296.315 255.494 296.36 255.738 296.36C256.061 296.36 256.347 296.295 256.598 296.165C256.848 296.035 257.057 295.862 257.223 295.647L257.774 296.077C257.687 296.211 257.576 296.339 257.442 296.463C257.312 296.583 257.161 296.691 256.988 296.785C256.816 296.88 256.62 296.954 256.402 297.01C256.184 297.068 255.947 297.098 255.689 297.098ZM255.572 292.361C255.39 292.361 255.217 292.396 255.055 292.464C254.892 292.529 254.745 292.627 254.615 292.757C254.485 292.884 254.374 293.042 254.283 293.23C254.195 293.416 254.133 293.631 254.098 293.875H256.939V293.807C256.93 293.631 256.896 293.457 256.837 293.284C256.782 293.112 256.699 292.957 256.588 292.82C256.477 292.684 256.337 292.573 256.168 292.488C256.002 292.404 255.803 292.361 255.572 292.361ZM259.19 294.314C259.19 293.921 259.239 293.559 259.337 293.23C259.438 292.898 259.579 292.614 259.762 292.376C259.947 292.138 260.17 291.953 260.431 291.819C260.691 291.686 260.982 291.619 261.305 291.619C261.62 291.619 261.896 291.673 262.13 291.78C262.368 291.884 262.573 292.037 262.745 292.239V289.5H263.648V297H262.818L262.779 296.443C262.604 296.658 262.394 296.821 262.149 296.932C261.905 297.042 261.62 297.098 261.295 297.098C260.976 297.098 260.686 297.029 260.426 296.893C260.169 296.756 259.949 296.567 259.767 296.326C259.584 296.085 259.443 295.802 259.342 295.477C259.241 295.148 259.19 294.795 259.19 294.417V294.314ZM260.094 294.417C260.094 294.674 260.121 294.918 260.177 295.149C260.232 295.381 260.317 295.584 260.431 295.76C260.548 295.936 260.696 296.076 260.875 296.18C261.054 296.281 261.269 296.331 261.52 296.331C261.673 296.331 261.811 296.313 261.935 296.277C262.058 296.242 262.171 296.191 262.271 296.126C262.372 296.058 262.462 295.978 262.54 295.887C262.618 295.792 262.687 295.688 262.745 295.574V293.123C262.628 292.908 262.47 292.732 262.271 292.596C262.073 292.456 261.826 292.386 261.529 292.386C261.275 292.386 261.057 292.438 260.875 292.542C260.696 292.646 260.548 292.788 260.431 292.967C260.317 293.143 260.232 293.348 260.177 293.582C260.121 293.813 260.094 294.057 260.094 294.314V294.417ZM265.201 294.314C265.201 293.921 265.248 293.559 265.343 293.23C265.44 292.898 265.58 292.614 265.763 292.376C265.945 292.138 266.166 291.953 266.427 291.819C266.687 291.686 266.982 291.619 267.311 291.619C267.636 291.619 267.921 291.678 268.165 291.795C268.412 291.909 268.622 292.075 268.795 292.293L268.839 291.717H269.659V296.888C269.659 297.236 269.604 297.545 269.493 297.815C269.386 298.086 269.233 298.315 269.034 298.504C268.839 298.693 268.604 298.836 268.331 298.934C268.058 299.031 267.755 299.08 267.423 299.08C267.286 299.08 267.13 299.064 266.954 299.031C266.778 299.002 266.599 298.951 266.417 298.88C266.238 298.812 266.064 298.719 265.895 298.602C265.729 298.484 265.585 298.34 265.465 298.167L265.934 297.625C266.044 297.758 266.158 297.871 266.275 297.962C266.393 298.056 266.511 298.131 266.632 298.187C266.752 298.242 266.873 298.281 266.993 298.304C267.114 298.33 267.234 298.343 267.354 298.343C267.569 298.343 267.763 298.312 267.936 298.25C268.108 298.188 268.255 298.097 268.375 297.977C268.499 297.859 268.593 297.713 268.658 297.537C268.723 297.361 268.756 297.16 268.756 296.932V296.478C268.58 296.679 268.372 296.834 268.131 296.941C267.893 297.046 267.617 297.098 267.301 297.098C266.979 297.098 266.687 297.029 266.427 296.893C266.166 296.756 265.945 296.567 265.763 296.326C265.584 296.085 265.445 295.802 265.348 295.477C265.25 295.148 265.201 294.795 265.201 294.417V294.314ZM266.104 294.417C266.104 294.674 266.131 294.918 266.183 295.149C266.238 295.381 266.323 295.584 266.437 295.76C266.554 295.936 266.702 296.076 266.881 296.18C267.06 296.281 267.275 296.331 267.525 296.331C267.682 296.331 267.822 296.313 267.945 296.277C268.072 296.238 268.185 296.185 268.282 296.116C268.383 296.048 268.473 295.966 268.551 295.872C268.629 295.778 268.697 295.674 268.756 295.56V293.138C268.697 293.027 268.629 292.926 268.551 292.835C268.473 292.744 268.383 292.666 268.282 292.601C268.181 292.532 268.069 292.48 267.945 292.444C267.822 292.405 267.685 292.386 267.535 292.386C267.281 292.386 267.063 292.438 266.881 292.542C266.702 292.646 266.554 292.788 266.437 292.967C266.323 293.143 266.238 293.348 266.183 293.582C266.131 293.813 266.104 294.057 266.104 294.314V294.417ZM273.707 297.098C273.336 297.098 272.994 297.034 272.682 296.907C272.372 296.78 272.107 296.603 271.886 296.375C271.664 296.147 271.492 295.877 271.368 295.564C271.244 295.252 271.183 294.912 271.183 294.544V294.339C271.183 293.912 271.251 293.532 271.388 293.196C271.524 292.858 271.705 292.573 271.93 292.342C272.158 292.107 272.415 291.928 272.701 291.805C272.991 291.681 273.287 291.619 273.59 291.619C273.971 291.619 274.303 291.686 274.586 291.819C274.872 291.95 275.11 292.132 275.299 292.366C275.488 292.597 275.628 292.871 275.719 293.187C275.813 293.502 275.86 293.844 275.86 294.212V294.617H272.086C272.096 294.858 272.141 295.084 272.223 295.296C272.307 295.507 272.421 295.693 272.564 295.853C272.711 296.009 272.885 296.132 273.087 296.224C273.289 296.315 273.512 296.36 273.756 296.36C274.078 296.36 274.365 296.295 274.615 296.165C274.866 296.035 275.074 295.862 275.24 295.647L275.792 296.077C275.704 296.211 275.593 296.339 275.46 296.463C275.33 296.583 275.178 296.691 275.006 296.785C274.833 296.88 274.638 296.954 274.42 297.01C274.202 297.068 273.964 297.098 273.707 297.098ZM273.59 292.361C273.408 292.361 273.235 292.396 273.072 292.464C272.91 292.529 272.763 292.627 272.633 292.757C272.503 292.884 272.392 293.042 272.301 293.23C272.213 293.416 272.151 293.631 272.115 293.875H274.957V293.807C274.947 293.631 274.913 293.457 274.854 293.284C274.799 293.112 274.716 292.957 274.605 292.82C274.495 292.684 274.355 292.573 274.186 292.488C274.02 292.404 273.821 292.361 273.59 292.361Z" fill="black"/>
<path d="M429.058 294.31C429.058 293.929 429.113 293.576 429.224 293.25C429.334 292.921 429.492 292.636 429.697 292.396C429.906 292.155 430.158 291.966 430.454 291.829C430.75 291.689 431.084 291.619 431.455 291.619C431.829 291.619 432.165 291.689 432.461 291.829C432.76 291.966 433.013 292.155 433.218 292.396C433.426 292.636 433.586 292.921 433.696 293.25C433.807 293.576 433.862 293.929 433.862 294.31V294.417C433.862 294.798 433.807 295.151 433.696 295.477C433.586 295.802 433.426 296.085 433.218 296.326C433.013 296.567 432.762 296.756 432.466 296.893C432.17 297.029 431.836 297.098 431.465 297.098C431.09 297.098 430.754 297.029 430.454 296.893C430.158 296.756 429.906 296.567 429.697 296.326C429.492 296.085 429.334 295.802 429.224 295.477C429.113 295.151 429.058 294.798 429.058 294.417V294.31ZM429.961 294.417C429.961 294.677 429.992 294.926 430.054 295.164C430.116 295.398 430.208 295.605 430.332 295.784C430.459 295.963 430.617 296.105 430.806 296.209C430.994 296.313 431.214 296.365 431.465 296.365C431.712 296.365 431.929 296.313 432.114 296.209C432.303 296.105 432.459 295.963 432.583 295.784C432.71 295.605 432.804 295.398 432.866 295.164C432.928 294.926 432.959 294.677 432.959 294.417V294.31C432.959 294.052 432.926 293.807 432.861 293.572C432.799 293.335 432.705 293.126 432.578 292.947C432.454 292.768 432.298 292.627 432.109 292.522C431.924 292.415 431.706 292.361 431.455 292.361C431.204 292.361 430.986 292.415 430.801 292.522C430.615 292.627 430.459 292.768 430.332 292.947C430.208 293.126 430.116 293.335 430.054 293.572C429.992 293.807 429.961 294.052 429.961 294.31V294.417ZM438.745 296.272C438.569 296.533 438.35 296.736 438.086 296.883C437.822 297.026 437.518 297.098 437.173 297.098C436.896 297.098 436.646 297.055 436.421 296.971C436.196 296.883 436.004 296.748 435.845 296.565C435.685 296.383 435.562 296.152 435.474 295.872C435.389 295.589 435.347 295.25 435.347 294.856V291.717H436.25V294.866C436.25 295.153 436.273 295.39 436.318 295.579C436.364 295.768 436.432 295.919 436.523 296.033C436.615 296.144 436.725 296.222 436.855 296.268C436.989 296.313 437.142 296.336 437.314 296.336C437.682 296.336 437.979 296.261 438.203 296.111C438.431 295.962 438.6 295.76 438.711 295.506V291.717H439.619V297H438.799L438.745 296.272ZM443.462 290.438V291.717H445.474V292.415H443.462V295.286C443.462 295.491 443.488 295.66 443.54 295.794C443.592 295.927 443.664 296.035 443.755 296.116C443.846 296.194 443.95 296.25 444.067 296.282C444.188 296.315 444.315 296.331 444.448 296.331C444.546 296.331 444.647 296.326 444.751 296.316C444.855 296.303 444.956 296.289 445.054 296.272C445.155 296.256 445.247 296.24 445.332 296.224C445.42 296.204 445.492 296.188 445.547 296.175L445.674 296.814C445.599 296.86 445.508 296.901 445.4 296.937C445.293 296.969 445.176 296.997 445.049 297.02C444.922 297.046 444.787 297.065 444.644 297.078C444.504 297.091 444.364 297.098 444.224 297.098C443.989 297.098 443.77 297.065 443.564 297C443.363 296.932 443.187 296.826 443.037 296.683C442.887 296.536 442.769 296.349 442.681 296.121C442.596 295.89 442.554 295.612 442.554 295.286V292.415H441.167V291.717H442.554V290.438H443.462ZM451.787 294.417C451.787 294.795 451.742 295.148 451.65 295.477C451.559 295.802 451.426 296.085 451.25 296.326C451.074 296.567 450.856 296.756 450.596 296.893C450.339 297.029 450.044 297.098 449.712 297.098C449.39 297.098 449.105 297.046 448.857 296.941C448.613 296.837 448.403 296.688 448.228 296.492V299.031H447.324V291.717H448.149L448.193 292.293C448.369 292.075 448.581 291.909 448.828 291.795C449.079 291.678 449.368 291.619 449.697 291.619C450.036 291.619 450.335 291.686 450.596 291.819C450.856 291.953 451.074 292.138 451.25 292.376C451.426 292.614 451.559 292.898 451.65 293.23C451.742 293.559 451.787 293.921 451.787 294.314V294.417ZM450.884 294.314C450.884 294.057 450.854 293.813 450.796 293.582C450.741 293.348 450.653 293.143 450.532 292.967C450.415 292.788 450.265 292.646 450.083 292.542C449.901 292.438 449.683 292.386 449.429 292.386C449.139 292.386 448.895 292.454 448.696 292.591C448.501 292.724 448.345 292.897 448.228 293.108V295.652C448.345 295.861 448.501 296.032 448.696 296.165C448.892 296.295 449.139 296.36 449.438 296.36C449.689 296.36 449.906 296.308 450.088 296.204C450.27 296.097 450.42 295.953 450.537 295.774C450.654 295.595 450.741 295.389 450.796 295.154C450.854 294.92 450.884 294.674 450.884 294.417V294.314ZM456.763 296.272C456.587 296.533 456.367 296.736 456.104 296.883C455.84 297.026 455.535 297.098 455.19 297.098C454.914 297.098 454.663 297.055 454.438 296.971C454.214 296.883 454.022 296.748 453.862 296.565C453.703 296.383 453.579 296.152 453.491 295.872C453.407 295.589 453.364 295.25 453.364 294.856V291.717H454.268V294.866C454.268 295.153 454.29 295.39 454.336 295.579C454.382 295.768 454.45 295.919 454.541 296.033C454.632 296.144 454.743 296.222 454.873 296.268C455.007 296.313 455.16 296.336 455.332 296.336C455.7 296.336 455.996 296.261 456.221 296.111C456.449 295.962 456.618 295.76 456.729 295.506V291.717H457.637V297H456.816L456.763 296.272ZM461.479 290.438V291.717H463.491V292.415H461.479V295.286C461.479 295.491 461.506 295.66 461.558 295.794C461.61 295.927 461.681 296.035 461.772 296.116C461.864 296.194 461.968 296.25 462.085 296.282C462.205 296.315 462.332 296.331 462.466 296.331C462.563 296.331 462.664 296.326 462.769 296.316C462.873 296.303 462.974 296.289 463.071 296.272C463.172 296.256 463.265 296.24 463.35 296.224C463.438 296.204 463.509 296.188 463.564 296.175L463.691 296.814C463.617 296.86 463.525 296.901 463.418 296.937C463.311 296.969 463.193 296.997 463.066 297.02C462.939 297.046 462.804 297.065 462.661 297.078C462.521 297.091 462.381 297.098 462.241 297.098C462.007 297.098 461.787 297.065 461.582 297C461.38 296.932 461.204 296.826 461.055 296.683C460.905 296.536 460.786 296.349 460.698 296.121C460.614 295.89 460.571 295.612 460.571 295.286V292.415H459.185V291.717H460.571V290.438H461.479ZM473.423 295.701L473.506 296.028L473.594 295.701L475.073 291.717H475.996L473.843 297H473.154L470.981 291.717H471.909L473.423 295.701ZM479.692 297.098C479.321 297.098 478.979 297.034 478.667 296.907C478.358 296.78 478.092 296.603 477.871 296.375C477.65 296.147 477.477 295.877 477.354 295.564C477.23 295.252 477.168 294.912 477.168 294.544V294.339C477.168 293.912 477.236 293.532 477.373 293.196C477.51 292.858 477.69 292.573 477.915 292.342C478.143 292.107 478.4 291.928 478.687 291.805C478.976 291.681 479.272 291.619 479.575 291.619C479.956 291.619 480.288 291.686 480.571 291.819C480.858 291.95 481.095 292.132 481.284 292.366C481.473 292.597 481.613 292.871 481.704 293.187C481.799 293.502 481.846 293.844 481.846 294.212V294.617H478.071C478.081 294.858 478.127 295.084 478.208 295.296C478.293 295.507 478.407 295.693 478.55 295.853C478.696 296.009 478.87 296.132 479.072 296.224C479.274 296.315 479.497 296.36 479.741 296.36C480.063 296.36 480.35 296.295 480.601 296.165C480.851 296.035 481.06 295.862 481.226 295.647L481.777 296.077C481.689 296.211 481.579 296.339 481.445 296.463C481.315 296.583 481.164 296.691 480.991 296.785C480.819 296.88 480.623 296.954 480.405 297.01C480.187 297.068 479.95 297.098 479.692 297.098ZM479.575 292.361C479.393 292.361 479.22 292.396 479.058 292.464C478.895 292.529 478.748 292.627 478.618 292.757C478.488 292.884 478.377 293.042 478.286 293.23C478.198 293.416 478.136 293.631 478.101 293.875H480.942V293.807C480.933 293.631 480.898 293.457 480.84 293.284C480.785 293.112 480.701 292.957 480.591 292.82C480.48 292.684 480.34 292.573 480.171 292.488C480.005 292.404 479.806 292.361 479.575 292.361ZM486.826 291.619C486.911 291.619 486.999 291.622 487.09 291.629C487.181 291.632 487.267 291.64 487.349 291.653C487.433 291.663 487.51 291.676 487.578 291.692C487.65 291.709 487.708 291.727 487.754 291.746L487.632 292.63C487.456 292.591 487.288 292.563 487.129 292.547C486.973 292.527 486.808 292.518 486.636 292.518C486.213 292.518 485.869 292.614 485.605 292.806C485.345 292.998 485.153 293.266 485.029 293.611V297H484.121V291.717H484.98L485.024 292.557C485.239 292.267 485.496 292.039 485.796 291.873C486.099 291.704 486.442 291.619 486.826 291.619ZM491.509 290.438V291.717H493.521V292.415H491.509V295.286C491.509 295.491 491.535 295.66 491.587 295.794C491.639 295.927 491.711 296.035 491.802 296.116C491.893 296.194 491.997 296.25 492.114 296.282C492.235 296.315 492.362 296.331 492.495 296.331C492.593 296.331 492.694 296.326 492.798 296.316C492.902 296.303 493.003 296.289 493.101 296.272C493.201 296.256 493.294 296.24 493.379 296.224C493.467 296.204 493.538 296.188 493.594 296.175L493.721 296.814C493.646 296.86 493.555 296.901 493.447 296.937C493.34 296.969 493.223 296.997 493.096 297.02C492.969 297.046 492.834 297.065 492.69 297.078C492.55 297.091 492.41 297.098 492.271 297.098C492.036 297.098 491.816 297.065 491.611 297C491.41 296.932 491.234 296.826 491.084 296.683C490.934 296.536 490.815 296.349 490.728 296.121C490.643 295.89 490.601 295.612 490.601 295.286V292.415H489.214V291.717H490.601V290.438H491.509ZM497.71 297.098C497.339 297.098 496.997 297.034 496.685 296.907C496.375 296.78 496.11 296.603 495.889 296.375C495.667 296.147 495.495 295.877 495.371 295.564C495.247 295.252 495.186 294.912 495.186 294.544V294.339C495.186 293.912 495.254 293.532 495.391 293.196C495.527 292.858 495.708 292.573 495.933 292.342C496.16 292.107 496.418 291.928 496.704 291.805C496.994 291.681 497.29 291.619 497.593 291.619C497.974 291.619 498.306 291.686 498.589 291.819C498.875 291.95 499.113 292.132 499.302 292.366C499.491 292.597 499.631 292.871 499.722 293.187C499.816 293.502 499.863 293.844 499.863 294.212V294.617H496.089C496.099 294.858 496.144 295.084 496.226 295.296C496.31 295.507 496.424 295.693 496.567 295.853C496.714 296.009 496.888 296.132 497.09 296.224C497.292 296.315 497.515 296.36 497.759 296.36C498.081 296.36 498.368 296.295 498.618 296.165C498.869 296.035 499.077 295.862 499.243 295.647L499.795 296.077C499.707 296.211 499.596 296.339 499.463 296.463C499.333 296.583 499.181 296.691 499.009 296.785C498.836 296.88 498.641 296.954 498.423 297.01C498.205 297.068 497.967 297.098 497.71 297.098ZM497.593 292.361C497.41 292.361 497.238 292.396 497.075 292.464C496.912 292.529 496.766 292.627 496.636 292.757C496.506 292.884 496.395 293.042 496.304 293.23C496.216 293.416 496.154 293.631 496.118 293.875H498.96V293.807C498.95 293.631 498.916 293.457 498.857 293.284C498.802 293.112 498.719 292.957 498.608 292.82C498.498 292.684 498.358 292.573 498.188 292.488C498.022 292.404 497.824 292.361 497.593 292.361ZM503.564 293.675L504.976 291.717H506.035L504.067 294.329L506.089 297H505.044L503.584 294.988L502.124 297H501.069L503.091 294.329L501.123 291.717H502.168L503.564 293.675Z" fill="black"/>
<path d="M558.822 295.599C558.822 295.491 558.801 295.395 558.759 295.311C558.716 295.223 558.645 295.143 558.544 295.071C558.443 295 558.31 294.935 558.144 294.876C557.978 294.814 557.771 294.759 557.523 294.71C557.221 294.648 556.944 294.573 556.693 294.485C556.446 294.397 556.233 294.293 556.054 294.173C555.878 294.049 555.741 293.906 555.644 293.743C555.546 293.577 555.497 293.385 555.497 293.167C555.497 292.952 555.548 292.752 555.648 292.566C555.749 292.378 555.891 292.213 556.073 292.073C556.256 291.933 556.472 291.823 556.723 291.741C556.977 291.66 557.255 291.619 557.558 291.619C557.883 291.619 558.176 291.661 558.437 291.746C558.697 291.831 558.918 291.948 559.101 292.098C559.283 292.247 559.423 292.423 559.521 292.625C559.621 292.824 559.672 293.038 559.672 293.27H558.769C558.769 293.156 558.739 293.045 558.681 292.938C558.622 292.827 558.541 292.729 558.437 292.645C558.332 292.56 558.205 292.492 558.056 292.439C557.909 292.387 557.743 292.361 557.558 292.361C557.366 292.361 557.196 292.382 557.05 292.425C556.907 292.467 556.786 292.524 556.688 292.596C556.594 292.667 556.522 292.75 556.474 292.845C556.425 292.939 556.4 293.037 556.4 293.138C556.4 293.242 556.42 293.335 556.459 293.416C556.498 293.497 556.565 293.571 556.659 293.636C556.757 293.701 556.885 293.759 557.045 293.812C557.208 293.864 557.413 293.914 557.66 293.963C557.986 294.031 558.277 294.111 558.534 294.202C558.791 294.29 559.008 294.397 559.184 294.524C559.359 294.648 559.493 294.793 559.584 294.959C559.678 295.125 559.726 295.317 559.726 295.535C559.726 295.77 559.672 295.983 559.564 296.175C559.46 296.367 559.314 296.531 559.125 296.668C558.936 296.805 558.71 296.91 558.446 296.985C558.183 297.06 557.895 297.098 557.582 297.098C557.224 297.098 556.905 297.05 556.625 296.956C556.345 296.858 556.107 296.731 555.912 296.575C555.72 296.416 555.572 296.232 555.468 296.023C555.367 295.815 555.316 295.599 555.316 295.374H556.22C556.233 295.56 556.282 295.716 556.366 295.843C556.454 295.97 556.562 296.072 556.688 296.15C556.819 296.229 556.962 296.284 557.118 296.316C557.274 296.349 557.429 296.365 557.582 296.365C557.963 296.365 558.264 296.295 558.485 296.155C558.707 296.015 558.819 295.83 558.822 295.599ZM561.459 291.717H564.159V296.219H565.883V297H561.459V296.219H563.256V292.503H561.459V291.717ZM563.139 290.33C563.139 290.18 563.183 290.055 563.271 289.954C563.362 289.85 563.498 289.798 563.681 289.798C563.86 289.798 563.995 289.85 564.086 289.954C564.177 290.055 564.223 290.18 564.223 290.33C564.223 290.477 564.177 290.599 564.086 290.696C563.995 290.794 563.86 290.843 563.681 290.843C563.498 290.843 563.362 290.794 563.271 290.696C563.183 290.599 563.139 290.477 563.139 290.33ZM567.738 291.717L567.763 292.215C567.87 292.029 568.01 291.884 568.183 291.78C568.358 291.676 568.57 291.622 568.817 291.619C569.302 291.619 569.626 291.808 569.789 292.186C569.893 292.016 570.03 291.881 570.199 291.78C570.372 291.676 570.58 291.622 570.824 291.619C571.212 291.619 571.509 291.738 571.718 291.976C571.926 292.213 572.03 292.573 572.03 293.055V297H571.171V293.045C571.171 292.602 570.967 292.382 570.561 292.386C570.453 292.386 570.36 292.4 570.282 292.43C570.204 292.459 570.139 292.5 570.087 292.552C570.035 292.601 569.994 292.659 569.965 292.728C569.936 292.793 569.916 292.861 569.906 292.933V297H569.047V293.04C569.047 292.828 569 292.666 568.905 292.552C568.811 292.438 568.661 292.382 568.456 292.386C568.267 292.386 568.121 292.423 568.017 292.498C567.912 292.573 567.836 292.672 567.787 292.796V297H566.928V291.717H567.738ZM577.787 294.417C577.787 294.795 577.742 295.148 577.65 295.477C577.559 295.802 577.426 296.085 577.25 296.326C577.074 296.567 576.856 296.756 576.596 296.893C576.339 297.029 576.044 297.098 575.712 297.098C575.39 297.098 575.105 297.046 574.857 296.941C574.613 296.837 574.403 296.688 574.228 296.492V299.031H573.324V291.717H574.149L574.193 292.293C574.369 292.075 574.581 291.909 574.828 291.795C575.079 291.678 575.368 291.619 575.697 291.619C576.036 291.619 576.335 291.686 576.596 291.819C576.856 291.953 577.074 292.138 577.25 292.376C577.426 292.614 577.559 292.898 577.65 293.23C577.742 293.559 577.787 293.921 577.787 294.314V294.417ZM576.884 294.314C576.884 294.057 576.854 293.813 576.796 293.582C576.741 293.348 576.653 293.143 576.532 292.967C576.415 292.788 576.265 292.646 576.083 292.542C575.901 292.438 575.683 292.386 575.429 292.386C575.139 292.386 574.895 292.454 574.696 292.591C574.501 292.724 574.345 292.897 574.228 293.108V295.652C574.345 295.861 574.501 296.032 574.696 296.165C574.892 296.295 575.139 296.36 575.438 296.36C575.689 296.36 575.906 296.308 576.088 296.204C576.27 296.097 576.42 295.953 576.537 295.774C576.654 295.595 576.741 295.389 576.796 295.154C576.854 294.92 576.884 294.674 576.884 294.417V294.314ZM579.477 289.5H582.177V296.219H583.9V297H579.477V296.219H581.273V290.286H579.477V289.5ZM587.675 297.098C587.304 297.098 586.962 297.034 586.649 296.907C586.34 296.78 586.075 296.603 585.854 296.375C585.632 296.147 585.46 295.877 585.336 295.564C585.212 295.252 585.15 294.912 585.15 294.544V294.339C585.15 293.912 585.219 293.532 585.355 293.196C585.492 292.858 585.673 292.573 585.897 292.342C586.125 292.107 586.382 291.928 586.669 291.805C586.959 291.681 587.255 291.619 587.558 291.619C587.938 291.619 588.271 291.686 588.554 291.819C588.84 291.95 589.078 292.132 589.267 292.366C589.455 292.597 589.595 292.871 589.687 293.187C589.781 293.502 589.828 293.844 589.828 294.212V294.617H586.054C586.063 294.858 586.109 295.084 586.19 295.296C586.275 295.507 586.389 295.693 586.532 295.853C586.679 296.009 586.853 296.132 587.055 296.224C587.257 296.315 587.479 296.36 587.724 296.36C588.046 296.36 588.332 296.295 588.583 296.165C588.834 296.035 589.042 295.862 589.208 295.647L589.76 296.077C589.672 296.211 589.561 296.339 589.428 296.463C589.298 296.583 589.146 296.691 588.974 296.785C588.801 296.88 588.606 296.954 588.388 297.01C588.17 297.068 587.932 297.098 587.675 297.098ZM587.558 292.361C587.375 292.361 587.203 292.396 587.04 292.464C586.877 292.529 586.731 292.627 586.601 292.757C586.47 292.884 586.36 293.042 586.269 293.23C586.181 293.416 586.119 293.631 586.083 293.875H588.925V293.807C588.915 293.631 588.881 293.457 588.822 293.284C588.767 293.112 588.684 292.957 588.573 292.82C588.463 292.684 588.323 292.573 588.153 292.488C587.987 292.404 587.789 292.361 587.558 292.361ZM599.423 295.701L599.506 296.028L599.594 295.701L601.073 291.717H601.996L599.843 297H599.154L596.981 291.717H597.909L599.423 295.701ZM605.692 297.098C605.321 297.098 604.979 297.034 604.667 296.907C604.358 296.78 604.092 296.603 603.871 296.375C603.65 296.147 603.477 295.877 603.354 295.564C603.23 295.252 603.168 294.912 603.168 294.544V294.339C603.168 293.912 603.236 293.532 603.373 293.196C603.51 292.858 603.69 292.573 603.915 292.342C604.143 292.107 604.4 291.928 604.687 291.805C604.976 291.681 605.272 291.619 605.575 291.619C605.956 291.619 606.288 291.686 606.571 291.819C606.858 291.95 607.095 292.132 607.284 292.366C607.473 292.597 607.613 292.871 607.704 293.187C607.799 293.502 607.846 293.844 607.846 294.212V294.617H604.071C604.081 294.858 604.127 295.084 604.208 295.296C604.293 295.507 604.407 295.693 604.55 295.853C604.696 296.009 604.87 296.132 605.072 296.224C605.274 296.315 605.497 296.36 605.741 296.36C606.063 296.36 606.35 296.295 606.601 296.165C606.851 296.035 607.06 295.862 607.226 295.647L607.777 296.077C607.689 296.211 607.579 296.339 607.445 296.463C607.315 296.583 607.164 296.691 606.991 296.785C606.819 296.88 606.623 296.954 606.405 297.01C606.187 297.068 605.95 297.098 605.692 297.098ZM605.575 292.361C605.393 292.361 605.22 292.396 605.058 292.464C604.895 292.529 604.748 292.627 604.618 292.757C604.488 292.884 604.377 293.042 604.286 293.23C604.198 293.416 604.136 293.631 604.101 293.875H606.942V293.807C606.933 293.631 606.898 293.457 606.84 293.284C606.785 293.112 606.701 292.957 606.591 292.82C606.48 292.684 606.34 292.573 606.171 292.488C606.005 292.404 605.806 292.361 605.575 292.361ZM612.826 291.619C612.911 291.619 612.999 291.622 613.09 291.629C613.181 291.632 613.267 291.64 613.349 291.653C613.433 291.663 613.51 291.676 613.578 291.692C613.65 291.709 613.708 291.727 613.754 291.746L613.632 292.63C613.456 292.591 613.288 292.563 613.129 292.547C612.973 292.527 612.808 292.518 612.636 292.518C612.213 292.518 611.869 292.614 611.605 292.806C611.345 292.998 611.153 293.266 611.029 293.611V297H610.121V291.717H610.98L611.024 292.557C611.239 292.267 611.496 292.039 611.796 291.873C612.099 291.704 612.442 291.619 612.826 291.619ZM617.509 290.438V291.717H619.521V292.415H617.509V295.286C617.509 295.491 617.535 295.66 617.587 295.794C617.639 295.927 617.711 296.035 617.802 296.116C617.893 296.194 617.997 296.25 618.114 296.282C618.235 296.315 618.362 296.331 618.495 296.331C618.593 296.331 618.694 296.326 618.798 296.316C618.902 296.303 619.003 296.289 619.101 296.272C619.201 296.256 619.294 296.24 619.379 296.224C619.467 296.204 619.538 296.188 619.594 296.175L619.721 296.814C619.646 296.86 619.555 296.901 619.447 296.937C619.34 296.969 619.223 296.997 619.096 297.02C618.969 297.046 618.834 297.065 618.69 297.078C618.55 297.091 618.41 297.098 618.271 297.098C618.036 297.098 617.816 297.065 617.611 297C617.41 296.932 617.234 296.826 617.084 296.683C616.934 296.536 616.815 296.349 616.728 296.121C616.643 295.89 616.601 295.612 616.601 295.286V292.415H615.214V291.717H616.601V290.438H617.509ZM623.71 297.098C623.339 297.098 622.997 297.034 622.685 296.907C622.375 296.78 622.11 296.603 621.889 296.375C621.667 296.147 621.495 295.877 621.371 295.564C621.247 295.252 621.186 294.912 621.186 294.544V294.339C621.186 293.912 621.254 293.532 621.391 293.196C621.527 292.858 621.708 292.573 621.933 292.342C622.16 292.107 622.418 291.928 622.704 291.805C622.994 291.681 623.29 291.619 623.593 291.619C623.974 291.619 624.306 291.686 624.589 291.819C624.875 291.95 625.113 292.132 625.302 292.366C625.491 292.597 625.631 292.871 625.722 293.187C625.816 293.502 625.863 293.844 625.863 294.212V294.617H622.089C622.099 294.858 622.144 295.084 622.226 295.296C622.31 295.507 622.424 295.693 622.567 295.853C622.714 296.009 622.888 296.132 623.09 296.224C623.292 296.315 623.515 296.36 623.759 296.36C624.081 296.36 624.368 296.295 624.618 296.165C624.869 296.035 625.077 295.862 625.243 295.647L625.795 296.077C625.707 296.211 625.596 296.339 625.463 296.463C625.333 296.583 625.181 296.691 625.009 296.785C624.836 296.88 624.641 296.954 624.423 297.01C624.205 297.068 623.967 297.098 623.71 297.098ZM623.593 292.361C623.41 292.361 623.238 292.396 623.075 292.464C622.912 292.529 622.766 292.627 622.636 292.757C622.506 292.884 622.395 293.042 622.304 293.23C622.216 293.416 622.154 293.631 622.118 293.875H624.96V293.807C624.95 293.631 624.916 293.457 624.857 293.284C624.802 293.112 624.719 292.957 624.608 292.82C624.498 292.684 624.358 292.573 624.188 292.488C624.022 292.404 623.824 292.361 623.593 292.361ZM629.564 293.675L630.976 291.717H632.035L630.067 294.329L632.089 297H631.044L629.584 294.988L628.124 297H627.069L629.091 294.329L627.123 291.717H628.168L629.564 293.675Z" fill="black"/>
<path d="M676.14 293.314C676.14 292.921 676.187 292.559 676.281 292.23C676.379 291.898 676.519 291.614 676.701 291.376C676.883 291.138 677.105 290.953 677.365 290.819C677.626 290.686 677.92 290.619 678.249 290.619C678.575 290.619 678.859 290.678 679.104 290.795C679.351 290.909 679.561 291.075 679.733 291.293L679.777 290.717H680.598V295.888C680.598 296.236 680.542 296.545 680.432 296.815C680.324 297.086 680.171 297.315 679.973 297.504C679.777 297.693 679.543 297.836 679.27 297.934C678.996 298.031 678.693 298.08 678.361 298.08C678.225 298.08 678.068 298.064 677.893 298.031C677.717 298.002 677.538 297.951 677.355 297.88C677.176 297.812 677.002 297.719 676.833 297.602C676.667 297.484 676.524 297.34 676.403 297.167L676.872 296.625C676.983 296.758 677.097 296.871 677.214 296.962C677.331 297.056 677.45 297.131 677.57 297.187C677.691 297.242 677.811 297.281 677.932 297.304C678.052 297.33 678.173 297.343 678.293 297.343C678.508 297.343 678.701 297.312 678.874 297.25C679.047 297.188 679.193 297.097 679.313 296.977C679.437 296.859 679.532 296.713 679.597 296.537C679.662 296.361 679.694 296.16 679.694 295.932V295.478C679.519 295.679 679.31 295.834 679.069 295.941C678.832 296.046 678.555 296.098 678.239 296.098C677.917 296.098 677.626 296.029 677.365 295.893C677.105 295.756 676.883 295.567 676.701 295.326C676.522 295.085 676.384 294.802 676.286 294.477C676.188 294.148 676.14 293.795 676.14 293.417V293.314ZM677.043 293.417C677.043 293.674 677.069 293.918 677.121 294.149C677.176 294.381 677.261 294.584 677.375 294.76C677.492 294.936 677.64 295.076 677.819 295.18C677.998 295.281 678.213 295.331 678.464 295.331C678.62 295.331 678.76 295.313 678.884 295.277C679.011 295.238 679.123 295.185 679.221 295.116C679.322 295.048 679.411 294.966 679.489 294.872C679.567 294.778 679.636 294.674 679.694 294.56V292.138C679.636 292.027 679.567 291.926 679.489 291.835C679.411 291.744 679.322 291.666 679.221 291.601C679.12 291.532 679.007 291.48 678.884 291.444C678.76 291.405 678.623 291.386 678.474 291.386C678.22 291.386 678.002 291.438 677.819 291.542C677.64 291.646 677.492 291.788 677.375 291.967C677.261 292.143 677.176 292.348 677.121 292.582C677.069 292.813 677.043 293.057 677.043 293.314V293.417ZM685.773 290.619C685.858 290.619 685.946 290.622 686.037 290.629C686.128 290.632 686.215 290.64 686.296 290.653C686.381 290.663 686.457 290.676 686.525 290.692C686.597 290.709 686.656 290.727 686.701 290.746L686.579 291.63C686.403 291.591 686.236 291.563 686.076 291.547C685.92 291.527 685.756 291.518 685.583 291.518C685.16 291.518 684.816 291.614 684.553 291.806C684.292 291.998 684.1 292.266 683.977 292.611V296H683.068V290.717H683.928L683.972 291.557C684.187 291.267 684.444 291.039 684.743 290.873C685.046 290.704 685.389 290.619 685.773 290.619ZM688.063 293.31C688.063 292.929 688.119 292.576 688.229 292.25C688.34 291.921 688.498 291.636 688.703 291.396C688.911 291.155 689.164 290.966 689.46 290.829C689.756 290.689 690.09 290.619 690.461 290.619C690.835 290.619 691.171 290.689 691.467 290.829C691.766 290.966 692.019 291.155 692.224 291.396C692.432 291.636 692.591 291.921 692.702 292.25C692.813 292.576 692.868 292.929 692.868 293.31V293.417C692.868 293.798 692.813 294.151 692.702 294.477C692.591 294.802 692.432 295.085 692.224 295.326C692.019 295.567 691.768 295.756 691.472 295.893C691.175 296.029 690.842 296.098 690.471 296.098C690.096 296.098 689.759 296.029 689.46 295.893C689.164 295.756 688.911 295.567 688.703 295.326C688.498 295.085 688.34 294.802 688.229 294.477C688.119 294.151 688.063 293.798 688.063 293.417V293.31ZM688.967 293.417C688.967 293.677 688.998 293.926 689.06 294.164C689.121 294.398 689.214 294.605 689.338 294.784C689.465 294.963 689.623 295.105 689.812 295.209C690 295.313 690.22 295.365 690.471 295.365C690.718 295.365 690.935 295.313 691.12 295.209C691.309 295.105 691.465 294.963 691.589 294.784C691.716 294.605 691.81 294.398 691.872 294.164C691.934 293.926 691.965 293.677 691.965 293.417V293.31C691.965 293.052 691.932 292.807 691.867 292.572C691.805 292.335 691.711 292.126 691.584 291.947C691.46 291.768 691.304 291.627 691.115 291.522C690.93 291.415 690.712 291.361 690.461 291.361C690.21 291.361 689.992 291.415 689.807 291.522C689.621 291.627 689.465 291.768 689.338 291.947C689.214 292.126 689.121 292.335 689.06 292.572C688.998 292.807 688.967 293.052 688.967 293.31V293.417ZM697.751 295.272C697.575 295.533 697.355 295.736 697.092 295.883C696.828 296.026 696.524 296.098 696.179 296.098C695.902 296.098 695.651 296.055 695.427 295.971C695.202 295.883 695.01 295.748 694.851 295.565C694.691 295.383 694.567 295.152 694.479 294.872C694.395 294.589 694.353 294.25 694.353 293.856V290.717H695.256V293.866C695.256 294.153 695.279 294.39 695.324 294.579C695.37 294.768 695.438 294.919 695.529 295.033C695.62 295.144 695.731 295.222 695.861 295.268C695.995 295.313 696.148 295.336 696.32 295.336C696.688 295.336 696.984 295.261 697.209 295.111C697.437 294.962 697.606 294.76 697.717 294.506V290.717H698.625V296H697.805L697.751 295.272ZM701.14 290.717L701.203 291.498C701.395 291.225 701.631 291.011 701.911 290.858C702.191 290.702 702.504 290.622 702.849 290.619C703.125 290.619 703.376 290.658 703.601 290.736C703.828 290.814 704.022 290.937 704.182 291.103C704.341 291.269 704.463 291.48 704.548 291.737C704.636 291.991 704.68 292.294 704.68 292.646V296H703.776V292.665C703.776 292.431 703.75 292.232 703.698 292.069C703.646 291.907 703.568 291.775 703.464 291.674C703.363 291.573 703.238 291.5 703.088 291.454C702.941 291.409 702.772 291.386 702.58 291.386C702.277 291.386 702.01 291.462 701.779 291.615C701.551 291.765 701.369 291.964 701.232 292.211V296H700.329V290.717H701.14ZM706.164 293.314C706.164 292.921 706.213 292.559 706.311 292.23C706.411 291.898 706.553 291.614 706.735 291.376C706.921 291.138 707.144 290.953 707.404 290.819C707.665 290.686 707.956 290.619 708.278 290.619C708.594 290.619 708.869 290.673 709.104 290.78C709.341 290.884 709.546 291.037 709.719 291.239V288.5H710.622V296H709.792L709.753 295.443C709.577 295.658 709.367 295.821 709.123 295.932C708.879 296.042 708.594 296.098 708.269 296.098C707.95 296.098 707.66 296.029 707.399 295.893C707.142 295.756 706.923 295.567 706.74 295.326C706.558 295.085 706.416 294.802 706.315 294.477C706.215 294.148 706.164 293.795 706.164 293.417V293.314ZM707.067 293.417C707.067 293.674 707.095 293.918 707.15 294.149C707.206 294.381 707.29 294.584 707.404 294.76C707.521 294.936 707.67 295.076 707.849 295.18C708.028 295.281 708.243 295.331 708.493 295.331C708.646 295.331 708.785 295.313 708.908 295.277C709.032 295.242 709.144 295.191 709.245 295.126C709.346 295.058 709.436 294.978 709.514 294.887C709.592 294.792 709.66 294.688 709.719 294.574V292.123C709.602 291.908 709.444 291.732 709.245 291.596C709.047 291.456 708.799 291.386 708.503 291.386C708.249 291.386 708.031 291.438 707.849 291.542C707.67 291.646 707.521 291.788 707.404 291.967C707.29 292.143 707.206 292.348 707.15 292.582C707.095 292.813 707.067 293.057 707.067 293.314V293.417ZM714.675 296.098C714.304 296.098 713.962 296.034 713.649 295.907C713.34 295.78 713.075 295.603 712.854 295.375C712.632 295.147 712.46 294.877 712.336 294.564C712.212 294.252 712.15 293.912 712.15 293.544V293.339C712.15 292.912 712.219 292.532 712.355 292.196C712.492 291.858 712.673 291.573 712.897 291.342C713.125 291.107 713.382 290.928 713.669 290.805C713.959 290.681 714.255 290.619 714.558 290.619C714.938 290.619 715.271 290.686 715.554 290.819C715.84 290.95 716.078 291.132 716.267 291.366C716.455 291.597 716.595 291.871 716.687 292.187C716.781 292.502 716.828 292.844 716.828 293.212V293.617H713.054C713.063 293.858 713.109 294.084 713.19 294.296C713.275 294.507 713.389 294.693 713.532 294.853C713.679 295.009 713.853 295.132 714.055 295.224C714.257 295.315 714.479 295.36 714.724 295.36C715.046 295.36 715.332 295.295 715.583 295.165C715.834 295.035 716.042 294.862 716.208 294.647L716.76 295.077C716.672 295.211 716.561 295.339 716.428 295.463C716.298 295.583 716.146 295.691 715.974 295.785C715.801 295.88 715.606 295.954 715.388 296.01C715.17 296.068 714.932 296.098 714.675 296.098ZM714.558 291.361C714.375 291.361 714.203 291.396 714.04 291.464C713.877 291.529 713.731 291.627 713.601 291.757C713.47 291.884 713.36 292.042 713.269 292.23C713.181 292.416 713.119 292.631 713.083 292.875H715.925V292.807C715.915 292.631 715.881 292.457 715.822 292.284C715.767 292.112 715.684 291.957 715.573 291.82C715.463 291.684 715.323 291.573 715.153 291.488C714.987 291.404 714.789 291.361 714.558 291.361ZM718.176 293.314C718.176 292.921 718.225 292.559 718.322 292.23C718.423 291.898 718.565 291.614 718.747 291.376C718.933 291.138 719.156 290.953 719.416 290.819C719.676 290.686 719.968 290.619 720.29 290.619C720.606 290.619 720.881 290.673 721.115 290.78C721.353 290.884 721.558 291.037 721.73 291.239V288.5H722.634V296H721.804L721.765 295.443C721.589 295.658 721.379 295.821 721.135 295.932C720.891 296.042 720.606 296.098 720.28 296.098C719.961 296.098 719.672 296.029 719.411 295.893C719.154 295.756 718.934 295.567 718.752 295.326C718.57 295.085 718.428 294.802 718.327 294.477C718.226 294.148 718.176 293.795 718.176 293.417V293.314ZM719.079 293.417C719.079 293.674 719.107 293.918 719.162 294.149C719.217 294.381 719.302 294.584 719.416 294.76C719.533 294.936 719.681 295.076 719.86 295.18C720.039 295.281 720.254 295.331 720.505 295.331C720.658 295.331 720.796 295.313 720.92 295.277C721.044 295.242 721.156 295.191 721.257 295.126C721.358 295.058 721.447 294.978 721.525 294.887C721.604 294.792 721.672 294.688 721.73 294.574V292.123C721.613 291.908 721.455 291.732 721.257 291.596C721.058 291.456 720.811 291.386 720.515 291.386C720.261 291.386 720.043 291.438 719.86 291.542C719.681 291.646 719.533 291.788 719.416 291.967C719.302 292.143 719.217 292.348 719.162 292.582C719.107 292.813 719.079 293.057 719.079 293.314V293.417ZM732.429 294.701L732.512 295.028L732.6 294.701L734.079 290.717H735.002L732.849 296H732.16L729.987 290.717H730.915L732.429 294.701ZM738.698 296.098C738.327 296.098 737.985 296.034 737.673 295.907C737.364 295.78 737.098 295.603 736.877 295.375C736.656 295.147 736.483 294.877 736.359 294.564C736.236 294.252 736.174 293.912 736.174 293.544V293.339C736.174 292.912 736.242 292.532 736.379 292.196C736.516 291.858 736.696 291.573 736.921 291.342C737.149 291.107 737.406 290.928 737.692 290.805C737.982 290.681 738.278 290.619 738.581 290.619C738.962 290.619 739.294 290.686 739.577 290.819C739.864 290.95 740.101 291.132 740.29 291.366C740.479 291.597 740.619 291.871 740.71 292.187C740.804 292.502 740.852 292.844 740.852 293.212V293.617H737.077C737.087 293.858 737.132 294.084 737.214 294.296C737.299 294.507 737.412 294.693 737.556 294.853C737.702 295.009 737.876 295.132 738.078 295.224C738.28 295.315 738.503 295.36 738.747 295.36C739.069 295.36 739.356 295.295 739.606 295.165C739.857 295.035 740.065 294.862 740.231 294.647L740.783 295.077C740.695 295.211 740.585 295.339 740.451 295.463C740.321 295.583 740.17 295.691 739.997 295.785C739.825 295.88 739.629 295.954 739.411 296.01C739.193 296.068 738.955 296.098 738.698 296.098ZM738.581 291.361C738.399 291.361 738.226 291.396 738.063 291.464C737.901 291.529 737.754 291.627 737.624 291.757C737.494 291.884 737.383 292.042 737.292 292.23C737.204 292.416 737.142 292.631 737.106 292.875H739.948V292.807C739.938 292.631 739.904 292.457 739.846 292.284C739.79 292.112 739.707 291.957 739.597 291.82C739.486 291.684 739.346 291.573 739.177 291.488C739.011 291.404 738.812 291.361 738.581 291.361ZM745.832 290.619C745.917 290.619 746.005 290.622 746.096 290.629C746.187 290.632 746.273 290.64 746.354 290.653C746.439 290.663 746.516 290.676 746.584 290.692C746.656 290.709 746.714 290.727 746.76 290.746L746.638 291.63C746.462 291.591 746.294 291.563 746.135 291.547C745.979 291.527 745.814 291.518 745.642 291.518C745.218 291.518 744.875 291.614 744.611 291.806C744.351 291.998 744.159 292.266 744.035 292.611V296H743.127V290.717H743.986L744.03 291.557C744.245 291.267 744.502 291.039 744.802 290.873C745.104 290.704 745.448 290.619 745.832 290.619ZM750.515 289.438V290.717H752.526V291.415H750.515V294.286C750.515 294.491 750.541 294.66 750.593 294.794C750.645 294.927 750.716 295.035 750.808 295.116C750.899 295.194 751.003 295.25 751.12 295.282C751.241 295.315 751.368 295.331 751.501 295.331C751.599 295.331 751.7 295.326 751.804 295.316C751.908 295.303 752.009 295.289 752.106 295.272C752.207 295.256 752.3 295.24 752.385 295.224C752.473 295.204 752.544 295.188 752.6 295.175L752.727 295.814C752.652 295.86 752.561 295.901 752.453 295.937C752.346 295.969 752.229 295.997 752.102 296.02C751.975 296.046 751.84 296.065 751.696 296.078C751.556 296.091 751.416 296.098 751.276 296.098C751.042 296.098 750.822 296.065 750.617 296C750.415 295.932 750.24 295.826 750.09 295.683C749.94 295.536 749.821 295.349 749.733 295.121C749.649 294.89 749.606 294.612 749.606 294.286V291.415H748.22V290.717H749.606V289.438H750.515ZM756.716 296.098C756.345 296.098 756.003 296.034 755.69 295.907C755.381 295.78 755.116 295.603 754.895 295.375C754.673 295.147 754.501 294.877 754.377 294.564C754.253 294.252 754.191 293.912 754.191 293.544V293.339C754.191 292.912 754.26 292.532 754.396 292.196C754.533 291.858 754.714 291.573 754.938 291.342C755.166 291.107 755.424 290.928 755.71 290.805C756 290.681 756.296 290.619 756.599 290.619C756.979 290.619 757.312 290.686 757.595 290.819C757.881 290.95 758.119 291.132 758.308 291.366C758.496 291.597 758.636 291.871 758.728 292.187C758.822 292.502 758.869 292.844 758.869 293.212V293.617H755.095C755.104 293.858 755.15 294.084 755.231 294.296C755.316 294.507 755.43 294.693 755.573 294.853C755.72 295.009 755.894 295.132 756.096 295.224C756.298 295.315 756.521 295.36 756.765 295.36C757.087 295.36 757.373 295.295 757.624 295.165C757.875 295.035 758.083 294.862 758.249 294.647L758.801 295.077C758.713 295.211 758.602 295.339 758.469 295.463C758.339 295.583 758.187 295.691 758.015 295.785C757.842 295.88 757.647 295.954 757.429 296.01C757.211 296.068 756.973 296.098 756.716 296.098ZM756.599 291.361C756.416 291.361 756.244 291.396 756.081 291.464C755.918 291.529 755.772 291.627 755.642 291.757C755.511 291.884 755.401 292.042 755.31 292.23C755.222 292.416 755.16 292.631 755.124 292.875H757.966V292.807C757.956 292.631 757.922 292.457 757.863 292.284C757.808 292.112 757.725 291.957 757.614 291.82C757.504 291.684 757.364 291.573 757.194 291.488C757.028 291.404 756.83 291.361 756.599 291.361ZM762.57 292.675L763.981 290.717H765.041L763.073 293.329L765.095 296H764.05L762.59 293.988L761.13 296H760.075L762.097 293.329L760.129 290.717H761.174L762.57 292.675Z" fill="black"/>
<line x1="172.707" y1="166.69" x2="132.707" y2="206.69" stroke="#2196F3" stroke-width="2"/>
<line x1="608.707" y1="185.69" x2="568.707" y2="225.69" stroke="#2196F3" stroke-width="2"/>
<line x1="232" y1="165.983" x2="232" y2="205.983" stroke="#C8C8C8" stroke-width="2"/>
<line x1="668" y1="184.983" x2="668" y2="224.983" stroke="#C8C8C8" stroke-width="2"/>
<line x1="568" y1="105" x2="568" y2="145" stroke="#C8C8C8" stroke-width="2"/>
<line x1="353" y1="165.983" x2="353" y2="205.983" stroke="#C8C8C8" stroke-width="2"/>
<line x1="789" y1="184.983" x2="789" y2="224.983" stroke="#C8C8C8" stroke-width="2"/>
<line x1="756" y1="105" x2="796" y2="105" stroke="#C8C8C8" stroke-width="2"/>
<line x1="178" y1="293.464" x2="206" y2="293.464" stroke="#7F7F7F" stroke-width="2"/>
<line x1="232" y1="166.983" x2="172" y2="166.983" stroke="#2196F3" stroke-width="2"/>
<line x1="668" y1="185.983" x2="608" y2="185.983" stroke="#2196F3" stroke-width="2"/>
<line x1="627" y1="106" x2="567" y2="106" stroke="#C8C8C8" stroke-width="2"/>
<line x1="292" y1="166.983" x2="232" y2="166.983" stroke="#2196F3" stroke-width="2"/>
<line x1="728" y1="185.983" x2="668" y2="185.983" stroke="#2196F3" stroke-width="2"/>
<line x1="687" y1="106" x2="627" y2="106" stroke="#C8C8C8" stroke-width="2"/>
<line x1="353" y1="166.983" x2="293" y2="166.983" stroke="#C8C8C8" stroke-width="2"/>
<line x1="789" y1="185.983" x2="729" y2="185.983" stroke="#C8C8C8" stroke-width="2"/>
<line x1="748" y1="106" x2="688" y2="106" stroke="#C8C8C8" stroke-width="2"/>
<line x1="568" y1="146" x2="508" y2="146" stroke="#C8C8C8" stroke-width="2"/>
<line x1="567" y1="105" x2="507" y2="105" stroke="#C8C8C8" stroke-width="2"/>
<line x1="171.293" y1="166.69" x2="131.293" y2="126.69" stroke="#C8C8C8" stroke-width="2"/>
<line x1="607.293" y1="185.69" x2="567.293" y2="145.69" stroke="#C8C8C8" stroke-width="2"/>
<line x1="291.983" y1="165.966" x2="292" y2="125.983" stroke="#2196F3" stroke-width="2"/>
<line x1="727.983" y1="184.966" x2="728" y2="144.983" stroke="#2196F3" stroke-width="2"/>
<circle cx="172" cy="165.983" r="7" fill="black" stroke="white" stroke-width="2"/>
<circle cx="608" cy="184.983" r="7" fill="black" stroke="white" stroke-width="2"/>
<circle cx="567" cy="105" r="7" fill="black" stroke="white" stroke-width="2"/>
<circle cx="568" cy="145" r="7" fill="black" stroke="white" stroke-width="2"/>
<circle cx="132" cy="205.983" r="5.5" fill="white" stroke="black"/>
<circle cx="568" cy="224.983" r="5.5" fill="white" stroke="black"/>
<circle cx="415" cy="294" r="5.5" fill="white" stroke="black"/>
<circle cx="232" cy="165.983" r="7" fill="black" stroke="white" stroke-width="2"/>
<circle cx="668" cy="184.983" r="7" fill="black" stroke="white" stroke-width="2"/>
<circle cx="627" cy="105" r="7" fill="black" stroke="white" stroke-width="2"/>
<circle cx="292" cy="165.983" r="7" fill="black" stroke="white" stroke-width="2"/>
<circle cx="728" cy="184.983" r="7" fill="black" stroke="white" stroke-width="2"/>
<circle cx="687" cy="105" r="7" fill="black" stroke="white" stroke-width="2"/>
<circle cx="353" cy="165.983" r="7" fill="black" stroke="white" stroke-width="2"/>
<circle cx="789" cy="184.983" r="7" fill="black" stroke="white" stroke-width="2"/>
<circle cx="748" cy="105" r="7" fill="black" stroke="white" stroke-width="2"/>
<circle cx="535" cy="294" r="7" fill="black" stroke="white" stroke-width="2"/>
<path d="M148.853 186.059L153.803 190.906L147.13 192.77L148.853 186.059Z" fill="black"/>
<path d="M584.853 205.059L589.803 209.906L583.13 211.77L584.853 205.059Z" fill="black"/>
<path d="M151.343 141.259L152.712 148.051L146.146 145.841L151.343 141.259Z" fill="black"/>
<path d="M587.343 160.259L588.712 167.051L582.146 164.841L587.343 160.259Z" fill="black"/>
<path d="M533.025 142.628L539.067 146.018L533.11 149.555L533.025 142.628Z" fill="black"/>
<path d="M533.439 102.042L539.481 105.433L533.524 108.97L533.439 102.042Z" fill="black"/>
<path d="M292.067 149.05L288.603 143.05H295.531L292.067 149.05Z" fill="black"/>
<path d="M728.067 168.05L724.603 162.05H731.531L728.067 168.05Z" fill="black"/>
<path d="M231.464 190.447L228 184.447H234.928L231.464 190.447Z" fill="black"/>
<path d="M667.464 209.447L664 203.447H670.928L667.464 209.447Z" fill="black"/>
<path d="M355.928 184.447L352.464 190.447L349 184.447L355.928 184.447Z" fill="black"/>
<path d="M791.928 203.447L788.464 209.447L785 203.447L791.928 203.447Z" fill="black"/>
<path d="M774.464 102.072L780.464 105.536L774.464 109L774.464 102.072Z" fill="black"/>
<path d="M188.928 290L194.928 293.464L188.928 296.928L188.928 290Z" fill="black"/>
<path d="M131.422 128.548L126.49 126.913C125.394 126.55 125.102 125.137 125.964 124.369L129.846 120.914C130.708 120.147 132.079 120.601 132.312 121.732L133.363 126.82C133.596 127.951 132.518 128.911 131.422 128.548Z" fill="white" stroke="black"/>
<path d="M290.584 128.616L287.986 124.116C287.408 123.116 288.13 121.866 289.285 121.866L294.481 121.866C295.636 121.866 296.357 123.116 295.78 124.116L293.182 128.616C292.604 129.616 291.161 129.616 290.584 128.616Z" fill="white" stroke="black"/>
<path d="M726.584 147.616L723.986 143.116C723.408 142.116 724.13 140.866 725.285 140.866L730.481 140.866C731.636 140.866 732.357 142.116 731.78 143.116L729.182 147.616C728.604 148.616 727.161 148.616 726.584 147.616Z" fill="white" stroke="black"/>
<path d="M511.75 147.299L507.25 149.897C506.25 150.474 505 149.753 505 148.598L505 143.402C505 142.247 506.25 141.526 507.25 142.103L511.75 144.701C512.75 145.278 512.75 146.722 511.75 147.299Z" fill="white" stroke="black"/>
<path d="M510.75 106.299L506.25 108.897C505.25 109.474 504 108.753 504 107.598L504 102.402C504 101.247 505.25 100.526 506.25 101.103L510.75 103.701C511.75 104.278 511.75 105.722 510.75 106.299Z" fill="white" stroke="black"/>
<path d="M303.828 290.094L308.296 292.747C309.289 293.336 309.271 294.779 308.264 295.345L303.733 297.888C302.726 298.453 301.485 297.716 301.499 296.562L301.562 291.366C301.576 290.211 302.835 289.505 303.828 290.094Z" fill="white" stroke="black"/>
<path d="M119.165 211.983H117.81V203.048L115.019 204.11V202.872L119.055 201.319H119.165V211.983Z" fill="black"/>
<path d="M555.165 230.983H553.81V222.048L551.019 223.11V221.872L555.055 220.319H555.165V230.983Z" fill="black"/>
<path d="M118.073 123.501L120.373 119.319H121.97L118.872 124.607L122.043 129.983H120.461L118.103 125.72L115.737 129.983H114.133L117.312 124.607L114.213 119.319H115.803L118.073 123.501Z" fill="black"/>
<path d="M494.912 145.69L497.344 140.336H498.882L495.564 147.023L495.542 151H494.282L494.26 147.023L490.942 140.336H492.488L494.912 145.69Z" fill="black"/>
<path d="M494.073 103.518L496.373 99.3359H497.97L494.872 104.624L498.043 110H496.461L494.103 105.737L491.737 110H490.133L493.312 104.624L490.213 99.3359H491.803L494.073 103.518Z" fill="black"/>
<path d="M281.165 129.983H279.81V121.048L277.019 122.11V120.872L281.055 119.319H281.165V129.983Z" fill="black"/>
<path d="M717.165 148.983H715.81V140.048L713.019 141.11V139.872L717.055 138.319H717.165V148.983Z" fill="black"/>
<line x1="224" y1="206.483" x2="240" y2="206.483" stroke="black"/>
<line x1="660" y1="225.483" x2="676" y2="225.483" stroke="black"/>
<line x1="345" y1="206.483" x2="361" y2="206.483" stroke="black"/>
<line x1="781" y1="225.483" x2="797" y2="225.483" stroke="black"/>
<line x1="796.5" y1="113" x2="796.5" y2="97" stroke="black"/>
<line x1="649" y1="290.5" x2="665" y2="290.5" stroke="black"/>
<line x1="226" y1="209.483" x2="238" y2="209.483" stroke="black"/>
<line x1="662" y1="228.483" x2="674" y2="228.483" stroke="black"/>
<line x1="347" y1="209.483" x2="359" y2="209.483" stroke="black"/>
<line x1="783" y1="228.483" x2="795" y2="228.483" stroke="black"/>
<line x1="799.5" y1="111" x2="799.5" y2="99" stroke="black"/>
<line x1="651" y1="293.5" x2="663" y2="293.5" stroke="black"/>
<line x1="229" y1="212.483" x2="236" y2="212.483" stroke="black"/>
<line x1="665" y1="231.483" x2="672" y2="231.483" stroke="black"/>
<line x1="350" y1="212.483" x2="357" y2="212.483" stroke="black"/>
<line x1="786" y1="231.483" x2="793" y2="231.483" stroke="black"/>
<line x1="802.5" y1="108" x2="802.5" y2="101" stroke="black"/>
<line x1="654" y1="296.5" x2="661" y2="296.5" stroke="black"/>
<rect x="123" y="218.983" width="37" height="21" rx="2" fill="#2196F3"/>
<rect x="552" y="238" width="44" height="21" rx="2" fill="#2196F3"/>
<path d="M136.441 234.983H135.064L130.926 227.014L130.904 234.983H129.534V224.319H130.911L135.049 232.273L135.071 224.319H136.441V234.983ZM145.706 230.266C145.701 230.647 145.667 231.033 145.604 231.424C145.545 231.809 145.452 232.183 145.325 232.544C145.198 232.906 145.035 233.242 144.834 233.555C144.639 233.867 144.405 234.141 144.131 234.375C143.858 234.61 143.543 234.795 143.187 234.932C142.835 235.064 142.439 235.13 142 235.13C141.561 235.13 141.163 235.064 140.806 234.932C140.455 234.795 140.142 234.61 139.869 234.375C139.595 234.141 139.358 233.867 139.158 233.555C138.958 233.238 138.792 232.898 138.66 232.537C138.533 232.176 138.438 231.802 138.375 231.416C138.311 231.031 138.277 230.647 138.272 230.266V229.051C138.277 228.67 138.309 228.286 138.367 227.901C138.431 227.51 138.526 227.134 138.653 226.773C138.785 226.411 138.948 226.074 139.144 225.762C139.344 225.445 139.581 225.169 139.854 224.934C140.127 224.695 140.44 224.51 140.792 224.378C141.148 224.241 141.546 224.173 141.985 224.173C142.425 224.173 142.823 224.241 143.179 224.378C143.536 224.51 143.851 224.693 144.124 224.927C144.397 225.161 144.632 225.437 144.827 225.755C145.027 226.067 145.191 226.404 145.318 226.765C145.45 227.127 145.545 227.503 145.604 227.893C145.667 228.284 145.701 228.67 145.706 229.051V230.266ZM144.366 229.036C144.361 228.782 144.344 228.518 144.314 228.245C144.285 227.967 144.234 227.693 144.161 227.425C144.092 227.151 144 226.892 143.882 226.648C143.765 226.399 143.619 226.182 143.443 225.996C143.267 225.806 143.06 225.657 142.82 225.55C142.581 225.437 142.303 225.381 141.985 225.381C141.673 225.381 141.397 225.437 141.158 225.55C140.918 225.662 140.711 225.813 140.535 226.004C140.359 226.189 140.213 226.406 140.096 226.656C139.979 226.9 139.883 227.158 139.81 227.432C139.742 227.7 139.69 227.974 139.656 228.252C139.627 228.526 139.61 228.787 139.605 229.036V230.266C139.61 230.515 139.627 230.779 139.656 231.057C139.69 231.336 139.744 231.612 139.817 231.885C139.891 232.154 139.986 232.412 140.103 232.661C140.22 232.91 140.367 233.13 140.542 233.321C140.718 233.506 140.926 233.655 141.165 233.767C141.404 233.88 141.683 233.936 142 233.936C142.317 233.936 142.596 233.88 142.835 233.767C143.079 233.655 143.287 233.506 143.458 233.321C143.633 233.13 143.777 232.913 143.89 232.669C144.007 232.42 144.1 232.161 144.168 231.892C144.241 231.619 144.29 231.343 144.314 231.065C144.344 230.786 144.361 230.52 144.366 230.266V229.036ZM154.971 225.476H151.675V234.983H150.357V225.476H147.061V224.319H154.971V225.476Z" fill="white"/>
<path d="M564.437 254H563.06L558.921 246.031L558.899 254H557.53V243.336H558.907L563.045 251.29L563.067 243.336H564.437V254ZM571.856 251.239H568.296L567.439 254H566.084L569.527 243.336H570.662L574.046 254H572.698L571.856 251.239ZM568.663 250.06H571.497L570.091 245.431L568.663 250.06ZM582.454 254H581.077L576.939 246.031L576.917 254H575.547V243.336H576.924L581.062 251.29L581.084 243.336H582.454V254ZM584.644 254V243.336H587.112C587.854 243.346 588.516 243.473 589.097 243.717C589.683 243.956 590.176 244.293 590.577 244.728C590.982 245.157 591.29 245.675 591.5 246.28C591.714 246.881 591.824 247.547 591.829 248.28V249.063C591.824 249.796 591.714 250.465 591.5 251.07C591.29 251.671 590.982 252.188 590.577 252.623C590.176 253.053 589.683 253.39 589.097 253.634C588.516 253.873 587.854 253.995 587.112 254H584.644ZM586.021 244.449V252.894H587.112C587.688 252.889 588.187 252.789 588.606 252.594C589.026 252.394 589.373 252.123 589.646 251.781C589.925 251.439 590.13 251.036 590.262 250.572C590.398 250.108 590.469 249.605 590.474 249.063V248.265C590.469 247.723 590.398 247.223 590.262 246.764C590.125 246.3 589.92 245.899 589.646 245.562C589.373 245.221 589.026 244.952 588.606 244.757C588.187 244.562 587.688 244.459 587.112 244.449H586.021Z" fill="white"/>
</svg>
