<svg width="565" height="316" viewBox="0 0 565 316" fill="none" xmlns="http://www.w3.org/2000/svg">
<rect width="565" height="316" fill="white"/>
<rect x="126" y="63" width="301" height="234" fill="#282C34"/>
<line x1="229.5" y1="82" x2="229.5" y2="132" stroke="#E91E63" stroke-opacity="0.98" stroke-width="5"/>
<line x1="163.317" y1="130.212" x2="196.677" y2="180.44" stroke="#E91E63" stroke-opacity="0.92" stroke-width="5"/>
<line x1="192.516" y1="180.434" x2="226.064" y2="130.206" stroke="#E91E63" stroke-opacity="0.62" stroke-width="5"/>
<line x1="209.685" y1="264.028" x2="243.045" y2="230.293" stroke="#E91E63" stroke-opacity="0.98" stroke-width="5"/>
<line x1="245" y1="229.5" x2="295" y2="229.5" stroke="#E91E63" stroke-opacity="0.76" stroke-width="5"/>
<line x1="346" y1="229.5" x2="396" y2="229.5" stroke="#E91E63" stroke-opacity="0.95" stroke-width="5"/>
<line x1="295" y1="229.5" x2="346" y2="229.5" stroke="#E91E63" stroke-width="5"/>
<line x1="396.5" y1="232" x2="396.5" y2="283" stroke="#E91E63" stroke-width="5"/>
<line x1="346.5" y1="199" x2="346.5" y2="232" stroke="#E91E63" stroke-opacity="0.95" stroke-width="5"/>
<line x1="294.5" y1="283" x2="294.5" y2="232" stroke="#E91E63" stroke-opacity="0.92" stroke-width="5"/>
<line x1="279" y1="131.5" x2="228" y2="131.5" stroke="#E91E63" stroke-opacity="0.95" stroke-width="5"/>
<line x1="327" y1="131.5" x2="279" y2="131.5" stroke="#E91E63" stroke-opacity="0.95" stroke-width="5"/>
<line x1="493" y1="259" x2="493" y2="101" stroke="url(#paint0_linear)" stroke-width="10"/>
<line x1="341.208" y1="197.456" x2="327.814" y2="133.834" stroke="#E91E63" stroke-opacity="0.02" stroke-width="5"/>
<g filter="url(#filter0_d)">
<line x1="194.396" y1="179.77" x2="244.089" y2="230.265" stroke="white" stroke-width="3" stroke-dasharray="3 3"/>
</g>
<rect x="224" y="76" width="8" height="8" fill="#F6FF33"/>
<rect x="391" y="226" width="8" height="8" fill="#F6FF33"/>
<rect x="291" y="226" width="8" height="8" fill="#F6FF33"/>
<rect x="207" y="259" width="8" height="9" fill="#F6FF33"/>
<rect x="190" y="176" width="8" height="8" fill="#F6FF33"/>
<rect x="274" y="126" width="8" height="8" fill="#F6FF33"/>
<rect x="341" y="193" width="8" height="8" fill="#F6FF33"/>
<rect x="224" y="126" width="8" height="8" fill="#33FFF0" fill-opacity="0.9"/>
<rect x="241" y="226" width="8" height="8" fill="#33FFF0" fill-opacity="0.9"/>
<rect x="324" y="126" width="8" height="8" fill="#33FFF0" fill-opacity="0.9"/>
<rect x="391" y="276" width="8" height="8" fill="#33FFF0" fill-opacity="0.9"/>
<rect x="291" y="276" width="8" height="8" fill="#33FFF0" fill-opacity="0.9"/>
<rect x="341" y="226" width="8" height="8" fill="#33FFF0" fill-opacity="0.9"/>
<rect x="157" y="126" width="8" height="8" fill="#33FFF0" fill-opacity="0.9"/>
<path d="M169.64 26H167.345L160.448 12.7188L160.411 26H158.128V8.22656H160.423L167.32 21.4834L167.357 8.22656H169.64V26ZM182.005 21.3979H176.073L174.645 26H172.386L178.124 8.22656H180.016L185.655 26H183.409L182.005 21.3979ZM176.683 19.4326H181.407L179.063 11.7178L176.683 19.4326ZM199.669 26H197.374L190.477 12.7188L190.44 26H188.158V8.22656H190.453L197.35 21.4834L197.386 8.22656H199.669V26ZM203.319 26V8.22656H207.433C208.67 8.24284 209.772 8.45443 210.741 8.86133C211.717 9.26009 212.539 9.82161 213.207 10.5459C213.882 11.262 214.395 12.1247 214.745 13.1338C215.103 14.1348 215.286 15.2456 215.294 16.4663V17.7725C215.286 18.9932 215.103 20.1081 214.745 21.1172C214.395 22.1182 213.882 22.9808 213.207 23.7051C212.539 24.4212 211.717 24.9827 210.741 25.3896C209.772 25.7884 208.67 25.9919 207.433 26H203.319ZM205.614 10.082V24.1567H207.433C208.393 24.1486 209.223 23.9818 209.923 23.6562C210.623 23.3226 211.201 22.8709 211.656 22.3013C212.12 21.7316 212.462 21.0602 212.682 20.2871C212.91 19.514 213.028 18.6758 213.036 17.7725V16.4419C213.028 15.5386 212.91 14.7044 212.682 13.9395C212.454 13.1663 212.112 12.499 211.656 11.9375C211.201 11.3678 210.623 10.9202 209.923 10.5947C209.223 10.2692 208.393 10.0983 207.433 10.082H205.614ZM233.165 19.2861C233.165 18.3014 233.283 17.3981 233.519 16.5762C233.763 15.7461 234.113 15.034 234.569 14.4399C235.025 13.8459 235.578 13.382 236.229 13.0483C236.88 12.7147 237.617 12.5479 238.438 12.5479C239.252 12.5479 239.964 12.6943 240.575 12.9873C241.193 13.2721 241.718 13.6872 242.149 14.2324L242.259 12.792H244.31V25.7192C244.31 26.59 244.172 27.3631 243.895 28.0386C243.626 28.714 243.244 29.2878 242.748 29.7598C242.259 30.2318 241.673 30.5898 240.99 30.834C240.306 31.0781 239.549 31.2002 238.719 31.2002C238.377 31.2002 237.987 31.1595 237.547 31.0781C237.108 31.0049 236.66 30.8787 236.205 30.6997C235.757 30.5288 235.322 30.2969 234.898 30.0039C234.483 29.7109 234.125 29.3488 233.824 28.9175L234.996 27.5625C235.273 27.8962 235.558 28.1769 235.851 28.4048C236.144 28.6408 236.441 28.828 236.742 28.9663C237.043 29.1047 237.344 29.2023 237.645 29.2593C237.946 29.3244 238.247 29.3569 238.548 29.3569C239.085 29.3569 239.57 29.2796 240.001 29.125C240.432 28.9704 240.799 28.7425 241.1 28.4414C241.409 28.1484 241.645 27.7822 241.808 27.3428C241.97 26.9033 242.052 26.3988 242.052 25.8291V24.6938C241.612 25.1984 241.091 25.585 240.489 25.8535C239.895 26.1139 239.203 26.2441 238.414 26.2441C237.608 26.2441 236.88 26.0732 236.229 25.7314C235.578 25.3896 235.025 24.9176 234.569 24.3154C234.121 23.7132 233.775 23.0052 233.531 22.1914C233.287 21.3695 233.165 20.4865 233.165 19.5425V19.2861ZM235.423 19.5425C235.423 20.1854 235.488 20.7957 235.619 21.3735C235.757 21.9513 235.969 22.46 236.253 22.8994C236.546 23.3389 236.917 23.6888 237.364 23.9492C237.812 24.2015 238.349 24.3276 238.976 24.3276C239.366 24.3276 239.716 24.2829 240.025 24.1934C240.343 24.0957 240.624 23.9614 240.868 23.7905C241.12 23.6196 241.344 23.4162 241.539 23.1802C241.734 22.9442 241.905 22.6838 242.052 22.3989V16.3442C241.905 16.0675 241.734 15.8153 241.539 15.5874C241.344 15.3595 241.12 15.1642 240.868 15.0015C240.615 14.8306 240.335 14.7004 240.025 14.6108C239.716 14.5132 239.374 14.4644 239 14.4644C238.365 14.4644 237.82 14.5946 237.364 14.855C236.917 15.1154 236.546 15.4694 236.253 15.917C235.969 16.3564 235.757 16.8691 235.619 17.4551C235.488 18.0329 235.423 18.6432 235.423 19.2861V19.5425ZM257.274 26C257.184 25.8291 257.111 25.6175 257.054 25.3652C257.005 25.1048 256.969 24.8363 256.944 24.5596C256.716 24.7874 256.46 25.0031 256.175 25.2065C255.899 25.41 255.589 25.589 255.248 25.7437C254.914 25.8983 254.556 26.0203 254.173 26.1099C253.791 26.1994 253.384 26.2441 252.953 26.2441C252.253 26.2441 251.618 26.1424 251.048 25.939C250.487 25.7355 250.007 25.4629 249.608 25.1211C249.217 24.7712 248.912 24.3602 248.692 23.8882C248.481 23.408 248.375 22.8913 248.375 22.3379C248.375 21.6136 248.517 20.9788 248.802 20.4336C249.095 19.8883 249.506 19.4367 250.035 19.0786C250.564 18.7124 251.199 18.4398 251.939 18.2607C252.688 18.0817 253.522 17.9922 254.442 17.9922H256.908V16.9546C256.908 16.5558 256.834 16.1978 256.688 15.8804C256.542 15.563 256.334 15.2944 256.065 15.0747C255.797 14.8468 255.467 14.6719 255.077 14.5498C254.694 14.4277 254.263 14.3667 253.783 14.3667C253.335 14.3667 252.932 14.4237 252.574 14.5376C252.224 14.6515 251.927 14.8021 251.683 14.9893C251.439 15.1764 251.248 15.4002 251.109 15.6606C250.979 15.9129 250.914 16.1774 250.914 16.4541H248.644C248.652 15.974 248.774 15.502 249.01 15.0381C249.254 14.5742 249.6 14.1592 250.047 13.793C250.503 13.4186 251.052 13.1175 251.695 12.8896C252.346 12.6618 253.083 12.5479 253.905 12.5479C254.653 12.5479 255.349 12.6414 255.992 12.8286C256.635 13.0076 257.188 13.2843 257.652 13.6587C258.124 14.0249 258.495 14.4847 258.763 15.0381C259.032 15.5915 259.166 16.2384 259.166 16.979V23.1191C259.166 23.5586 259.207 24.0265 259.288 24.5229C259.369 25.0112 259.483 25.4385 259.63 25.8047V26H257.274ZM253.282 24.2788C253.722 24.2788 254.133 24.2218 254.515 24.1079C254.898 23.994 255.243 23.8434 255.553 23.6562C255.87 23.4691 256.143 23.2575 256.371 23.0215C256.598 22.7773 256.778 22.5251 256.908 22.2646V19.5913H254.808C253.49 19.5913 252.464 19.7866 251.732 20.1772C251 20.5679 250.633 21.1823 250.633 22.0205C250.633 22.346 250.686 22.6471 250.792 22.9238C250.906 23.2005 251.073 23.4406 251.292 23.644C251.512 23.8394 251.789 23.994 252.123 24.1079C252.456 24.2218 252.843 24.2788 253.282 24.2788ZM268.956 9.59375V12.792H273.985V14.5376H268.956V21.7153C268.956 22.228 269.021 22.6512 269.151 22.9849C269.282 23.3185 269.461 23.5871 269.688 23.7905C269.916 23.9858 270.177 24.1242 270.47 24.2056C270.771 24.2869 271.088 24.3276 271.422 24.3276C271.666 24.3276 271.918 24.3154 272.179 24.291C272.439 24.2585 272.691 24.2218 272.936 24.1812C273.188 24.1405 273.42 24.0998 273.631 24.0591C273.851 24.0103 274.03 23.9696 274.168 23.937L274.486 25.5361C274.299 25.6501 274.071 25.7518 273.802 25.8413C273.534 25.9227 273.241 25.9919 272.923 26.0488C272.606 26.1139 272.268 26.1628 271.91 26.1953C271.56 26.2279 271.21 26.2441 270.86 26.2441C270.274 26.2441 269.725 26.1628 269.212 26C268.708 25.8291 268.268 25.5646 267.894 25.2065C267.52 24.8403 267.223 24.3724 267.003 23.8027C266.791 23.2249 266.686 22.5291 266.686 21.7153V14.5376H263.219V12.792H266.686V9.59375H268.956ZM284.459 26.2441C283.531 26.2441 282.677 26.0854 281.896 25.7681C281.122 25.4507 280.459 25.0072 279.906 24.4375C279.352 23.8678 278.921 23.1924 278.612 22.4111C278.303 21.6299 278.148 20.7795 278.148 19.8599V19.3472C278.148 18.2811 278.319 17.3289 278.661 16.4907C279.002 15.6444 279.454 14.9323 280.016 14.3545C280.585 13.7686 281.228 13.321 281.944 13.0117C282.669 12.7025 283.409 12.5479 284.166 12.5479C285.118 12.5479 285.948 12.7147 286.656 13.0483C287.372 13.3739 287.966 13.8296 288.438 14.4155C288.91 14.9933 289.26 15.6769 289.488 16.4663C289.724 17.2557 289.842 18.1102 289.842 19.0298V20.043H280.406C280.431 20.6452 280.545 21.2108 280.748 21.7397C280.96 22.2687 281.244 22.7326 281.603 23.1313C281.969 23.522 282.404 23.8312 282.909 24.0591C283.413 24.2869 283.971 24.4009 284.581 24.4009C285.387 24.4009 286.103 24.2381 286.729 23.9126C287.356 23.5871 287.877 23.1558 288.292 22.6187L289.671 23.6929C289.452 24.0265 289.175 24.348 288.841 24.6572C288.516 24.9583 288.137 25.2269 287.706 25.4629C287.275 25.6989 286.786 25.8861 286.241 26.0244C285.696 26.1709 285.102 26.2441 284.459 26.2441ZM284.166 14.4033C283.71 14.4033 283.279 14.4888 282.872 14.6597C282.465 14.8224 282.099 15.0666 281.773 15.3921C281.448 15.7095 281.171 16.1042 280.943 16.5762C280.724 17.04 280.569 17.5771 280.479 18.1875H287.584V18.0166C287.56 17.5771 287.474 17.1418 287.328 16.7104C287.189 16.2791 286.982 15.8926 286.705 15.5508C286.428 15.209 286.078 14.9323 285.655 14.7207C285.24 14.5091 284.744 14.4033 284.166 14.4033ZM314.488 26.2441C313.561 26.2441 312.706 26.0854 311.925 25.7681C311.152 25.4507 310.488 25.0072 309.935 24.4375C309.382 23.8678 308.95 23.1924 308.641 22.4111C308.332 21.6299 308.177 20.7795 308.177 19.8599V19.3472C308.177 18.2811 308.348 17.3289 308.69 16.4907C309.032 15.6444 309.483 14.9323 310.045 14.3545C310.615 13.7686 311.257 13.321 311.974 13.0117C312.698 12.7025 313.438 12.5479 314.195 12.5479C315.147 12.5479 315.978 12.7147 316.686 13.0483C317.402 13.3739 317.996 13.8296 318.468 14.4155C318.94 14.9933 319.29 15.6769 319.518 16.4663C319.754 17.2557 319.872 18.1102 319.872 19.0298V20.043H310.436C310.46 20.6452 310.574 21.2108 310.777 21.7397C310.989 22.2687 311.274 22.7326 311.632 23.1313C311.998 23.522 312.433 23.8312 312.938 24.0591C313.443 24.2869 314 24.4009 314.61 24.4009C315.416 24.4009 316.132 24.2381 316.759 23.9126C317.385 23.5871 317.906 23.1558 318.321 22.6187L319.701 23.6929C319.481 24.0265 319.204 24.348 318.871 24.6572C318.545 24.9583 318.167 25.2269 317.735 25.4629C317.304 25.6989 316.816 25.8861 316.271 26.0244C315.725 26.1709 315.131 26.2441 314.488 26.2441ZM314.195 14.4033C313.74 14.4033 313.308 14.4888 312.901 14.6597C312.494 14.8224 312.128 15.0666 311.803 15.3921C311.477 15.7095 311.201 16.1042 310.973 16.5762C310.753 17.04 310.598 17.5771 310.509 18.1875H317.613V18.0166C317.589 17.5771 317.503 17.1418 317.357 16.7104C317.219 16.2791 317.011 15.8926 316.734 15.5508C316.458 15.209 316.108 14.9323 315.685 14.7207C315.27 14.5091 314.773 14.4033 314.195 14.4033ZM323.241 19.2861C323.241 18.3014 323.363 17.3981 323.607 16.5762C323.859 15.7461 324.213 15.034 324.669 14.4399C325.133 13.8459 325.69 13.382 326.341 13.0483C326.992 12.7147 327.721 12.5479 328.526 12.5479C329.316 12.5479 330.003 12.6821 330.589 12.9507C331.183 13.2111 331.696 13.5936 332.127 14.0981V7.25H334.386V26H332.311L332.213 24.6084C331.773 25.1455 331.249 25.5524 330.638 25.8291C330.028 26.1058 329.316 26.2441 328.502 26.2441C327.704 26.2441 326.98 26.0732 326.329 25.7314C325.686 25.3896 325.137 24.9176 324.681 24.3154C324.225 23.7132 323.871 23.0052 323.619 22.1914C323.367 21.3695 323.241 20.4865 323.241 19.5425V19.2861ZM325.499 19.5425C325.499 20.1854 325.568 20.7957 325.707 21.3735C325.845 21.9513 326.056 22.46 326.341 22.8994C326.634 23.3389 327.005 23.6888 327.452 23.9492C327.9 24.2015 328.437 24.3276 329.063 24.3276C329.446 24.3276 329.792 24.2829 330.101 24.1934C330.41 24.1038 330.691 23.9777 330.943 23.8149C331.196 23.644 331.419 23.4447 331.615 23.2168C331.81 22.9808 331.981 22.7204 332.127 22.4355V16.3076C331.834 15.7705 331.44 15.3311 330.943 14.9893C330.447 14.6393 329.828 14.4644 329.088 14.4644C328.453 14.4644 327.908 14.5946 327.452 14.855C327.005 15.1154 326.634 15.4694 326.341 15.917C326.056 16.3564 325.845 16.8691 325.707 17.4551C325.568 18.0329 325.499 18.6432 325.499 19.2861V19.5425ZM338.268 19.2861C338.268 18.3014 338.386 17.3981 338.622 16.5762C338.866 15.7461 339.216 15.034 339.671 14.4399C340.127 13.8459 340.681 13.382 341.332 13.0483C341.983 12.7147 342.719 12.5479 343.541 12.5479C344.355 12.5479 345.067 12.6943 345.677 12.9873C346.296 13.2721 346.821 13.6872 347.252 14.2324L347.362 12.792H349.413V25.7192C349.413 26.59 349.274 27.3631 348.998 28.0386C348.729 28.714 348.347 29.2878 347.85 29.7598C347.362 30.2318 346.776 30.5898 346.092 30.834C345.409 31.0781 344.652 31.2002 343.822 31.2002C343.48 31.2002 343.089 31.1595 342.65 31.0781C342.21 31.0049 341.763 30.8787 341.307 30.6997C340.86 30.5288 340.424 30.2969 340.001 30.0039C339.586 29.7109 339.228 29.3488 338.927 28.9175L340.099 27.5625C340.375 27.8962 340.66 28.1769 340.953 28.4048C341.246 28.6408 341.543 28.828 341.844 28.9663C342.145 29.1047 342.446 29.2023 342.748 29.2593C343.049 29.3244 343.35 29.3569 343.651 29.3569C344.188 29.3569 344.672 29.2796 345.104 29.125C345.535 28.9704 345.901 28.7425 346.202 28.4414C346.511 28.1484 346.747 27.7822 346.91 27.3428C347.073 26.9033 347.154 26.3988 347.154 25.8291V24.6938C346.715 25.1984 346.194 25.585 345.592 25.8535C344.998 26.1139 344.306 26.2441 343.517 26.2441C342.711 26.2441 341.983 26.0732 341.332 25.7314C340.681 25.3896 340.127 24.9176 339.671 24.3154C339.224 23.7132 338.878 23.0052 338.634 22.1914C338.39 21.3695 338.268 20.4865 338.268 19.5425V19.2861ZM340.526 19.5425C340.526 20.1854 340.591 20.7957 340.721 21.3735C340.86 21.9513 341.071 22.46 341.356 22.8994C341.649 23.3389 342.019 23.6888 342.467 23.9492C342.914 24.2015 343.451 24.3276 344.078 24.3276C344.469 24.3276 344.819 24.2829 345.128 24.1934C345.445 24.0957 345.726 23.9614 345.97 23.7905C346.222 23.6196 346.446 23.4162 346.642 23.1802C346.837 22.9442 347.008 22.6838 347.154 22.3989V16.3442C347.008 16.0675 346.837 15.8153 346.642 15.5874C346.446 15.3595 346.222 15.1642 345.97 15.0015C345.718 14.8306 345.437 14.7004 345.128 14.6108C344.819 14.5132 344.477 14.4644 344.103 14.4644C343.468 14.4644 342.923 14.5946 342.467 14.855C342.019 15.1154 341.649 15.4694 341.356 15.917C341.071 16.3564 340.86 16.8691 340.721 17.4551C340.591 18.0329 340.526 18.6432 340.526 19.2861V19.5425ZM359.532 26.2441C358.604 26.2441 357.75 26.0854 356.969 25.7681C356.196 25.4507 355.532 25.0072 354.979 24.4375C354.426 23.8678 353.994 23.1924 353.685 22.4111C353.376 21.6299 353.221 20.7795 353.221 19.8599V19.3472C353.221 18.2811 353.392 17.3289 353.734 16.4907C354.076 15.6444 354.527 14.9323 355.089 14.3545C355.659 13.7686 356.301 13.321 357.018 13.0117C357.742 12.7025 358.482 12.5479 359.239 12.5479C360.191 12.5479 361.021 12.7147 361.729 13.0483C362.446 13.3739 363.04 13.8296 363.512 14.4155C363.984 14.9933 364.334 15.6769 364.562 16.4663C364.798 17.2557 364.916 18.1102 364.916 19.0298V20.043H355.479C355.504 20.6452 355.618 21.2108 355.821 21.7397C356.033 22.2687 356.318 22.7326 356.676 23.1313C357.042 23.522 357.477 23.8312 357.982 24.0591C358.486 24.2869 359.044 24.4009 359.654 24.4009C360.46 24.4009 361.176 24.2381 361.803 23.9126C362.429 23.5871 362.95 23.1558 363.365 22.6187L364.745 23.6929C364.525 24.0265 364.248 24.348 363.915 24.6572C363.589 24.9583 363.211 25.2269 362.779 25.4629C362.348 25.6989 361.86 25.8861 361.314 26.0244C360.769 26.1709 360.175 26.2441 359.532 26.2441ZM359.239 14.4033C358.784 14.4033 358.352 14.4888 357.945 14.6597C357.538 14.8224 357.172 15.0666 356.847 15.3921C356.521 15.7095 356.244 16.1042 356.017 16.5762C355.797 17.04 355.642 17.5771 355.553 18.1875H362.657V18.0166C362.633 17.5771 362.547 17.1418 362.401 16.7104C362.263 16.2791 362.055 15.8926 361.778 15.5508C361.502 15.209 361.152 14.9323 360.729 14.7207C360.313 14.5091 359.817 14.4033 359.239 14.4033ZM377.489 22.4966C377.489 22.228 377.436 21.988 377.33 21.7764C377.224 21.5566 377.045 21.3573 376.793 21.1782C376.541 20.9992 376.207 20.8364 375.792 20.6899C375.377 20.5353 374.86 20.397 374.242 20.2749C373.485 20.1203 372.793 19.9331 372.167 19.7134C371.548 19.4937 371.015 19.2332 370.567 18.9321C370.128 18.6229 369.786 18.2648 369.542 17.8579C369.298 17.4429 369.176 16.9627 369.176 16.4175C369.176 15.8804 369.302 15.3799 369.554 14.916C369.806 14.444 370.16 14.033 370.616 13.6831C371.072 13.3332 371.613 13.0565 372.24 12.853C372.875 12.6496 373.57 12.5479 374.327 12.5479C375.141 12.5479 375.873 12.6536 376.524 12.8652C377.175 13.0768 377.729 13.3698 378.185 13.7441C378.64 14.1185 378.99 14.5579 379.234 15.0625C379.487 15.5589 379.613 16.096 379.613 16.6738H377.354C377.354 16.389 377.281 16.1123 377.135 15.8438C376.988 15.5671 376.785 15.3229 376.524 15.1113C376.264 14.8997 375.947 14.7288 375.572 14.5986C375.206 14.4684 374.791 14.4033 374.327 14.4033C373.847 14.4033 373.424 14.4562 373.058 14.562C372.7 14.6678 372.398 14.8102 372.154 14.9893C371.918 15.1683 371.739 15.3758 371.617 15.6118C371.495 15.8478 371.434 16.092 371.434 16.3442C371.434 16.6047 371.483 16.8366 371.581 17.04C371.678 17.2435 371.845 17.4266 372.081 17.5894C372.325 17.7521 372.647 17.8986 373.045 18.0288C373.452 18.159 373.965 18.2852 374.583 18.4072C375.397 18.5781 376.126 18.7775 376.769 19.0054C377.411 19.2251 377.953 19.4937 378.392 19.811C378.832 20.1203 379.165 20.4824 379.393 20.8975C379.629 21.3125 379.747 21.7926 379.747 22.3379C379.747 22.9238 379.613 23.4569 379.344 23.937C379.084 24.4172 378.718 24.8281 378.246 25.1699C377.774 25.5117 377.208 25.7762 376.549 25.9634C375.89 26.1506 375.169 26.2441 374.388 26.2441C373.493 26.2441 372.695 26.1261 371.996 25.8901C371.296 25.646 370.702 25.3286 370.213 24.938C369.733 24.5392 369.363 24.0794 369.103 23.5586C368.85 23.0378 368.724 22.4966 368.724 21.9351H370.982C371.015 22.3989 371.137 22.7896 371.349 23.1069C371.568 23.4243 371.837 23.6807 372.154 23.876C372.48 24.0713 372.838 24.2096 373.229 24.291C373.619 24.3724 374.006 24.4131 374.388 24.4131C375.34 24.4131 376.093 24.2381 376.646 23.8882C377.2 23.5382 377.481 23.0744 377.489 22.4966ZM137.157 55C137.067 54.8291 136.994 54.6175 136.937 54.3652C136.888 54.1048 136.852 53.8363 136.827 53.5596C136.599 53.7874 136.343 54.0031 136.058 54.2065C135.781 54.41 135.472 54.589 135.13 54.7437C134.797 54.8983 134.439 55.0203 134.056 55.1099C133.674 55.1994 133.267 55.2441 132.835 55.2441C132.136 55.2441 131.501 55.1424 130.931 54.939C130.37 54.7355 129.889 54.4629 129.491 54.1211C129.1 53.7712 128.795 53.3602 128.575 52.8882C128.364 52.408 128.258 51.8913 128.258 51.3379C128.258 50.6136 128.4 49.9788 128.685 49.4336C128.978 48.8883 129.389 48.4367 129.918 48.0786C130.447 47.7124 131.082 47.4398 131.822 47.2607C132.571 47.0817 133.405 46.9922 134.325 46.9922H136.791V45.9546C136.791 45.5558 136.717 45.1978 136.571 44.8804C136.424 44.563 136.217 44.2944 135.948 44.0747C135.68 43.8468 135.35 43.6719 134.959 43.5498C134.577 43.4277 134.146 43.3667 133.666 43.3667C133.218 43.3667 132.815 43.4237 132.457 43.5376C132.107 43.6515 131.81 43.8021 131.566 43.9893C131.322 44.1764 131.131 44.4002 130.992 44.6606C130.862 44.9129 130.797 45.1774 130.797 45.4541H128.526C128.535 44.974 128.657 44.502 128.893 44.0381C129.137 43.5742 129.483 43.1592 129.93 42.793C130.386 42.4186 130.935 42.1175 131.578 41.8896C132.229 41.6618 132.966 41.5479 133.788 41.5479C134.536 41.5479 135.232 41.6414 135.875 41.8286C136.518 42.0076 137.071 42.2843 137.535 42.6587C138.007 43.0249 138.377 43.4847 138.646 44.0381C138.915 44.5915 139.049 45.2384 139.049 45.979V52.1191C139.049 52.5586 139.09 53.0265 139.171 53.5229C139.252 54.0112 139.366 54.4385 139.513 54.8047V55H137.157ZM133.165 53.2788C133.604 53.2788 134.015 53.2218 134.398 53.1079C134.78 52.994 135.126 52.8434 135.436 52.6562C135.753 52.4691 136.026 52.2575 136.253 52.0215C136.481 51.7773 136.66 51.5251 136.791 51.2646V48.5913H134.691C133.373 48.5913 132.347 48.7866 131.615 49.1772C130.882 49.5679 130.516 50.1823 130.516 51.0205C130.516 51.346 130.569 51.6471 130.675 51.9238C130.789 52.2005 130.956 52.4406 131.175 52.644C131.395 52.8394 131.672 52.994 132.005 53.1079C132.339 53.2218 132.726 53.2788 133.165 53.2788ZM148.668 51.7529L148.875 52.5708L149.095 51.7529L152.794 41.792H155.101L149.718 55H147.997L142.564 41.792H144.884L148.668 51.7529ZM164.342 55.2441C163.414 55.2441 162.56 55.0854 161.778 54.7681C161.005 54.4507 160.342 54.0072 159.789 53.4375C159.235 52.8678 158.804 52.1924 158.495 51.4111C158.185 50.6299 158.031 49.7795 158.031 48.8599V48.3472C158.031 47.2811 158.202 46.3289 158.543 45.4907C158.885 44.6444 159.337 43.9323 159.898 43.3545C160.468 42.7686 161.111 42.321 161.827 42.0117C162.551 41.7025 163.292 41.5479 164.049 41.5479C165.001 41.5479 165.831 41.7147 166.539 42.0483C167.255 42.3739 167.849 42.8296 168.321 43.4155C168.793 43.9933 169.143 44.6769 169.371 45.4663C169.607 46.2557 169.725 47.1102 169.725 48.0298V49.043H160.289C160.313 49.6452 160.427 50.2108 160.631 50.7397C160.842 51.2687 161.127 51.7326 161.485 52.1313C161.852 52.522 162.287 52.8312 162.792 53.0591C163.296 53.2869 163.854 53.4009 164.464 53.4009C165.27 53.4009 165.986 53.2381 166.612 52.9126C167.239 52.5871 167.76 52.1558 168.175 51.6187L169.554 52.6929C169.334 53.0265 169.058 53.348 168.724 53.6572C168.399 53.9583 168.02 54.2269 167.589 54.4629C167.158 54.6989 166.669 54.8861 166.124 55.0244C165.579 55.1709 164.985 55.2441 164.342 55.2441ZM164.049 43.4033C163.593 43.4033 163.162 43.4888 162.755 43.6597C162.348 43.8224 161.982 44.0666 161.656 44.3921C161.331 44.7095 161.054 45.1042 160.826 45.5762C160.606 46.04 160.452 46.5771 160.362 47.1875H167.467V47.0166C167.442 46.5771 167.357 46.1418 167.21 45.7104C167.072 45.2791 166.865 44.8926 166.588 44.5508C166.311 44.209 165.961 43.9323 165.538 43.7207C165.123 43.5091 164.627 43.4033 164.049 43.4033ZM182.176 41.5479C182.388 41.5479 182.608 41.556 182.835 41.5723C183.063 41.5804 183.279 41.6007 183.482 41.6333C183.694 41.6577 183.885 41.6903 184.056 41.731C184.235 41.7716 184.382 41.8164 184.496 41.8652L184.19 44.0747C183.751 43.9771 183.332 43.9079 182.933 43.8672C182.542 43.8184 182.132 43.7939 181.7 43.7939C180.642 43.7939 179.784 44.034 179.125 44.5142C178.473 44.9943 177.993 45.6657 177.684 46.5283V55H175.414V41.792H177.562L177.672 43.8916C178.209 43.1673 178.852 42.5977 179.601 42.1826C180.357 41.7594 181.216 41.5479 182.176 41.5479ZM197.215 55C197.126 54.8291 197.053 54.6175 196.996 54.3652C196.947 54.1048 196.91 53.8363 196.886 53.5596C196.658 53.7874 196.402 54.0031 196.117 54.2065C195.84 54.41 195.531 54.589 195.189 54.7437C194.855 54.8983 194.497 55.0203 194.115 55.1099C193.732 55.1994 193.325 55.2441 192.894 55.2441C192.194 55.2441 191.559 55.1424 190.99 54.939C190.428 54.7355 189.948 54.4629 189.549 54.1211C189.159 53.7712 188.854 53.3602 188.634 52.8882C188.422 52.408 188.316 51.8913 188.316 51.3379C188.316 50.6136 188.459 49.9788 188.744 49.4336C189.037 48.8883 189.448 48.4367 189.977 48.0786C190.506 47.7124 191.14 47.4398 191.881 47.2607C192.63 47.0817 193.464 46.9922 194.383 46.9922H196.849V45.9546C196.849 45.5558 196.776 45.1978 196.629 44.8804C196.483 44.563 196.275 44.2944 196.007 44.0747C195.738 43.8468 195.409 43.6719 195.018 43.5498C194.636 43.4277 194.204 43.3667 193.724 43.3667C193.277 43.3667 192.874 43.4237 192.516 43.5376C192.166 43.6515 191.869 43.8021 191.625 43.9893C191.38 44.1764 191.189 44.4002 191.051 44.6606C190.921 44.9129 190.855 45.1774 190.855 45.4541H188.585C188.593 44.974 188.715 44.502 188.951 44.0381C189.195 43.5742 189.541 43.1592 189.989 42.793C190.444 42.4186 190.994 42.1175 191.637 41.8896C192.288 41.6618 193.024 41.5479 193.846 41.5479C194.595 41.5479 195.291 41.6414 195.934 41.8286C196.576 42.0076 197.13 42.2843 197.594 42.6587C198.066 43.0249 198.436 43.4847 198.705 44.0381C198.973 44.5915 199.107 45.2384 199.107 45.979V52.1191C199.107 52.5586 199.148 53.0265 199.229 53.5229C199.311 54.0112 199.425 54.4385 199.571 54.8047V55H197.215ZM193.224 53.2788C193.663 53.2788 194.074 53.2218 194.457 53.1079C194.839 52.994 195.185 52.8434 195.494 52.6562C195.812 52.4691 196.084 52.2575 196.312 52.0215C196.54 51.7773 196.719 51.5251 196.849 51.2646V48.5913H194.75C193.431 48.5913 192.406 48.7866 191.673 49.1772C190.941 49.5679 190.575 50.1823 190.575 51.0205C190.575 51.346 190.628 51.6471 190.733 51.9238C190.847 52.2005 191.014 52.4406 191.234 52.644C191.454 52.8394 191.73 52.994 192.064 53.1079C192.398 53.2218 192.784 53.2788 193.224 53.2788ZM203.136 48.2861C203.136 47.3014 203.254 46.3981 203.49 45.5762C203.734 44.7461 204.084 44.034 204.54 43.4399C204.995 42.8459 205.549 42.382 206.2 42.0483C206.851 41.7147 207.587 41.5479 208.409 41.5479C209.223 41.5479 209.935 41.6943 210.545 41.9873C211.164 42.2721 211.689 42.6872 212.12 43.2324L212.23 41.792H214.281V54.7192C214.281 55.59 214.142 56.3631 213.866 57.0386C213.597 57.714 213.215 58.2878 212.718 58.7598C212.23 59.2318 211.644 59.5898 210.96 59.834C210.277 60.0781 209.52 60.2002 208.69 60.2002C208.348 60.2002 207.958 60.1595 207.518 60.0781C207.079 60.0049 206.631 59.8787 206.175 59.6997C205.728 59.5288 205.292 59.2969 204.869 59.0039C204.454 58.7109 204.096 58.3488 203.795 57.9175L204.967 56.5625C205.243 56.8962 205.528 57.1769 205.821 57.4048C206.114 57.6408 206.411 57.828 206.712 57.9663C207.014 58.1047 207.315 58.2023 207.616 58.2593C207.917 58.3244 208.218 58.3569 208.519 58.3569C209.056 58.3569 209.54 58.2796 209.972 58.125C210.403 57.9704 210.769 57.7425 211.07 57.4414C211.38 57.1484 211.616 56.7822 211.778 56.3428C211.941 55.9033 212.022 55.3988 212.022 54.8291V53.6938C211.583 54.1984 211.062 54.585 210.46 54.8535C209.866 55.1139 209.174 55.2441 208.385 55.2441C207.579 55.2441 206.851 55.0732 206.2 54.7314C205.549 54.3896 204.995 53.9176 204.54 53.3154C204.092 52.7132 203.746 52.0052 203.502 51.1914C203.258 50.3695 203.136 49.4865 203.136 48.5425V48.2861ZM205.394 48.5425C205.394 49.1854 205.459 49.7957 205.589 50.3735C205.728 50.9513 205.939 51.46 206.224 51.8994C206.517 52.3389 206.887 52.6888 207.335 52.9492C207.783 53.2015 208.32 53.3276 208.946 53.3276C209.337 53.3276 209.687 53.2829 209.996 53.1934C210.313 53.0957 210.594 52.9614 210.838 52.7905C211.091 52.6196 211.314 52.4162 211.51 52.1802C211.705 51.9442 211.876 51.6838 212.022 51.3989V45.3442C211.876 45.0675 211.705 44.8153 211.51 44.5874C211.314 44.3595 211.091 44.1642 210.838 44.0015C210.586 43.8306 210.305 43.7004 209.996 43.6108C209.687 43.5132 209.345 43.4644 208.971 43.4644C208.336 43.4644 207.791 43.5946 207.335 43.855C206.887 44.1154 206.517 44.4694 206.224 44.917C205.939 45.3564 205.728 45.8691 205.589 46.4551C205.459 47.0329 205.394 47.6432 205.394 48.2861V48.5425ZM224.4 55.2441C223.473 55.2441 222.618 55.0854 221.837 54.7681C221.064 54.4507 220.401 54.0072 219.847 53.4375C219.294 52.8678 218.862 52.1924 218.553 51.4111C218.244 50.6299 218.089 49.7795 218.089 48.8599V48.3472C218.089 47.2811 218.26 46.3289 218.602 45.4907C218.944 44.6444 219.396 43.9323 219.957 43.3545C220.527 42.7686 221.17 42.321 221.886 42.0117C222.61 41.7025 223.351 41.5479 224.107 41.5479C225.06 41.5479 225.89 41.7147 226.598 42.0483C227.314 42.3739 227.908 42.8296 228.38 43.4155C228.852 43.9933 229.202 44.6769 229.43 45.4663C229.666 46.2557 229.784 47.1102 229.784 48.0298V49.043H220.348C220.372 49.6452 220.486 50.2108 220.689 50.7397C220.901 51.2687 221.186 51.7326 221.544 52.1313C221.91 52.522 222.346 52.8312 222.85 53.0591C223.355 53.2869 223.912 53.4009 224.522 53.4009C225.328 53.4009 226.044 53.2381 226.671 52.9126C227.298 52.5871 227.818 52.1558 228.233 51.6187L229.613 52.6929C229.393 53.0265 229.116 53.348 228.783 53.6572C228.457 53.9583 228.079 54.2269 227.647 54.4629C227.216 54.6989 226.728 54.8861 226.183 55.0244C225.637 55.1709 225.043 55.2441 224.4 55.2441ZM224.107 43.4033C223.652 43.4033 223.22 43.4888 222.813 43.6597C222.407 43.8224 222.04 44.0666 221.715 44.3921C221.389 44.7095 221.113 45.1042 220.885 45.5762C220.665 46.04 220.51 46.5771 220.421 47.1875H227.525V47.0166C227.501 46.5771 227.416 46.1418 227.269 45.7104C227.131 45.2791 226.923 44.8926 226.646 44.5508C226.37 44.209 226.02 43.9323 225.597 43.7207C225.182 43.5091 224.685 43.4033 224.107 43.4033ZM254.222 53.4131C254.629 53.4131 255.024 53.348 255.406 53.2178C255.797 53.0876 256.143 52.9085 256.444 52.6807C256.745 52.4447 256.985 52.172 257.164 51.8628C257.351 51.5454 257.449 51.2036 257.457 50.8374H259.593C259.585 51.4233 259.431 51.9849 259.129 52.522C258.836 53.0509 258.442 53.5189 257.945 53.9258C257.449 54.3245 256.879 54.646 256.236 54.8901C255.593 55.1261 254.922 55.2441 254.222 55.2441C253.221 55.2441 252.346 55.0651 251.598 54.707C250.849 54.349 250.222 53.8688 249.718 53.2666C249.221 52.6562 248.847 51.9564 248.595 51.167C248.342 50.3695 248.216 49.5312 248.216 48.6523V48.1396C248.216 47.2689 248.342 46.4347 248.595 45.6372C248.847 44.8397 249.221 44.1398 249.718 43.5376C250.222 42.9272 250.849 42.443 251.598 42.085C252.346 41.7269 253.221 41.5479 254.222 41.5479C255.003 41.5479 255.72 41.674 256.371 41.9263C257.03 42.1704 257.595 42.5081 258.067 42.9395C258.548 43.3626 258.922 43.8672 259.19 44.4531C259.459 45.0391 259.593 45.6657 259.593 46.333H257.457C257.449 45.9342 257.359 45.5599 257.188 45.21C257.026 44.8519 256.802 44.5386 256.517 44.27C256.232 44.0015 255.89 43.7899 255.492 43.6353C255.101 43.4806 254.678 43.4033 254.222 43.4033C253.522 43.4033 252.932 43.5457 252.452 43.8306C251.98 44.1073 251.598 44.4735 251.305 44.9292C251.012 45.3768 250.8 45.8813 250.67 46.4429C250.548 47.0044 250.487 47.57 250.487 48.1396V48.6523C250.487 49.2301 250.548 49.8039 250.67 50.3735C250.8 50.9351 251.008 51.4437 251.292 51.8994C251.585 52.347 251.968 52.7132 252.44 52.998C252.92 53.2747 253.514 53.4131 254.222 53.4131ZM262.975 48.2739C262.975 47.3218 263.113 46.4388 263.39 45.625C263.666 44.8031 264.061 44.091 264.574 43.4888C265.095 42.8866 265.725 42.4146 266.466 42.0728C267.206 41.7228 268.041 41.5479 268.968 41.5479C269.904 41.5479 270.742 41.7228 271.483 42.0728C272.232 42.4146 272.862 42.8866 273.375 43.4888C273.896 44.091 274.295 44.8031 274.571 45.625C274.848 46.4388 274.986 47.3218 274.986 48.2739V48.5425C274.986 49.4946 274.848 50.3776 274.571 51.1914C274.295 52.0052 273.896 52.7132 273.375 53.3154C272.862 53.9176 272.236 54.3896 271.495 54.7314C270.755 55.0732 269.92 55.2441 268.993 55.2441C268.057 55.2441 267.215 55.0732 266.466 54.7314C265.725 54.3896 265.095 53.9176 264.574 53.3154C264.061 52.7132 263.666 52.0052 263.39 51.1914C263.113 50.3776 262.975 49.4946 262.975 48.5425V48.2739ZM265.233 48.5425C265.233 49.1935 265.31 49.8161 265.465 50.4102C265.619 50.9961 265.851 51.5129 266.161 51.9604C266.478 52.408 266.873 52.762 267.345 53.0225C267.817 53.2829 268.366 53.4131 268.993 53.4131C269.611 53.4131 270.152 53.2829 270.616 53.0225C271.088 52.762 271.479 52.408 271.788 51.9604C272.105 51.5129 272.341 50.9961 272.496 50.4102C272.651 49.8161 272.728 49.1935 272.728 48.5425V48.2739C272.728 47.631 272.647 47.0166 272.484 46.4307C272.329 45.8366 272.093 45.3158 271.776 44.8682C271.467 44.4206 271.076 44.0666 270.604 43.8062C270.14 43.5376 269.595 43.4033 268.968 43.4033C268.342 43.4033 267.796 43.5376 267.333 43.8062C266.869 44.0666 266.478 44.4206 266.161 44.8682C265.851 45.3158 265.619 45.8366 265.465 46.4307C265.31 47.0166 265.233 47.631 265.233 48.2739V48.5425ZM280.65 41.792L280.809 43.7451C281.289 43.0615 281.879 42.5285 282.579 42.146C283.279 41.7554 284.06 41.556 284.923 41.5479C285.615 41.5479 286.241 41.6455 286.803 41.8408C287.372 42.0361 287.857 42.3413 288.255 42.7563C288.654 43.1714 288.959 43.7004 289.171 44.3433C289.391 44.978 289.5 45.7349 289.5 46.6138V55H287.242V46.6626C287.242 46.0767 287.177 45.5802 287.047 45.1733C286.917 44.7664 286.721 44.4368 286.461 44.1846C286.209 43.9323 285.895 43.7492 285.521 43.6353C285.155 43.5213 284.732 43.4644 284.251 43.4644C283.495 43.4644 282.827 43.6556 282.25 44.0381C281.68 44.4124 281.224 44.9089 280.882 45.5273V55H278.624V41.792H280.65ZM295.665 41.792L295.824 43.7451C296.304 43.0615 296.894 42.5285 297.594 42.146C298.294 41.7554 299.075 41.556 299.938 41.5479C300.629 41.5479 301.256 41.6455 301.817 41.8408C302.387 42.0361 302.871 42.3413 303.27 42.7563C303.669 43.1714 303.974 43.7004 304.186 44.3433C304.405 44.978 304.515 45.7349 304.515 46.6138V55H302.257V46.6626C302.257 46.0767 302.192 45.5802 302.062 45.1733C301.931 44.7664 301.736 44.4368 301.476 44.1846C301.223 43.9323 300.91 43.7492 300.536 43.6353C300.169 43.5213 299.746 43.4644 299.266 43.4644C298.509 43.4644 297.842 43.6556 297.264 44.0381C296.694 44.4124 296.239 44.9089 295.897 45.5273V55H293.639V41.792H295.665ZM314.488 55.2441C313.561 55.2441 312.706 55.0854 311.925 54.7681C311.152 54.4507 310.488 54.0072 309.935 53.4375C309.382 52.8678 308.95 52.1924 308.641 51.4111C308.332 50.6299 308.177 49.7795 308.177 48.8599V48.3472C308.177 47.2811 308.348 46.3289 308.69 45.4907C309.032 44.6444 309.483 43.9323 310.045 43.3545C310.615 42.7686 311.257 42.321 311.974 42.0117C312.698 41.7025 313.438 41.5479 314.195 41.5479C315.147 41.5479 315.978 41.7147 316.686 42.0483C317.402 42.3739 317.996 42.8296 318.468 43.4155C318.94 43.9933 319.29 44.6769 319.518 45.4663C319.754 46.2557 319.872 47.1102 319.872 48.0298V49.043H310.436C310.46 49.6452 310.574 50.2108 310.777 50.7397C310.989 51.2687 311.274 51.7326 311.632 52.1313C311.998 52.522 312.433 52.8312 312.938 53.0591C313.443 53.2869 314 53.4009 314.61 53.4009C315.416 53.4009 316.132 53.2381 316.759 52.9126C317.385 52.5871 317.906 52.1558 318.321 51.6187L319.701 52.6929C319.481 53.0265 319.204 53.348 318.871 53.6572C318.545 53.9583 318.167 54.2269 317.735 54.4629C317.304 54.6989 316.816 54.8861 316.271 55.0244C315.725 55.1709 315.131 55.2441 314.488 55.2441ZM314.195 43.4033C313.74 43.4033 313.308 43.4888 312.901 43.6597C312.494 43.8224 312.128 44.0666 311.803 44.3921C311.477 44.7095 311.201 45.1042 310.973 45.5762C310.753 46.04 310.598 46.5771 310.509 47.1875H317.613V47.0166C317.589 46.5771 317.503 46.1418 317.357 45.7104C317.219 45.2791 317.011 44.8926 316.734 44.5508C316.458 44.209 316.108 43.9323 315.685 43.7207C315.27 43.5091 314.773 43.4033 314.195 43.4033ZM329.295 53.4131C329.702 53.4131 330.097 53.348 330.479 53.2178C330.87 53.0876 331.216 52.9085 331.517 52.6807C331.818 52.4447 332.058 52.172 332.237 51.8628C332.424 51.5454 332.522 51.2036 332.53 50.8374H334.667C334.658 51.4233 334.504 51.9849 334.203 52.522C333.91 53.0509 333.515 53.5189 333.019 53.9258C332.522 54.3245 331.952 54.646 331.31 54.8901C330.667 55.1261 329.995 55.2441 329.295 55.2441C328.294 55.2441 327.42 55.0651 326.671 54.707C325.922 54.349 325.296 53.8688 324.791 53.2666C324.295 52.6562 323.92 51.9564 323.668 51.167C323.416 50.3695 323.29 49.5312 323.29 48.6523V48.1396C323.29 47.2689 323.416 46.4347 323.668 45.6372C323.92 44.8397 324.295 44.1398 324.791 43.5376C325.296 42.9272 325.922 42.443 326.671 42.085C327.42 41.7269 328.294 41.5479 329.295 41.5479C330.077 41.5479 330.793 41.674 331.444 41.9263C332.103 42.1704 332.669 42.5081 333.141 42.9395C333.621 43.3626 333.995 43.8672 334.264 44.4531C334.532 45.0391 334.667 45.6657 334.667 46.333H332.53C332.522 45.9342 332.433 45.5599 332.262 45.21C332.099 44.8519 331.875 44.5386 331.59 44.27C331.306 44.0015 330.964 43.7899 330.565 43.6353C330.174 43.4806 329.751 43.4033 329.295 43.4033C328.596 43.4033 328.006 43.5457 327.525 43.8306C327.053 44.1073 326.671 44.4735 326.378 44.9292C326.085 45.3768 325.873 45.8813 325.743 46.4429C325.621 47.0044 325.56 47.57 325.56 48.1396V48.6523C325.56 49.2301 325.621 49.8039 325.743 50.3735C325.873 50.9351 326.081 51.4437 326.366 51.8994C326.659 52.347 327.041 52.7132 327.513 52.998C327.993 53.2747 328.587 53.4131 329.295 53.4131ZM344.029 38.5938V41.792H349.059V43.5376H344.029V50.7153C344.029 51.228 344.094 51.6512 344.225 51.9849C344.355 52.3185 344.534 52.5871 344.762 52.7905C344.99 52.9858 345.25 53.1242 345.543 53.2056C345.844 53.2869 346.161 53.3276 346.495 53.3276C346.739 53.3276 346.992 53.3154 347.252 53.291C347.512 53.2585 347.765 53.2218 348.009 53.1812C348.261 53.1405 348.493 53.0998 348.705 53.0591C348.924 53.0103 349.103 52.9696 349.242 52.937L349.559 54.5361C349.372 54.6501 349.144 54.7518 348.875 54.8413C348.607 54.9227 348.314 54.9919 347.997 55.0488C347.679 55.1139 347.341 55.1628 346.983 55.1953C346.633 55.2279 346.284 55.2441 345.934 55.2441C345.348 55.2441 344.798 55.1628 344.286 55C343.781 54.8291 343.342 54.5646 342.967 54.2065C342.593 53.8403 342.296 53.3724 342.076 52.8027C341.865 52.2249 341.759 51.5291 341.759 50.7153V43.5376H338.292V41.792H341.759V38.5938H344.029ZM354.051 41.792H360.802V53.0469H365.111V55H354.051V53.0469H358.543V43.7573H354.051V41.792ZM358.25 38.3252C358.25 37.9508 358.36 37.6375 358.58 37.3853C358.808 37.1248 359.15 36.9946 359.605 36.9946C360.053 36.9946 360.391 37.1248 360.619 37.3853C360.847 37.6375 360.96 37.9508 360.96 38.3252C360.96 38.6914 360.847 38.9966 360.619 39.2407C360.391 39.4849 360.053 39.6069 359.605 39.6069C359.15 39.6069 358.808 39.4849 358.58 39.2407C358.36 38.9966 358.25 38.6914 358.25 38.3252ZM373.888 51.7529L374.095 52.5708L374.315 51.7529L378.014 41.792H380.321L374.938 55H373.216L367.784 41.792H370.104L373.888 51.7529ZM384.081 41.792H390.831V53.0469H395.14V55H384.081V53.0469H388.573V43.7573H384.081V41.792ZM388.28 38.3252C388.28 37.9508 388.39 37.6375 388.609 37.3853C388.837 37.1248 389.179 36.9946 389.635 36.9946C390.082 36.9946 390.42 37.1248 390.648 37.3853C390.876 37.6375 390.99 37.9508 390.99 38.3252C390.99 38.6914 390.876 38.9966 390.648 39.2407C390.42 39.4849 390.082 39.6069 389.635 39.6069C389.179 39.6069 388.837 39.4849 388.609 39.2407C388.39 38.9966 388.28 38.6914 388.28 38.3252ZM404.088 38.5938V41.792H409.117V43.5376H404.088V50.7153C404.088 51.228 404.153 51.6512 404.283 51.9849C404.413 52.3185 404.592 52.5871 404.82 52.7905C405.048 52.9858 405.309 53.1242 405.602 53.2056C405.903 53.2869 406.22 53.3276 406.554 53.3276C406.798 53.3276 407.05 53.3154 407.311 53.291C407.571 53.2585 407.823 53.2218 408.067 53.1812C408.32 53.1405 408.552 53.0998 408.763 53.0591C408.983 53.0103 409.162 52.9696 409.3 52.937L409.618 54.5361C409.431 54.6501 409.203 54.7518 408.934 54.8413C408.666 54.9227 408.373 54.9919 408.055 55.0488C407.738 55.1139 407.4 55.1628 407.042 55.1953C406.692 55.2279 406.342 55.2441 405.992 55.2441C405.406 55.2441 404.857 55.1628 404.344 55C403.84 54.8291 403.4 54.5646 403.026 54.2065C402.652 53.8403 402.354 53.3724 402.135 52.8027C401.923 52.2249 401.817 51.5291 401.817 50.7153V43.5376H398.351V41.792H401.817V38.5938H404.088ZM418.614 50.3125L419.2 51.9116L423.229 41.792H425.755L419.054 57.0386C418.899 57.3804 418.7 57.7425 418.456 58.125C418.22 58.5075 417.931 58.8615 417.589 59.187C417.247 59.5125 416.848 59.7852 416.393 60.0049C415.937 60.2246 415.412 60.3345 414.818 60.3345C414.712 60.3345 414.594 60.3263 414.464 60.3101C414.334 60.3019 414.203 60.2856 414.073 60.2612C413.943 60.245 413.821 60.2246 413.707 60.2002C413.593 60.1758 413.5 60.1554 413.426 60.1392L413.792 58.2959C413.849 58.2959 413.927 58.3 414.024 58.3081C414.122 58.3162 414.224 58.3244 414.33 58.3325C414.435 58.3407 414.537 58.3447 414.635 58.3447C414.732 58.3529 414.81 58.3569 414.867 58.3569C415.176 58.3569 415.457 58.2715 415.709 58.1006C415.969 57.9297 416.197 57.7262 416.393 57.4902C416.596 57.2542 416.767 57.0101 416.905 56.7578C417.052 56.5055 417.166 56.298 417.247 56.1353L418.15 54.3774L412.462 41.792H414.989L418.614 50.3125Z" fill="black"/>
<path d="M146.265 217.717L146.289 218.215C146.396 218.029 146.536 217.884 146.709 217.78C146.885 217.676 147.096 217.622 147.344 217.619C147.829 217.619 148.153 217.808 148.315 218.186C148.42 218.016 148.556 217.881 148.726 217.78C148.898 217.676 149.106 217.622 149.351 217.619C149.738 217.619 150.036 217.738 150.244 217.976C150.452 218.213 150.557 218.573 150.557 219.055V223H149.697V219.045C149.697 218.602 149.494 218.382 149.087 218.386C148.979 218.386 148.887 218.4 148.809 218.43C148.73 218.459 148.665 218.5 148.613 218.552C148.561 218.601 148.521 218.659 148.491 218.728C148.462 218.793 148.442 218.861 148.433 218.933V223H147.573V219.04C147.573 218.828 147.526 218.666 147.432 218.552C147.337 218.438 147.188 218.382 146.982 218.386C146.794 218.386 146.647 218.423 146.543 218.498C146.439 218.573 146.362 218.672 146.313 218.796V223H145.454V217.717H146.265ZM151.997 217.717H154.697V222.219H156.421V223H151.997V222.219H153.794V218.503H151.997V217.717ZM153.677 216.33C153.677 216.18 153.721 216.055 153.809 215.954C153.9 215.85 154.036 215.798 154.219 215.798C154.398 215.798 154.533 215.85 154.624 215.954C154.715 216.055 154.761 216.18 154.761 216.33C154.761 216.477 154.715 216.599 154.624 216.696C154.533 216.794 154.398 216.843 154.219 216.843C154.036 216.843 153.9 216.794 153.809 216.696C153.721 216.599 153.677 216.477 153.677 216.33ZM161.372 221.599C161.372 221.491 161.351 221.395 161.309 221.311C161.266 221.223 161.195 221.143 161.094 221.071C160.993 221 160.859 220.935 160.693 220.876C160.527 220.814 160.321 220.759 160.073 220.71C159.771 220.648 159.494 220.573 159.243 220.485C158.996 220.397 158.783 220.293 158.604 220.173C158.428 220.049 158.291 219.906 158.193 219.743C158.096 219.577 158.047 219.385 158.047 219.167C158.047 218.952 158.097 218.752 158.198 218.566C158.299 218.378 158.441 218.213 158.623 218.073C158.805 217.933 159.022 217.823 159.272 217.741C159.526 217.66 159.805 217.619 160.107 217.619C160.433 217.619 160.726 217.661 160.986 217.746C161.247 217.831 161.468 217.948 161.65 218.098C161.833 218.247 161.973 218.423 162.07 218.625C162.171 218.824 162.222 219.038 162.222 219.27H161.318C161.318 219.156 161.289 219.045 161.23 218.938C161.172 218.827 161.09 218.729 160.986 218.645C160.882 218.56 160.755 218.492 160.605 218.439C160.459 218.387 160.293 218.361 160.107 218.361C159.915 218.361 159.746 218.382 159.6 218.425C159.456 218.467 159.336 218.524 159.238 218.596C159.144 218.667 159.072 218.75 159.023 218.845C158.975 218.939 158.95 219.037 158.95 219.138C158.95 219.242 158.97 219.335 159.009 219.416C159.048 219.497 159.115 219.571 159.209 219.636C159.307 219.701 159.435 219.759 159.595 219.812C159.757 219.864 159.963 219.914 160.21 219.963C160.535 220.031 160.827 220.111 161.084 220.202C161.341 220.29 161.558 220.397 161.733 220.524C161.909 220.648 162.043 220.793 162.134 220.959C162.228 221.125 162.275 221.317 162.275 221.535C162.275 221.77 162.222 221.983 162.114 222.175C162.01 222.367 161.864 222.531 161.675 222.668C161.486 222.805 161.26 222.91 160.996 222.985C160.732 223.06 160.444 223.098 160.132 223.098C159.774 223.098 159.455 223.05 159.175 222.956C158.895 222.858 158.657 222.731 158.462 222.575C158.27 222.416 158.122 222.232 158.018 222.023C157.917 221.815 157.866 221.599 157.866 221.374H158.77C158.783 221.56 158.831 221.716 158.916 221.843C159.004 221.97 159.111 222.072 159.238 222.15C159.368 222.229 159.512 222.284 159.668 222.316C159.824 222.349 159.979 222.365 160.132 222.365C160.513 222.365 160.814 222.295 161.035 222.155C161.257 222.015 161.369 221.83 161.372 221.599ZM167.378 221.599C167.378 221.491 167.357 221.395 167.314 221.311C167.272 221.223 167.201 221.143 167.1 221.071C166.999 221 166.865 220.935 166.699 220.876C166.533 220.814 166.326 220.759 166.079 220.71C165.776 220.648 165.5 220.573 165.249 220.485C165.002 220.397 164.788 220.293 164.609 220.173C164.434 220.049 164.297 219.906 164.199 219.743C164.102 219.577 164.053 219.385 164.053 219.167C164.053 218.952 164.103 218.752 164.204 218.566C164.305 218.378 164.447 218.213 164.629 218.073C164.811 217.933 165.028 217.823 165.278 217.741C165.532 217.66 165.811 217.619 166.113 217.619C166.439 217.619 166.732 217.661 166.992 217.746C167.253 217.831 167.474 217.948 167.656 218.098C167.839 218.247 167.979 218.423 168.076 218.625C168.177 218.824 168.228 219.038 168.228 219.27H167.324C167.324 219.156 167.295 219.045 167.236 218.938C167.178 218.827 167.096 218.729 166.992 218.645C166.888 218.56 166.761 218.492 166.611 218.439C166.465 218.387 166.299 218.361 166.113 218.361C165.921 218.361 165.752 218.382 165.605 218.425C165.462 218.467 165.342 218.524 165.244 218.596C165.15 218.667 165.078 218.75 165.029 218.845C164.98 218.939 164.956 219.037 164.956 219.138C164.956 219.242 164.976 219.335 165.015 219.416C165.054 219.497 165.12 219.571 165.215 219.636C165.312 219.701 165.441 219.759 165.601 219.812C165.763 219.864 165.968 219.914 166.216 219.963C166.541 220.031 166.833 220.111 167.09 220.202C167.347 220.29 167.563 220.397 167.739 220.524C167.915 220.648 168.049 220.793 168.14 220.959C168.234 221.125 168.281 221.317 168.281 221.535C168.281 221.77 168.228 221.983 168.12 222.175C168.016 222.367 167.869 222.531 167.681 222.668C167.492 222.805 167.266 222.91 167.002 222.985C166.738 223.06 166.45 223.098 166.138 223.098C165.78 223.098 165.461 223.05 165.181 222.956C164.901 222.858 164.663 222.731 164.468 222.575C164.276 222.416 164.128 222.232 164.023 222.023C163.923 221.815 163.872 221.599 163.872 221.374H164.775C164.788 221.56 164.837 221.716 164.922 221.843C165.01 221.97 165.117 222.072 165.244 222.15C165.374 222.229 165.518 222.284 165.674 222.316C165.83 222.349 165.985 222.365 166.138 222.365C166.519 222.365 166.82 222.295 167.041 222.155C167.262 222.015 167.375 221.83 167.378 221.599ZM170.015 217.717H172.715V222.219H174.438V223H170.015V222.219H171.812V218.503H170.015V217.717ZM171.694 216.33C171.694 216.18 171.738 216.055 171.826 215.954C171.917 215.85 172.054 215.798 172.236 215.798C172.415 215.798 172.55 215.85 172.642 215.954C172.733 216.055 172.778 216.18 172.778 216.33C172.778 216.477 172.733 216.599 172.642 216.696C172.55 216.794 172.415 216.843 172.236 216.843C172.054 216.843 171.917 216.794 171.826 216.696C171.738 216.599 171.694 216.477 171.694 216.33ZM176.689 217.717L176.753 218.498C176.945 218.225 177.181 218.011 177.461 217.858C177.741 217.702 178.053 217.622 178.398 217.619C178.675 217.619 178.926 217.658 179.15 217.736C179.378 217.814 179.572 217.937 179.731 218.103C179.891 218.269 180.013 218.48 180.098 218.737C180.186 218.991 180.229 219.294 180.229 219.646V223H179.326V219.665C179.326 219.431 179.3 219.232 179.248 219.069C179.196 218.907 179.118 218.775 179.014 218.674C178.913 218.573 178.787 218.5 178.638 218.454C178.491 218.409 178.322 218.386 178.13 218.386C177.827 218.386 177.56 218.462 177.329 218.615C177.101 218.765 176.919 218.964 176.782 219.211V223H175.879V217.717H176.689ZM181.719 220.314C181.719 219.921 181.766 219.559 181.86 219.23C181.958 218.898 182.098 218.614 182.28 218.376C182.463 218.138 182.684 217.953 182.944 217.819C183.205 217.686 183.499 217.619 183.828 217.619C184.154 217.619 184.438 217.678 184.683 217.795C184.93 217.909 185.14 218.075 185.312 218.293L185.356 217.717H186.177V222.888C186.177 223.236 186.121 223.545 186.011 223.815C185.903 224.086 185.75 224.315 185.552 224.504C185.356 224.693 185.122 224.836 184.849 224.934C184.575 225.031 184.272 225.08 183.94 225.08C183.804 225.08 183.647 225.064 183.472 225.031C183.296 225.002 183.117 224.951 182.935 224.88C182.756 224.812 182.581 224.719 182.412 224.602C182.246 224.484 182.103 224.34 181.982 224.167L182.451 223.625C182.562 223.758 182.676 223.871 182.793 223.962C182.91 224.056 183.029 224.131 183.149 224.187C183.27 224.242 183.39 224.281 183.511 224.304C183.631 224.33 183.752 224.343 183.872 224.343C184.087 224.343 184.281 224.312 184.453 224.25C184.626 224.188 184.772 224.097 184.893 223.977C185.016 223.859 185.111 223.713 185.176 223.537C185.241 223.361 185.273 223.16 185.273 222.932V222.478C185.098 222.679 184.889 222.834 184.648 222.941C184.411 223.046 184.134 223.098 183.818 223.098C183.496 223.098 183.205 223.029 182.944 222.893C182.684 222.756 182.463 222.567 182.28 222.326C182.101 222.085 181.963 221.802 181.865 221.477C181.768 221.148 181.719 220.795 181.719 220.417V220.314ZM182.622 220.417C182.622 220.674 182.648 220.918 182.7 221.149C182.756 221.381 182.84 221.584 182.954 221.76C183.071 221.936 183.219 222.076 183.398 222.18C183.577 222.281 183.792 222.331 184.043 222.331C184.199 222.331 184.339 222.313 184.463 222.277C184.59 222.238 184.702 222.185 184.8 222.116C184.901 222.048 184.99 221.966 185.068 221.872C185.146 221.778 185.215 221.674 185.273 221.56V219.138C185.215 219.027 185.146 218.926 185.068 218.835C184.99 218.744 184.901 218.666 184.8 218.601C184.699 218.532 184.587 218.48 184.463 218.444C184.339 218.405 184.202 218.386 184.053 218.386C183.799 218.386 183.581 218.438 183.398 218.542C183.219 218.646 183.071 218.788 182.954 218.967C182.84 219.143 182.756 219.348 182.7 219.582C182.648 219.813 182.622 220.057 182.622 220.314V220.417ZM196.23 223.098C195.859 223.098 195.518 223.034 195.205 222.907C194.896 222.78 194.631 222.603 194.409 222.375C194.188 222.147 194.015 221.877 193.892 221.564C193.768 221.252 193.706 220.912 193.706 220.544V220.339C193.706 219.912 193.774 219.532 193.911 219.196C194.048 218.858 194.229 218.573 194.453 218.342C194.681 218.107 194.938 217.928 195.225 217.805C195.514 217.681 195.811 217.619 196.113 217.619C196.494 217.619 196.826 217.686 197.109 217.819C197.396 217.95 197.633 218.132 197.822 218.366C198.011 218.597 198.151 218.871 198.242 219.187C198.337 219.502 198.384 219.844 198.384 220.212V220.617H194.609C194.619 220.858 194.665 221.084 194.746 221.296C194.831 221.507 194.945 221.693 195.088 221.853C195.234 222.009 195.409 222.132 195.61 222.224C195.812 222.315 196.035 222.36 196.279 222.36C196.602 222.36 196.888 222.295 197.139 222.165C197.389 222.035 197.598 221.862 197.764 221.647L198.315 222.077C198.228 222.211 198.117 222.339 197.983 222.463C197.853 222.583 197.702 222.691 197.529 222.785C197.357 222.88 197.161 222.954 196.943 223.01C196.725 223.068 196.488 223.098 196.23 223.098ZM196.113 218.361C195.931 218.361 195.758 218.396 195.596 218.464C195.433 218.529 195.286 218.627 195.156 218.757C195.026 218.884 194.915 219.042 194.824 219.23C194.736 219.416 194.674 219.631 194.639 219.875H197.48V219.807C197.471 219.631 197.437 219.457 197.378 219.284C197.323 219.112 197.24 218.957 197.129 218.82C197.018 218.684 196.878 218.573 196.709 218.488C196.543 218.404 196.344 218.361 196.113 218.361ZM199.731 220.314C199.731 219.921 199.78 219.559 199.878 219.23C199.979 218.898 200.12 218.614 200.303 218.376C200.488 218.138 200.711 217.953 200.972 217.819C201.232 217.686 201.523 217.619 201.846 217.619C202.161 217.619 202.437 217.673 202.671 217.78C202.909 217.884 203.114 218.037 203.286 218.239V215.5H204.189V223H203.359L203.32 222.443C203.145 222.658 202.935 222.821 202.69 222.932C202.446 223.042 202.161 223.098 201.836 223.098C201.517 223.098 201.227 223.029 200.967 222.893C200.71 222.756 200.49 222.567 200.308 222.326C200.125 222.085 199.984 221.802 199.883 221.477C199.782 221.148 199.731 220.795 199.731 220.417V220.314ZM200.635 220.417C200.635 220.674 200.662 220.918 200.718 221.149C200.773 221.381 200.858 221.584 200.972 221.76C201.089 221.936 201.237 222.076 201.416 222.18C201.595 222.281 201.81 222.331 202.061 222.331C202.214 222.331 202.352 222.313 202.476 222.277C202.599 222.242 202.712 222.191 202.812 222.126C202.913 222.058 203.003 221.978 203.081 221.887C203.159 221.792 203.228 221.688 203.286 221.574V219.123C203.169 218.908 203.011 218.732 202.812 218.596C202.614 218.456 202.367 218.386 202.07 218.386C201.816 218.386 201.598 218.438 201.416 218.542C201.237 218.646 201.089 218.788 200.972 218.967C200.858 219.143 200.773 219.348 200.718 219.582C200.662 219.813 200.635 220.057 200.635 220.314V220.417ZM205.742 220.314C205.742 219.921 205.789 219.559 205.884 219.23C205.981 218.898 206.121 218.614 206.304 218.376C206.486 218.138 206.707 217.953 206.968 217.819C207.228 217.686 207.523 217.619 207.852 217.619C208.177 217.619 208.462 217.678 208.706 217.795C208.953 217.909 209.163 218.075 209.336 218.293L209.38 217.717H210.2V222.888C210.2 223.236 210.145 223.545 210.034 223.815C209.927 224.086 209.774 224.315 209.575 224.504C209.38 224.693 209.146 224.836 208.872 224.934C208.599 225.031 208.296 225.08 207.964 225.08C207.827 225.08 207.671 225.064 207.495 225.031C207.319 225.002 207.14 224.951 206.958 224.88C206.779 224.812 206.605 224.719 206.436 224.602C206.27 224.484 206.126 224.34 206.006 224.167L206.475 223.625C206.585 223.758 206.699 223.871 206.816 223.962C206.934 224.056 207.052 224.131 207.173 224.187C207.293 224.242 207.414 224.281 207.534 224.304C207.655 224.33 207.775 224.343 207.896 224.343C208.11 224.343 208.304 224.312 208.477 224.25C208.649 224.188 208.796 224.097 208.916 223.977C209.04 223.859 209.134 223.713 209.199 223.537C209.264 223.361 209.297 223.16 209.297 222.932V222.478C209.121 222.679 208.913 222.834 208.672 222.941C208.434 223.046 208.158 223.098 207.842 223.098C207.52 223.098 207.228 223.029 206.968 222.893C206.707 222.756 206.486 222.567 206.304 222.326C206.125 222.085 205.986 221.802 205.889 221.477C205.791 221.148 205.742 220.795 205.742 220.417V220.314ZM206.646 220.417C206.646 220.674 206.672 220.918 206.724 221.149C206.779 221.381 206.864 221.584 206.978 221.76C207.095 221.936 207.243 222.076 207.422 222.18C207.601 222.281 207.816 222.331 208.066 222.331C208.223 222.331 208.363 222.313 208.486 222.277C208.613 222.238 208.726 222.185 208.823 222.116C208.924 222.048 209.014 221.966 209.092 221.872C209.17 221.778 209.238 221.674 209.297 221.56V219.138C209.238 219.027 209.17 218.926 209.092 218.835C209.014 218.744 208.924 218.666 208.823 218.601C208.722 218.532 208.61 218.48 208.486 218.444C208.363 218.405 208.226 218.386 208.076 218.386C207.822 218.386 207.604 218.438 207.422 218.542C207.243 218.646 207.095 218.788 206.978 218.967C206.864 219.143 206.779 219.348 206.724 219.582C206.672 219.813 206.646 220.057 206.646 220.314V220.417ZM214.248 223.098C213.877 223.098 213.535 223.034 213.223 222.907C212.913 222.78 212.648 222.603 212.427 222.375C212.205 222.147 212.033 221.877 211.909 221.564C211.785 221.252 211.724 220.912 211.724 220.544V220.339C211.724 219.912 211.792 219.532 211.929 219.196C212.065 218.858 212.246 218.573 212.471 218.342C212.699 218.107 212.956 217.928 213.242 217.805C213.532 217.681 213.828 217.619 214.131 217.619C214.512 217.619 214.844 217.686 215.127 217.819C215.413 217.95 215.651 218.132 215.84 218.366C216.029 218.597 216.169 218.871 216.26 219.187C216.354 219.502 216.401 219.844 216.401 220.212V220.617H212.627C212.637 220.858 212.682 221.084 212.764 221.296C212.848 221.507 212.962 221.693 213.105 221.853C213.252 222.009 213.426 222.132 213.628 222.224C213.83 222.315 214.053 222.36 214.297 222.36C214.619 222.36 214.906 222.295 215.156 222.165C215.407 222.035 215.615 221.862 215.781 221.647L216.333 222.077C216.245 222.211 216.134 222.339 216.001 222.463C215.871 222.583 215.719 222.691 215.547 222.785C215.374 222.88 215.179 222.954 214.961 223.01C214.743 223.068 214.505 223.098 214.248 223.098ZM214.131 218.361C213.949 218.361 213.776 218.396 213.613 218.464C213.451 218.529 213.304 218.627 213.174 218.757C213.044 218.884 212.933 219.042 212.842 219.23C212.754 219.416 212.692 219.631 212.656 219.875H215.498V219.807C215.488 219.631 215.454 219.457 215.396 219.284C215.34 219.112 215.257 218.957 215.146 218.82C215.036 218.684 214.896 218.573 214.727 218.488C214.561 218.404 214.362 218.361 214.131 218.361Z" fill="white"/>
<path d="M483.974 85.144L483.585 85.2686L483.974 85.4004L488.456 87.1289V88.5645L482.245 85.7886V84.7192L488.456 81.9507V83.3862L483.974 85.144ZM497.15 85.0708H492.697V88.8501H497.89V90H491.342V79.3359H497.824V80.4932H492.697V83.9209H497.15V85.0708ZM500.321 83.3423V81.9434L506.789 84.7119V85.7812L500.321 88.5571V87.1509L505.06 85.3638L505.5 85.2393L505.06 85.1001L500.321 83.3423Z" fill="black"/>
<path d="M519.669 106H518.314V97.0645L515.523 98.1265V96.8887L519.559 95.3359H519.669V106Z" fill="black"/>
<path d="M512.633 178.121C512.633 177.975 512.655 177.838 512.699 177.711C512.748 177.584 512.816 177.474 512.904 177.381C512.992 177.284 513.102 177.208 513.233 177.154C513.365 177.101 513.519 177.074 513.695 177.074C513.871 177.074 514.024 177.101 514.156 177.154C514.293 177.208 514.405 177.284 514.493 177.381C514.586 177.474 514.654 177.584 514.698 177.711C514.747 177.838 514.771 177.975 514.771 178.121C514.771 178.263 514.747 178.397 514.698 178.524C514.654 178.646 514.586 178.753 514.493 178.846C514.405 178.939 514.293 179.01 514.156 179.059C514.024 179.112 513.871 179.139 513.695 179.139C513.519 179.139 513.365 179.112 513.233 179.059C513.102 179.01 512.992 178.939 512.904 178.846C512.816 178.753 512.748 178.646 512.699 178.524C512.655 178.397 512.633 178.263 512.633 178.121ZM519.767 173.653L520.301 168.336H525.772V169.654H521.444L521.144 172.496C521.354 172.374 521.605 172.267 521.898 172.174C522.191 172.081 522.53 172.035 522.916 172.035C523.409 172.035 523.851 172.12 524.242 172.291C524.632 172.462 524.964 172.704 525.238 173.016C525.511 173.324 525.721 173.697 525.868 174.137C526.014 174.576 526.087 175.064 526.087 175.602C526.087 176.109 526.019 176.581 525.882 177.015C525.746 177.45 525.538 177.826 525.26 178.143C524.986 178.456 524.64 178.702 524.22 178.883C523.8 179.059 523.307 179.146 522.74 179.146C522.306 179.146 521.896 179.085 521.51 178.963C521.124 178.841 520.78 178.658 520.477 178.414C520.179 178.17 519.933 177.862 519.737 177.491C519.547 177.12 519.427 176.688 519.378 176.195H520.667C520.75 176.8 520.973 177.259 521.334 177.572C521.7 177.884 522.169 178.041 522.74 178.041C523.062 178.041 523.348 177.984 523.597 177.872C523.846 177.755 524.054 177.591 524.22 177.381C524.391 177.167 524.518 176.91 524.601 176.612C524.688 176.314 524.732 175.982 524.732 175.616C524.732 175.284 524.684 174.974 524.586 174.686C524.493 174.398 524.356 174.149 524.176 173.939C523.995 173.724 523.773 173.556 523.509 173.434C523.246 173.312 522.943 173.25 522.601 173.25C522.376 173.25 522.181 173.268 522.015 173.302C521.854 173.331 521.708 173.375 521.576 173.434C521.444 173.492 521.319 173.563 521.202 173.646C521.09 173.729 520.973 173.824 520.851 173.932L519.767 173.653Z" fill="black"/>
<path d="M522.969 258.92C522.969 259.599 522.891 260.202 522.734 260.729C522.578 261.252 522.354 261.694 522.061 262.055C521.768 262.412 521.409 262.683 520.984 262.868C520.559 263.054 520.073 263.146 519.526 263.146C518.984 263.146 518.499 263.054 518.069 262.868C517.644 262.683 517.283 262.412 516.985 262.055C516.687 261.694 516.458 261.252 516.296 260.729C516.14 260.202 516.062 259.599 516.062 258.92V256.423C516.062 255.744 516.14 255.144 516.296 254.621C516.453 254.094 516.677 253.649 516.97 253.288C517.268 252.927 517.629 252.653 518.054 252.468C518.484 252.277 518.97 252.182 519.512 252.182C520.059 252.182 520.544 252.277 520.969 252.468C521.399 252.653 521.76 252.927 522.053 253.288C522.351 253.649 522.578 254.094 522.734 254.621C522.891 255.144 522.969 255.744 522.969 256.423V258.92ZM517.424 258.649L521.577 255.463C521.499 254.755 521.292 254.218 520.955 253.852C520.623 253.481 520.142 253.295 519.512 253.295C518.799 253.295 518.271 253.537 517.93 254.021C517.593 254.499 517.424 255.2 517.424 256.123V258.649ZM521.606 256.76L517.461 259.931C517.544 260.62 517.756 261.145 518.098 261.506C518.44 261.867 518.916 262.048 519.526 262.048C520.244 262.048 520.769 261.804 521.101 261.315C521.438 260.827 521.606 260.124 521.606 259.206V256.76Z" fill="black"/>
<line x1="481" y1="100.5" x2="506" y2="100.5" stroke="black"/>
<line x1="481" y1="258.5" x2="506" y2="258.5" stroke="black"/>
<line x1="481" y1="176.5" x2="506" y2="176.5" stroke="black"/>
<defs>
<filter id="filter0_d" x="189.327" y="178.718" width="59.8318" height="60.5994" filterUnits="userSpaceOnUse" color-interpolation-filters="sRGB">
<feFlood flood-opacity="0" result="BackgroundImageFix"/>
<feColorMatrix in="SourceAlpha" type="matrix" values="0 0 0 0 0 0 0 0 0 0 0 0 0 0 0 0 0 0 127 0"/>
<feOffset dy="4"/>
<feGaussianBlur stdDeviation="2"/>
<feColorMatrix type="matrix" values="0 0 0 0 0 0 0 0 0 0 0 0 0 0 0 0 0 0 0.25 0"/>
<feBlend mode="normal" in2="BackgroundImageFix" result="effect1_dropShadow"/>
<feBlend mode="normal" in="SourceGraphic" in2="effect1_dropShadow" result="shape"/>
</filter>
<linearGradient id="paint0_linear" x1="497.999" y1="101" x2="498" y2="259" gradientUnits="userSpaceOnUse">
<stop stop-color="#E91E63"/>
<stop offset="1" stop-color="#282C34"/>
</linearGradient>
</defs>
</svg>
